G04 EAGLE Gerber RS-274X export*
G75*
%MOMM*%
%FSLAX34Y34*%
%LPD*%
%INTop Copper*%
%IPPOS*%
%AMOC8*
5,1,8,0,0,1.08239X$1,22.5*%
G01*
%ADD10C,1.879600*%
%ADD11C,2.445000*%
%ADD12C,1.398000*%
%ADD13C,1.530000*%
%ADD14R,1.200000X1.000000*%
%ADD15C,1.381000*%
%ADD16C,1.408000*%
%ADD17C,0.609600*%
%ADD18C,0.706400*%
%ADD19C,0.203200*%
%ADD20C,0.756400*%
%ADD21C,0.152400*%

G36*
X646022Y4164D02*
X646022Y4164D01*
X646060Y4163D01*
X647949Y4312D01*
X647955Y4313D01*
X647960Y4313D01*
X648125Y4347D01*
X651719Y5514D01*
X651750Y5531D01*
X651785Y5540D01*
X651931Y5623D01*
X654988Y7844D01*
X655013Y7869D01*
X655043Y7888D01*
X655156Y8012D01*
X657377Y11069D01*
X657394Y11101D01*
X657416Y11129D01*
X657486Y11281D01*
X658653Y14875D01*
X658654Y14881D01*
X658657Y14886D01*
X658688Y15051D01*
X658837Y16940D01*
X658835Y16962D01*
X658839Y17000D01*
X658839Y21239D01*
X658832Y21284D01*
X658834Y21330D01*
X658812Y21405D01*
X658800Y21482D01*
X658778Y21522D01*
X658765Y21567D01*
X658721Y21631D01*
X658684Y21699D01*
X658651Y21731D01*
X658625Y21769D01*
X658562Y21815D01*
X658506Y21869D01*
X658464Y21888D01*
X658428Y21915D01*
X658354Y21940D01*
X658283Y21972D01*
X658237Y21977D01*
X658194Y21992D01*
X658116Y21991D01*
X658039Y21999D01*
X657994Y21990D01*
X657948Y21989D01*
X657816Y21951D01*
X657798Y21947D01*
X657794Y21945D01*
X657787Y21942D01*
X652709Y19839D01*
X644291Y19839D01*
X636513Y23061D01*
X630561Y29013D01*
X627339Y36791D01*
X627339Y45209D01*
X628376Y47711D01*
X628398Y47806D01*
X628427Y47899D01*
X628426Y47925D01*
X628432Y47951D01*
X628423Y48048D01*
X628420Y48145D01*
X628411Y48170D01*
X628409Y48196D01*
X628369Y48285D01*
X628336Y48376D01*
X628319Y48397D01*
X628309Y48420D01*
X628243Y48492D01*
X628182Y48568D01*
X628160Y48582D01*
X628142Y48602D01*
X628057Y48649D01*
X627975Y48701D01*
X627950Y48708D01*
X627927Y48720D01*
X627831Y48738D01*
X627737Y48761D01*
X627711Y48759D01*
X627685Y48764D01*
X627588Y48750D01*
X627491Y48742D01*
X627467Y48732D01*
X627442Y48728D01*
X627354Y48684D01*
X627265Y48646D01*
X627240Y48625D01*
X627222Y48617D01*
X627199Y48593D01*
X627134Y48541D01*
X623764Y45171D01*
X623711Y45097D01*
X623651Y45027D01*
X623639Y44997D01*
X623620Y44971D01*
X623593Y44884D01*
X623559Y44799D01*
X623555Y44758D01*
X623548Y44736D01*
X623549Y44704D01*
X623541Y44632D01*
X623541Y29926D01*
X623555Y29836D01*
X623563Y29745D01*
X623575Y29715D01*
X623580Y29683D01*
X623623Y29602D01*
X623659Y29519D01*
X623685Y29486D01*
X623696Y29466D01*
X623719Y29444D01*
X623764Y29388D01*
X626057Y27095D01*
X626057Y22905D01*
X623095Y19943D01*
X618905Y19943D01*
X615943Y22905D01*
X615943Y27095D01*
X618236Y29388D01*
X618289Y29462D01*
X618349Y29531D01*
X618361Y29561D01*
X618380Y29587D01*
X618407Y29674D01*
X618441Y29759D01*
X618445Y29800D01*
X618452Y29822D01*
X618451Y29855D01*
X618459Y29926D01*
X618459Y47052D01*
X669948Y98541D01*
X820632Y98541D01*
X820722Y98555D01*
X820813Y98563D01*
X820843Y98575D01*
X820875Y98580D01*
X820956Y98623D01*
X821040Y98659D01*
X821072Y98685D01*
X821092Y98696D01*
X821106Y98710D01*
X821107Y98711D01*
X821118Y98721D01*
X821171Y98764D01*
X840720Y118313D01*
X840773Y118387D01*
X840833Y118457D01*
X840845Y118487D01*
X840864Y118513D01*
X840891Y118600D01*
X840925Y118685D01*
X840929Y118726D01*
X840936Y118748D01*
X840935Y118780D01*
X840943Y118852D01*
X840943Y122095D01*
X843905Y125057D01*
X848095Y125057D01*
X851057Y122095D01*
X851057Y117905D01*
X848095Y114943D01*
X844852Y114943D01*
X844762Y114929D01*
X844671Y114921D01*
X844641Y114909D01*
X844609Y114904D01*
X844528Y114861D01*
X844444Y114825D01*
X844412Y114799D01*
X844392Y114788D01*
X844369Y114765D01*
X844313Y114720D01*
X823052Y93459D01*
X672368Y93459D01*
X672278Y93445D01*
X672187Y93437D01*
X672157Y93425D01*
X672125Y93420D01*
X672044Y93377D01*
X671960Y93341D01*
X671928Y93315D01*
X671908Y93304D01*
X671885Y93281D01*
X671829Y93236D01*
X640959Y62366D01*
X640902Y62287D01*
X640840Y62212D01*
X640831Y62187D01*
X640815Y62166D01*
X640787Y62073D01*
X640752Y61982D01*
X640751Y61956D01*
X640743Y61931D01*
X640746Y61834D01*
X640741Y61736D01*
X640749Y61711D01*
X640749Y61685D01*
X640783Y61594D01*
X640810Y61500D01*
X640825Y61479D01*
X640834Y61454D01*
X640895Y61378D01*
X640950Y61298D01*
X640971Y61282D01*
X640988Y61262D01*
X641070Y61209D01*
X641148Y61151D01*
X641172Y61143D01*
X641195Y61129D01*
X641289Y61105D01*
X641382Y61075D01*
X641408Y61075D01*
X641433Y61069D01*
X641530Y61077D01*
X641627Y61078D01*
X641659Y61087D01*
X641678Y61088D01*
X641709Y61101D01*
X641789Y61124D01*
X644291Y62161D01*
X652709Y62161D01*
X657787Y60058D01*
X657831Y60047D01*
X657873Y60028D01*
X657950Y60019D01*
X658026Y60001D01*
X658072Y60006D01*
X658117Y60001D01*
X658194Y60017D01*
X658271Y60024D01*
X658313Y60043D01*
X658358Y60053D01*
X658425Y60093D01*
X658496Y60124D01*
X658530Y60156D01*
X658569Y60179D01*
X658620Y60238D01*
X658677Y60291D01*
X658699Y60331D01*
X658729Y60366D01*
X658758Y60438D01*
X658795Y60506D01*
X658804Y60552D01*
X658821Y60594D01*
X658836Y60730D01*
X658839Y60748D01*
X658838Y60753D01*
X658839Y60761D01*
X658839Y64209D01*
X662061Y71987D01*
X668013Y77939D01*
X675791Y81161D01*
X845000Y81161D01*
X845016Y81163D01*
X845043Y81162D01*
X850650Y81477D01*
X850681Y81484D01*
X850776Y81495D01*
X861709Y83990D01*
X861710Y83991D01*
X861712Y83991D01*
X861870Y84046D01*
X871973Y88912D01*
X871975Y88913D01*
X871976Y88913D01*
X872118Y89003D01*
X880885Y95994D01*
X880886Y95995D01*
X880887Y95996D01*
X881006Y96115D01*
X887997Y104882D01*
X887998Y104883D01*
X887999Y104884D01*
X888088Y105027D01*
X892954Y115130D01*
X892954Y115131D01*
X892955Y115132D01*
X893010Y115291D01*
X895505Y126224D01*
X895507Y126256D01*
X895523Y126350D01*
X895838Y131957D01*
X895836Y131974D01*
X895839Y132000D01*
X895839Y326021D01*
X897386Y329756D01*
X900244Y332614D01*
X903979Y334161D01*
X910799Y334161D01*
X910895Y334176D01*
X910992Y334186D01*
X911016Y334196D01*
X911042Y334200D01*
X911128Y334246D01*
X911217Y334286D01*
X911236Y334303D01*
X911259Y334316D01*
X911326Y334386D01*
X911398Y334452D01*
X911410Y334475D01*
X911428Y334494D01*
X911469Y334582D01*
X911516Y334668D01*
X911521Y334693D01*
X911532Y334717D01*
X911543Y334814D01*
X911560Y334910D01*
X911556Y334936D01*
X911559Y334961D01*
X911538Y335057D01*
X911524Y335153D01*
X911512Y335176D01*
X911507Y335202D01*
X911457Y335285D01*
X911413Y335372D01*
X911394Y335391D01*
X911381Y335413D01*
X911307Y335476D01*
X911237Y335544D01*
X911208Y335560D01*
X911194Y335573D01*
X911163Y335585D01*
X911090Y335625D01*
X910813Y335740D01*
X907740Y338813D01*
X906077Y342827D01*
X906077Y347173D01*
X907740Y351187D01*
X910813Y354260D01*
X914827Y355923D01*
X919173Y355923D01*
X923187Y354260D01*
X926260Y351187D01*
X927923Y347173D01*
X927923Y342827D01*
X926260Y338813D01*
X923187Y335740D01*
X922910Y335625D01*
X922827Y335574D01*
X922741Y335528D01*
X922723Y335509D01*
X922701Y335496D01*
X922639Y335421D01*
X922572Y335350D01*
X922561Y335326D01*
X922544Y335306D01*
X922509Y335215D01*
X922468Y335127D01*
X922465Y335101D01*
X922456Y335077D01*
X922452Y334979D01*
X922441Y334883D01*
X922446Y334857D01*
X922445Y334831D01*
X922473Y334737D01*
X922493Y334642D01*
X922507Y334620D01*
X922514Y334595D01*
X922569Y334515D01*
X922619Y334431D01*
X922639Y334414D01*
X922654Y334393D01*
X922732Y334334D01*
X922806Y334271D01*
X922831Y334261D01*
X922852Y334246D01*
X922944Y334216D01*
X923034Y334179D01*
X923067Y334176D01*
X923085Y334170D01*
X923118Y334170D01*
X923201Y334161D01*
X943000Y334161D01*
X943026Y334165D01*
X943075Y334164D01*
X943090Y334166D01*
X943117Y334173D01*
X943146Y334173D01*
X943221Y334196D01*
X943224Y334196D01*
X943229Y334198D01*
X943233Y334199D01*
X943243Y334200D01*
X943248Y334203D01*
X943307Y334220D01*
X943335Y334232D01*
X943391Y334266D01*
X943451Y334292D01*
X943512Y334341D01*
X943515Y334343D01*
X943517Y334345D01*
X943544Y334362D01*
X943556Y334376D01*
X943582Y334397D01*
X943603Y334418D01*
X943641Y334471D01*
X943687Y334518D01*
X943728Y334591D01*
X943747Y334618D01*
X943752Y334637D01*
X943768Y334665D01*
X943780Y334693D01*
X943786Y334721D01*
X943799Y334746D01*
X943815Y334818D01*
X943821Y334833D01*
X943824Y334863D01*
X943834Y334910D01*
X943836Y334925D01*
X943835Y334930D01*
X943836Y334933D01*
X943834Y334953D01*
X943839Y335000D01*
X943839Y543971D01*
X943837Y543983D01*
X943839Y543995D01*
X943818Y544104D01*
X943800Y544214D01*
X943794Y544224D01*
X943792Y544236D01*
X943736Y544333D01*
X943684Y544431D01*
X943676Y544439D01*
X943670Y544450D01*
X943587Y544524D01*
X943506Y544600D01*
X943495Y544606D01*
X943486Y544613D01*
X943384Y544657D01*
X943283Y544704D01*
X943271Y544705D01*
X943260Y544710D01*
X943149Y544719D01*
X943039Y544731D01*
X943027Y544729D01*
X943015Y544730D01*
X942907Y544703D01*
X942798Y544679D01*
X942788Y544673D01*
X942776Y544670D01*
X942631Y544587D01*
X941257Y543589D01*
X939583Y542736D01*
X937796Y542155D01*
X936523Y541954D01*
X936523Y553038D01*
X936521Y553051D01*
X936522Y553061D01*
X936521Y553067D01*
X936522Y553077D01*
X936500Y553179D01*
X936483Y553281D01*
X936474Y553298D01*
X936470Y553318D01*
X936417Y553407D01*
X936368Y553498D01*
X936354Y553512D01*
X936344Y553529D01*
X936265Y553596D01*
X936190Y553667D01*
X936172Y553676D01*
X936157Y553689D01*
X936061Y553727D01*
X935967Y553771D01*
X935947Y553773D01*
X935929Y553781D01*
X935762Y553799D01*
X934999Y553799D01*
X934999Y553801D01*
X935762Y553801D01*
X935782Y553804D01*
X935801Y553802D01*
X935903Y553824D01*
X936005Y553841D01*
X936022Y553850D01*
X936042Y553854D01*
X936131Y553907D01*
X936222Y553956D01*
X936236Y553970D01*
X936253Y553980D01*
X936320Y554059D01*
X936391Y554134D01*
X936400Y554152D01*
X936413Y554167D01*
X936452Y554263D01*
X936495Y554357D01*
X936497Y554377D01*
X936505Y554395D01*
X936523Y554562D01*
X936523Y565646D01*
X937796Y565445D01*
X939583Y564864D01*
X941257Y564011D01*
X942631Y563013D01*
X942641Y563008D01*
X942650Y563000D01*
X942751Y562952D01*
X942850Y562903D01*
X942862Y562901D01*
X942873Y562896D01*
X942984Y562884D01*
X943094Y562868D01*
X943106Y562870D01*
X943117Y562869D01*
X943226Y562892D01*
X943336Y562913D01*
X943346Y562918D01*
X943358Y562921D01*
X943454Y562978D01*
X943551Y563032D01*
X943559Y563041D01*
X943569Y563047D01*
X943641Y563132D01*
X943716Y563214D01*
X943721Y563225D01*
X943729Y563234D01*
X943771Y563338D01*
X943815Y563439D01*
X943816Y563451D01*
X943821Y563462D01*
X943839Y563629D01*
X943839Y569371D01*
X943837Y569383D01*
X943839Y569395D01*
X943818Y569504D01*
X943800Y569614D01*
X943794Y569624D01*
X943792Y569636D01*
X943737Y569733D01*
X943684Y569831D01*
X943676Y569839D01*
X943670Y569850D01*
X943587Y569924D01*
X943506Y570001D01*
X943495Y570006D01*
X943486Y570014D01*
X943384Y570057D01*
X943283Y570104D01*
X943271Y570105D01*
X943260Y570110D01*
X943149Y570119D01*
X943039Y570131D01*
X943027Y570129D01*
X943015Y570130D01*
X942907Y570103D01*
X942798Y570079D01*
X942788Y570073D01*
X942776Y570070D01*
X942631Y569987D01*
X941257Y568989D01*
X939583Y568136D01*
X937796Y567555D01*
X936523Y567354D01*
X936523Y578438D01*
X936520Y578458D01*
X936522Y578477D01*
X936500Y578579D01*
X936483Y578681D01*
X936474Y578698D01*
X936470Y578718D01*
X936417Y578807D01*
X936368Y578898D01*
X936354Y578912D01*
X936344Y578929D01*
X936265Y578996D01*
X936190Y579067D01*
X936172Y579076D01*
X936157Y579089D01*
X936061Y579127D01*
X935967Y579171D01*
X935947Y579173D01*
X935929Y579181D01*
X935762Y579199D01*
X934999Y579199D01*
X934999Y579201D01*
X935762Y579201D01*
X935782Y579204D01*
X935801Y579202D01*
X935903Y579224D01*
X936005Y579241D01*
X936022Y579250D01*
X936042Y579254D01*
X936131Y579307D01*
X936222Y579356D01*
X936236Y579370D01*
X936253Y579380D01*
X936320Y579459D01*
X936391Y579534D01*
X936400Y579552D01*
X936413Y579567D01*
X936452Y579663D01*
X936495Y579757D01*
X936497Y579777D01*
X936505Y579795D01*
X936523Y579962D01*
X936523Y591046D01*
X937796Y590845D01*
X939583Y590264D01*
X941257Y589411D01*
X942631Y588413D01*
X942641Y588408D01*
X942650Y588399D01*
X942751Y588353D01*
X942850Y588303D01*
X942862Y588301D01*
X942873Y588296D01*
X942984Y588284D01*
X943094Y588268D01*
X943106Y588270D01*
X943117Y588269D01*
X943226Y588292D01*
X943336Y588313D01*
X943346Y588318D01*
X943358Y588321D01*
X943453Y588378D01*
X943551Y588432D01*
X943559Y588441D01*
X943569Y588447D01*
X943641Y588532D01*
X943716Y588614D01*
X943721Y588625D01*
X943729Y588634D01*
X943771Y588738D01*
X943815Y588839D01*
X943816Y588851D01*
X943821Y588862D01*
X943839Y589029D01*
X943839Y596154D01*
X943828Y596225D01*
X943826Y596297D01*
X943808Y596346D01*
X943800Y596397D01*
X943766Y596460D01*
X943741Y596528D01*
X943709Y596568D01*
X943684Y596615D01*
X943632Y596664D01*
X943588Y596720D01*
X943544Y596748D01*
X943506Y596784D01*
X943441Y596814D01*
X943381Y596853D01*
X943330Y596866D01*
X943283Y596888D01*
X943212Y596895D01*
X943142Y596913D01*
X943090Y596909D01*
X943039Y596915D01*
X942968Y596899D01*
X942897Y596894D01*
X942849Y596873D01*
X942798Y596862D01*
X942737Y596826D01*
X942671Y596797D01*
X942615Y596753D01*
X942587Y596736D01*
X942572Y596718D01*
X942540Y596693D01*
X941187Y595340D01*
X937173Y593677D01*
X932827Y593677D01*
X928813Y595340D01*
X925740Y598413D01*
X924077Y602427D01*
X924077Y606773D01*
X925740Y610787D01*
X928813Y613860D01*
X932827Y615523D01*
X937173Y615523D01*
X941187Y613860D01*
X942540Y612507D01*
X942598Y612465D01*
X942650Y612416D01*
X942697Y612394D01*
X942739Y612364D01*
X942808Y612343D01*
X942873Y612312D01*
X942925Y612307D01*
X942975Y612291D01*
X943046Y612293D01*
X943117Y612285D01*
X943168Y612296D01*
X943220Y612298D01*
X943288Y612322D01*
X943358Y612338D01*
X943403Y612364D01*
X943451Y612382D01*
X943507Y612427D01*
X943569Y612464D01*
X943603Y612503D01*
X943643Y612536D01*
X943682Y612596D01*
X943729Y612651D01*
X943748Y612699D01*
X943776Y612743D01*
X943794Y612812D01*
X943821Y612879D01*
X943829Y612950D01*
X943837Y612981D01*
X943835Y613005D01*
X943839Y613046D01*
X943839Y621554D01*
X943837Y621566D01*
X943838Y621574D01*
X943829Y621614D01*
X943828Y621625D01*
X943826Y621697D01*
X943808Y621746D01*
X943800Y621797D01*
X943766Y621860D01*
X943741Y621928D01*
X943709Y621968D01*
X943684Y622015D01*
X943632Y622064D01*
X943588Y622120D01*
X943544Y622148D01*
X943506Y622184D01*
X943441Y622214D01*
X943381Y622253D01*
X943330Y622266D01*
X943283Y622288D01*
X943212Y622295D01*
X943142Y622313D01*
X943090Y622309D01*
X943039Y622315D01*
X942968Y622299D01*
X942897Y622294D01*
X942849Y622273D01*
X942798Y622262D01*
X942737Y622226D01*
X942671Y622197D01*
X942615Y622153D01*
X942587Y622136D01*
X942572Y622118D01*
X942540Y622093D01*
X941187Y620740D01*
X937173Y619077D01*
X932827Y619077D01*
X928813Y620740D01*
X925740Y623813D01*
X924077Y627827D01*
X924077Y632173D01*
X925740Y636187D01*
X928813Y639260D01*
X932827Y640923D01*
X937173Y640923D01*
X941187Y639260D01*
X942540Y637907D01*
X942598Y637865D01*
X942650Y637816D01*
X942697Y637794D01*
X942739Y637764D01*
X942808Y637743D01*
X942873Y637712D01*
X942925Y637707D01*
X942975Y637691D01*
X943046Y637693D01*
X943117Y637685D01*
X943168Y637696D01*
X943220Y637698D01*
X943288Y637722D01*
X943358Y637738D01*
X943403Y637764D01*
X943451Y637782D01*
X943507Y637827D01*
X943569Y637864D01*
X943603Y637903D01*
X943643Y637936D01*
X943682Y637996D01*
X943729Y638051D01*
X943748Y638099D01*
X943776Y638143D01*
X943794Y638212D01*
X943821Y638279D01*
X943829Y638350D01*
X943837Y638381D01*
X943835Y638405D01*
X943839Y638446D01*
X943839Y806000D01*
X943835Y806026D01*
X943836Y806075D01*
X943834Y806090D01*
X943827Y806117D01*
X943827Y806146D01*
X943804Y806221D01*
X943804Y806224D01*
X943802Y806229D01*
X943801Y806233D01*
X943800Y806243D01*
X943797Y806248D01*
X943780Y806307D01*
X943768Y806335D01*
X943734Y806391D01*
X943708Y806451D01*
X943659Y806512D01*
X943657Y806515D01*
X943655Y806517D01*
X943638Y806544D01*
X943624Y806556D01*
X943603Y806582D01*
X943582Y806603D01*
X943529Y806641D01*
X943482Y806687D01*
X943409Y806728D01*
X943382Y806747D01*
X943363Y806752D01*
X943335Y806768D01*
X943307Y806780D01*
X943279Y806786D01*
X943254Y806799D01*
X943182Y806815D01*
X943167Y806821D01*
X943137Y806824D01*
X943090Y806834D01*
X943075Y806836D01*
X943070Y806835D01*
X943067Y806836D01*
X943047Y806834D01*
X943000Y806839D01*
X781000Y806839D01*
X780974Y806835D01*
X780925Y806836D01*
X780910Y806834D01*
X780883Y806827D01*
X780854Y806827D01*
X780779Y806804D01*
X780776Y806804D01*
X780771Y806802D01*
X780767Y806801D01*
X780757Y806800D01*
X780752Y806797D01*
X780693Y806780D01*
X780665Y806768D01*
X780609Y806734D01*
X780549Y806708D01*
X780488Y806659D01*
X780485Y806657D01*
X780483Y806655D01*
X780456Y806638D01*
X780444Y806624D01*
X780418Y806603D01*
X780397Y806582D01*
X780359Y806529D01*
X780313Y806482D01*
X780272Y806409D01*
X780253Y806382D01*
X780248Y806363D01*
X780232Y806335D01*
X780220Y806307D01*
X780214Y806279D01*
X780201Y806254D01*
X780185Y806182D01*
X780179Y806167D01*
X780176Y806137D01*
X780166Y806090D01*
X780164Y806075D01*
X780165Y806070D01*
X780164Y806067D01*
X780166Y806047D01*
X780161Y806000D01*
X780161Y781832D01*
X780172Y781762D01*
X780174Y781690D01*
X780192Y781641D01*
X780200Y781590D01*
X780234Y781526D01*
X780259Y781459D01*
X780291Y781418D01*
X780316Y781372D01*
X780367Y781323D01*
X780412Y781267D01*
X780456Y781239D01*
X780494Y781203D01*
X780559Y781173D01*
X780619Y781134D01*
X780670Y781121D01*
X780717Y781099D01*
X780788Y781091D01*
X780858Y781074D01*
X780910Y781078D01*
X780961Y781072D01*
X781032Y781087D01*
X781103Y781093D01*
X781151Y781113D01*
X781202Y781124D01*
X781263Y781161D01*
X781329Y781189D01*
X781385Y781234D01*
X781413Y781251D01*
X781428Y781268D01*
X781460Y781294D01*
X784733Y784567D01*
X784801Y784662D01*
X784871Y784756D01*
X784873Y784762D01*
X784877Y784767D01*
X784911Y784878D01*
X784947Y784990D01*
X784947Y784996D01*
X784949Y785002D01*
X784946Y785119D01*
X784945Y785236D01*
X784943Y785243D01*
X784943Y785248D01*
X784936Y785265D01*
X784898Y785397D01*
X783477Y788827D01*
X783477Y793173D01*
X785140Y797187D01*
X788213Y800260D01*
X792227Y801923D01*
X796573Y801923D01*
X800587Y800260D01*
X803660Y797187D01*
X805323Y793173D01*
X805323Y788827D01*
X803660Y784813D01*
X800587Y781740D01*
X796573Y780077D01*
X792227Y780077D01*
X788797Y781498D01*
X788683Y781525D01*
X788570Y781554D01*
X788563Y781553D01*
X788557Y781554D01*
X788441Y781543D01*
X788324Y781534D01*
X788319Y781532D01*
X788312Y781531D01*
X788205Y781484D01*
X788098Y781438D01*
X788092Y781433D01*
X788088Y781431D01*
X788074Y781419D01*
X787967Y781333D01*
X783510Y776876D01*
X783457Y776802D01*
X783397Y776732D01*
X783385Y776702D01*
X783366Y776676D01*
X783339Y776589D01*
X783305Y776504D01*
X783301Y776463D01*
X783294Y776441D01*
X783295Y776409D01*
X783287Y776338D01*
X783287Y771140D01*
X783302Y771044D01*
X783312Y770947D01*
X783322Y770923D01*
X783326Y770897D01*
X783372Y770811D01*
X783412Y770722D01*
X783429Y770703D01*
X783442Y770680D01*
X783512Y770613D01*
X783578Y770541D01*
X783601Y770528D01*
X783620Y770510D01*
X783708Y770469D01*
X783794Y770422D01*
X783819Y770418D01*
X783843Y770407D01*
X783940Y770396D01*
X784036Y770379D01*
X784062Y770382D01*
X784087Y770379D01*
X784182Y770400D01*
X784279Y770414D01*
X784302Y770426D01*
X784328Y770432D01*
X784412Y770482D01*
X784498Y770526D01*
X784516Y770544D01*
X784539Y770558D01*
X784602Y770632D01*
X784670Y770701D01*
X784686Y770730D01*
X784699Y770745D01*
X784711Y770776D01*
X784751Y770848D01*
X785140Y771787D01*
X788213Y774860D01*
X792227Y776523D01*
X796573Y776523D01*
X800587Y774860D01*
X803660Y771787D01*
X804365Y770085D01*
X804416Y770002D01*
X804462Y769917D01*
X804480Y769899D01*
X804494Y769876D01*
X804570Y769814D01*
X804640Y769747D01*
X804664Y769736D01*
X804684Y769720D01*
X804775Y769685D01*
X804863Y769644D01*
X804889Y769641D01*
X804913Y769631D01*
X805011Y769627D01*
X805107Y769617D01*
X805133Y769622D01*
X805159Y769621D01*
X805253Y769648D01*
X805348Y769669D01*
X805370Y769682D01*
X805395Y769690D01*
X805475Y769745D01*
X805559Y769795D01*
X805576Y769815D01*
X805597Y769830D01*
X805656Y769908D01*
X805719Y769982D01*
X805729Y770006D01*
X805744Y770027D01*
X805774Y770120D01*
X805811Y770210D01*
X805814Y770243D01*
X805820Y770261D01*
X805820Y770294D01*
X805829Y770377D01*
X805829Y772063D01*
X814146Y780380D01*
X814173Y780417D01*
X814207Y780448D01*
X814244Y780517D01*
X814290Y780580D01*
X814303Y780624D01*
X814325Y780664D01*
X814339Y780740D01*
X814362Y780815D01*
X814361Y780861D01*
X814369Y780906D01*
X814358Y780983D01*
X814356Y781061D01*
X814340Y781104D01*
X814333Y781149D01*
X814298Y781219D01*
X814271Y781292D01*
X814242Y781328D01*
X814222Y781368D01*
X814166Y781423D01*
X814117Y781484D01*
X814079Y781509D01*
X814046Y781541D01*
X813926Y781607D01*
X813911Y781617D01*
X813906Y781618D01*
X813899Y781622D01*
X813613Y781740D01*
X810540Y784813D01*
X808877Y788827D01*
X808877Y793173D01*
X810540Y797187D01*
X813613Y800260D01*
X817627Y801923D01*
X821973Y801923D01*
X825987Y800260D01*
X829060Y797187D01*
X830723Y793173D01*
X830723Y788827D01*
X829060Y784813D01*
X825987Y781740D01*
X821973Y780077D01*
X820627Y780077D01*
X820536Y780063D01*
X820446Y780055D01*
X820416Y780043D01*
X820384Y780038D01*
X820303Y779995D01*
X820219Y779959D01*
X820187Y779933D01*
X820166Y779922D01*
X820144Y779899D01*
X820088Y779854D01*
X818056Y777822D01*
X818014Y777764D01*
X817965Y777712D01*
X817943Y777665D01*
X817913Y777623D01*
X817892Y777554D01*
X817861Y777489D01*
X817856Y777437D01*
X817840Y777387D01*
X817842Y777316D01*
X817834Y777245D01*
X817845Y777194D01*
X817847Y777142D01*
X817871Y777074D01*
X817886Y777004D01*
X817913Y776959D01*
X817931Y776911D01*
X817976Y776855D01*
X818013Y776793D01*
X818052Y776759D01*
X818085Y776719D01*
X818145Y776680D01*
X818200Y776633D01*
X818248Y776614D01*
X818292Y776586D01*
X818361Y776568D01*
X818428Y776541D01*
X818499Y776533D01*
X818530Y776525D01*
X818554Y776527D01*
X818594Y776523D01*
X821973Y776523D01*
X825987Y774860D01*
X829060Y771787D01*
X829765Y770086D01*
X829816Y770003D01*
X829862Y769917D01*
X829881Y769899D01*
X829894Y769876D01*
X829969Y769814D01*
X830040Y769747D01*
X830064Y769736D01*
X830084Y769720D01*
X830175Y769685D01*
X830263Y769644D01*
X830289Y769641D01*
X830313Y769631D01*
X830411Y769627D01*
X830507Y769617D01*
X830533Y769622D01*
X830559Y769621D01*
X830653Y769648D01*
X830748Y769669D01*
X830770Y769682D01*
X830795Y769690D01*
X830875Y769745D01*
X830959Y769795D01*
X830976Y769815D01*
X830997Y769830D01*
X831056Y769908D01*
X831119Y769982D01*
X831129Y770006D01*
X831144Y770027D01*
X831174Y770120D01*
X831211Y770210D01*
X831214Y770243D01*
X831220Y770261D01*
X831220Y770294D01*
X831229Y770377D01*
X831229Y771387D01*
X832792Y772949D01*
X840024Y780182D01*
X840051Y780219D01*
X840085Y780250D01*
X840122Y780318D01*
X840168Y780382D01*
X840181Y780425D01*
X840203Y780466D01*
X840217Y780542D01*
X840240Y780617D01*
X840239Y780663D01*
X840247Y780708D01*
X840236Y780785D01*
X840234Y780863D01*
X840218Y780906D01*
X840211Y780951D01*
X840176Y781021D01*
X840149Y781094D01*
X840121Y781129D01*
X840100Y781170D01*
X840044Y781225D01*
X839996Y781286D01*
X839957Y781310D01*
X839924Y781343D01*
X839804Y781409D01*
X839789Y781419D01*
X839784Y781420D01*
X839777Y781423D01*
X839013Y781740D01*
X835940Y784813D01*
X834277Y788827D01*
X834277Y793173D01*
X835940Y797187D01*
X839013Y800260D01*
X843027Y801923D01*
X847373Y801923D01*
X851387Y800260D01*
X854460Y797187D01*
X856123Y793173D01*
X856123Y788827D01*
X854460Y784813D01*
X851387Y781740D01*
X847373Y780077D01*
X846703Y780077D01*
X846613Y780063D01*
X846522Y780055D01*
X846492Y780043D01*
X846460Y780038D01*
X846379Y779995D01*
X846295Y779959D01*
X846263Y779933D01*
X846243Y779922D01*
X846220Y779899D01*
X846165Y779854D01*
X844132Y777822D01*
X844091Y777764D01*
X844041Y777712D01*
X844019Y777665D01*
X843989Y777623D01*
X843968Y777554D01*
X843938Y777489D01*
X843932Y777437D01*
X843917Y777387D01*
X843918Y777316D01*
X843911Y777245D01*
X843922Y777194D01*
X843923Y777142D01*
X843948Y777074D01*
X843963Y777004D01*
X843989Y776960D01*
X844007Y776911D01*
X844052Y776855D01*
X844089Y776793D01*
X844129Y776759D01*
X844161Y776719D01*
X844221Y776680D01*
X844276Y776633D01*
X844324Y776614D01*
X844368Y776586D01*
X844437Y776568D01*
X844504Y776541D01*
X844575Y776533D01*
X844607Y776525D01*
X844630Y776527D01*
X844671Y776523D01*
X847373Y776523D01*
X851387Y774860D01*
X854460Y771787D01*
X855165Y770086D01*
X855216Y770003D01*
X855262Y769917D01*
X855281Y769899D01*
X855294Y769876D01*
X855369Y769814D01*
X855440Y769747D01*
X855464Y769736D01*
X855484Y769720D01*
X855575Y769685D01*
X855663Y769644D01*
X855689Y769641D01*
X855713Y769631D01*
X855811Y769627D01*
X855907Y769617D01*
X855933Y769622D01*
X855959Y769621D01*
X856053Y769648D01*
X856148Y769669D01*
X856170Y769682D01*
X856195Y769690D01*
X856275Y769745D01*
X856359Y769795D01*
X856376Y769815D01*
X856397Y769830D01*
X856456Y769908D01*
X856519Y769982D01*
X856529Y770006D01*
X856544Y770027D01*
X856574Y770120D01*
X856611Y770210D01*
X856614Y770243D01*
X856620Y770261D01*
X856620Y770294D01*
X856629Y770377D01*
X856629Y771387D01*
X865424Y780182D01*
X865451Y780219D01*
X865485Y780250D01*
X865522Y780319D01*
X865568Y780382D01*
X865581Y780425D01*
X865603Y780466D01*
X865617Y780542D01*
X865640Y780617D01*
X865639Y780663D01*
X865647Y780708D01*
X865636Y780785D01*
X865634Y780863D01*
X865618Y780906D01*
X865611Y780951D01*
X865576Y781020D01*
X865549Y781094D01*
X865521Y781129D01*
X865500Y781170D01*
X865444Y781225D01*
X865396Y781286D01*
X865357Y781310D01*
X865324Y781343D01*
X865204Y781409D01*
X865189Y781419D01*
X865184Y781420D01*
X865177Y781423D01*
X864413Y781740D01*
X861340Y784813D01*
X859677Y788827D01*
X859677Y793173D01*
X861340Y797187D01*
X864413Y800260D01*
X868427Y801923D01*
X872773Y801923D01*
X876787Y800260D01*
X879860Y797187D01*
X881523Y793173D01*
X881523Y788827D01*
X879860Y784813D01*
X876787Y781740D01*
X872773Y780077D01*
X872103Y780077D01*
X872013Y780063D01*
X871922Y780055D01*
X871892Y780043D01*
X871860Y780038D01*
X871780Y779995D01*
X871696Y779959D01*
X871663Y779933D01*
X871643Y779922D01*
X871621Y779899D01*
X871565Y779854D01*
X869532Y777822D01*
X869491Y777764D01*
X869441Y777712D01*
X869419Y777665D01*
X869389Y777623D01*
X869368Y777554D01*
X869338Y777489D01*
X869332Y777437D01*
X869317Y777387D01*
X869318Y777316D01*
X869311Y777245D01*
X869322Y777194D01*
X869323Y777142D01*
X869348Y777074D01*
X869363Y777004D01*
X869390Y776959D01*
X869407Y776911D01*
X869452Y776855D01*
X869489Y776793D01*
X869529Y776759D01*
X869561Y776719D01*
X869621Y776680D01*
X869676Y776633D01*
X869724Y776614D01*
X869768Y776586D01*
X869837Y776568D01*
X869904Y776541D01*
X869975Y776533D01*
X870007Y776525D01*
X870030Y776527D01*
X870071Y776523D01*
X872773Y776523D01*
X876787Y774860D01*
X879860Y771787D01*
X881523Y767773D01*
X881523Y763427D01*
X879860Y759413D01*
X876787Y756340D01*
X872773Y754677D01*
X869980Y754677D01*
X869960Y754674D01*
X869941Y754676D01*
X869839Y754654D01*
X869737Y754638D01*
X869720Y754628D01*
X869700Y754624D01*
X869611Y754571D01*
X869520Y754522D01*
X869506Y754508D01*
X869489Y754498D01*
X869422Y754419D01*
X869350Y754344D01*
X869342Y754326D01*
X869329Y754311D01*
X869290Y754215D01*
X869247Y754121D01*
X869245Y754101D01*
X869237Y754083D01*
X869219Y753916D01*
X869219Y733551D01*
X843558Y707890D01*
X843505Y707816D01*
X843445Y707746D01*
X843433Y707716D01*
X843414Y707690D01*
X843387Y707603D01*
X843353Y707518D01*
X843349Y707477D01*
X843342Y707455D01*
X843343Y707423D01*
X843335Y707351D01*
X843335Y204790D01*
X809210Y170665D01*
X517442Y170665D01*
X517352Y170651D01*
X517261Y170643D01*
X517232Y170631D01*
X517200Y170626D01*
X517119Y170583D01*
X517035Y170547D01*
X517003Y170521D01*
X516982Y170510D01*
X516960Y170487D01*
X516904Y170442D01*
X512920Y166458D01*
X511357Y164895D01*
X504372Y164895D01*
X502810Y166458D01*
X502809Y166458D01*
X501424Y167843D01*
X501408Y167854D01*
X501396Y167870D01*
X501308Y167926D01*
X501225Y167986D01*
X501206Y167992D01*
X501189Y168003D01*
X501088Y168028D01*
X500990Y168059D01*
X500970Y168058D01*
X500950Y168063D01*
X500847Y168055D01*
X500744Y168052D01*
X500725Y168046D01*
X500705Y168044D01*
X500610Y168004D01*
X500513Y167968D01*
X500497Y167955D01*
X500479Y167948D01*
X500348Y167843D01*
X499449Y166944D01*
X495052Y166944D01*
X491944Y170052D01*
X491944Y174449D01*
X495052Y177557D01*
X499449Y177557D01*
X501889Y175117D01*
X501905Y175105D01*
X501918Y175090D01*
X502005Y175034D01*
X502089Y174973D01*
X502108Y174968D01*
X502125Y174957D01*
X502225Y174931D01*
X502324Y174901D01*
X502344Y174902D01*
X502363Y174897D01*
X502466Y174905D01*
X502570Y174907D01*
X502589Y174914D01*
X502608Y174916D01*
X502703Y174956D01*
X502801Y174992D01*
X502816Y175004D01*
X502835Y175012D01*
X502966Y175117D01*
X505905Y178057D01*
X509507Y178057D01*
X509598Y178071D01*
X509688Y178079D01*
X509718Y178091D01*
X509750Y178096D01*
X509831Y178139D01*
X509915Y178175D01*
X509947Y178201D01*
X509968Y178212D01*
X509990Y178235D01*
X510046Y178280D01*
X510053Y178287D01*
X805737Y178287D01*
X805828Y178301D01*
X805918Y178309D01*
X805948Y178321D01*
X805980Y178326D01*
X806061Y178369D01*
X806145Y178405D01*
X806177Y178431D01*
X806198Y178442D01*
X806220Y178465D01*
X806276Y178510D01*
X835490Y207724D01*
X835543Y207798D01*
X835603Y207868D01*
X835615Y207898D01*
X835634Y207924D01*
X835661Y208011D01*
X835695Y208096D01*
X835699Y208137D01*
X835706Y208159D01*
X835705Y208191D01*
X835713Y208263D01*
X835713Y710824D01*
X861374Y736485D01*
X861427Y736558D01*
X861487Y736628D01*
X861499Y736658D01*
X861518Y736684D01*
X861545Y736771D01*
X861579Y736856D01*
X861583Y736897D01*
X861590Y736919D01*
X861589Y736952D01*
X861597Y737023D01*
X861597Y754530D01*
X861583Y754620D01*
X861575Y754711D01*
X861563Y754741D01*
X861558Y754773D01*
X861515Y754853D01*
X861479Y754937D01*
X861453Y754969D01*
X861442Y754990D01*
X861419Y755012D01*
X861374Y755068D01*
X856629Y759813D01*
X856629Y760823D01*
X856614Y760919D01*
X856604Y761016D01*
X856594Y761040D01*
X856590Y761066D01*
X856544Y761152D01*
X856504Y761241D01*
X856487Y761260D01*
X856474Y761283D01*
X856404Y761350D01*
X856338Y761422D01*
X856315Y761435D01*
X856296Y761453D01*
X856208Y761494D01*
X856122Y761541D01*
X856097Y761545D01*
X856073Y761556D01*
X855976Y761567D01*
X855880Y761584D01*
X855854Y761581D01*
X855829Y761583D01*
X855733Y761563D01*
X855637Y761549D01*
X855614Y761537D01*
X855588Y761531D01*
X855505Y761481D01*
X855418Y761437D01*
X855399Y761418D01*
X855377Y761405D01*
X855314Y761331D01*
X855246Y761261D01*
X855230Y761233D01*
X855217Y761218D01*
X855205Y761187D01*
X855165Y761114D01*
X854460Y759413D01*
X851387Y756340D01*
X847373Y754677D01*
X843248Y754677D01*
X843228Y754674D01*
X843209Y754676D01*
X843107Y754654D01*
X843005Y754638D01*
X842988Y754628D01*
X842968Y754624D01*
X842879Y754571D01*
X842788Y754522D01*
X842774Y754508D01*
X842757Y754498D01*
X842690Y754419D01*
X842618Y754344D01*
X842610Y754326D01*
X842597Y754311D01*
X842558Y754215D01*
X842515Y754121D01*
X842513Y754101D01*
X842505Y754083D01*
X842487Y753916D01*
X842487Y744653D01*
X826510Y728676D01*
X826457Y728602D01*
X826397Y728532D01*
X826385Y728502D01*
X826366Y728476D01*
X826339Y728389D01*
X826305Y728304D01*
X826301Y728263D01*
X826294Y728241D01*
X826295Y728209D01*
X826287Y728137D01*
X826287Y207053D01*
X801899Y182665D01*
X489525Y182665D01*
X489435Y182651D01*
X489344Y182643D01*
X489314Y182631D01*
X489282Y182626D01*
X489202Y182583D01*
X489118Y182547D01*
X489086Y182521D01*
X489065Y182510D01*
X489043Y182487D01*
X488987Y182442D01*
X437282Y130737D01*
X409711Y130737D01*
X408148Y132300D01*
X396475Y143973D01*
X396380Y144041D01*
X396286Y144111D01*
X396280Y144113D01*
X396275Y144117D01*
X396164Y144151D01*
X396052Y144187D01*
X396046Y144187D01*
X396040Y144189D01*
X395923Y144186D01*
X395806Y144185D01*
X395799Y144183D01*
X395794Y144183D01*
X395777Y144176D01*
X395645Y144138D01*
X394794Y143785D01*
X391406Y143785D01*
X388277Y145082D01*
X385882Y147477D01*
X384585Y150606D01*
X384585Y153994D01*
X385882Y157123D01*
X386748Y157990D01*
X386790Y158048D01*
X386839Y158100D01*
X386861Y158147D01*
X386892Y158189D01*
X386913Y158258D01*
X386943Y158323D01*
X386949Y158375D01*
X386964Y158425D01*
X386962Y158496D01*
X386970Y158567D01*
X386959Y158618D01*
X386958Y158670D01*
X386933Y158738D01*
X386918Y158808D01*
X386891Y158853D01*
X386873Y158901D01*
X386828Y158957D01*
X386792Y159019D01*
X386752Y159053D01*
X386719Y159093D01*
X386659Y159132D01*
X386605Y159179D01*
X386556Y159198D01*
X386513Y159226D01*
X386443Y159244D01*
X386377Y159271D01*
X386305Y159279D01*
X386274Y159287D01*
X386251Y159285D01*
X386210Y159289D01*
X378459Y159289D01*
X363801Y173947D01*
X363764Y173974D01*
X363733Y174007D01*
X363664Y174045D01*
X363601Y174090D01*
X363557Y174104D01*
X363517Y174126D01*
X363440Y174140D01*
X363366Y174163D01*
X363320Y174162D01*
X363275Y174170D01*
X363198Y174158D01*
X363120Y174156D01*
X363077Y174141D01*
X363032Y174134D01*
X362962Y174099D01*
X362889Y174072D01*
X362853Y174043D01*
X362812Y174022D01*
X362758Y173967D01*
X362697Y173918D01*
X362672Y173880D01*
X362640Y173847D01*
X362574Y173727D01*
X362564Y173711D01*
X362563Y173706D01*
X362559Y173700D01*
X362218Y172877D01*
X359823Y170482D01*
X356694Y169185D01*
X353306Y169185D01*
X350177Y170482D01*
X347782Y172877D01*
X346485Y176006D01*
X346485Y179394D01*
X347782Y182523D01*
X350177Y184918D01*
X353306Y186215D01*
X356694Y186215D01*
X359823Y184918D01*
X362218Y182523D01*
X363074Y180457D01*
X363136Y180357D01*
X363196Y180257D01*
X363201Y180253D01*
X363204Y180248D01*
X363294Y180173D01*
X363383Y180097D01*
X363389Y180095D01*
X363394Y180091D01*
X363502Y180049D01*
X363611Y180005D01*
X363619Y180004D01*
X363623Y180003D01*
X363641Y180002D01*
X363778Y179987D01*
X364229Y179987D01*
X371778Y172437D01*
X371858Y172380D01*
X371933Y172318D01*
X371957Y172309D01*
X371978Y172294D01*
X372071Y172265D01*
X372162Y172230D01*
X372188Y172229D01*
X372213Y172221D01*
X372311Y172224D01*
X372408Y172220D01*
X372433Y172227D01*
X372459Y172228D01*
X372551Y172261D01*
X372644Y172288D01*
X372666Y172303D01*
X372690Y172312D01*
X372766Y172373D01*
X372846Y172429D01*
X372862Y172450D01*
X372882Y172466D01*
X372935Y172548D01*
X372993Y172626D01*
X373001Y172651D01*
X373015Y172673D01*
X373039Y172767D01*
X373069Y172860D01*
X373069Y172886D01*
X373075Y172911D01*
X373068Y173008D01*
X373067Y173106D01*
X373058Y173137D01*
X373056Y173157D01*
X373043Y173187D01*
X373020Y173267D01*
X371885Y176006D01*
X371885Y179394D01*
X373182Y182523D01*
X375577Y184918D01*
X378706Y186215D01*
X382094Y186215D01*
X385223Y184918D01*
X387618Y182523D01*
X388915Y179394D01*
X388915Y176006D01*
X387618Y172877D01*
X385223Y170482D01*
X382094Y169185D01*
X378706Y169185D01*
X375967Y170320D01*
X375872Y170342D01*
X375779Y170371D01*
X375753Y170370D01*
X375727Y170376D01*
X375631Y170367D01*
X375533Y170365D01*
X375509Y170356D01*
X375482Y170353D01*
X375393Y170313D01*
X375302Y170280D01*
X375282Y170264D01*
X375258Y170253D01*
X375186Y170187D01*
X375110Y170126D01*
X375096Y170104D01*
X375077Y170087D01*
X375030Y170001D01*
X374977Y169919D01*
X374971Y169894D01*
X374958Y169871D01*
X374941Y169775D01*
X374917Y169681D01*
X374919Y169655D01*
X374914Y169629D01*
X374929Y169532D01*
X374936Y169436D01*
X374946Y169412D01*
X374950Y169386D01*
X374994Y169299D01*
X375032Y169209D01*
X375053Y169184D01*
X375062Y169167D01*
X375085Y169143D01*
X375137Y169078D01*
X380130Y164086D01*
X380204Y164033D01*
X380273Y163973D01*
X380303Y163961D01*
X380330Y163942D01*
X380417Y163915D01*
X380502Y163881D01*
X380542Y163877D01*
X380565Y163870D01*
X380597Y163871D01*
X380668Y163863D01*
X397889Y163863D01*
X399452Y162300D01*
X404746Y157006D01*
X404746Y146803D01*
X404761Y146713D01*
X404768Y146622D01*
X404780Y146593D01*
X404786Y146561D01*
X404828Y146480D01*
X404864Y146396D01*
X404890Y146364D01*
X404901Y146343D01*
X404924Y146321D01*
X404969Y146265D01*
X412652Y138582D01*
X412726Y138529D01*
X412796Y138469D01*
X412826Y138457D01*
X412852Y138438D01*
X412939Y138411D01*
X413024Y138377D01*
X413065Y138373D01*
X413087Y138366D01*
X413119Y138367D01*
X413191Y138359D01*
X433809Y138359D01*
X433900Y138373D01*
X433990Y138381D01*
X434020Y138393D01*
X434052Y138398D01*
X434133Y138441D01*
X434217Y138477D01*
X434249Y138503D01*
X434270Y138514D01*
X434292Y138537D01*
X434348Y138582D01*
X484490Y188724D01*
X486053Y190287D01*
X798427Y190287D01*
X798517Y190301D01*
X798608Y190309D01*
X798638Y190321D01*
X798670Y190326D01*
X798750Y190369D01*
X798834Y190405D01*
X798866Y190431D01*
X798887Y190442D01*
X798909Y190465D01*
X798965Y190510D01*
X818442Y209987D01*
X818495Y210061D01*
X818555Y210130D01*
X818567Y210160D01*
X818586Y210187D01*
X818613Y210273D01*
X818647Y210358D01*
X818651Y210399D01*
X818658Y210422D01*
X818657Y210454D01*
X818665Y210525D01*
X818665Y731610D01*
X834642Y747587D01*
X834695Y747661D01*
X834755Y747730D01*
X834767Y747760D01*
X834786Y747787D01*
X834813Y747873D01*
X834847Y747958D01*
X834851Y747999D01*
X834858Y748022D01*
X834857Y748054D01*
X834865Y748125D01*
X834865Y755862D01*
X834851Y755952D01*
X834843Y756043D01*
X834831Y756073D01*
X834826Y756105D01*
X834783Y756185D01*
X834747Y756269D01*
X834721Y756301D01*
X834710Y756322D01*
X834687Y756344D01*
X834642Y756400D01*
X831229Y759813D01*
X831229Y760823D01*
X831214Y760919D01*
X831204Y761016D01*
X831194Y761040D01*
X831190Y761066D01*
X831144Y761152D01*
X831104Y761241D01*
X831087Y761260D01*
X831074Y761283D01*
X831004Y761350D01*
X830938Y761422D01*
X830915Y761435D01*
X830896Y761453D01*
X830808Y761494D01*
X830722Y761541D01*
X830697Y761545D01*
X830673Y761556D01*
X830576Y761567D01*
X830480Y761584D01*
X830454Y761581D01*
X830429Y761583D01*
X830333Y761563D01*
X830237Y761549D01*
X830214Y761537D01*
X830188Y761531D01*
X830105Y761481D01*
X830018Y761437D01*
X829999Y761418D01*
X829977Y761405D01*
X829914Y761331D01*
X829846Y761261D01*
X829830Y761233D01*
X829817Y761218D01*
X829805Y761187D01*
X829765Y761114D01*
X829060Y759413D01*
X825987Y756340D01*
X821973Y754677D01*
X819034Y754677D01*
X819014Y754674D01*
X818995Y754676D01*
X818893Y754654D01*
X818791Y754638D01*
X818774Y754628D01*
X818754Y754624D01*
X818665Y754571D01*
X818574Y754522D01*
X818560Y754508D01*
X818543Y754498D01*
X818476Y754419D01*
X818405Y754344D01*
X818396Y754326D01*
X818383Y754311D01*
X818345Y754215D01*
X818301Y754121D01*
X818299Y754101D01*
X818291Y754083D01*
X818273Y753916D01*
X818273Y746839D01*
X809558Y738124D01*
X809505Y738050D01*
X809445Y737980D01*
X809433Y737950D01*
X809414Y737924D01*
X809387Y737837D01*
X809353Y737752D01*
X809349Y737711D01*
X809342Y737689D01*
X809343Y737657D01*
X809335Y737585D01*
X809335Y212790D01*
X791210Y194665D01*
X478525Y194665D01*
X478435Y194651D01*
X478344Y194643D01*
X478314Y194631D01*
X478282Y194626D01*
X478202Y194583D01*
X478118Y194547D01*
X478086Y194521D01*
X478065Y194510D01*
X478043Y194487D01*
X477987Y194442D01*
X440634Y157089D01*
X426872Y157089D01*
X426827Y157082D01*
X426781Y157084D01*
X426706Y157062D01*
X426629Y157050D01*
X426589Y157028D01*
X426544Y157015D01*
X426480Y156971D01*
X426412Y156934D01*
X426380Y156901D01*
X426342Y156875D01*
X426296Y156813D01*
X426242Y156756D01*
X426223Y156714D01*
X426196Y156678D01*
X426171Y156604D01*
X426139Y156533D01*
X426134Y156487D01*
X426119Y156444D01*
X426120Y156366D01*
X426112Y156289D01*
X426121Y156244D01*
X426122Y156198D01*
X426160Y156066D01*
X426164Y156048D01*
X426166Y156044D01*
X426168Y156037D01*
X427015Y153994D01*
X427015Y150606D01*
X425718Y147477D01*
X423323Y145082D01*
X420194Y143785D01*
X416806Y143785D01*
X413677Y145082D01*
X411282Y147477D01*
X409985Y150606D01*
X409985Y153994D01*
X411282Y157123D01*
X413677Y159518D01*
X416806Y160815D01*
X418895Y160815D01*
X418966Y160826D01*
X419038Y160828D01*
X419087Y160846D01*
X419138Y160854D01*
X419201Y160888D01*
X419269Y160913D01*
X419309Y160945D01*
X419355Y160970D01*
X419405Y161021D01*
X419461Y161066D01*
X419489Y161110D01*
X419525Y161148D01*
X419555Y161213D01*
X419594Y161273D01*
X419606Y161324D01*
X419628Y161371D01*
X419636Y161442D01*
X419654Y161512D01*
X419650Y161564D01*
X419656Y161615D01*
X419640Y161686D01*
X419635Y161757D01*
X419614Y161805D01*
X419603Y161856D01*
X419566Y161917D01*
X419538Y161983D01*
X419494Y162039D01*
X419477Y162067D01*
X419459Y162082D01*
X419434Y162114D01*
X411296Y170252D01*
X411202Y170319D01*
X411108Y170390D01*
X411101Y170392D01*
X411096Y170395D01*
X410986Y170429D01*
X410874Y170466D01*
X410867Y170466D01*
X410861Y170468D01*
X410745Y170465D01*
X410628Y170463D01*
X410620Y170461D01*
X410615Y170461D01*
X410598Y170455D01*
X410467Y170417D01*
X407494Y169185D01*
X404106Y169185D01*
X400977Y170482D01*
X398582Y172877D01*
X397285Y176006D01*
X397285Y179394D01*
X398582Y182523D01*
X400977Y184918D01*
X404106Y186215D01*
X407494Y186215D01*
X410623Y184918D01*
X413018Y182523D01*
X414315Y179394D01*
X414315Y176006D01*
X413834Y174846D01*
X413808Y174733D01*
X413779Y174619D01*
X413779Y174613D01*
X413778Y174607D01*
X413789Y174490D01*
X413798Y174374D01*
X413800Y174368D01*
X413801Y174362D01*
X413849Y174254D01*
X413894Y174147D01*
X413899Y174142D01*
X413901Y174137D01*
X413914Y174123D01*
X413999Y174016D01*
X423082Y164934D01*
X423156Y164881D01*
X423225Y164821D01*
X423256Y164809D01*
X423282Y164790D01*
X423369Y164763D01*
X423454Y164729D01*
X423494Y164725D01*
X423517Y164718D01*
X423549Y164719D01*
X423620Y164711D01*
X437161Y164711D01*
X437252Y164725D01*
X437342Y164733D01*
X437372Y164745D01*
X437404Y164750D01*
X437485Y164793D01*
X437569Y164829D01*
X437601Y164855D01*
X437622Y164866D01*
X437644Y164889D01*
X437700Y164934D01*
X475053Y202287D01*
X787737Y202287D01*
X787828Y202301D01*
X787918Y202309D01*
X787948Y202321D01*
X787980Y202326D01*
X788061Y202369D01*
X788145Y202405D01*
X788177Y202431D01*
X788198Y202442D01*
X788220Y202465D01*
X788276Y202510D01*
X801490Y215724D01*
X801543Y215798D01*
X801603Y215868D01*
X801615Y215898D01*
X801634Y215924D01*
X801661Y216011D01*
X801695Y216096D01*
X801699Y216137D01*
X801706Y216159D01*
X801705Y216191D01*
X801713Y216263D01*
X801713Y741058D01*
X803276Y742620D01*
X810428Y749773D01*
X810482Y749847D01*
X810541Y749916D01*
X810553Y749946D01*
X810572Y749973D01*
X810599Y750060D01*
X810633Y750144D01*
X810637Y750185D01*
X810644Y750208D01*
X810644Y750240D01*
X810651Y750311D01*
X810651Y754676D01*
X810637Y754766D01*
X810630Y754857D01*
X810617Y754886D01*
X810612Y754918D01*
X810569Y754999D01*
X810533Y755083D01*
X810508Y755115D01*
X810497Y755136D01*
X810473Y755158D01*
X810428Y755214D01*
X805829Y759813D01*
X805829Y760823D01*
X805814Y760919D01*
X805804Y761016D01*
X805794Y761040D01*
X805790Y761066D01*
X805744Y761152D01*
X805704Y761241D01*
X805687Y761260D01*
X805674Y761283D01*
X805604Y761350D01*
X805538Y761422D01*
X805515Y761435D01*
X805496Y761453D01*
X805408Y761494D01*
X805322Y761541D01*
X805297Y761545D01*
X805273Y761556D01*
X805176Y761567D01*
X805080Y761584D01*
X805054Y761581D01*
X805029Y761583D01*
X804933Y761563D01*
X804837Y761549D01*
X804814Y761537D01*
X804788Y761531D01*
X804705Y761481D01*
X804618Y761437D01*
X804599Y761418D01*
X804577Y761405D01*
X804514Y761331D01*
X804446Y761261D01*
X804430Y761233D01*
X804417Y761218D01*
X804405Y761187D01*
X804365Y761115D01*
X803660Y759413D01*
X800587Y756340D01*
X796573Y754677D01*
X792227Y754677D01*
X791204Y755101D01*
X791109Y755123D01*
X791016Y755152D01*
X790990Y755151D01*
X790964Y755157D01*
X790868Y755148D01*
X790770Y755146D01*
X790746Y755137D01*
X790720Y755134D01*
X790631Y755095D01*
X790539Y755061D01*
X790519Y755045D01*
X790495Y755034D01*
X790423Y754968D01*
X790347Y754908D01*
X790333Y754886D01*
X790314Y754868D01*
X790267Y754782D01*
X790214Y754701D01*
X790208Y754675D01*
X790195Y754652D01*
X790178Y754556D01*
X790154Y754462D01*
X790156Y754436D01*
X790151Y754410D01*
X790166Y754314D01*
X790173Y754217D01*
X790183Y754193D01*
X790187Y754167D01*
X790231Y754080D01*
X790269Y753991D01*
X790290Y753965D01*
X790299Y753948D01*
X790322Y753925D01*
X790374Y753860D01*
X791724Y752510D01*
X793287Y750947D01*
X793287Y333053D01*
X791724Y331490D01*
X773510Y313276D01*
X773457Y313202D01*
X773397Y313132D01*
X773385Y313102D01*
X773366Y313076D01*
X773339Y312989D01*
X773305Y312904D01*
X773301Y312863D01*
X773294Y312841D01*
X773295Y312809D01*
X773287Y312737D01*
X773287Y295263D01*
X773301Y295172D01*
X773309Y295082D01*
X773321Y295052D01*
X773326Y295020D01*
X773369Y294939D01*
X773405Y294855D01*
X773431Y294823D01*
X773442Y294802D01*
X773465Y294780D01*
X773510Y294724D01*
X775954Y292280D01*
X776028Y292227D01*
X776098Y292167D01*
X776128Y292155D01*
X776154Y292136D01*
X776241Y292109D01*
X776326Y292075D01*
X776367Y292071D01*
X776389Y292064D01*
X776421Y292065D01*
X776493Y292057D01*
X780095Y292057D01*
X783057Y289095D01*
X783057Y284905D01*
X780095Y281943D01*
X775905Y281943D01*
X772943Y284905D01*
X772943Y288507D01*
X772929Y288598D01*
X772921Y288688D01*
X772909Y288718D01*
X772904Y288750D01*
X772861Y288831D01*
X772825Y288915D01*
X772799Y288947D01*
X772788Y288968D01*
X772765Y288990D01*
X772720Y289046D01*
X768713Y293053D01*
X768713Y314947D01*
X770276Y316510D01*
X788490Y334724D01*
X788543Y334798D01*
X788603Y334868D01*
X788615Y334898D01*
X788634Y334924D01*
X788661Y335011D01*
X788695Y335096D01*
X788699Y335137D01*
X788706Y335159D01*
X788705Y335191D01*
X788713Y335262D01*
X788713Y748737D01*
X788699Y748828D01*
X788691Y748918D01*
X788679Y748948D01*
X788674Y748980D01*
X788631Y749061D01*
X788595Y749145D01*
X788569Y749177D01*
X788558Y749198D01*
X788535Y749220D01*
X788490Y749276D01*
X781460Y756306D01*
X781402Y756348D01*
X781350Y756397D01*
X781303Y756419D01*
X781261Y756449D01*
X781192Y756470D01*
X781127Y756501D01*
X781075Y756506D01*
X781025Y756522D01*
X780954Y756520D01*
X780883Y756528D01*
X780832Y756517D01*
X780780Y756515D01*
X780712Y756491D01*
X780642Y756476D01*
X780597Y756449D01*
X780549Y756431D01*
X780493Y756386D01*
X780431Y756349D01*
X780397Y756310D01*
X780357Y756277D01*
X780318Y756217D01*
X780271Y756162D01*
X780252Y756114D01*
X780224Y756070D01*
X780206Y756001D01*
X780179Y755934D01*
X780171Y755863D01*
X780163Y755832D01*
X780165Y755808D01*
X780161Y755768D01*
X780161Y385791D01*
X776939Y378013D01*
X770987Y372061D01*
X763209Y368839D01*
X696791Y368839D01*
X689013Y372061D01*
X683061Y378013D01*
X679839Y385791D01*
X679839Y401000D01*
X679835Y401026D01*
X679836Y401075D01*
X679834Y401090D01*
X679827Y401117D01*
X679827Y401146D01*
X679804Y401221D01*
X679804Y401224D01*
X679802Y401229D01*
X679801Y401233D01*
X679800Y401243D01*
X679797Y401248D01*
X679780Y401307D01*
X679768Y401335D01*
X679734Y401391D01*
X679708Y401451D01*
X679659Y401512D01*
X679657Y401515D01*
X679655Y401517D01*
X679638Y401544D01*
X679624Y401556D01*
X679603Y401582D01*
X679582Y401603D01*
X679529Y401641D01*
X679482Y401687D01*
X679409Y401728D01*
X679382Y401747D01*
X679363Y401752D01*
X679335Y401768D01*
X679307Y401780D01*
X679279Y401786D01*
X679254Y401799D01*
X679182Y401815D01*
X679167Y401821D01*
X679137Y401824D01*
X679090Y401834D01*
X679075Y401836D01*
X679070Y401835D01*
X679067Y401836D01*
X679047Y401834D01*
X679000Y401839D01*
X616000Y401839D01*
X615974Y401835D01*
X615925Y401836D01*
X615910Y401834D01*
X615883Y401827D01*
X615855Y401827D01*
X615779Y401804D01*
X615776Y401804D01*
X615771Y401802D01*
X615767Y401801D01*
X615757Y401800D01*
X615752Y401797D01*
X615694Y401780D01*
X615665Y401768D01*
X615610Y401734D01*
X615549Y401708D01*
X615488Y401659D01*
X615485Y401657D01*
X615483Y401655D01*
X615456Y401639D01*
X615444Y401624D01*
X615418Y401603D01*
X615397Y401582D01*
X615359Y401529D01*
X615313Y401482D01*
X615272Y401409D01*
X615253Y401382D01*
X615248Y401363D01*
X615232Y401335D01*
X615220Y401307D01*
X615214Y401279D01*
X615201Y401254D01*
X615185Y401182D01*
X615179Y401167D01*
X615176Y401137D01*
X615166Y401090D01*
X615164Y401075D01*
X615165Y401070D01*
X615164Y401067D01*
X615166Y401047D01*
X615161Y401000D01*
X615161Y263000D01*
X615165Y262974D01*
X615165Y262961D01*
X615163Y262946D01*
X615165Y262940D01*
X615164Y262925D01*
X615166Y262910D01*
X615173Y262883D01*
X615173Y262854D01*
X615196Y262779D01*
X615196Y262776D01*
X615198Y262771D01*
X615199Y262767D01*
X615200Y262757D01*
X615203Y262752D01*
X615212Y262721D01*
X615215Y262706D01*
X615218Y262702D01*
X615220Y262693D01*
X615232Y262665D01*
X615266Y262609D01*
X615292Y262549D01*
X615341Y262488D01*
X615343Y262485D01*
X615345Y262483D01*
X615362Y262456D01*
X615376Y262444D01*
X615397Y262418D01*
X615418Y262397D01*
X615471Y262359D01*
X615518Y262313D01*
X615591Y262272D01*
X615618Y262253D01*
X615637Y262248D01*
X615665Y262232D01*
X615693Y262220D01*
X615721Y262214D01*
X615746Y262201D01*
X615818Y262185D01*
X615833Y262179D01*
X615863Y262176D01*
X615910Y262166D01*
X615925Y262164D01*
X615930Y262165D01*
X615933Y262164D01*
X615953Y262166D01*
X616000Y262161D01*
X782021Y262161D01*
X785756Y260614D01*
X788614Y257756D01*
X790161Y254021D01*
X790161Y213979D01*
X788614Y210244D01*
X785756Y207386D01*
X782021Y205839D01*
X297000Y205839D01*
X296978Y205836D01*
X296940Y205837D01*
X295051Y205688D01*
X295045Y205687D01*
X295040Y205687D01*
X294875Y205653D01*
X291281Y204486D01*
X291250Y204469D01*
X291215Y204460D01*
X291069Y204377D01*
X288012Y202156D01*
X287987Y202131D01*
X287957Y202112D01*
X287844Y201988D01*
X285623Y198931D01*
X285606Y198899D01*
X285584Y198871D01*
X285514Y198719D01*
X284347Y195125D01*
X284346Y195119D01*
X284343Y195114D01*
X284312Y194949D01*
X284163Y193060D01*
X284165Y193038D01*
X284161Y193000D01*
X284161Y129630D01*
X284172Y129560D01*
X284174Y129488D01*
X284192Y129439D01*
X284200Y129388D01*
X284234Y129324D01*
X284259Y129257D01*
X284291Y129216D01*
X284316Y129170D01*
X284368Y129121D01*
X284412Y129065D01*
X284456Y129037D01*
X284494Y129001D01*
X284559Y128971D01*
X284619Y128932D01*
X284670Y128919D01*
X284717Y128897D01*
X284788Y128889D01*
X284858Y128872D01*
X284910Y128876D01*
X284961Y128870D01*
X285032Y128885D01*
X285103Y128891D01*
X285151Y128911D01*
X285202Y128922D01*
X285263Y128959D01*
X285329Y128987D01*
X285385Y129032D01*
X285413Y129049D01*
X285428Y129066D01*
X285460Y129092D01*
X286931Y130563D01*
X288811Y131929D01*
X290882Y132984D01*
X293092Y133702D01*
X295027Y134009D01*
X295027Y120062D01*
X295030Y120042D01*
X295028Y120023D01*
X295050Y119921D01*
X295067Y119819D01*
X295076Y119802D01*
X295080Y119782D01*
X295133Y119693D01*
X295182Y119602D01*
X295196Y119588D01*
X295206Y119571D01*
X295285Y119504D01*
X295360Y119433D01*
X295378Y119424D01*
X295393Y119411D01*
X295489Y119373D01*
X295583Y119329D01*
X295603Y119327D01*
X295621Y119319D01*
X295788Y119301D01*
X296551Y119301D01*
X296551Y118538D01*
X296554Y118518D01*
X296552Y118499D01*
X296574Y118397D01*
X296591Y118295D01*
X296600Y118278D01*
X296604Y118258D01*
X296657Y118169D01*
X296706Y118078D01*
X296720Y118064D01*
X296730Y118047D01*
X296809Y117980D01*
X296884Y117909D01*
X296902Y117900D01*
X296917Y117887D01*
X297013Y117848D01*
X297107Y117805D01*
X297127Y117803D01*
X297145Y117795D01*
X297312Y117777D01*
X311259Y117777D01*
X311009Y116204D01*
X311010Y116148D01*
X311000Y116093D01*
X311010Y116026D01*
X311011Y115958D01*
X311029Y115905D01*
X311037Y115850D01*
X311068Y115789D01*
X311090Y115725D01*
X311124Y115681D01*
X311150Y115631D01*
X311199Y115584D01*
X311240Y115530D01*
X311286Y115499D01*
X311326Y115460D01*
X311388Y115431D01*
X311444Y115393D01*
X311498Y115378D01*
X311548Y115354D01*
X311616Y115346D01*
X311681Y115328D01*
X311737Y115331D01*
X311792Y115324D01*
X311897Y115340D01*
X311927Y115342D01*
X311939Y115346D01*
X311958Y115349D01*
X313307Y115711D01*
X320393Y115711D01*
X327237Y113877D01*
X333374Y110334D01*
X338384Y105324D01*
X341927Y99187D01*
X343761Y92343D01*
X343761Y85257D01*
X341927Y78413D01*
X338384Y72276D01*
X333374Y67266D01*
X327237Y63723D01*
X320393Y61889D01*
X313307Y61889D01*
X306463Y63723D01*
X300326Y67266D01*
X295316Y72276D01*
X291773Y78413D01*
X289939Y85257D01*
X289939Y92343D01*
X291773Y99187D01*
X294351Y103652D01*
X294363Y103685D01*
X294384Y103715D01*
X294407Y103800D01*
X294438Y103882D01*
X294439Y103918D01*
X294449Y103952D01*
X294444Y104040D01*
X294447Y104127D01*
X294437Y104162D01*
X294434Y104198D01*
X294402Y104279D01*
X294377Y104363D01*
X294356Y104393D01*
X294343Y104426D01*
X294286Y104493D01*
X294236Y104565D01*
X294207Y104586D01*
X294183Y104613D01*
X294108Y104658D01*
X294037Y104710D01*
X294003Y104721D01*
X293972Y104740D01*
X293811Y104784D01*
X293092Y104898D01*
X290882Y105616D01*
X288811Y106671D01*
X286931Y108037D01*
X285460Y109508D01*
X285402Y109550D01*
X285350Y109599D01*
X285303Y109621D01*
X285261Y109651D01*
X285192Y109672D01*
X285127Y109703D01*
X285075Y109708D01*
X285025Y109724D01*
X284954Y109722D01*
X284883Y109730D01*
X284832Y109719D01*
X284780Y109717D01*
X284712Y109693D01*
X284642Y109678D01*
X284597Y109651D01*
X284549Y109633D01*
X284493Y109588D01*
X284431Y109551D01*
X284397Y109512D01*
X284357Y109479D01*
X284318Y109419D01*
X284271Y109364D01*
X284252Y109316D01*
X284224Y109272D01*
X284206Y109203D01*
X284179Y109136D01*
X284171Y109065D01*
X284163Y109034D01*
X284165Y109010D01*
X284161Y108970D01*
X284161Y17000D01*
X284164Y16978D01*
X284163Y16940D01*
X284312Y15051D01*
X284313Y15045D01*
X284313Y15040D01*
X284347Y14875D01*
X285514Y11281D01*
X285531Y11250D01*
X285540Y11215D01*
X285623Y11069D01*
X287844Y8012D01*
X287869Y7987D01*
X287888Y7957D01*
X288012Y7844D01*
X291069Y5623D01*
X291101Y5606D01*
X291129Y5584D01*
X291281Y5514D01*
X294875Y4347D01*
X294881Y4346D01*
X294886Y4343D01*
X295051Y4312D01*
X296940Y4163D01*
X296962Y4165D01*
X297000Y4161D01*
X646000Y4161D01*
X646022Y4164D01*
G37*
%LPC*%
G36*
X462905Y132875D02*
X462905Y132875D01*
X459943Y135837D01*
X459943Y140027D01*
X462905Y142989D01*
X466182Y142989D01*
X466202Y142992D01*
X466221Y142990D01*
X466323Y143012D01*
X466425Y143028D01*
X466442Y143038D01*
X466462Y143042D01*
X466551Y143095D01*
X466642Y143144D01*
X466656Y143158D01*
X466673Y143168D01*
X466740Y143247D01*
X466812Y143322D01*
X466820Y143340D01*
X466833Y143355D01*
X466872Y143451D01*
X466915Y143545D01*
X466917Y143565D01*
X466925Y143583D01*
X466943Y143750D01*
X466943Y146095D01*
X469905Y149057D01*
X474095Y149057D01*
X476642Y146510D01*
X476716Y146457D01*
X476785Y146397D01*
X476815Y146385D01*
X476841Y146366D01*
X476928Y146339D01*
X477013Y146305D01*
X477054Y146301D01*
X477076Y146294D01*
X477109Y146295D01*
X477180Y146287D01*
X477737Y146287D01*
X477828Y146301D01*
X477918Y146309D01*
X477948Y146321D01*
X477980Y146326D01*
X478061Y146369D01*
X478145Y146405D01*
X478177Y146431D01*
X478198Y146442D01*
X478220Y146465D01*
X478276Y146510D01*
X493053Y161287D01*
X804738Y161287D01*
X804828Y161301D01*
X804919Y161309D01*
X804948Y161321D01*
X804980Y161326D01*
X805061Y161369D01*
X805145Y161405D01*
X805177Y161431D01*
X805198Y161442D01*
X805220Y161465D01*
X805276Y161510D01*
X852490Y208724D01*
X852543Y208798D01*
X852603Y208868D01*
X852615Y208898D01*
X852634Y208924D01*
X852661Y209011D01*
X852695Y209096D01*
X852699Y209137D01*
X852706Y209159D01*
X852705Y209191D01*
X852713Y209263D01*
X852713Y686947D01*
X893490Y727724D01*
X893543Y727798D01*
X893603Y727868D01*
X893615Y727898D01*
X893634Y727924D01*
X893661Y728011D01*
X893695Y728096D01*
X893699Y728137D01*
X893706Y728159D01*
X893705Y728191D01*
X893713Y728263D01*
X893713Y754216D01*
X893694Y754331D01*
X893677Y754447D01*
X893675Y754452D01*
X893674Y754459D01*
X893619Y754561D01*
X893566Y754666D01*
X893561Y754670D01*
X893558Y754676D01*
X893474Y754756D01*
X893390Y754838D01*
X893384Y754842D01*
X893380Y754845D01*
X893363Y754853D01*
X893243Y754919D01*
X889813Y756340D01*
X886740Y759413D01*
X885077Y763427D01*
X885077Y767773D01*
X886740Y771787D01*
X889813Y774860D01*
X893827Y776523D01*
X898173Y776523D01*
X900090Y775729D01*
X900185Y775706D01*
X900278Y775678D01*
X900304Y775678D01*
X900330Y775672D01*
X900426Y775681D01*
X900524Y775684D01*
X900548Y775693D01*
X900574Y775695D01*
X900663Y775735D01*
X900755Y775768D01*
X900775Y775785D01*
X900799Y775795D01*
X900871Y775861D01*
X900947Y775922D01*
X900961Y775944D01*
X900980Y775962D01*
X901027Y776047D01*
X901080Y776129D01*
X901086Y776154D01*
X901099Y776177D01*
X901116Y776273D01*
X901140Y776368D01*
X901138Y776394D01*
X901143Y776419D01*
X901128Y776516D01*
X901121Y776613D01*
X901111Y776637D01*
X901107Y776663D01*
X901063Y776750D01*
X901024Y776839D01*
X901004Y776865D01*
X900995Y776882D01*
X900972Y776905D01*
X900920Y776970D01*
X898035Y779854D01*
X897962Y779907D01*
X897892Y779967D01*
X897862Y779979D01*
X897836Y779998D01*
X897749Y780025D01*
X897664Y780059D01*
X897623Y780063D01*
X897601Y780070D01*
X897568Y780069D01*
X897497Y780077D01*
X893827Y780077D01*
X889813Y781740D01*
X886740Y784813D01*
X885077Y788827D01*
X885077Y793173D01*
X886740Y797187D01*
X889813Y800260D01*
X893827Y801923D01*
X898173Y801923D01*
X902187Y800260D01*
X905260Y797187D01*
X906923Y793173D01*
X906923Y788827D01*
X905260Y784813D01*
X902941Y782494D01*
X902929Y782477D01*
X902913Y782465D01*
X902857Y782378D01*
X902797Y782294D01*
X902791Y782275D01*
X902780Y782258D01*
X902755Y782158D01*
X902725Y782059D01*
X902725Y782039D01*
X902720Y782019D01*
X902728Y781917D01*
X902731Y781813D01*
X902738Y781794D01*
X902739Y781774D01*
X902780Y781679D01*
X902816Y781582D01*
X902828Y781566D01*
X902836Y781548D01*
X902941Y781417D01*
X909971Y774387D01*
X909971Y759813D01*
X901558Y751400D01*
X901505Y751326D01*
X901445Y751257D01*
X901433Y751227D01*
X901414Y751200D01*
X901387Y751113D01*
X901353Y751029D01*
X901349Y750988D01*
X901342Y750965D01*
X901343Y750933D01*
X901335Y750862D01*
X901335Y724790D01*
X860558Y684013D01*
X860505Y683939D01*
X860445Y683870D01*
X860433Y683840D01*
X860414Y683813D01*
X860387Y683727D01*
X860353Y683642D01*
X860349Y683601D01*
X860342Y683578D01*
X860343Y683546D01*
X860335Y683475D01*
X860335Y205790D01*
X858772Y204228D01*
X809772Y155228D01*
X808210Y153665D01*
X496525Y153665D01*
X496435Y153651D01*
X496344Y153643D01*
X496314Y153631D01*
X496282Y153626D01*
X496202Y153583D01*
X496118Y153547D01*
X496086Y153521D01*
X496065Y153510D01*
X496043Y153487D01*
X495987Y153442D01*
X481210Y138665D01*
X478796Y138665D01*
X478706Y138651D01*
X478615Y138643D01*
X478585Y138631D01*
X478553Y138626D01*
X478473Y138583D01*
X478389Y138547D01*
X478357Y138521D01*
X478336Y138510D01*
X478314Y138487D01*
X478258Y138442D01*
X475461Y135645D01*
X470180Y135645D01*
X470090Y135631D01*
X469999Y135623D01*
X469969Y135611D01*
X469937Y135606D01*
X469856Y135563D01*
X469773Y135527D01*
X469740Y135501D01*
X469720Y135490D01*
X469698Y135467D01*
X469642Y135422D01*
X467095Y132875D01*
X462905Y132875D01*
G37*
%LPD*%
%LPC*%
G36*
X539296Y87435D02*
X539296Y87435D01*
X536148Y88739D01*
X533739Y91148D01*
X532435Y94296D01*
X532435Y97704D01*
X533739Y100852D01*
X536148Y103261D01*
X538243Y104129D01*
X538343Y104190D01*
X538443Y104250D01*
X538447Y104255D01*
X538452Y104258D01*
X538527Y104349D01*
X538603Y104437D01*
X538605Y104443D01*
X538609Y104448D01*
X538651Y104556D01*
X538695Y104665D01*
X538696Y104673D01*
X538697Y104677D01*
X538698Y104696D01*
X538713Y104832D01*
X538713Y105947D01*
X560053Y127287D01*
X637166Y127287D01*
X637256Y127301D01*
X637347Y127309D01*
X637377Y127321D01*
X637409Y127326D01*
X637489Y127369D01*
X637573Y127405D01*
X637605Y127431D01*
X637626Y127442D01*
X637648Y127465D01*
X637704Y127510D01*
X652481Y142287D01*
X817737Y142287D01*
X817828Y142301D01*
X817918Y142309D01*
X817948Y142321D01*
X817980Y142326D01*
X818061Y142369D01*
X818145Y142405D01*
X818177Y142431D01*
X818198Y142442D01*
X818220Y142465D01*
X818276Y142510D01*
X869490Y193724D01*
X869543Y193798D01*
X869603Y193868D01*
X869615Y193898D01*
X869634Y193924D01*
X869661Y194011D01*
X869695Y194096D01*
X869699Y194137D01*
X869706Y194159D01*
X869705Y194191D01*
X869713Y194263D01*
X869713Y479947D01*
X892053Y502287D01*
X918214Y502287D01*
X918234Y502290D01*
X918253Y502288D01*
X918355Y502310D01*
X918457Y502326D01*
X918474Y502336D01*
X918494Y502340D01*
X918583Y502393D01*
X918674Y502442D01*
X918688Y502456D01*
X918705Y502466D01*
X918772Y502545D01*
X918844Y502620D01*
X918852Y502638D01*
X918865Y502653D01*
X918904Y502749D01*
X918947Y502843D01*
X918949Y502863D01*
X918957Y502881D01*
X918975Y503048D01*
X918975Y505632D01*
X919868Y506525D01*
X933132Y506525D01*
X934025Y505632D01*
X934025Y494368D01*
X933132Y493475D01*
X919868Y493475D01*
X918975Y494368D01*
X918975Y496952D01*
X918972Y496972D01*
X918974Y496991D01*
X918952Y497093D01*
X918936Y497195D01*
X918926Y497212D01*
X918922Y497232D01*
X918869Y497321D01*
X918820Y497412D01*
X918806Y497426D01*
X918796Y497443D01*
X918717Y497510D01*
X918642Y497582D01*
X918624Y497590D01*
X918609Y497603D01*
X918513Y497642D01*
X918419Y497685D01*
X918399Y497687D01*
X918381Y497695D01*
X918214Y497713D01*
X894263Y497713D01*
X894172Y497699D01*
X894082Y497691D01*
X894052Y497679D01*
X894020Y497674D01*
X893939Y497631D01*
X893855Y497595D01*
X893823Y497569D01*
X893802Y497558D01*
X893780Y497535D01*
X893724Y497490D01*
X874510Y478276D01*
X874457Y478202D01*
X874397Y478132D01*
X874385Y478102D01*
X874366Y478076D01*
X874339Y477989D01*
X874305Y477904D01*
X874301Y477863D01*
X874294Y477841D01*
X874295Y477809D01*
X874287Y477737D01*
X874287Y192053D01*
X819947Y137713D01*
X654691Y137713D01*
X654601Y137699D01*
X654510Y137691D01*
X654480Y137679D01*
X654448Y137674D01*
X654368Y137631D01*
X654284Y137595D01*
X654252Y137569D01*
X654231Y137558D01*
X654209Y137535D01*
X654153Y137490D01*
X639376Y122713D01*
X562263Y122713D01*
X562172Y122699D01*
X562082Y122691D01*
X562052Y122679D01*
X562020Y122674D01*
X561939Y122631D01*
X561855Y122595D01*
X561823Y122569D01*
X561802Y122558D01*
X561780Y122535D01*
X561724Y122490D01*
X544284Y105050D01*
X544257Y105012D01*
X544223Y104981D01*
X544185Y104913D01*
X544140Y104850D01*
X544127Y104806D01*
X544104Y104766D01*
X544091Y104689D01*
X544068Y104615D01*
X544069Y104569D01*
X544061Y104524D01*
X544072Y104447D01*
X544074Y104369D01*
X544090Y104326D01*
X544096Y104280D01*
X544132Y104211D01*
X544158Y104138D01*
X544187Y104102D01*
X544208Y104061D01*
X544264Y104007D01*
X544312Y103946D01*
X544351Y103921D01*
X544384Y103889D01*
X544503Y103823D01*
X544519Y103813D01*
X544524Y103812D01*
X544531Y103808D01*
X545852Y103261D01*
X548261Y100852D01*
X549565Y97704D01*
X549565Y94296D01*
X548261Y91148D01*
X545852Y88739D01*
X542704Y87435D01*
X539296Y87435D01*
G37*
%LPD*%
%LPC*%
G36*
X576296Y62435D02*
X576296Y62435D01*
X573148Y63739D01*
X570739Y66148D01*
X569435Y69296D01*
X569435Y72704D01*
X570739Y75852D01*
X573148Y78261D01*
X576296Y79565D01*
X579704Y79565D01*
X581799Y78697D01*
X581912Y78670D01*
X582026Y78642D01*
X582032Y78642D01*
X582038Y78641D01*
X582155Y78652D01*
X582271Y78661D01*
X582277Y78663D01*
X582283Y78664D01*
X582390Y78712D01*
X582497Y78757D01*
X582503Y78762D01*
X582508Y78764D01*
X582521Y78777D01*
X582628Y78862D01*
X588490Y84724D01*
X590053Y86287D01*
X598242Y86287D01*
X598338Y86302D01*
X598435Y86312D01*
X598459Y86322D01*
X598485Y86326D01*
X598571Y86372D01*
X598660Y86412D01*
X598679Y86429D01*
X598702Y86442D01*
X598769Y86512D01*
X598841Y86578D01*
X598854Y86601D01*
X598872Y86620D01*
X598913Y86708D01*
X598960Y86794D01*
X598964Y86819D01*
X598975Y86843D01*
X598986Y86940D01*
X599003Y87036D01*
X598999Y87062D01*
X599002Y87087D01*
X598982Y87183D01*
X598968Y87279D01*
X598956Y87302D01*
X598950Y87328D01*
X598900Y87411D01*
X598856Y87498D01*
X598837Y87517D01*
X598824Y87539D01*
X598750Y87602D01*
X598680Y87670D01*
X598652Y87686D01*
X598637Y87699D01*
X598606Y87711D01*
X598533Y87751D01*
X596148Y88739D01*
X593739Y91148D01*
X592435Y94296D01*
X592435Y97704D01*
X593739Y100852D01*
X596148Y103261D01*
X599296Y104565D01*
X602704Y104565D01*
X605852Y103261D01*
X608261Y100852D01*
X609565Y97704D01*
X609565Y94296D01*
X608261Y91148D01*
X605852Y88739D01*
X603467Y87751D01*
X603384Y87700D01*
X603298Y87654D01*
X603280Y87636D01*
X603257Y87622D01*
X603195Y87546D01*
X603128Y87476D01*
X603117Y87452D01*
X603101Y87432D01*
X603066Y87341D01*
X603025Y87253D01*
X603022Y87227D01*
X603012Y87203D01*
X603008Y87105D01*
X602998Y87009D01*
X603003Y86983D01*
X603002Y86957D01*
X603029Y86863D01*
X603050Y86768D01*
X603063Y86746D01*
X603071Y86721D01*
X603126Y86641D01*
X603176Y86557D01*
X603196Y86540D01*
X603211Y86519D01*
X603289Y86460D01*
X603363Y86397D01*
X603387Y86387D01*
X603408Y86372D01*
X603501Y86342D01*
X603591Y86305D01*
X603624Y86302D01*
X603642Y86296D01*
X603675Y86296D01*
X603758Y86287D01*
X618242Y86287D01*
X618338Y86302D01*
X618435Y86312D01*
X618459Y86322D01*
X618485Y86326D01*
X618571Y86372D01*
X618660Y86412D01*
X618679Y86429D01*
X618702Y86442D01*
X618769Y86512D01*
X618841Y86578D01*
X618854Y86601D01*
X618872Y86620D01*
X618913Y86708D01*
X618960Y86794D01*
X618964Y86819D01*
X618975Y86843D01*
X618986Y86940D01*
X619003Y87036D01*
X618999Y87062D01*
X619002Y87087D01*
X618982Y87183D01*
X618968Y87279D01*
X618956Y87302D01*
X618950Y87328D01*
X618900Y87411D01*
X618856Y87498D01*
X618837Y87517D01*
X618824Y87539D01*
X618750Y87602D01*
X618680Y87670D01*
X618652Y87686D01*
X618637Y87699D01*
X618606Y87711D01*
X618533Y87751D01*
X616148Y88739D01*
X613739Y91148D01*
X612435Y94296D01*
X612435Y97704D01*
X613739Y100852D01*
X616148Y103261D01*
X619296Y104565D01*
X622704Y104565D01*
X625852Y103261D01*
X628261Y100852D01*
X629565Y97704D01*
X629565Y94296D01*
X628261Y91148D01*
X625852Y88739D01*
X623467Y87751D01*
X623384Y87700D01*
X623298Y87654D01*
X623280Y87636D01*
X623257Y87622D01*
X623195Y87546D01*
X623128Y87476D01*
X623117Y87452D01*
X623101Y87432D01*
X623066Y87341D01*
X623025Y87253D01*
X623022Y87227D01*
X623012Y87203D01*
X623008Y87105D01*
X622998Y87009D01*
X623003Y86983D01*
X623002Y86957D01*
X623029Y86863D01*
X623050Y86768D01*
X623063Y86746D01*
X623071Y86721D01*
X623126Y86641D01*
X623176Y86557D01*
X623196Y86540D01*
X623211Y86519D01*
X623289Y86460D01*
X623363Y86397D01*
X623387Y86387D01*
X623408Y86372D01*
X623501Y86342D01*
X623591Y86305D01*
X623624Y86302D01*
X623642Y86296D01*
X623675Y86296D01*
X623758Y86287D01*
X629737Y86287D01*
X629828Y86301D01*
X629918Y86309D01*
X629948Y86321D01*
X629980Y86326D01*
X630061Y86369D01*
X630145Y86405D01*
X630177Y86431D01*
X630198Y86442D01*
X630220Y86465D01*
X630276Y86510D01*
X660053Y116287D01*
X815737Y116287D01*
X815828Y116301D01*
X815918Y116309D01*
X815948Y116321D01*
X815980Y116326D01*
X816061Y116369D01*
X816145Y116405D01*
X816177Y116431D01*
X816198Y116442D01*
X816220Y116465D01*
X816276Y116510D01*
X884490Y184724D01*
X884543Y184798D01*
X884603Y184868D01*
X884615Y184898D01*
X884634Y184924D01*
X884661Y185011D01*
X884695Y185096D01*
X884699Y185137D01*
X884706Y185159D01*
X884705Y185191D01*
X884713Y185263D01*
X884713Y347947D01*
X905854Y369088D01*
X905907Y369162D01*
X905967Y369232D01*
X905979Y369262D01*
X905998Y369288D01*
X906025Y369375D01*
X906059Y369460D01*
X906063Y369501D01*
X906070Y369523D01*
X906069Y369555D01*
X906077Y369627D01*
X906077Y372573D01*
X907740Y376587D01*
X910813Y379660D01*
X914827Y381323D01*
X919173Y381323D01*
X923187Y379660D01*
X926260Y376587D01*
X927923Y372573D01*
X927923Y368227D01*
X926260Y364213D01*
X923187Y361140D01*
X919173Y359477D01*
X914827Y359477D01*
X910813Y361140D01*
X908132Y363821D01*
X908116Y363833D01*
X908103Y363848D01*
X908016Y363904D01*
X907932Y363965D01*
X907913Y363971D01*
X907896Y363981D01*
X907796Y364007D01*
X907697Y364037D01*
X907677Y364037D01*
X907658Y364041D01*
X907555Y364033D01*
X907451Y364031D01*
X907432Y364024D01*
X907412Y364022D01*
X907318Y363982D01*
X907220Y363946D01*
X907204Y363934D01*
X907186Y363926D01*
X907055Y363821D01*
X889510Y346276D01*
X889457Y346202D01*
X889397Y346132D01*
X889385Y346102D01*
X889366Y346076D01*
X889339Y345989D01*
X889305Y345904D01*
X889301Y345863D01*
X889294Y345841D01*
X889295Y345809D01*
X889287Y345737D01*
X889287Y183053D01*
X817947Y111713D01*
X662263Y111713D01*
X662172Y111699D01*
X662082Y111691D01*
X662052Y111679D01*
X662020Y111674D01*
X661939Y111631D01*
X661855Y111595D01*
X661823Y111569D01*
X661802Y111558D01*
X661780Y111535D01*
X661724Y111490D01*
X631947Y81713D01*
X592263Y81713D01*
X592172Y81699D01*
X592082Y81691D01*
X592052Y81679D01*
X592020Y81674D01*
X591939Y81631D01*
X591855Y81595D01*
X591823Y81569D01*
X591802Y81558D01*
X591780Y81535D01*
X591724Y81490D01*
X585862Y75628D01*
X585794Y75533D01*
X585724Y75439D01*
X585722Y75433D01*
X585718Y75428D01*
X585684Y75317D01*
X585648Y75206D01*
X585648Y75199D01*
X585646Y75193D01*
X585649Y75077D01*
X585650Y74960D01*
X585652Y74952D01*
X585652Y74947D01*
X585659Y74930D01*
X585697Y74799D01*
X586565Y72704D01*
X586565Y69296D01*
X585261Y66148D01*
X582852Y63739D01*
X579704Y62435D01*
X576296Y62435D01*
G37*
%LPD*%
%LPC*%
G36*
X413025Y30825D02*
X413025Y30825D01*
X409653Y32222D01*
X407072Y34803D01*
X405675Y38175D01*
X405675Y41825D01*
X407072Y45197D01*
X409653Y47778D01*
X413025Y49175D01*
X416675Y49175D01*
X417100Y48999D01*
X417214Y48972D01*
X417327Y48943D01*
X417334Y48944D01*
X417340Y48942D01*
X417456Y48953D01*
X417572Y48963D01*
X417578Y48965D01*
X417584Y48966D01*
X417692Y49013D01*
X417799Y49059D01*
X417805Y49063D01*
X417809Y49066D01*
X417823Y49078D01*
X417930Y49164D01*
X429356Y60590D01*
X429398Y60648D01*
X429447Y60700D01*
X429469Y60747D01*
X429499Y60789D01*
X429520Y60858D01*
X429551Y60923D01*
X429556Y60975D01*
X429572Y61025D01*
X429570Y61096D01*
X429578Y61167D01*
X429567Y61218D01*
X429565Y61270D01*
X429541Y61338D01*
X429526Y61408D01*
X429499Y61452D01*
X429481Y61501D01*
X429436Y61557D01*
X429399Y61619D01*
X429360Y61653D01*
X429327Y61693D01*
X429267Y61732D01*
X429212Y61779D01*
X429164Y61798D01*
X429120Y61826D01*
X429051Y61844D01*
X428984Y61871D01*
X428913Y61879D01*
X428882Y61887D01*
X428858Y61885D01*
X428818Y61889D01*
X427607Y61889D01*
X420763Y63723D01*
X414626Y67266D01*
X409616Y72276D01*
X406073Y78413D01*
X404239Y85257D01*
X404239Y92343D01*
X406073Y99187D01*
X409616Y105324D01*
X414626Y110334D01*
X420763Y113877D01*
X427607Y115711D01*
X434693Y115711D01*
X436042Y115349D01*
X436097Y115344D01*
X436151Y115328D01*
X436219Y115332D01*
X436286Y115325D01*
X436341Y115337D01*
X436397Y115340D01*
X436460Y115365D01*
X436526Y115380D01*
X436574Y115409D01*
X436626Y115429D01*
X436678Y115473D01*
X436736Y115508D01*
X436772Y115551D01*
X436815Y115587D01*
X436850Y115645D01*
X436894Y115697D01*
X436914Y115749D01*
X436943Y115796D01*
X436959Y115863D01*
X436983Y115926D01*
X436986Y115982D01*
X436998Y116036D01*
X436994Y116141D01*
X436995Y116172D01*
X436992Y116184D01*
X436991Y116204D01*
X436741Y117777D01*
X450688Y117777D01*
X450708Y117780D01*
X450727Y117778D01*
X450829Y117800D01*
X450931Y117817D01*
X450948Y117826D01*
X450968Y117830D01*
X451057Y117883D01*
X451148Y117932D01*
X451162Y117946D01*
X451179Y117956D01*
X451246Y118035D01*
X451317Y118110D01*
X451326Y118128D01*
X451339Y118143D01*
X451377Y118239D01*
X451421Y118333D01*
X451423Y118353D01*
X451431Y118371D01*
X451449Y118538D01*
X451449Y119301D01*
X451451Y119301D01*
X451451Y118538D01*
X451454Y118518D01*
X451452Y118499D01*
X451474Y118397D01*
X451491Y118295D01*
X451500Y118278D01*
X451504Y118258D01*
X451557Y118169D01*
X451606Y118078D01*
X451620Y118064D01*
X451630Y118047D01*
X451709Y117980D01*
X451784Y117909D01*
X451802Y117900D01*
X451817Y117887D01*
X451913Y117848D01*
X452007Y117805D01*
X452027Y117803D01*
X452045Y117795D01*
X452212Y117777D01*
X466159Y117777D01*
X465852Y115842D01*
X465134Y113632D01*
X464079Y111561D01*
X462713Y109681D01*
X461069Y108037D01*
X459189Y106671D01*
X457118Y105616D01*
X454908Y104898D01*
X454189Y104784D01*
X454155Y104773D01*
X454119Y104770D01*
X454039Y104734D01*
X453956Y104707D01*
X453927Y104685D01*
X453894Y104671D01*
X453829Y104612D01*
X453759Y104559D01*
X453739Y104530D01*
X453712Y104505D01*
X453670Y104429D01*
X453620Y104357D01*
X453610Y104322D01*
X453592Y104291D01*
X453576Y104204D01*
X453552Y104120D01*
X453554Y104084D01*
X453547Y104049D01*
X453560Y103962D01*
X453564Y103874D01*
X453577Y103841D01*
X453582Y103805D01*
X453649Y103652D01*
X456227Y99187D01*
X458061Y92343D01*
X458061Y85257D01*
X456227Y78413D01*
X452684Y72276D01*
X447674Y67266D01*
X441537Y63723D01*
X438029Y62783D01*
X438007Y62773D01*
X437984Y62769D01*
X437896Y62723D01*
X437805Y62682D01*
X437787Y62666D01*
X437766Y62654D01*
X437698Y62582D01*
X437625Y62515D01*
X437613Y62494D01*
X437597Y62476D01*
X437555Y62386D01*
X437508Y62299D01*
X437503Y62275D01*
X437493Y62253D01*
X437482Y62154D01*
X437465Y62056D01*
X437469Y62032D01*
X437466Y62009D01*
X437487Y61911D01*
X437502Y61813D01*
X437513Y61792D01*
X437518Y61768D01*
X437570Y61683D01*
X437615Y61594D01*
X437632Y61578D01*
X437645Y61557D01*
X437720Y61492D01*
X437791Y61423D01*
X437813Y61413D01*
X437831Y61397D01*
X437924Y61360D01*
X438013Y61317D01*
X438037Y61314D01*
X438060Y61305D01*
X438226Y61287D01*
X467737Y61287D01*
X467828Y61301D01*
X467918Y61309D01*
X467948Y61321D01*
X467980Y61326D01*
X468061Y61369D01*
X468145Y61405D01*
X468177Y61431D01*
X468198Y61442D01*
X468220Y61465D01*
X468276Y61510D01*
X471720Y64954D01*
X471773Y65028D01*
X471833Y65098D01*
X471845Y65128D01*
X471864Y65154D01*
X471891Y65241D01*
X471925Y65326D01*
X471929Y65367D01*
X471936Y65389D01*
X471935Y65421D01*
X471943Y65493D01*
X471943Y69095D01*
X474905Y72057D01*
X479095Y72057D01*
X482057Y69095D01*
X482057Y64905D01*
X479095Y61943D01*
X475493Y61943D01*
X475402Y61929D01*
X475312Y61921D01*
X475282Y61909D01*
X475250Y61904D01*
X475169Y61861D01*
X475085Y61825D01*
X475053Y61799D01*
X475032Y61788D01*
X475010Y61765D01*
X474954Y61720D01*
X469947Y56713D01*
X432263Y56713D01*
X432172Y56699D01*
X432082Y56691D01*
X432052Y56679D01*
X432020Y56674D01*
X431939Y56631D01*
X431855Y56595D01*
X431823Y56569D01*
X431802Y56558D01*
X431780Y56535D01*
X431777Y56533D01*
X431776Y56532D01*
X431775Y56531D01*
X431724Y56490D01*
X422068Y46834D01*
X422056Y46818D01*
X422041Y46805D01*
X421984Y46718D01*
X421924Y46634D01*
X421918Y46615D01*
X421908Y46598D01*
X421882Y46498D01*
X421852Y46399D01*
X421852Y46379D01*
X421848Y46360D01*
X421856Y46257D01*
X421858Y46153D01*
X421865Y46134D01*
X421867Y46115D01*
X421907Y46020D01*
X421943Y45922D01*
X421955Y45906D01*
X421963Y45888D01*
X422068Y45757D01*
X422628Y45197D01*
X424025Y41825D01*
X424025Y38175D01*
X422628Y34803D01*
X420047Y32222D01*
X416675Y30825D01*
X413025Y30825D01*
G37*
%LPD*%
%LPC*%
G36*
X629127Y342777D02*
X629127Y342777D01*
X625113Y344440D01*
X622040Y347513D01*
X620377Y351527D01*
X620377Y355873D01*
X622040Y359887D01*
X625113Y362960D01*
X629127Y364623D01*
X633473Y364623D01*
X636903Y363202D01*
X637017Y363175D01*
X637130Y363147D01*
X637137Y363147D01*
X637143Y363146D01*
X637259Y363157D01*
X637376Y363166D01*
X637381Y363168D01*
X637388Y363169D01*
X637495Y363217D01*
X637602Y363262D01*
X637608Y363267D01*
X637612Y363269D01*
X637626Y363281D01*
X637733Y363367D01*
X643037Y368671D01*
X649844Y368671D01*
X649915Y368682D01*
X649987Y368684D01*
X650036Y368702D01*
X650087Y368710D01*
X650150Y368744D01*
X650218Y368769D01*
X650258Y368801D01*
X650305Y368826D01*
X650354Y368878D01*
X650410Y368922D01*
X650438Y368966D01*
X650474Y369004D01*
X650504Y369069D01*
X650543Y369129D01*
X650556Y369180D01*
X650578Y369227D01*
X650585Y369298D01*
X650603Y369368D01*
X650599Y369420D01*
X650605Y369471D01*
X650589Y369542D01*
X650584Y369613D01*
X650563Y369661D01*
X650552Y369712D01*
X650516Y369773D01*
X650487Y369839D01*
X650443Y369895D01*
X650426Y369923D01*
X650408Y369938D01*
X650383Y369970D01*
X647440Y372913D01*
X645777Y376927D01*
X645777Y381273D01*
X647440Y385287D01*
X650513Y388360D01*
X654527Y390023D01*
X658873Y390023D01*
X662887Y388360D01*
X665960Y385287D01*
X667623Y381273D01*
X667623Y376927D01*
X665960Y372913D01*
X663017Y369970D01*
X662975Y369912D01*
X662926Y369860D01*
X662904Y369813D01*
X662874Y369771D01*
X662853Y369702D01*
X662822Y369637D01*
X662817Y369585D01*
X662801Y369535D01*
X662803Y369464D01*
X662795Y369393D01*
X662806Y369342D01*
X662808Y369290D01*
X662832Y369222D01*
X662848Y369152D01*
X662874Y369107D01*
X662892Y369059D01*
X662937Y369003D01*
X662974Y368941D01*
X663013Y368907D01*
X663046Y368867D01*
X663106Y368828D01*
X663161Y368781D01*
X663209Y368762D01*
X663253Y368734D01*
X663322Y368716D01*
X663389Y368689D01*
X663460Y368681D01*
X663491Y368673D01*
X663515Y368675D01*
X663556Y368671D01*
X690689Y368671D01*
X697772Y361588D01*
X697846Y361535D01*
X697916Y361475D01*
X697946Y361463D01*
X697972Y361444D01*
X698059Y361417D01*
X698144Y361383D01*
X698185Y361379D01*
X698207Y361372D01*
X698239Y361373D01*
X698311Y361365D01*
X702266Y361365D01*
X705375Y358256D01*
X705375Y353860D01*
X702266Y350751D01*
X697870Y350751D01*
X694761Y353860D01*
X694761Y357815D01*
X694747Y357906D01*
X694739Y357996D01*
X694727Y358026D01*
X694722Y358058D01*
X694679Y358139D01*
X694643Y358223D01*
X694617Y358255D01*
X694606Y358276D01*
X694583Y358298D01*
X694538Y358354D01*
X689018Y363874D01*
X688944Y363927D01*
X688874Y363987D01*
X688844Y363999D01*
X688818Y364018D01*
X688731Y364045D01*
X688646Y364079D01*
X688605Y364083D01*
X688583Y364090D01*
X688551Y364089D01*
X688479Y364097D01*
X663588Y364097D01*
X663517Y364086D01*
X663445Y364084D01*
X663396Y364066D01*
X663345Y364058D01*
X663282Y364024D01*
X663214Y363999D01*
X663174Y363967D01*
X663127Y363942D01*
X663078Y363890D01*
X663022Y363846D01*
X662994Y363802D01*
X662958Y363764D01*
X662928Y363699D01*
X662889Y363639D01*
X662876Y363588D01*
X662854Y363541D01*
X662847Y363470D01*
X662829Y363400D01*
X662833Y363348D01*
X662827Y363297D01*
X662843Y363226D01*
X662848Y363155D01*
X662869Y363107D01*
X662880Y363056D01*
X662916Y362995D01*
X662945Y362929D01*
X662989Y362873D01*
X663006Y362845D01*
X663024Y362830D01*
X663049Y362798D01*
X665960Y359887D01*
X667623Y355873D01*
X667623Y351527D01*
X665960Y347513D01*
X662887Y344440D01*
X658873Y342777D01*
X654527Y342777D01*
X650513Y344440D01*
X647440Y347513D01*
X645777Y351527D01*
X645777Y355873D01*
X647440Y359887D01*
X650351Y362798D01*
X650393Y362856D01*
X650442Y362908D01*
X650464Y362955D01*
X650494Y362997D01*
X650515Y363066D01*
X650546Y363131D01*
X650551Y363183D01*
X650567Y363233D01*
X650565Y363304D01*
X650573Y363375D01*
X650562Y363426D01*
X650560Y363478D01*
X650536Y363546D01*
X650520Y363616D01*
X650494Y363661D01*
X650476Y363709D01*
X650431Y363765D01*
X650394Y363827D01*
X650355Y363861D01*
X650322Y363901D01*
X650262Y363940D01*
X650207Y363987D01*
X650159Y364006D01*
X650115Y364034D01*
X650046Y364052D01*
X649979Y364079D01*
X649908Y364087D01*
X649877Y364095D01*
X649853Y364093D01*
X649812Y364097D01*
X645247Y364097D01*
X645156Y364083D01*
X645066Y364075D01*
X645036Y364063D01*
X645004Y364058D01*
X644923Y364015D01*
X644839Y363979D01*
X644807Y363953D01*
X644786Y363942D01*
X644764Y363919D01*
X644708Y363874D01*
X640967Y360133D01*
X640899Y360039D01*
X640829Y359944D01*
X640827Y359938D01*
X640823Y359933D01*
X640789Y359822D01*
X640753Y359710D01*
X640753Y359704D01*
X640751Y359698D01*
X640754Y359581D01*
X640755Y359464D01*
X640757Y359457D01*
X640757Y359452D01*
X640764Y359435D01*
X640802Y359303D01*
X642223Y355873D01*
X642223Y351527D01*
X640560Y347513D01*
X637487Y344440D01*
X633473Y342777D01*
X629127Y342777D01*
G37*
%LPD*%
%LPC*%
G36*
X509291Y19839D02*
X509291Y19839D01*
X501513Y23061D01*
X495561Y29013D01*
X492339Y36791D01*
X492339Y45209D01*
X495561Y52987D01*
X501513Y58939D01*
X509291Y62161D01*
X517709Y62161D01*
X525487Y58939D01*
X531439Y52987D01*
X534661Y45209D01*
X534661Y36791D01*
X531439Y29013D01*
X525487Y23061D01*
X517709Y19839D01*
X509291Y19839D01*
G37*
%LPD*%
%LPC*%
G36*
X576791Y11839D02*
X576791Y11839D01*
X569013Y15061D01*
X563061Y21013D01*
X559839Y28791D01*
X559839Y37209D01*
X563061Y44987D01*
X569013Y50939D01*
X576791Y54161D01*
X585209Y54161D01*
X592987Y50939D01*
X598939Y44987D01*
X602161Y37209D01*
X602161Y28791D01*
X598939Y21013D01*
X592987Y15061D01*
X585209Y11839D01*
X576791Y11839D01*
G37*
%LPD*%
%LPC*%
G36*
X676753Y275613D02*
X676753Y275613D01*
X660304Y292062D01*
X660210Y292130D01*
X660116Y292200D01*
X660110Y292202D01*
X660105Y292205D01*
X659993Y292240D01*
X659882Y292276D01*
X659876Y292276D01*
X659870Y292278D01*
X659753Y292275D01*
X659636Y292273D01*
X659629Y292271D01*
X659624Y292271D01*
X659606Y292265D01*
X659475Y292227D01*
X658873Y291977D01*
X654527Y291977D01*
X650513Y293640D01*
X647440Y296713D01*
X645777Y300727D01*
X645777Y305073D01*
X647440Y309087D01*
X650513Y312160D01*
X654527Y313823D01*
X658873Y313823D01*
X662887Y312160D01*
X665960Y309087D01*
X667623Y305073D01*
X667623Y300727D01*
X665960Y296713D01*
X664579Y295332D01*
X664567Y295316D01*
X664552Y295303D01*
X664496Y295216D01*
X664435Y295132D01*
X664429Y295113D01*
X664419Y295096D01*
X664393Y294996D01*
X664363Y294897D01*
X664363Y294877D01*
X664359Y294858D01*
X664367Y294755D01*
X664369Y294651D01*
X664376Y294632D01*
X664378Y294612D01*
X664418Y294518D01*
X664454Y294420D01*
X664466Y294404D01*
X664474Y294386D01*
X664579Y294255D01*
X678424Y280410D01*
X678498Y280357D01*
X678568Y280297D01*
X678598Y280285D01*
X678624Y280266D01*
X678711Y280239D01*
X678796Y280205D01*
X678837Y280201D01*
X678859Y280194D01*
X678891Y280195D01*
X678963Y280187D01*
X714637Y280187D01*
X714728Y280201D01*
X714818Y280209D01*
X714848Y280221D01*
X714880Y280226D01*
X714961Y280269D01*
X715045Y280305D01*
X715077Y280331D01*
X715098Y280342D01*
X715120Y280365D01*
X715176Y280410D01*
X718990Y284224D01*
X719043Y284298D01*
X719103Y284368D01*
X719115Y284398D01*
X719134Y284424D01*
X719161Y284511D01*
X719195Y284596D01*
X719199Y284637D01*
X719206Y284659D01*
X719205Y284691D01*
X719213Y284763D01*
X719213Y288447D01*
X720720Y289954D01*
X720773Y290028D01*
X720833Y290098D01*
X720845Y290128D01*
X720864Y290154D01*
X720891Y290241D01*
X720925Y290326D01*
X720929Y290367D01*
X720936Y290389D01*
X720935Y290421D01*
X720943Y290493D01*
X720943Y294095D01*
X723490Y296642D01*
X723543Y296716D01*
X723603Y296785D01*
X723615Y296815D01*
X723634Y296841D01*
X723661Y296928D01*
X723695Y297013D01*
X723699Y297054D01*
X723706Y297076D01*
X723705Y297109D01*
X723713Y297180D01*
X723713Y342947D01*
X736720Y355954D01*
X736773Y356028D01*
X736833Y356098D01*
X736845Y356128D01*
X736864Y356154D01*
X736891Y356241D01*
X736925Y356326D01*
X736929Y356367D01*
X736936Y356389D01*
X736935Y356421D01*
X736943Y356493D01*
X736943Y360095D01*
X739905Y363057D01*
X744095Y363057D01*
X747057Y360095D01*
X747057Y355905D01*
X744095Y352943D01*
X740493Y352943D01*
X740402Y352929D01*
X740312Y352921D01*
X740282Y352909D01*
X740250Y352904D01*
X740169Y352861D01*
X740085Y352825D01*
X740053Y352799D01*
X740032Y352788D01*
X740010Y352765D01*
X739954Y352720D01*
X728510Y341276D01*
X728457Y341202D01*
X728397Y341132D01*
X728385Y341102D01*
X728366Y341076D01*
X728339Y340989D01*
X728305Y340904D01*
X728301Y340863D01*
X728294Y340841D01*
X728295Y340809D01*
X728287Y340737D01*
X728287Y297180D01*
X728301Y297090D01*
X728309Y296999D01*
X728321Y296969D01*
X728326Y296937D01*
X728369Y296856D01*
X728405Y296773D01*
X728431Y296740D01*
X728442Y296720D01*
X728465Y296698D01*
X728510Y296642D01*
X731057Y294095D01*
X731057Y289905D01*
X728095Y286943D01*
X724548Y286943D01*
X724528Y286940D01*
X724509Y286942D01*
X724407Y286920D01*
X724305Y286904D01*
X724288Y286894D01*
X724268Y286890D01*
X724179Y286837D01*
X724088Y286788D01*
X724074Y286774D01*
X724057Y286764D01*
X723990Y286685D01*
X723918Y286610D01*
X723910Y286592D01*
X723897Y286577D01*
X723858Y286481D01*
X723815Y286387D01*
X723813Y286367D01*
X723805Y286349D01*
X723787Y286182D01*
X723787Y282553D01*
X716847Y275613D01*
X676753Y275613D01*
G37*
%LPD*%
%LPC*%
G36*
X914827Y410277D02*
X914827Y410277D01*
X910813Y411940D01*
X907740Y415013D01*
X906077Y419027D01*
X906077Y423373D01*
X907740Y427387D01*
X910813Y430460D01*
X914243Y431881D01*
X914343Y431942D01*
X914443Y432002D01*
X914447Y432007D01*
X914452Y432010D01*
X914527Y432100D01*
X914603Y432189D01*
X914605Y432195D01*
X914609Y432200D01*
X914651Y432308D01*
X914695Y432417D01*
X914696Y432425D01*
X914697Y432430D01*
X914698Y432448D01*
X914713Y432584D01*
X914713Y466447D01*
X918752Y470486D01*
X918805Y470560D01*
X918865Y470630D01*
X918877Y470660D01*
X918896Y470686D01*
X918923Y470773D01*
X918957Y470858D01*
X918961Y470899D01*
X918968Y470921D01*
X918967Y470953D01*
X918975Y471025D01*
X918975Y480632D01*
X919868Y481525D01*
X933132Y481525D01*
X934025Y480632D01*
X934025Y469368D01*
X933132Y468475D01*
X923525Y468475D01*
X923434Y468461D01*
X923344Y468453D01*
X923314Y468441D01*
X923282Y468436D01*
X923201Y468393D01*
X923117Y468357D01*
X923085Y468331D01*
X923064Y468320D01*
X923042Y468297D01*
X922986Y468252D01*
X919510Y464776D01*
X919457Y464702D01*
X919397Y464632D01*
X919385Y464602D01*
X919366Y464576D01*
X919339Y464489D01*
X919305Y464404D01*
X919301Y464363D01*
X919294Y464341D01*
X919295Y464309D01*
X919287Y464237D01*
X919287Y432584D01*
X919306Y432469D01*
X919323Y432353D01*
X919325Y432348D01*
X919326Y432341D01*
X919381Y432239D01*
X919434Y432134D01*
X919439Y432130D01*
X919442Y432124D01*
X919526Y432044D01*
X919610Y431962D01*
X919616Y431958D01*
X919620Y431955D01*
X919637Y431947D01*
X919757Y431881D01*
X923187Y430460D01*
X926260Y427387D01*
X927923Y423373D01*
X927923Y419027D01*
X926260Y415013D01*
X923187Y411940D01*
X919173Y410277D01*
X914827Y410277D01*
G37*
%LPD*%
%LPC*%
G36*
X751905Y273943D02*
X751905Y273943D01*
X748943Y276905D01*
X748943Y281095D01*
X751490Y283642D01*
X751543Y283716D01*
X751603Y283785D01*
X751615Y283815D01*
X751634Y283841D01*
X751661Y283928D01*
X751695Y284013D01*
X751699Y284054D01*
X751706Y284076D01*
X751705Y284109D01*
X751713Y284180D01*
X751713Y325947D01*
X774490Y348724D01*
X774543Y348798D01*
X774603Y348868D01*
X774615Y348898D01*
X774634Y348924D01*
X774661Y349011D01*
X774695Y349096D01*
X774699Y349137D01*
X774706Y349159D01*
X774705Y349191D01*
X774713Y349263D01*
X774713Y361820D01*
X774699Y361910D01*
X774691Y362001D01*
X774679Y362031D01*
X774674Y362063D01*
X774631Y362144D01*
X774595Y362227D01*
X774569Y362260D01*
X774558Y362280D01*
X774535Y362302D01*
X774490Y362358D01*
X771943Y364905D01*
X771943Y369095D01*
X774905Y372057D01*
X779095Y372057D01*
X782057Y369095D01*
X782057Y364905D01*
X779510Y362358D01*
X779457Y362284D01*
X779397Y362215D01*
X779385Y362185D01*
X779366Y362159D01*
X779339Y362072D01*
X779305Y361987D01*
X779301Y361946D01*
X779294Y361924D01*
X779295Y361891D01*
X779287Y361820D01*
X779287Y347053D01*
X756510Y324276D01*
X756457Y324202D01*
X756397Y324132D01*
X756385Y324102D01*
X756366Y324076D01*
X756339Y323989D01*
X756305Y323904D01*
X756301Y323863D01*
X756294Y323841D01*
X756295Y323809D01*
X756287Y323737D01*
X756287Y284180D01*
X756301Y284090D01*
X756309Y283999D01*
X756321Y283969D01*
X756326Y283937D01*
X756369Y283856D01*
X756405Y283773D01*
X756431Y283740D01*
X756442Y283720D01*
X756465Y283698D01*
X756510Y283642D01*
X759057Y281095D01*
X759057Y276905D01*
X756095Y273943D01*
X751905Y273943D01*
G37*
%LPD*%
%LPC*%
G36*
X539296Y62435D02*
X539296Y62435D01*
X536148Y63739D01*
X533739Y66148D01*
X532435Y69296D01*
X532435Y72704D01*
X533739Y75852D01*
X536148Y78261D01*
X539296Y79565D01*
X542704Y79565D01*
X545852Y78261D01*
X548261Y75852D01*
X548797Y74558D01*
X548834Y74497D01*
X548864Y74431D01*
X548899Y74393D01*
X548926Y74349D01*
X548982Y74303D01*
X549030Y74250D01*
X549076Y74225D01*
X549116Y74192D01*
X549183Y74166D01*
X549246Y74132D01*
X549297Y74122D01*
X549345Y74104D01*
X549417Y74101D01*
X549488Y74088D01*
X549539Y74096D01*
X549591Y74093D01*
X549660Y74113D01*
X549731Y74124D01*
X549777Y74147D01*
X549827Y74162D01*
X549886Y74203D01*
X549950Y74235D01*
X549987Y74272D01*
X550029Y74302D01*
X550072Y74360D01*
X550122Y74411D01*
X550157Y74474D01*
X550176Y74500D01*
X550183Y74522D01*
X550203Y74558D01*
X550739Y75852D01*
X553148Y78261D01*
X556296Y79565D01*
X559704Y79565D01*
X562852Y78261D01*
X565261Y75852D01*
X566565Y72704D01*
X566565Y69296D01*
X565261Y66148D01*
X562852Y63739D01*
X559704Y62435D01*
X556296Y62435D01*
X553148Y63739D01*
X550739Y66148D01*
X550203Y67442D01*
X550166Y67503D01*
X550136Y67569D01*
X550101Y67607D01*
X550074Y67651D01*
X550019Y67697D01*
X549970Y67750D01*
X549924Y67775D01*
X549884Y67808D01*
X549817Y67834D01*
X549754Y67868D01*
X549703Y67878D01*
X549655Y67896D01*
X549583Y67899D01*
X549512Y67912D01*
X549461Y67904D01*
X549409Y67907D01*
X549340Y67887D01*
X549269Y67876D01*
X549223Y67853D01*
X549173Y67838D01*
X549114Y67797D01*
X549050Y67765D01*
X549013Y67728D01*
X548971Y67698D01*
X548928Y67640D01*
X548878Y67589D01*
X548843Y67526D01*
X548824Y67500D01*
X548817Y67478D01*
X548797Y67442D01*
X548261Y66148D01*
X545852Y63739D01*
X542704Y62435D01*
X539296Y62435D01*
G37*
%LPD*%
%LPC*%
G36*
X919868Y518475D02*
X919868Y518475D01*
X918975Y519368D01*
X918975Y528976D01*
X918961Y529066D01*
X918953Y529157D01*
X918941Y529186D01*
X918936Y529218D01*
X918893Y529299D01*
X918857Y529383D01*
X918831Y529415D01*
X918820Y529436D01*
X918797Y529458D01*
X918752Y529514D01*
X915776Y532490D01*
X915702Y532543D01*
X915632Y532603D01*
X915602Y532615D01*
X915576Y532634D01*
X915489Y532661D01*
X915404Y532695D01*
X915363Y532699D01*
X915341Y532706D01*
X915309Y532705D01*
X915237Y532713D01*
X884533Y532713D01*
X884443Y532699D01*
X884352Y532691D01*
X884323Y532679D01*
X884291Y532674D01*
X884210Y532631D01*
X884126Y532595D01*
X884094Y532569D01*
X884073Y532558D01*
X884051Y532535D01*
X883995Y532490D01*
X881198Y529693D01*
X876802Y529693D01*
X873693Y532802D01*
X873693Y537198D01*
X876802Y540307D01*
X881198Y540307D01*
X883995Y537510D01*
X884069Y537457D01*
X884139Y537397D01*
X884169Y537385D01*
X884195Y537366D01*
X884282Y537339D01*
X884367Y537305D01*
X884408Y537301D01*
X884430Y537294D01*
X884462Y537295D01*
X884533Y537287D01*
X917447Y537287D01*
X922986Y531748D01*
X923060Y531695D01*
X923130Y531635D01*
X923160Y531623D01*
X923186Y531604D01*
X923273Y531577D01*
X923358Y531543D01*
X923399Y531539D01*
X923421Y531532D01*
X923453Y531533D01*
X923524Y531525D01*
X933132Y531525D01*
X934025Y530632D01*
X934025Y519368D01*
X933132Y518475D01*
X919868Y518475D01*
G37*
%LPD*%
%LPC*%
G36*
X629127Y368177D02*
X629127Y368177D01*
X625113Y369840D01*
X622040Y372913D01*
X620377Y376927D01*
X620377Y381273D01*
X622040Y385287D01*
X625113Y388360D01*
X629127Y390023D01*
X633473Y390023D01*
X637487Y388360D01*
X640560Y385287D01*
X642223Y381273D01*
X642223Y376927D01*
X640560Y372913D01*
X637487Y369840D01*
X633473Y368177D01*
X629127Y368177D01*
G37*
%LPD*%
%LPC*%
G36*
X629127Y291977D02*
X629127Y291977D01*
X625113Y293640D01*
X622040Y296713D01*
X620377Y300727D01*
X620377Y305073D01*
X622040Y309087D01*
X625113Y312160D01*
X629127Y313823D01*
X633473Y313823D01*
X637487Y312160D01*
X640560Y309087D01*
X642223Y305073D01*
X642223Y300727D01*
X640560Y296713D01*
X637487Y293640D01*
X633473Y291977D01*
X629127Y291977D01*
G37*
%LPD*%
%LPC*%
G36*
X438425Y30825D02*
X438425Y30825D01*
X435053Y32222D01*
X432472Y34803D01*
X431075Y38175D01*
X431075Y41825D01*
X432472Y45197D01*
X435053Y47778D01*
X438425Y49175D01*
X442075Y49175D01*
X445447Y47778D01*
X448028Y45197D01*
X449425Y41825D01*
X449425Y38175D01*
X448028Y34803D01*
X445447Y32222D01*
X442075Y30825D01*
X438425Y30825D01*
G37*
%LPD*%
%LPC*%
G36*
X331325Y30825D02*
X331325Y30825D01*
X327953Y32222D01*
X325372Y34803D01*
X323975Y38175D01*
X323975Y41825D01*
X325372Y45197D01*
X327953Y47778D01*
X331325Y49175D01*
X334975Y49175D01*
X338347Y47778D01*
X340928Y45197D01*
X342325Y41825D01*
X342325Y38175D01*
X340928Y34803D01*
X338347Y32222D01*
X334975Y30825D01*
X331325Y30825D01*
G37*
%LPD*%
%LPC*%
G36*
X305925Y30825D02*
X305925Y30825D01*
X302553Y32222D01*
X299972Y34803D01*
X298575Y38175D01*
X298575Y41825D01*
X299972Y45197D01*
X302553Y47778D01*
X305925Y49175D01*
X309575Y49175D01*
X312947Y47778D01*
X315528Y45197D01*
X316925Y41825D01*
X316925Y38175D01*
X315528Y34803D01*
X312947Y32222D01*
X309575Y30825D01*
X305925Y30825D01*
G37*
%LPD*%
%LPC*%
G36*
X579296Y87435D02*
X579296Y87435D01*
X576148Y88739D01*
X573739Y91148D01*
X572435Y94296D01*
X572435Y97704D01*
X573739Y100852D01*
X576148Y103261D01*
X579296Y104565D01*
X582704Y104565D01*
X585852Y103261D01*
X588261Y100852D01*
X589565Y97704D01*
X589565Y94296D01*
X588261Y91148D01*
X585852Y88739D01*
X582704Y87435D01*
X579296Y87435D01*
G37*
%LPD*%
%LPC*%
G36*
X619296Y62435D02*
X619296Y62435D01*
X616148Y63739D01*
X613739Y66148D01*
X612435Y69296D01*
X612435Y72704D01*
X613739Y75852D01*
X616148Y78261D01*
X619296Y79565D01*
X622704Y79565D01*
X625852Y78261D01*
X628261Y75852D01*
X629565Y72704D01*
X629565Y69296D01*
X628261Y66148D01*
X625852Y63739D01*
X622704Y62435D01*
X619296Y62435D01*
G37*
%LPD*%
%LPC*%
G36*
X596296Y62435D02*
X596296Y62435D01*
X593148Y63739D01*
X590739Y66148D01*
X589435Y69296D01*
X589435Y72704D01*
X590739Y75852D01*
X593148Y78261D01*
X596296Y79565D01*
X599704Y79565D01*
X602852Y78261D01*
X605261Y75852D01*
X606565Y72704D01*
X606565Y69296D01*
X605261Y66148D01*
X602852Y63739D01*
X599704Y62435D01*
X596296Y62435D01*
G37*
%LPD*%
%LPC*%
G36*
X559296Y87435D02*
X559296Y87435D01*
X556148Y88739D01*
X553739Y91148D01*
X552435Y94296D01*
X552435Y97704D01*
X553739Y100852D01*
X556148Y103261D01*
X559296Y104565D01*
X562704Y104565D01*
X565852Y103261D01*
X568261Y100852D01*
X569565Y97704D01*
X569565Y94296D01*
X568261Y91148D01*
X565852Y88739D01*
X562704Y87435D01*
X559296Y87435D01*
G37*
%LPD*%
%LPC*%
G36*
X340606Y143785D02*
X340606Y143785D01*
X337477Y145082D01*
X335082Y147477D01*
X333785Y150606D01*
X333785Y153994D01*
X335082Y157123D01*
X337477Y159518D01*
X340606Y160815D01*
X343994Y160815D01*
X347123Y159518D01*
X349518Y157123D01*
X350815Y153994D01*
X350815Y150606D01*
X349518Y147477D01*
X347123Y145082D01*
X343994Y143785D01*
X340606Y143785D01*
G37*
%LPD*%
%LPC*%
G36*
X366006Y143785D02*
X366006Y143785D01*
X362877Y145082D01*
X360482Y147477D01*
X359185Y150606D01*
X359185Y153994D01*
X360482Y157123D01*
X362877Y159518D01*
X366006Y160815D01*
X369394Y160815D01*
X372523Y159518D01*
X374918Y157123D01*
X376215Y153994D01*
X376215Y150606D01*
X374918Y147477D01*
X372523Y145082D01*
X369394Y143785D01*
X366006Y143785D01*
G37*
%LPD*%
%LPC*%
G36*
X327906Y169185D02*
X327906Y169185D01*
X324777Y170482D01*
X322382Y172877D01*
X321085Y176006D01*
X321085Y179394D01*
X322382Y182523D01*
X324777Y184918D01*
X327906Y186215D01*
X331294Y186215D01*
X334423Y184918D01*
X336818Y182523D01*
X338115Y179394D01*
X338115Y176006D01*
X336818Y172877D01*
X334423Y170482D01*
X331294Y169185D01*
X327906Y169185D01*
G37*
%LPD*%
%LPC*%
G36*
X429506Y169185D02*
X429506Y169185D01*
X426377Y170482D01*
X423982Y172877D01*
X422685Y176006D01*
X422685Y179394D01*
X423982Y182523D01*
X426377Y184918D01*
X429506Y186215D01*
X432894Y186215D01*
X436023Y184918D01*
X438418Y182523D01*
X439715Y179394D01*
X439715Y176006D01*
X438418Y172877D01*
X436023Y170482D01*
X432894Y169185D01*
X429506Y169185D01*
G37*
%LPD*%
%LPC*%
G36*
X898823Y476570D02*
X898823Y476570D01*
X895725Y477854D01*
X893354Y480225D01*
X892070Y483323D01*
X892070Y486677D01*
X893354Y489775D01*
X895725Y492146D01*
X898823Y493430D01*
X902177Y493430D01*
X905275Y492146D01*
X907646Y489775D01*
X908930Y486677D01*
X908930Y483323D01*
X907646Y480225D01*
X905275Y477854D01*
X902177Y476570D01*
X898823Y476570D01*
G37*
%LPD*%
%LPC*%
G36*
X898823Y506570D02*
X898823Y506570D01*
X895725Y507854D01*
X893354Y510225D01*
X892070Y513323D01*
X892070Y516677D01*
X893354Y519775D01*
X895725Y522146D01*
X898823Y523430D01*
X902177Y523430D01*
X905275Y522146D01*
X907646Y519775D01*
X908930Y516677D01*
X908930Y513323D01*
X907646Y510225D01*
X905275Y507854D01*
X902177Y506570D01*
X898823Y506570D01*
G37*
%LPD*%
%LPC*%
G36*
X452973Y120823D02*
X452973Y120823D01*
X452973Y134009D01*
X454908Y133702D01*
X457118Y132984D01*
X459189Y131929D01*
X461069Y130563D01*
X462713Y128919D01*
X464079Y127039D01*
X465134Y124968D01*
X465852Y122758D01*
X466159Y120823D01*
X452973Y120823D01*
G37*
%LPD*%
%LPC*%
G36*
X298073Y120823D02*
X298073Y120823D01*
X298073Y134009D01*
X300008Y133702D01*
X302218Y132984D01*
X304289Y131929D01*
X306169Y130563D01*
X307813Y128919D01*
X309179Y127039D01*
X310234Y124968D01*
X310952Y122758D01*
X311259Y120823D01*
X298073Y120823D01*
G37*
%LPD*%
%LPC*%
G36*
X436741Y120823D02*
X436741Y120823D01*
X437048Y122758D01*
X437766Y124968D01*
X438821Y127039D01*
X440187Y128919D01*
X441831Y130563D01*
X443711Y131929D01*
X445782Y132984D01*
X447992Y133702D01*
X449927Y134009D01*
X449927Y120823D01*
X436741Y120823D01*
G37*
%LPD*%
%LPC*%
G36*
X632823Y329823D02*
X632823Y329823D01*
X632823Y340146D01*
X634096Y339945D01*
X635883Y339364D01*
X637557Y338511D01*
X639078Y337406D01*
X640406Y336078D01*
X641511Y334557D01*
X642364Y332883D01*
X642945Y331096D01*
X643146Y329823D01*
X632823Y329823D01*
G37*
%LPD*%
%LPC*%
G36*
X658223Y329823D02*
X658223Y329823D01*
X658223Y340146D01*
X659496Y339945D01*
X661283Y339364D01*
X662957Y338511D01*
X664478Y337406D01*
X665806Y336078D01*
X666911Y334557D01*
X667764Y332883D01*
X668345Y331096D01*
X668546Y329823D01*
X658223Y329823D01*
G37*
%LPD*%
%LPC*%
G36*
X918523Y397323D02*
X918523Y397323D01*
X918523Y407646D01*
X919796Y407445D01*
X921583Y406864D01*
X923257Y406011D01*
X924778Y404906D01*
X926106Y403578D01*
X927211Y402057D01*
X928064Y400383D01*
X928645Y398596D01*
X928846Y397323D01*
X918523Y397323D01*
G37*
%LPD*%
%LPC*%
G36*
X923154Y555323D02*
X923154Y555323D01*
X923355Y556596D01*
X923936Y558383D01*
X924789Y560057D01*
X925894Y561578D01*
X927222Y562906D01*
X928743Y564011D01*
X930417Y564864D01*
X932204Y565445D01*
X933477Y565646D01*
X933477Y555323D01*
X923154Y555323D01*
G37*
%LPD*%
%LPC*%
G36*
X918523Y394277D02*
X918523Y394277D01*
X928846Y394277D01*
X928645Y393004D01*
X928064Y391217D01*
X927211Y389543D01*
X926106Y388022D01*
X924778Y386694D01*
X923257Y385589D01*
X921583Y384736D01*
X919796Y384155D01*
X918523Y383954D01*
X918523Y394277D01*
G37*
%LPD*%
%LPC*%
G36*
X619454Y329823D02*
X619454Y329823D01*
X619655Y331096D01*
X620236Y332883D01*
X621089Y334557D01*
X622194Y336078D01*
X623522Y337406D01*
X625043Y338511D01*
X626717Y339364D01*
X628504Y339945D01*
X629777Y340146D01*
X629777Y329823D01*
X619454Y329823D01*
G37*
%LPD*%
%LPC*%
G36*
X644854Y329823D02*
X644854Y329823D01*
X645055Y331096D01*
X645636Y332883D01*
X646489Y334557D01*
X647594Y336078D01*
X648922Y337406D01*
X650443Y338511D01*
X652117Y339364D01*
X653904Y339945D01*
X655177Y340146D01*
X655177Y329823D01*
X644854Y329823D01*
G37*
%LPD*%
%LPC*%
G36*
X905154Y397323D02*
X905154Y397323D01*
X905355Y398596D01*
X905936Y400383D01*
X906789Y402057D01*
X907894Y403578D01*
X909222Y404906D01*
X910743Y406011D01*
X912417Y406864D01*
X914204Y407445D01*
X915477Y407646D01*
X915477Y397323D01*
X905154Y397323D01*
G37*
%LPD*%
%LPC*%
G36*
X923154Y580723D02*
X923154Y580723D01*
X923355Y581996D01*
X923936Y583783D01*
X924789Y585457D01*
X925894Y586978D01*
X927222Y588306D01*
X928743Y589411D01*
X930417Y590264D01*
X932204Y590845D01*
X933477Y591046D01*
X933477Y580723D01*
X923154Y580723D01*
G37*
%LPD*%
%LPC*%
G36*
X632823Y326777D02*
X632823Y326777D01*
X643146Y326777D01*
X642945Y325504D01*
X642364Y323717D01*
X641511Y322043D01*
X640406Y320522D01*
X639078Y319194D01*
X637557Y318089D01*
X635883Y317236D01*
X634096Y316655D01*
X632823Y316454D01*
X632823Y326777D01*
G37*
%LPD*%
%LPC*%
G36*
X658223Y326777D02*
X658223Y326777D01*
X668546Y326777D01*
X668345Y325504D01*
X667764Y323717D01*
X666911Y322043D01*
X665806Y320522D01*
X664478Y319194D01*
X662957Y318089D01*
X661283Y317236D01*
X659496Y316655D01*
X658223Y316454D01*
X658223Y326777D01*
G37*
%LPD*%
%LPC*%
G36*
X914204Y384155D02*
X914204Y384155D01*
X912417Y384736D01*
X910743Y385589D01*
X909222Y386694D01*
X907894Y388022D01*
X906789Y389543D01*
X905936Y391217D01*
X905355Y393004D01*
X905154Y394277D01*
X915477Y394277D01*
X915477Y383954D01*
X914204Y384155D01*
G37*
%LPD*%
%LPC*%
G36*
X653904Y316655D02*
X653904Y316655D01*
X652117Y317236D01*
X650443Y318089D01*
X648922Y319194D01*
X647594Y320522D01*
X646489Y322043D01*
X645636Y323717D01*
X645055Y325504D01*
X644854Y326777D01*
X655177Y326777D01*
X655177Y316454D01*
X653904Y316655D01*
G37*
%LPD*%
%LPC*%
G36*
X932204Y542155D02*
X932204Y542155D01*
X930417Y542736D01*
X928743Y543589D01*
X927222Y544694D01*
X925894Y546022D01*
X924789Y547543D01*
X923936Y549217D01*
X923355Y551004D01*
X923154Y552277D01*
X933477Y552277D01*
X933477Y541954D01*
X932204Y542155D01*
G37*
%LPD*%
%LPC*%
G36*
X932204Y567555D02*
X932204Y567555D01*
X930417Y568136D01*
X928743Y568989D01*
X927222Y570094D01*
X925894Y571422D01*
X924789Y572943D01*
X923936Y574617D01*
X923355Y576404D01*
X923154Y577677D01*
X933477Y577677D01*
X933477Y567354D01*
X932204Y567555D01*
G37*
%LPD*%
%LPC*%
G36*
X628504Y316655D02*
X628504Y316655D01*
X626717Y317236D01*
X625043Y318089D01*
X623522Y319194D01*
X622194Y320522D01*
X621089Y322043D01*
X620236Y323717D01*
X619655Y325504D01*
X619454Y326777D01*
X629777Y326777D01*
X629777Y316454D01*
X628504Y316655D01*
G37*
%LPD*%
%LPC*%
G36*
X318423Y153823D02*
X318423Y153823D01*
X318423Y161714D01*
X319680Y161464D01*
X321414Y160746D01*
X322976Y159703D01*
X324303Y158376D01*
X325346Y156814D01*
X326064Y155080D01*
X326314Y153823D01*
X318423Y153823D01*
G37*
%LPD*%
%LPC*%
G36*
X318423Y150777D02*
X318423Y150777D01*
X326314Y150777D01*
X326064Y149520D01*
X325346Y147786D01*
X324303Y146224D01*
X322976Y144897D01*
X321414Y143854D01*
X319680Y143136D01*
X318423Y142886D01*
X318423Y150777D01*
G37*
%LPD*%
%LPC*%
G36*
X307486Y153823D02*
X307486Y153823D01*
X307736Y155080D01*
X308454Y156814D01*
X309497Y158376D01*
X310824Y159703D01*
X312386Y160746D01*
X314120Y161464D01*
X315377Y161714D01*
X315377Y153823D01*
X307486Y153823D01*
G37*
%LPD*%
%LPC*%
G36*
X314120Y143136D02*
X314120Y143136D01*
X312386Y143854D01*
X310824Y144897D01*
X309497Y146224D01*
X308454Y147786D01*
X307736Y149520D01*
X307486Y150777D01*
X315377Y150777D01*
X315377Y142886D01*
X314120Y143136D01*
G37*
%LPD*%
%LPC*%
G36*
X316899Y152299D02*
X316899Y152299D01*
X316899Y152301D01*
X316901Y152301D01*
X316901Y152299D01*
X316899Y152299D01*
G37*
%LPD*%
%LPC*%
G36*
X631299Y328299D02*
X631299Y328299D01*
X631299Y328301D01*
X631301Y328301D01*
X631301Y328299D01*
X631299Y328299D01*
G37*
%LPD*%
%LPC*%
G36*
X656699Y328299D02*
X656699Y328299D01*
X656699Y328301D01*
X656701Y328301D01*
X656701Y328299D01*
X656699Y328299D01*
G37*
%LPD*%
%LPC*%
G36*
X916999Y395799D02*
X916999Y395799D01*
X916999Y395801D01*
X917001Y395801D01*
X917001Y395799D01*
X916999Y395799D01*
G37*
%LPD*%
D10*
X631300Y379100D03*
X656700Y379100D03*
X631300Y353700D03*
X656700Y353700D03*
X631300Y328300D03*
X656700Y328300D03*
X631300Y302900D03*
X656700Y302900D03*
X917000Y345000D03*
X917000Y370400D03*
X917000Y395800D03*
X917000Y421200D03*
X896000Y791000D03*
X896000Y765600D03*
X870600Y791000D03*
X870600Y765600D03*
X845200Y791000D03*
X845200Y765600D03*
X819800Y791000D03*
X819800Y765600D03*
X794400Y791000D03*
X794400Y765600D03*
X935000Y630000D03*
X935000Y604600D03*
X935000Y579200D03*
X935000Y553800D03*
D11*
X296550Y119300D03*
X451450Y119300D03*
D12*
X380400Y177700D03*
X393100Y152300D03*
X418500Y152300D03*
X367700Y152300D03*
X342300Y152300D03*
X316900Y152300D03*
X405800Y177700D03*
X431200Y177700D03*
X355000Y177700D03*
X329600Y177700D03*
D13*
X307750Y40000D03*
X440250Y40000D03*
X414850Y40000D03*
X333150Y40000D03*
D14*
X926500Y525000D03*
X926500Y500000D03*
X926500Y475000D03*
D15*
X900500Y515000D03*
X900500Y485000D03*
D16*
X558000Y71000D03*
X578000Y71000D03*
X541000Y71000D03*
X621000Y71000D03*
X621000Y96000D03*
X541000Y96000D03*
X561000Y96000D03*
X581000Y96000D03*
X601000Y96000D03*
X598000Y71000D03*
D17*
X605000Y33000D02*
X558000Y33000D01*
X537000Y41000D02*
X490000Y41000D01*
X648000Y64000D02*
X648000Y17000D01*
D18*
X846000Y120000D03*
D19*
X822000Y96000D01*
X671000Y96000D01*
X621000Y46000D02*
X621000Y25000D01*
X621000Y46000D02*
X671000Y96000D01*
D18*
X621000Y25000D03*
D20*
X700068Y356058D03*
D21*
X689742Y366384D02*
X643984Y366384D01*
X689742Y366384D02*
X700068Y356058D01*
X643984Y366384D02*
X631300Y353700D01*
D18*
X742000Y358000D03*
D20*
X879000Y535000D03*
D21*
X916500Y535000D01*
X926500Y525000D01*
X715900Y277900D02*
X677700Y277900D01*
X656700Y298900D01*
X656700Y302900D01*
X726000Y342000D02*
X742000Y358000D01*
X726000Y342000D02*
X726000Y292000D01*
X721500Y283500D02*
X715900Y277900D01*
X721500Y283500D02*
X721500Y287500D01*
X726000Y292000D01*
D18*
X726000Y292000D03*
D21*
X917000Y465500D02*
X926500Y475000D01*
X917000Y465500D02*
X917000Y421200D01*
X917000Y370400D02*
X910400Y370400D01*
X887000Y347000D01*
X887000Y184000D02*
X817000Y114000D01*
X887000Y184000D02*
X887000Y347000D01*
X661000Y114000D02*
X631000Y84000D01*
X661000Y114000D02*
X817000Y114000D01*
X591000Y84000D02*
X578000Y71000D01*
X591000Y84000D02*
X631000Y84000D01*
X410658Y133024D02*
X393100Y150582D01*
X393100Y152300D01*
X410658Y133024D02*
X436335Y133024D01*
X800952Y184952D02*
X824000Y208000D01*
X840200Y760600D02*
X845200Y765600D01*
X840200Y745600D02*
X824000Y729400D01*
X824000Y208000D01*
X840200Y745600D02*
X840200Y760600D01*
X488263Y184952D02*
X436335Y133024D01*
X488263Y184952D02*
X800952Y184952D01*
X799689Y188000D02*
X820952Y209263D01*
X799689Y188000D02*
X487000Y188000D01*
X411928Y136072D02*
X402459Y145541D01*
X402459Y156059D01*
X396942Y161576D01*
X363282Y177700D02*
X355000Y177700D01*
X379406Y161576D02*
X396942Y161576D01*
X379406Y161576D02*
X363282Y177700D01*
X435072Y136072D02*
X487000Y188000D01*
X435072Y136072D02*
X411928Y136072D01*
X845200Y782124D02*
X845200Y791000D01*
X845200Y782124D02*
X833516Y770440D01*
X833516Y760760D01*
X837152Y757124D01*
X837152Y746863D01*
X820952Y730663D02*
X820952Y209263D01*
X820952Y730663D02*
X837152Y746863D01*
X812938Y749049D02*
X804000Y740111D01*
X407082Y177700D02*
X405800Y177700D01*
X407082Y177700D02*
X422358Y162424D01*
X476000Y200000D02*
X789000Y200000D01*
X476000Y200000D02*
X438424Y162424D01*
X422358Y162424D01*
X804000Y215000D02*
X804000Y740111D01*
X804000Y215000D02*
X789000Y200000D01*
X812938Y749049D02*
X812938Y755938D01*
X808116Y760760D01*
X819800Y782800D02*
X819800Y791000D01*
X808116Y771116D02*
X808116Y760760D01*
X808116Y771116D02*
X819800Y782800D01*
X425576Y159376D02*
X418500Y152300D01*
X790263Y196952D02*
X807048Y213737D01*
X439687Y159376D02*
X425576Y159376D01*
X439687Y159376D02*
X477263Y196952D01*
X790263Y196952D01*
X819800Y759800D02*
X819800Y765600D01*
X819800Y759800D02*
X815986Y755986D01*
X815986Y747786D01*
X807048Y738848D01*
X807048Y213737D01*
X896000Y727000D02*
X896000Y765600D01*
X855000Y686000D02*
X855000Y208000D01*
X806000Y159000D01*
D18*
X472000Y144000D03*
D21*
X855000Y686000D02*
X896000Y727000D01*
X806000Y159000D02*
X494000Y159000D01*
X479000Y144000D01*
X472000Y144000D01*
D18*
X465000Y137932D03*
D21*
X474514Y137932D01*
X807263Y155952D02*
X858048Y206737D01*
X858048Y684737D01*
X899048Y752124D02*
X907684Y760760D01*
X907684Y773440D01*
X896000Y785124D01*
X899048Y725737D02*
X858048Y684737D01*
X899048Y725737D02*
X899048Y752124D01*
X896000Y785124D02*
X896000Y791000D01*
X477534Y140952D02*
X474514Y137932D01*
X477534Y140952D02*
X480263Y140952D01*
X495263Y155952D01*
X807263Y155952D01*
D18*
X508000Y173000D03*
D21*
X511000Y176000D01*
X807000Y176000D01*
X838000Y207000D01*
X858916Y760760D02*
X858916Y770440D01*
X858916Y760760D02*
X863884Y755792D01*
X870600Y782124D02*
X870600Y791000D01*
X870600Y782124D02*
X858916Y770440D01*
X863884Y755792D02*
X863884Y735760D01*
X838000Y709876D01*
X838000Y207000D01*
X866932Y761932D02*
X870600Y765600D01*
D20*
X497251Y172251D03*
D21*
X510410Y167182D02*
X516180Y172952D01*
X505319Y167182D02*
X500251Y172251D01*
X497251Y172251D01*
X505319Y167182D02*
X510410Y167182D01*
X866932Y734498D02*
X866932Y761932D01*
X866932Y734498D02*
X841048Y708614D01*
X841048Y205737D01*
X808263Y172952D01*
X516180Y172952D01*
X781000Y777600D02*
X794400Y791000D01*
X791000Y334000D02*
X771000Y314000D01*
X771000Y294000D01*
X778000Y287000D01*
D18*
X778000Y287000D03*
D21*
X781000Y760000D02*
X781000Y777600D01*
X781000Y760000D02*
X791000Y750000D01*
X791000Y334000D01*
D18*
X477000Y67000D03*
D21*
X469000Y59000D01*
X431000Y59000D01*
X414850Y42850D01*
X414850Y40000D01*
D18*
X777000Y367000D03*
X754000Y279000D03*
D21*
X777000Y348000D02*
X777000Y367000D01*
X777000Y348000D02*
X754000Y325000D01*
X754000Y279000D01*
X872000Y193000D02*
X819000Y140000D01*
X893000Y500000D02*
X926500Y500000D01*
X893000Y500000D02*
X872000Y479000D01*
X872000Y193000D01*
X819000Y140000D02*
X653429Y140000D01*
X638429Y125000D01*
X561000Y125000D01*
X541000Y105000D02*
X541000Y96000D01*
X541000Y105000D02*
X561000Y125000D01*
M02*
