M48
;GenerationSoftware,Autodesk,EAGLE,9.6.2*%
;CreationDate,2021-03-20T14:56:53Z*%
FMAT,2
ICI,OFF
METRIC,TZ,000.000
T10C0.300
T9C0.350
T8C0.850
T7C0.890
T6C0.900
T5C1.016
T4C1.020
T3C1.630
T2C2.200
T1C3.350
%
G90
M71
T1
X43115Y8880
X31685Y8880
T2
X51350Y4100
X58100Y3300
X64850Y4100
T3
X45145Y11930
X29655Y11930
T4
X33315Y4000
X41485Y4000
X44025Y4000
X30775Y4000
T5
X79440Y76560
X79440Y79100
X81980Y76560
X93500Y63000
X93500Y60460
X93500Y57920
X93500Y55380
X84520Y76560
X63130Y37910
X65670Y37910
X63130Y35370
X65670Y35370
X63130Y32830
X65670Y32830
X63130Y30290
X65670Y30290
X91700Y34500
X91700Y37040
X91700Y39580
X91700Y42120
X89600Y79100
X89600Y76560
X87060Y79100
X87060Y76560
X84520Y79100
X81980Y79100
T6
X59800Y7100
X60100Y9600
X58100Y9600
X56100Y9600
X54100Y9600
X62100Y9600
X62100Y7100
X54100Y7100
X57800Y7100
X55800Y7100
T7
X35500Y17770
X38040Y17770
X39310Y15230
X41850Y15230
X36770Y15230
X34230Y15230
X31690Y15230
X40580Y17770
X43120Y17770
X32960Y17770
T8
X90050Y48500
X90050Y51500
T9
X49725Y17225
X87900Y53500
X70007Y35606
T10
X62100Y2500
X74200Y35800
X75400Y27900
X72600Y29200
X47200Y14400
X46500Y13793
X50800Y17300
X77800Y28700
X47700Y6700
X77700Y36700
X84600Y12000
M30