G04 EAGLE Gerber RS-274X export*
G75*
%MOMM*%
%FSLAX34Y34*%
%LPD*%
%INBottom Silkscreen*%
%IPPOS*%
%AMOC8*
5,1,8,0,0,1.08239X$1,22.5*%
G01*
%ADD10C,0.203200*%
%ADD11C,0.177800*%
%ADD12C,0.127000*%


D10*
X616060Y372750D02*
X616060Y385450D01*
X889650Y807510D02*
X902350Y807510D01*
D11*
X293500Y105800D02*
X293500Y-19200D01*
X454500Y-19200D01*
X454500Y105800D01*
X454500Y196800D02*
X293500Y196800D01*
X293500Y132800D01*
X454500Y132800D02*
X454500Y196800D01*
D12*
X480525Y167504D02*
X480525Y166432D01*
X480527Y166367D01*
X480533Y166303D01*
X480543Y166239D01*
X480556Y166175D01*
X480574Y166113D01*
X480595Y166052D01*
X480619Y165992D01*
X480648Y165934D01*
X480680Y165877D01*
X480715Y165823D01*
X480753Y165771D01*
X480795Y165721D01*
X480839Y165674D01*
X480886Y165630D01*
X480936Y165588D01*
X480988Y165550D01*
X481042Y165515D01*
X481099Y165483D01*
X481157Y165454D01*
X481217Y165430D01*
X481278Y165409D01*
X481340Y165391D01*
X481404Y165378D01*
X481468Y165368D01*
X481532Y165362D01*
X481597Y165360D01*
X481597Y165359D02*
X484279Y165359D01*
X484279Y165360D02*
X484344Y165362D01*
X484408Y165368D01*
X484472Y165378D01*
X484536Y165391D01*
X484598Y165409D01*
X484659Y165430D01*
X484719Y165454D01*
X484777Y165483D01*
X484834Y165515D01*
X484888Y165550D01*
X484940Y165588D01*
X484990Y165630D01*
X485037Y165674D01*
X485081Y165721D01*
X485123Y165771D01*
X485161Y165823D01*
X485196Y165877D01*
X485228Y165934D01*
X485257Y165992D01*
X485281Y166052D01*
X485302Y166113D01*
X485320Y166175D01*
X485333Y166239D01*
X485343Y166303D01*
X485349Y166367D01*
X485351Y166432D01*
X485351Y167504D01*
X484279Y169960D02*
X485351Y171300D01*
X480525Y171300D01*
X480525Y169960D02*
X480525Y172641D01*
D10*
X506000Y-13000D02*
X656000Y-13000D01*
X506000Y-13000D02*
X506000Y115000D01*
X656000Y115000D01*
X656000Y-13000D01*
M02*
