G04 EAGLE Gerber RS-274X export*
G75*
%MOMM*%
%FSLAX34Y34*%
%LPD*%
%INMechanical*%
%IPPOS*%
%AMOC8*
5,1,8,0,0,1.08239X$1,22.5*%
G01*
%ADD10C,0.000000*%
%ADD11C,0.254000*%


D10*
X954000Y335000D02*
X954000Y806000D01*
X770000Y806000D02*
X770000Y390000D01*
X781000Y817000D02*
X943000Y817000D01*
X759000Y379000D02*
X701000Y379000D01*
X605000Y401000D02*
X605000Y263000D01*
X616000Y252000D02*
X780000Y252000D01*
X906000Y324000D02*
X943000Y324000D01*
X906000Y324000D02*
X906000Y132000D01*
X780000Y216000D02*
X297000Y216000D01*
X780000Y216000D02*
X780000Y252000D01*
X845000Y71000D02*
X680000Y71000D01*
X669000Y60000D02*
X669000Y17000D01*
X646000Y-6000D02*
X297000Y-6000D01*
X274000Y17000D02*
X274000Y193000D01*
X646000Y-6000D02*
X646556Y-5993D01*
X647111Y-5973D01*
X647666Y-5940D01*
X648220Y-5893D01*
X648772Y-5832D01*
X649323Y-5759D01*
X649872Y-5672D01*
X650419Y-5572D01*
X650963Y-5458D01*
X651504Y-5332D01*
X652042Y-5192D01*
X652577Y-5040D01*
X653107Y-4874D01*
X653634Y-4696D01*
X654156Y-4505D01*
X654673Y-4302D01*
X655185Y-4086D01*
X655692Y-3858D01*
X656193Y-3618D01*
X656689Y-3365D01*
X657178Y-3101D01*
X657660Y-2825D01*
X658136Y-2538D01*
X658604Y-2239D01*
X659065Y-1929D01*
X659519Y-1607D01*
X659965Y-1275D01*
X660402Y-933D01*
X660831Y-579D01*
X661252Y-216D01*
X661663Y158D01*
X662066Y541D01*
X662459Y934D01*
X662842Y1337D01*
X663216Y1748D01*
X663579Y2169D01*
X663933Y2598D01*
X664275Y3035D01*
X664607Y3481D01*
X664929Y3935D01*
X665239Y4396D01*
X665538Y4864D01*
X665825Y5340D01*
X666101Y5822D01*
X666365Y6311D01*
X666618Y6807D01*
X666858Y7308D01*
X667086Y7815D01*
X667302Y8327D01*
X667505Y8844D01*
X667696Y9366D01*
X667874Y9893D01*
X668040Y10423D01*
X668192Y10958D01*
X668332Y11496D01*
X668458Y12037D01*
X668572Y12581D01*
X668672Y13128D01*
X668759Y13677D01*
X668832Y14228D01*
X668893Y14780D01*
X668940Y15334D01*
X668973Y15889D01*
X668993Y16444D01*
X669000Y17000D01*
X297000Y-6000D02*
X296444Y-5993D01*
X295889Y-5973D01*
X295334Y-5940D01*
X294780Y-5893D01*
X294228Y-5832D01*
X293677Y-5759D01*
X293128Y-5672D01*
X292581Y-5572D01*
X292037Y-5458D01*
X291496Y-5332D01*
X290958Y-5192D01*
X290423Y-5040D01*
X289893Y-4874D01*
X289366Y-4696D01*
X288844Y-4505D01*
X288327Y-4302D01*
X287815Y-4086D01*
X287308Y-3858D01*
X286807Y-3618D01*
X286311Y-3365D01*
X285822Y-3101D01*
X285340Y-2825D01*
X284864Y-2538D01*
X284396Y-2239D01*
X283935Y-1929D01*
X283481Y-1607D01*
X283035Y-1275D01*
X282598Y-933D01*
X282169Y-579D01*
X281748Y-216D01*
X281337Y158D01*
X280934Y541D01*
X280541Y934D01*
X280158Y1337D01*
X279784Y1748D01*
X279421Y2169D01*
X279067Y2598D01*
X278725Y3035D01*
X278393Y3481D01*
X278071Y3935D01*
X277761Y4396D01*
X277462Y4864D01*
X277175Y5340D01*
X276899Y5822D01*
X276635Y6311D01*
X276382Y6807D01*
X276142Y7308D01*
X275914Y7815D01*
X275698Y8327D01*
X275495Y8844D01*
X275304Y9366D01*
X275126Y9893D01*
X274960Y10423D01*
X274808Y10958D01*
X274668Y11496D01*
X274542Y12037D01*
X274428Y12581D01*
X274328Y13128D01*
X274241Y13677D01*
X274168Y14228D01*
X274107Y14780D01*
X274060Y15334D01*
X274027Y15889D01*
X274007Y16444D01*
X274000Y17000D01*
X274000Y193000D02*
X274007Y193556D01*
X274027Y194111D01*
X274060Y194666D01*
X274107Y195220D01*
X274168Y195772D01*
X274241Y196323D01*
X274328Y196872D01*
X274428Y197419D01*
X274542Y197963D01*
X274668Y198504D01*
X274808Y199042D01*
X274960Y199577D01*
X275126Y200107D01*
X275304Y200634D01*
X275495Y201156D01*
X275698Y201673D01*
X275914Y202185D01*
X276142Y202692D01*
X276382Y203193D01*
X276635Y203689D01*
X276899Y204178D01*
X277175Y204660D01*
X277462Y205136D01*
X277761Y205604D01*
X278071Y206065D01*
X278393Y206519D01*
X278725Y206965D01*
X279067Y207402D01*
X279421Y207831D01*
X279784Y208252D01*
X280158Y208663D01*
X280541Y209066D01*
X280934Y209459D01*
X281337Y209842D01*
X281748Y210216D01*
X282169Y210579D01*
X282598Y210933D01*
X283035Y211275D01*
X283481Y211607D01*
X283935Y211929D01*
X284396Y212239D01*
X284864Y212538D01*
X285340Y212825D01*
X285822Y213101D01*
X286311Y213365D01*
X286807Y213618D01*
X287308Y213858D01*
X287815Y214086D01*
X288327Y214302D01*
X288844Y214505D01*
X289366Y214696D01*
X289893Y214874D01*
X290423Y215040D01*
X290958Y215192D01*
X291496Y215332D01*
X292037Y215458D01*
X292581Y215572D01*
X293128Y215672D01*
X293677Y215759D01*
X294228Y215832D01*
X294780Y215893D01*
X295334Y215940D01*
X295889Y215973D01*
X296444Y215993D01*
X297000Y216000D01*
X616000Y412000D02*
X679000Y412000D01*
X690000Y401000D02*
X690000Y390000D01*
X906000Y132000D02*
X905982Y130526D01*
X905929Y129053D01*
X905840Y127581D01*
X905715Y126113D01*
X905555Y124647D01*
X905360Y123186D01*
X905129Y121730D01*
X904864Y120280D01*
X904563Y118837D01*
X904227Y117402D01*
X903857Y115975D01*
X903453Y114557D01*
X903014Y113150D01*
X902542Y111754D01*
X902036Y110369D01*
X901497Y108997D01*
X900924Y107639D01*
X900319Y106295D01*
X899682Y104965D01*
X899013Y103652D01*
X898312Y102355D01*
X897580Y101075D01*
X896818Y99814D01*
X896025Y98571D01*
X895202Y97348D01*
X894350Y96145D01*
X893469Y94963D01*
X892560Y93803D01*
X891623Y92665D01*
X890659Y91550D01*
X889668Y90458D01*
X888652Y89391D01*
X887609Y88348D01*
X886542Y87332D01*
X885450Y86341D01*
X884335Y85377D01*
X883197Y84440D01*
X882037Y83531D01*
X880855Y82650D01*
X879652Y81798D01*
X878429Y80975D01*
X877186Y80182D01*
X875925Y79420D01*
X874645Y78688D01*
X873348Y77987D01*
X872035Y77318D01*
X870705Y76681D01*
X869361Y76076D01*
X868003Y75503D01*
X866631Y74964D01*
X865246Y74458D01*
X863850Y73986D01*
X862443Y73547D01*
X861025Y73143D01*
X859598Y72773D01*
X858163Y72437D01*
X856720Y72136D01*
X855270Y71871D01*
X853814Y71640D01*
X852353Y71445D01*
X850887Y71285D01*
X849419Y71160D01*
X847947Y71071D01*
X846474Y71018D01*
X845000Y71000D01*
X759000Y379000D02*
X759266Y379003D01*
X759531Y379013D01*
X759797Y379029D01*
X760062Y379051D01*
X760326Y379080D01*
X760589Y379115D01*
X760852Y379157D01*
X761113Y379205D01*
X761374Y379259D01*
X761632Y379320D01*
X761890Y379386D01*
X762145Y379459D01*
X762399Y379538D01*
X762651Y379624D01*
X762901Y379715D01*
X763148Y379812D01*
X763393Y379915D01*
X763635Y380024D01*
X763875Y380139D01*
X764112Y380260D01*
X764346Y380386D01*
X764577Y380518D01*
X764804Y380656D01*
X765028Y380799D01*
X765249Y380947D01*
X765466Y381101D01*
X765679Y381260D01*
X765888Y381424D01*
X766093Y381593D01*
X766294Y381766D01*
X766491Y381945D01*
X766684Y382128D01*
X766872Y382316D01*
X767055Y382509D01*
X767234Y382706D01*
X767407Y382907D01*
X767576Y383112D01*
X767740Y383321D01*
X767899Y383534D01*
X768053Y383751D01*
X768201Y383972D01*
X768344Y384196D01*
X768482Y384423D01*
X768614Y384654D01*
X768740Y384888D01*
X768861Y385125D01*
X768976Y385365D01*
X769085Y385607D01*
X769188Y385852D01*
X769285Y386099D01*
X769376Y386349D01*
X769462Y386601D01*
X769541Y386855D01*
X769614Y387110D01*
X769680Y387368D01*
X769741Y387626D01*
X769795Y387887D01*
X769843Y388148D01*
X769885Y388411D01*
X769920Y388674D01*
X769949Y388938D01*
X769971Y389203D01*
X769987Y389469D01*
X769997Y389734D01*
X770000Y390000D01*
X701000Y379000D02*
X700734Y379003D01*
X700469Y379013D01*
X700203Y379029D01*
X699938Y379051D01*
X699674Y379080D01*
X699411Y379115D01*
X699148Y379157D01*
X698887Y379205D01*
X698626Y379259D01*
X698368Y379320D01*
X698110Y379386D01*
X697855Y379459D01*
X697601Y379538D01*
X697349Y379624D01*
X697099Y379715D01*
X696852Y379812D01*
X696607Y379915D01*
X696365Y380024D01*
X696125Y380139D01*
X695888Y380260D01*
X695654Y380386D01*
X695423Y380518D01*
X695196Y380656D01*
X694972Y380799D01*
X694751Y380947D01*
X694534Y381101D01*
X694321Y381260D01*
X694112Y381424D01*
X693907Y381593D01*
X693706Y381766D01*
X693509Y381945D01*
X693316Y382128D01*
X693128Y382316D01*
X692945Y382509D01*
X692766Y382706D01*
X692593Y382907D01*
X692424Y383112D01*
X692260Y383321D01*
X692101Y383534D01*
X691947Y383751D01*
X691799Y383972D01*
X691656Y384196D01*
X691518Y384423D01*
X691386Y384654D01*
X691260Y384888D01*
X691139Y385125D01*
X691024Y385365D01*
X690915Y385607D01*
X690812Y385852D01*
X690715Y386099D01*
X690624Y386349D01*
X690538Y386601D01*
X690459Y386855D01*
X690386Y387110D01*
X690320Y387368D01*
X690259Y387626D01*
X690205Y387887D01*
X690157Y388148D01*
X690115Y388411D01*
X690080Y388674D01*
X690051Y388938D01*
X690029Y389203D01*
X690013Y389469D01*
X690003Y389734D01*
X690000Y390000D01*
X605000Y263000D02*
X605003Y262734D01*
X605013Y262469D01*
X605029Y262203D01*
X605051Y261938D01*
X605080Y261674D01*
X605115Y261411D01*
X605157Y261148D01*
X605205Y260887D01*
X605259Y260626D01*
X605320Y260368D01*
X605386Y260110D01*
X605459Y259855D01*
X605538Y259601D01*
X605624Y259349D01*
X605715Y259099D01*
X605812Y258852D01*
X605915Y258607D01*
X606024Y258365D01*
X606139Y258125D01*
X606260Y257888D01*
X606386Y257654D01*
X606518Y257423D01*
X606656Y257196D01*
X606799Y256972D01*
X606947Y256751D01*
X607101Y256534D01*
X607260Y256321D01*
X607424Y256112D01*
X607593Y255907D01*
X607766Y255706D01*
X607945Y255509D01*
X608128Y255316D01*
X608316Y255128D01*
X608509Y254945D01*
X608706Y254766D01*
X608907Y254593D01*
X609112Y254424D01*
X609321Y254260D01*
X609534Y254101D01*
X609751Y253947D01*
X609972Y253799D01*
X610196Y253656D01*
X610423Y253518D01*
X610654Y253386D01*
X610888Y253260D01*
X611125Y253139D01*
X611365Y253024D01*
X611607Y252915D01*
X611852Y252812D01*
X612099Y252715D01*
X612349Y252624D01*
X612601Y252538D01*
X612855Y252459D01*
X613110Y252386D01*
X613368Y252320D01*
X613626Y252259D01*
X613887Y252205D01*
X614148Y252157D01*
X614411Y252115D01*
X614674Y252080D01*
X614938Y252051D01*
X615203Y252029D01*
X615469Y252013D01*
X615734Y252003D01*
X616000Y252000D01*
X680000Y71000D02*
X679734Y70997D01*
X679469Y70987D01*
X679203Y70971D01*
X678938Y70949D01*
X678674Y70920D01*
X678411Y70885D01*
X678148Y70843D01*
X677887Y70795D01*
X677626Y70741D01*
X677368Y70680D01*
X677110Y70614D01*
X676855Y70541D01*
X676601Y70462D01*
X676349Y70376D01*
X676099Y70285D01*
X675852Y70188D01*
X675607Y70085D01*
X675365Y69976D01*
X675125Y69861D01*
X674888Y69740D01*
X674654Y69614D01*
X674423Y69482D01*
X674196Y69344D01*
X673972Y69201D01*
X673751Y69053D01*
X673534Y68899D01*
X673321Y68740D01*
X673112Y68576D01*
X672907Y68407D01*
X672706Y68234D01*
X672509Y68055D01*
X672316Y67872D01*
X672128Y67684D01*
X671945Y67491D01*
X671766Y67294D01*
X671593Y67093D01*
X671424Y66888D01*
X671260Y66679D01*
X671101Y66466D01*
X670947Y66249D01*
X670799Y66028D01*
X670656Y65804D01*
X670518Y65577D01*
X670386Y65346D01*
X670260Y65112D01*
X670139Y64875D01*
X670024Y64635D01*
X669915Y64393D01*
X669812Y64148D01*
X669715Y63901D01*
X669624Y63651D01*
X669538Y63399D01*
X669459Y63145D01*
X669386Y62890D01*
X669320Y62632D01*
X669259Y62374D01*
X669205Y62113D01*
X669157Y61852D01*
X669115Y61589D01*
X669080Y61326D01*
X669051Y61062D01*
X669029Y60797D01*
X669013Y60531D01*
X669003Y60266D01*
X669000Y60000D01*
X943000Y324000D02*
X943266Y324003D01*
X943531Y324013D01*
X943797Y324029D01*
X944062Y324051D01*
X944326Y324080D01*
X944589Y324115D01*
X944852Y324157D01*
X945113Y324205D01*
X945374Y324259D01*
X945632Y324320D01*
X945890Y324386D01*
X946145Y324459D01*
X946399Y324538D01*
X946651Y324624D01*
X946901Y324715D01*
X947148Y324812D01*
X947393Y324915D01*
X947635Y325024D01*
X947875Y325139D01*
X948112Y325260D01*
X948346Y325386D01*
X948577Y325518D01*
X948804Y325656D01*
X949028Y325799D01*
X949249Y325947D01*
X949466Y326101D01*
X949679Y326260D01*
X949888Y326424D01*
X950093Y326593D01*
X950294Y326766D01*
X950491Y326945D01*
X950684Y327128D01*
X950872Y327316D01*
X951055Y327509D01*
X951234Y327706D01*
X951407Y327907D01*
X951576Y328112D01*
X951740Y328321D01*
X951899Y328534D01*
X952053Y328751D01*
X952201Y328972D01*
X952344Y329196D01*
X952482Y329423D01*
X952614Y329654D01*
X952740Y329888D01*
X952861Y330125D01*
X952976Y330365D01*
X953085Y330607D01*
X953188Y330852D01*
X953285Y331099D01*
X953376Y331349D01*
X953462Y331601D01*
X953541Y331855D01*
X953614Y332110D01*
X953680Y332368D01*
X953741Y332626D01*
X953795Y332887D01*
X953843Y333148D01*
X953885Y333411D01*
X953920Y333674D01*
X953949Y333938D01*
X953971Y334203D01*
X953987Y334469D01*
X953997Y334734D01*
X954000Y335000D01*
X954000Y806000D02*
X953997Y806266D01*
X953987Y806531D01*
X953971Y806797D01*
X953949Y807062D01*
X953920Y807326D01*
X953885Y807589D01*
X953843Y807852D01*
X953795Y808113D01*
X953741Y808374D01*
X953680Y808632D01*
X953614Y808890D01*
X953541Y809145D01*
X953462Y809399D01*
X953376Y809651D01*
X953285Y809901D01*
X953188Y810148D01*
X953085Y810393D01*
X952976Y810635D01*
X952861Y810875D01*
X952740Y811112D01*
X952614Y811346D01*
X952482Y811577D01*
X952344Y811804D01*
X952201Y812028D01*
X952053Y812249D01*
X951899Y812466D01*
X951740Y812679D01*
X951576Y812888D01*
X951407Y813093D01*
X951234Y813294D01*
X951055Y813491D01*
X950872Y813684D01*
X950684Y813872D01*
X950491Y814055D01*
X950294Y814234D01*
X950093Y814407D01*
X949888Y814576D01*
X949679Y814740D01*
X949466Y814899D01*
X949249Y815053D01*
X949028Y815201D01*
X948804Y815344D01*
X948577Y815482D01*
X948346Y815614D01*
X948112Y815740D01*
X947875Y815861D01*
X947635Y815976D01*
X947393Y816085D01*
X947148Y816188D01*
X946901Y816285D01*
X946651Y816376D01*
X946399Y816462D01*
X946145Y816541D01*
X945890Y816614D01*
X945632Y816680D01*
X945374Y816741D01*
X945113Y816795D01*
X944852Y816843D01*
X944589Y816885D01*
X944326Y816920D01*
X944062Y816949D01*
X943797Y816971D01*
X943531Y816987D01*
X943266Y816997D01*
X943000Y817000D01*
X781000Y817000D02*
X780734Y816997D01*
X780469Y816987D01*
X780203Y816971D01*
X779938Y816949D01*
X779674Y816920D01*
X779411Y816885D01*
X779148Y816843D01*
X778887Y816795D01*
X778626Y816741D01*
X778368Y816680D01*
X778110Y816614D01*
X777855Y816541D01*
X777601Y816462D01*
X777349Y816376D01*
X777099Y816285D01*
X776852Y816188D01*
X776607Y816085D01*
X776365Y815976D01*
X776125Y815861D01*
X775888Y815740D01*
X775654Y815614D01*
X775423Y815482D01*
X775196Y815344D01*
X774972Y815201D01*
X774751Y815053D01*
X774534Y814899D01*
X774321Y814740D01*
X774112Y814576D01*
X773907Y814407D01*
X773706Y814234D01*
X773509Y814055D01*
X773316Y813872D01*
X773128Y813684D01*
X772945Y813491D01*
X772766Y813294D01*
X772593Y813093D01*
X772424Y812888D01*
X772260Y812679D01*
X772101Y812466D01*
X771947Y812249D01*
X771799Y812028D01*
X771656Y811804D01*
X771518Y811577D01*
X771386Y811346D01*
X771260Y811112D01*
X771139Y810875D01*
X771024Y810635D01*
X770915Y810393D01*
X770812Y810148D01*
X770715Y809901D01*
X770624Y809651D01*
X770538Y809399D01*
X770459Y809145D01*
X770386Y808890D01*
X770320Y808632D01*
X770259Y808374D01*
X770205Y808113D01*
X770157Y807852D01*
X770115Y807589D01*
X770080Y807326D01*
X770051Y807062D01*
X770029Y806797D01*
X770013Y806531D01*
X770003Y806266D01*
X770000Y806000D01*
X679000Y412000D02*
X679266Y411997D01*
X679531Y411987D01*
X679797Y411971D01*
X680062Y411949D01*
X680326Y411920D01*
X680589Y411885D01*
X680852Y411843D01*
X681113Y411795D01*
X681374Y411741D01*
X681632Y411680D01*
X681890Y411614D01*
X682145Y411541D01*
X682399Y411462D01*
X682651Y411376D01*
X682901Y411285D01*
X683148Y411188D01*
X683393Y411085D01*
X683635Y410976D01*
X683875Y410861D01*
X684112Y410740D01*
X684346Y410614D01*
X684577Y410482D01*
X684804Y410344D01*
X685028Y410201D01*
X685249Y410053D01*
X685466Y409899D01*
X685679Y409740D01*
X685888Y409576D01*
X686093Y409407D01*
X686294Y409234D01*
X686491Y409055D01*
X686684Y408872D01*
X686872Y408684D01*
X687055Y408491D01*
X687234Y408294D01*
X687407Y408093D01*
X687576Y407888D01*
X687740Y407679D01*
X687899Y407466D01*
X688053Y407249D01*
X688201Y407028D01*
X688344Y406804D01*
X688482Y406577D01*
X688614Y406346D01*
X688740Y406112D01*
X688861Y405875D01*
X688976Y405635D01*
X689085Y405393D01*
X689188Y405148D01*
X689285Y404901D01*
X689376Y404651D01*
X689462Y404399D01*
X689541Y404145D01*
X689614Y403890D01*
X689680Y403632D01*
X689741Y403374D01*
X689795Y403113D01*
X689843Y402852D01*
X689885Y402589D01*
X689920Y402326D01*
X689949Y402062D01*
X689971Y401797D01*
X689987Y401531D01*
X689997Y401266D01*
X690000Y401000D01*
X616000Y412000D02*
X615734Y411997D01*
X615469Y411987D01*
X615203Y411971D01*
X614938Y411949D01*
X614674Y411920D01*
X614411Y411885D01*
X614148Y411843D01*
X613887Y411795D01*
X613626Y411741D01*
X613368Y411680D01*
X613110Y411614D01*
X612855Y411541D01*
X612601Y411462D01*
X612349Y411376D01*
X612099Y411285D01*
X611852Y411188D01*
X611607Y411085D01*
X611365Y410976D01*
X611125Y410861D01*
X610888Y410740D01*
X610654Y410614D01*
X610423Y410482D01*
X610196Y410344D01*
X609972Y410201D01*
X609751Y410053D01*
X609534Y409899D01*
X609321Y409740D01*
X609112Y409576D01*
X608907Y409407D01*
X608706Y409234D01*
X608509Y409055D01*
X608316Y408872D01*
X608128Y408684D01*
X607945Y408491D01*
X607766Y408294D01*
X607593Y408093D01*
X607424Y407888D01*
X607260Y407679D01*
X607101Y407466D01*
X606947Y407249D01*
X606799Y407028D01*
X606656Y406804D01*
X606518Y406577D01*
X606386Y406346D01*
X606260Y406112D01*
X606139Y405875D01*
X606024Y405635D01*
X605915Y405393D01*
X605812Y405148D01*
X605715Y404901D01*
X605624Y404651D01*
X605538Y404399D01*
X605459Y404145D01*
X605386Y403890D01*
X605320Y403632D01*
X605259Y403374D01*
X605205Y403113D01*
X605157Y402852D01*
X605115Y402589D01*
X605080Y402326D01*
X605051Y402062D01*
X605029Y401797D01*
X605013Y401531D01*
X605003Y401266D01*
X605000Y401000D01*
X300100Y88800D02*
X300105Y89211D01*
X300120Y89622D01*
X300145Y90032D01*
X300181Y90442D01*
X300226Y90850D01*
X300281Y91258D01*
X300347Y91664D01*
X300422Y92068D01*
X300507Y92470D01*
X300602Y92870D01*
X300707Y93267D01*
X300821Y93662D01*
X300945Y94054D01*
X301079Y94443D01*
X301222Y94828D01*
X301375Y95210D01*
X301537Y95588D01*
X301708Y95962D01*
X301888Y96331D01*
X302078Y96696D01*
X302276Y97056D01*
X302483Y97411D01*
X302699Y97761D01*
X302923Y98106D01*
X303155Y98445D01*
X303396Y98778D01*
X303645Y99105D01*
X303902Y99426D01*
X304167Y99741D01*
X304439Y100049D01*
X304719Y100350D01*
X305006Y100644D01*
X305300Y100931D01*
X305601Y101211D01*
X305909Y101483D01*
X306224Y101748D01*
X306545Y102005D01*
X306872Y102254D01*
X307205Y102495D01*
X307544Y102727D01*
X307889Y102951D01*
X308239Y103167D01*
X308594Y103374D01*
X308954Y103572D01*
X309319Y103762D01*
X309688Y103942D01*
X310062Y104113D01*
X310440Y104275D01*
X310822Y104428D01*
X311207Y104571D01*
X311596Y104705D01*
X311988Y104829D01*
X312383Y104943D01*
X312780Y105048D01*
X313180Y105143D01*
X313582Y105228D01*
X313986Y105303D01*
X314392Y105369D01*
X314800Y105424D01*
X315208Y105469D01*
X315618Y105505D01*
X316028Y105530D01*
X316439Y105545D01*
X316850Y105550D01*
X317261Y105545D01*
X317672Y105530D01*
X318082Y105505D01*
X318492Y105469D01*
X318900Y105424D01*
X319308Y105369D01*
X319714Y105303D01*
X320118Y105228D01*
X320520Y105143D01*
X320920Y105048D01*
X321317Y104943D01*
X321712Y104829D01*
X322104Y104705D01*
X322493Y104571D01*
X322878Y104428D01*
X323260Y104275D01*
X323638Y104113D01*
X324012Y103942D01*
X324381Y103762D01*
X324746Y103572D01*
X325106Y103374D01*
X325461Y103167D01*
X325811Y102951D01*
X326156Y102727D01*
X326495Y102495D01*
X326828Y102254D01*
X327155Y102005D01*
X327476Y101748D01*
X327791Y101483D01*
X328099Y101211D01*
X328400Y100931D01*
X328694Y100644D01*
X328981Y100350D01*
X329261Y100049D01*
X329533Y99741D01*
X329798Y99426D01*
X330055Y99105D01*
X330304Y98778D01*
X330545Y98445D01*
X330777Y98106D01*
X331001Y97761D01*
X331217Y97411D01*
X331424Y97056D01*
X331622Y96696D01*
X331812Y96331D01*
X331992Y95962D01*
X332163Y95588D01*
X332325Y95210D01*
X332478Y94828D01*
X332621Y94443D01*
X332755Y94054D01*
X332879Y93662D01*
X332993Y93267D01*
X333098Y92870D01*
X333193Y92470D01*
X333278Y92068D01*
X333353Y91664D01*
X333419Y91258D01*
X333474Y90850D01*
X333519Y90442D01*
X333555Y90032D01*
X333580Y89622D01*
X333595Y89211D01*
X333600Y88800D01*
X333595Y88389D01*
X333580Y87978D01*
X333555Y87568D01*
X333519Y87158D01*
X333474Y86750D01*
X333419Y86342D01*
X333353Y85936D01*
X333278Y85532D01*
X333193Y85130D01*
X333098Y84730D01*
X332993Y84333D01*
X332879Y83938D01*
X332755Y83546D01*
X332621Y83157D01*
X332478Y82772D01*
X332325Y82390D01*
X332163Y82012D01*
X331992Y81638D01*
X331812Y81269D01*
X331622Y80904D01*
X331424Y80544D01*
X331217Y80189D01*
X331001Y79839D01*
X330777Y79494D01*
X330545Y79155D01*
X330304Y78822D01*
X330055Y78495D01*
X329798Y78174D01*
X329533Y77859D01*
X329261Y77551D01*
X328981Y77250D01*
X328694Y76956D01*
X328400Y76669D01*
X328099Y76389D01*
X327791Y76117D01*
X327476Y75852D01*
X327155Y75595D01*
X326828Y75346D01*
X326495Y75105D01*
X326156Y74873D01*
X325811Y74649D01*
X325461Y74433D01*
X325106Y74226D01*
X324746Y74028D01*
X324381Y73838D01*
X324012Y73658D01*
X323638Y73487D01*
X323260Y73325D01*
X322878Y73172D01*
X322493Y73029D01*
X322104Y72895D01*
X321712Y72771D01*
X321317Y72657D01*
X320920Y72552D01*
X320520Y72457D01*
X320118Y72372D01*
X319714Y72297D01*
X319308Y72231D01*
X318900Y72176D01*
X318492Y72131D01*
X318082Y72095D01*
X317672Y72070D01*
X317261Y72055D01*
X316850Y72050D01*
X316439Y72055D01*
X316028Y72070D01*
X315618Y72095D01*
X315208Y72131D01*
X314800Y72176D01*
X314392Y72231D01*
X313986Y72297D01*
X313582Y72372D01*
X313180Y72457D01*
X312780Y72552D01*
X312383Y72657D01*
X311988Y72771D01*
X311596Y72895D01*
X311207Y73029D01*
X310822Y73172D01*
X310440Y73325D01*
X310062Y73487D01*
X309688Y73658D01*
X309319Y73838D01*
X308954Y74028D01*
X308594Y74226D01*
X308239Y74433D01*
X307889Y74649D01*
X307544Y74873D01*
X307205Y75105D01*
X306872Y75346D01*
X306545Y75595D01*
X306224Y75852D01*
X305909Y76117D01*
X305601Y76389D01*
X305300Y76669D01*
X305006Y76956D01*
X304719Y77250D01*
X304439Y77551D01*
X304167Y77859D01*
X303902Y78174D01*
X303645Y78495D01*
X303396Y78822D01*
X303155Y79155D01*
X302923Y79494D01*
X302699Y79839D01*
X302483Y80189D01*
X302276Y80544D01*
X302078Y80904D01*
X301888Y81269D01*
X301708Y81638D01*
X301537Y82012D01*
X301375Y82390D01*
X301222Y82772D01*
X301079Y83157D01*
X300945Y83546D01*
X300821Y83938D01*
X300707Y84333D01*
X300602Y84730D01*
X300507Y85130D01*
X300422Y85532D01*
X300347Y85936D01*
X300281Y86342D01*
X300226Y86750D01*
X300181Y87158D01*
X300145Y87568D01*
X300120Y87978D01*
X300105Y88389D01*
X300100Y88800D01*
X414400Y88800D02*
X414405Y89211D01*
X414420Y89622D01*
X414445Y90032D01*
X414481Y90442D01*
X414526Y90850D01*
X414581Y91258D01*
X414647Y91664D01*
X414722Y92068D01*
X414807Y92470D01*
X414902Y92870D01*
X415007Y93267D01*
X415121Y93662D01*
X415245Y94054D01*
X415379Y94443D01*
X415522Y94828D01*
X415675Y95210D01*
X415837Y95588D01*
X416008Y95962D01*
X416188Y96331D01*
X416378Y96696D01*
X416576Y97056D01*
X416783Y97411D01*
X416999Y97761D01*
X417223Y98106D01*
X417455Y98445D01*
X417696Y98778D01*
X417945Y99105D01*
X418202Y99426D01*
X418467Y99741D01*
X418739Y100049D01*
X419019Y100350D01*
X419306Y100644D01*
X419600Y100931D01*
X419901Y101211D01*
X420209Y101483D01*
X420524Y101748D01*
X420845Y102005D01*
X421172Y102254D01*
X421505Y102495D01*
X421844Y102727D01*
X422189Y102951D01*
X422539Y103167D01*
X422894Y103374D01*
X423254Y103572D01*
X423619Y103762D01*
X423988Y103942D01*
X424362Y104113D01*
X424740Y104275D01*
X425122Y104428D01*
X425507Y104571D01*
X425896Y104705D01*
X426288Y104829D01*
X426683Y104943D01*
X427080Y105048D01*
X427480Y105143D01*
X427882Y105228D01*
X428286Y105303D01*
X428692Y105369D01*
X429100Y105424D01*
X429508Y105469D01*
X429918Y105505D01*
X430328Y105530D01*
X430739Y105545D01*
X431150Y105550D01*
X431561Y105545D01*
X431972Y105530D01*
X432382Y105505D01*
X432792Y105469D01*
X433200Y105424D01*
X433608Y105369D01*
X434014Y105303D01*
X434418Y105228D01*
X434820Y105143D01*
X435220Y105048D01*
X435617Y104943D01*
X436012Y104829D01*
X436404Y104705D01*
X436793Y104571D01*
X437178Y104428D01*
X437560Y104275D01*
X437938Y104113D01*
X438312Y103942D01*
X438681Y103762D01*
X439046Y103572D01*
X439406Y103374D01*
X439761Y103167D01*
X440111Y102951D01*
X440456Y102727D01*
X440795Y102495D01*
X441128Y102254D01*
X441455Y102005D01*
X441776Y101748D01*
X442091Y101483D01*
X442399Y101211D01*
X442700Y100931D01*
X442994Y100644D01*
X443281Y100350D01*
X443561Y100049D01*
X443833Y99741D01*
X444098Y99426D01*
X444355Y99105D01*
X444604Y98778D01*
X444845Y98445D01*
X445077Y98106D01*
X445301Y97761D01*
X445517Y97411D01*
X445724Y97056D01*
X445922Y96696D01*
X446112Y96331D01*
X446292Y95962D01*
X446463Y95588D01*
X446625Y95210D01*
X446778Y94828D01*
X446921Y94443D01*
X447055Y94054D01*
X447179Y93662D01*
X447293Y93267D01*
X447398Y92870D01*
X447493Y92470D01*
X447578Y92068D01*
X447653Y91664D01*
X447719Y91258D01*
X447774Y90850D01*
X447819Y90442D01*
X447855Y90032D01*
X447880Y89622D01*
X447895Y89211D01*
X447900Y88800D01*
X447895Y88389D01*
X447880Y87978D01*
X447855Y87568D01*
X447819Y87158D01*
X447774Y86750D01*
X447719Y86342D01*
X447653Y85936D01*
X447578Y85532D01*
X447493Y85130D01*
X447398Y84730D01*
X447293Y84333D01*
X447179Y83938D01*
X447055Y83546D01*
X446921Y83157D01*
X446778Y82772D01*
X446625Y82390D01*
X446463Y82012D01*
X446292Y81638D01*
X446112Y81269D01*
X445922Y80904D01*
X445724Y80544D01*
X445517Y80189D01*
X445301Y79839D01*
X445077Y79494D01*
X444845Y79155D01*
X444604Y78822D01*
X444355Y78495D01*
X444098Y78174D01*
X443833Y77859D01*
X443561Y77551D01*
X443281Y77250D01*
X442994Y76956D01*
X442700Y76669D01*
X442399Y76389D01*
X442091Y76117D01*
X441776Y75852D01*
X441455Y75595D01*
X441128Y75346D01*
X440795Y75105D01*
X440456Y74873D01*
X440111Y74649D01*
X439761Y74433D01*
X439406Y74226D01*
X439046Y74028D01*
X438681Y73838D01*
X438312Y73658D01*
X437938Y73487D01*
X437560Y73325D01*
X437178Y73172D01*
X436793Y73029D01*
X436404Y72895D01*
X436012Y72771D01*
X435617Y72657D01*
X435220Y72552D01*
X434820Y72457D01*
X434418Y72372D01*
X434014Y72297D01*
X433608Y72231D01*
X433200Y72176D01*
X432792Y72131D01*
X432382Y72095D01*
X431972Y72070D01*
X431561Y72055D01*
X431150Y72050D01*
X430739Y72055D01*
X430328Y72070D01*
X429918Y72095D01*
X429508Y72131D01*
X429100Y72176D01*
X428692Y72231D01*
X428286Y72297D01*
X427882Y72372D01*
X427480Y72457D01*
X427080Y72552D01*
X426683Y72657D01*
X426288Y72771D01*
X425896Y72895D01*
X425507Y73029D01*
X425122Y73172D01*
X424740Y73325D01*
X424362Y73487D01*
X423988Y73658D01*
X423619Y73838D01*
X423254Y74028D01*
X422894Y74226D01*
X422539Y74433D01*
X422189Y74649D01*
X421844Y74873D01*
X421505Y75105D01*
X421172Y75346D01*
X420845Y75595D01*
X420524Y75852D01*
X420209Y76117D01*
X419901Y76389D01*
X419600Y76669D01*
X419306Y76956D01*
X419019Y77250D01*
X418739Y77551D01*
X418467Y77859D01*
X418202Y78174D01*
X417945Y78495D01*
X417696Y78822D01*
X417455Y79155D01*
X417223Y79494D01*
X416999Y79839D01*
X416783Y80189D01*
X416576Y80544D01*
X416378Y80904D01*
X416188Y81269D01*
X416008Y81638D01*
X415837Y82012D01*
X415675Y82390D01*
X415522Y82772D01*
X415379Y83157D01*
X415245Y83546D01*
X415121Y83938D01*
X415007Y84333D01*
X414902Y84730D01*
X414807Y85130D01*
X414722Y85532D01*
X414647Y85936D01*
X414581Y86342D01*
X414526Y86750D01*
X414481Y87158D01*
X414445Y87568D01*
X414420Y87978D01*
X414405Y88389D01*
X414400Y88800D01*
X637500Y41000D02*
X637503Y41270D01*
X637513Y41540D01*
X637530Y41809D01*
X637553Y42078D01*
X637583Y42347D01*
X637619Y42614D01*
X637662Y42881D01*
X637711Y43146D01*
X637767Y43410D01*
X637830Y43673D01*
X637898Y43934D01*
X637974Y44193D01*
X638055Y44450D01*
X638143Y44706D01*
X638237Y44959D01*
X638337Y45210D01*
X638444Y45458D01*
X638556Y45703D01*
X638675Y45946D01*
X638799Y46185D01*
X638929Y46422D01*
X639065Y46655D01*
X639207Y46885D01*
X639354Y47111D01*
X639507Y47334D01*
X639665Y47553D01*
X639828Y47768D01*
X639997Y47978D01*
X640171Y48185D01*
X640350Y48387D01*
X640533Y48585D01*
X640722Y48778D01*
X640915Y48967D01*
X641113Y49150D01*
X641315Y49329D01*
X641522Y49503D01*
X641732Y49672D01*
X641947Y49835D01*
X642166Y49993D01*
X642389Y50146D01*
X642615Y50293D01*
X642845Y50435D01*
X643078Y50571D01*
X643315Y50701D01*
X643554Y50825D01*
X643797Y50944D01*
X644042Y51056D01*
X644290Y51163D01*
X644541Y51263D01*
X644794Y51357D01*
X645050Y51445D01*
X645307Y51526D01*
X645566Y51602D01*
X645827Y51670D01*
X646090Y51733D01*
X646354Y51789D01*
X646619Y51838D01*
X646886Y51881D01*
X647153Y51917D01*
X647422Y51947D01*
X647691Y51970D01*
X647960Y51987D01*
X648230Y51997D01*
X648500Y52000D01*
X648770Y51997D01*
X649040Y51987D01*
X649309Y51970D01*
X649578Y51947D01*
X649847Y51917D01*
X650114Y51881D01*
X650381Y51838D01*
X650646Y51789D01*
X650910Y51733D01*
X651173Y51670D01*
X651434Y51602D01*
X651693Y51526D01*
X651950Y51445D01*
X652206Y51357D01*
X652459Y51263D01*
X652710Y51163D01*
X652958Y51056D01*
X653203Y50944D01*
X653446Y50825D01*
X653685Y50701D01*
X653922Y50571D01*
X654155Y50435D01*
X654385Y50293D01*
X654611Y50146D01*
X654834Y49993D01*
X655053Y49835D01*
X655268Y49672D01*
X655478Y49503D01*
X655685Y49329D01*
X655887Y49150D01*
X656085Y48967D01*
X656278Y48778D01*
X656467Y48585D01*
X656650Y48387D01*
X656829Y48185D01*
X657003Y47978D01*
X657172Y47768D01*
X657335Y47553D01*
X657493Y47334D01*
X657646Y47111D01*
X657793Y46885D01*
X657935Y46655D01*
X658071Y46422D01*
X658201Y46185D01*
X658325Y45946D01*
X658444Y45703D01*
X658556Y45458D01*
X658663Y45210D01*
X658763Y44959D01*
X658857Y44706D01*
X658945Y44450D01*
X659026Y44193D01*
X659102Y43934D01*
X659170Y43673D01*
X659233Y43410D01*
X659289Y43146D01*
X659338Y42881D01*
X659381Y42614D01*
X659417Y42347D01*
X659447Y42078D01*
X659470Y41809D01*
X659487Y41540D01*
X659497Y41270D01*
X659500Y41000D01*
X659497Y40730D01*
X659487Y40460D01*
X659470Y40191D01*
X659447Y39922D01*
X659417Y39653D01*
X659381Y39386D01*
X659338Y39119D01*
X659289Y38854D01*
X659233Y38590D01*
X659170Y38327D01*
X659102Y38066D01*
X659026Y37807D01*
X658945Y37550D01*
X658857Y37294D01*
X658763Y37041D01*
X658663Y36790D01*
X658556Y36542D01*
X658444Y36297D01*
X658325Y36054D01*
X658201Y35815D01*
X658071Y35578D01*
X657935Y35345D01*
X657793Y35115D01*
X657646Y34889D01*
X657493Y34666D01*
X657335Y34447D01*
X657172Y34232D01*
X657003Y34022D01*
X656829Y33815D01*
X656650Y33613D01*
X656467Y33415D01*
X656278Y33222D01*
X656085Y33033D01*
X655887Y32850D01*
X655685Y32671D01*
X655478Y32497D01*
X655268Y32328D01*
X655053Y32165D01*
X654834Y32007D01*
X654611Y31854D01*
X654385Y31707D01*
X654155Y31565D01*
X653922Y31429D01*
X653685Y31299D01*
X653446Y31175D01*
X653203Y31056D01*
X652958Y30944D01*
X652710Y30837D01*
X652459Y30737D01*
X652206Y30643D01*
X651950Y30555D01*
X651693Y30474D01*
X651434Y30398D01*
X651173Y30330D01*
X650910Y30267D01*
X650646Y30211D01*
X650381Y30162D01*
X650114Y30119D01*
X649847Y30083D01*
X649578Y30053D01*
X649309Y30030D01*
X649040Y30013D01*
X648770Y30003D01*
X648500Y30000D01*
X648230Y30003D01*
X647960Y30013D01*
X647691Y30030D01*
X647422Y30053D01*
X647153Y30083D01*
X646886Y30119D01*
X646619Y30162D01*
X646354Y30211D01*
X646090Y30267D01*
X645827Y30330D01*
X645566Y30398D01*
X645307Y30474D01*
X645050Y30555D01*
X644794Y30643D01*
X644541Y30737D01*
X644290Y30837D01*
X644042Y30944D01*
X643797Y31056D01*
X643554Y31175D01*
X643315Y31299D01*
X643078Y31429D01*
X642845Y31565D01*
X642615Y31707D01*
X642389Y31854D01*
X642166Y32007D01*
X641947Y32165D01*
X641732Y32328D01*
X641522Y32497D01*
X641315Y32671D01*
X641113Y32850D01*
X640915Y33033D01*
X640722Y33222D01*
X640533Y33415D01*
X640350Y33613D01*
X640171Y33815D01*
X639997Y34022D01*
X639828Y34232D01*
X639665Y34447D01*
X639507Y34666D01*
X639354Y34889D01*
X639207Y35115D01*
X639065Y35345D01*
X638929Y35578D01*
X638799Y35815D01*
X638675Y36054D01*
X638556Y36297D01*
X638444Y36542D01*
X638337Y36790D01*
X638237Y37041D01*
X638143Y37294D01*
X638055Y37550D01*
X637974Y37807D01*
X637898Y38066D01*
X637830Y38327D01*
X637767Y38590D01*
X637711Y38854D01*
X637662Y39119D01*
X637619Y39386D01*
X637583Y39653D01*
X637553Y39922D01*
X637530Y40191D01*
X637513Y40460D01*
X637503Y40730D01*
X637500Y41000D01*
X570000Y33000D02*
X570003Y33270D01*
X570013Y33540D01*
X570030Y33809D01*
X570053Y34078D01*
X570083Y34347D01*
X570119Y34614D01*
X570162Y34881D01*
X570211Y35146D01*
X570267Y35410D01*
X570330Y35673D01*
X570398Y35934D01*
X570474Y36193D01*
X570555Y36450D01*
X570643Y36706D01*
X570737Y36959D01*
X570837Y37210D01*
X570944Y37458D01*
X571056Y37703D01*
X571175Y37946D01*
X571299Y38185D01*
X571429Y38422D01*
X571565Y38655D01*
X571707Y38885D01*
X571854Y39111D01*
X572007Y39334D01*
X572165Y39553D01*
X572328Y39768D01*
X572497Y39978D01*
X572671Y40185D01*
X572850Y40387D01*
X573033Y40585D01*
X573222Y40778D01*
X573415Y40967D01*
X573613Y41150D01*
X573815Y41329D01*
X574022Y41503D01*
X574232Y41672D01*
X574447Y41835D01*
X574666Y41993D01*
X574889Y42146D01*
X575115Y42293D01*
X575345Y42435D01*
X575578Y42571D01*
X575815Y42701D01*
X576054Y42825D01*
X576297Y42944D01*
X576542Y43056D01*
X576790Y43163D01*
X577041Y43263D01*
X577294Y43357D01*
X577550Y43445D01*
X577807Y43526D01*
X578066Y43602D01*
X578327Y43670D01*
X578590Y43733D01*
X578854Y43789D01*
X579119Y43838D01*
X579386Y43881D01*
X579653Y43917D01*
X579922Y43947D01*
X580191Y43970D01*
X580460Y43987D01*
X580730Y43997D01*
X581000Y44000D01*
X581270Y43997D01*
X581540Y43987D01*
X581809Y43970D01*
X582078Y43947D01*
X582347Y43917D01*
X582614Y43881D01*
X582881Y43838D01*
X583146Y43789D01*
X583410Y43733D01*
X583673Y43670D01*
X583934Y43602D01*
X584193Y43526D01*
X584450Y43445D01*
X584706Y43357D01*
X584959Y43263D01*
X585210Y43163D01*
X585458Y43056D01*
X585703Y42944D01*
X585946Y42825D01*
X586185Y42701D01*
X586422Y42571D01*
X586655Y42435D01*
X586885Y42293D01*
X587111Y42146D01*
X587334Y41993D01*
X587553Y41835D01*
X587768Y41672D01*
X587978Y41503D01*
X588185Y41329D01*
X588387Y41150D01*
X588585Y40967D01*
X588778Y40778D01*
X588967Y40585D01*
X589150Y40387D01*
X589329Y40185D01*
X589503Y39978D01*
X589672Y39768D01*
X589835Y39553D01*
X589993Y39334D01*
X590146Y39111D01*
X590293Y38885D01*
X590435Y38655D01*
X590571Y38422D01*
X590701Y38185D01*
X590825Y37946D01*
X590944Y37703D01*
X591056Y37458D01*
X591163Y37210D01*
X591263Y36959D01*
X591357Y36706D01*
X591445Y36450D01*
X591526Y36193D01*
X591602Y35934D01*
X591670Y35673D01*
X591733Y35410D01*
X591789Y35146D01*
X591838Y34881D01*
X591881Y34614D01*
X591917Y34347D01*
X591947Y34078D01*
X591970Y33809D01*
X591987Y33540D01*
X591997Y33270D01*
X592000Y33000D01*
X591997Y32730D01*
X591987Y32460D01*
X591970Y32191D01*
X591947Y31922D01*
X591917Y31653D01*
X591881Y31386D01*
X591838Y31119D01*
X591789Y30854D01*
X591733Y30590D01*
X591670Y30327D01*
X591602Y30066D01*
X591526Y29807D01*
X591445Y29550D01*
X591357Y29294D01*
X591263Y29041D01*
X591163Y28790D01*
X591056Y28542D01*
X590944Y28297D01*
X590825Y28054D01*
X590701Y27815D01*
X590571Y27578D01*
X590435Y27345D01*
X590293Y27115D01*
X590146Y26889D01*
X589993Y26666D01*
X589835Y26447D01*
X589672Y26232D01*
X589503Y26022D01*
X589329Y25815D01*
X589150Y25613D01*
X588967Y25415D01*
X588778Y25222D01*
X588585Y25033D01*
X588387Y24850D01*
X588185Y24671D01*
X587978Y24497D01*
X587768Y24328D01*
X587553Y24165D01*
X587334Y24007D01*
X587111Y23854D01*
X586885Y23707D01*
X586655Y23565D01*
X586422Y23429D01*
X586185Y23299D01*
X585946Y23175D01*
X585703Y23056D01*
X585458Y22944D01*
X585210Y22837D01*
X584959Y22737D01*
X584706Y22643D01*
X584450Y22555D01*
X584193Y22474D01*
X583934Y22398D01*
X583673Y22330D01*
X583410Y22267D01*
X583146Y22211D01*
X582881Y22162D01*
X582614Y22119D01*
X582347Y22083D01*
X582078Y22053D01*
X581809Y22030D01*
X581540Y22013D01*
X581270Y22003D01*
X581000Y22000D01*
X580730Y22003D01*
X580460Y22013D01*
X580191Y22030D01*
X579922Y22053D01*
X579653Y22083D01*
X579386Y22119D01*
X579119Y22162D01*
X578854Y22211D01*
X578590Y22267D01*
X578327Y22330D01*
X578066Y22398D01*
X577807Y22474D01*
X577550Y22555D01*
X577294Y22643D01*
X577041Y22737D01*
X576790Y22837D01*
X576542Y22944D01*
X576297Y23056D01*
X576054Y23175D01*
X575815Y23299D01*
X575578Y23429D01*
X575345Y23565D01*
X575115Y23707D01*
X574889Y23854D01*
X574666Y24007D01*
X574447Y24165D01*
X574232Y24328D01*
X574022Y24497D01*
X573815Y24671D01*
X573613Y24850D01*
X573415Y25033D01*
X573222Y25222D01*
X573033Y25415D01*
X572850Y25613D01*
X572671Y25815D01*
X572497Y26022D01*
X572328Y26232D01*
X572165Y26447D01*
X572007Y26666D01*
X571854Y26889D01*
X571707Y27115D01*
X571565Y27345D01*
X571429Y27578D01*
X571299Y27815D01*
X571175Y28054D01*
X571056Y28297D01*
X570944Y28542D01*
X570837Y28790D01*
X570737Y29041D01*
X570643Y29294D01*
X570555Y29550D01*
X570474Y29807D01*
X570398Y30066D01*
X570330Y30327D01*
X570267Y30590D01*
X570211Y30854D01*
X570162Y31119D01*
X570119Y31386D01*
X570083Y31653D01*
X570053Y31922D01*
X570030Y32191D01*
X570013Y32460D01*
X570003Y32730D01*
X570000Y33000D01*
X502500Y41000D02*
X502503Y41270D01*
X502513Y41540D01*
X502530Y41809D01*
X502553Y42078D01*
X502583Y42347D01*
X502619Y42614D01*
X502662Y42881D01*
X502711Y43146D01*
X502767Y43410D01*
X502830Y43673D01*
X502898Y43934D01*
X502974Y44193D01*
X503055Y44450D01*
X503143Y44706D01*
X503237Y44959D01*
X503337Y45210D01*
X503444Y45458D01*
X503556Y45703D01*
X503675Y45946D01*
X503799Y46185D01*
X503929Y46422D01*
X504065Y46655D01*
X504207Y46885D01*
X504354Y47111D01*
X504507Y47334D01*
X504665Y47553D01*
X504828Y47768D01*
X504997Y47978D01*
X505171Y48185D01*
X505350Y48387D01*
X505533Y48585D01*
X505722Y48778D01*
X505915Y48967D01*
X506113Y49150D01*
X506315Y49329D01*
X506522Y49503D01*
X506732Y49672D01*
X506947Y49835D01*
X507166Y49993D01*
X507389Y50146D01*
X507615Y50293D01*
X507845Y50435D01*
X508078Y50571D01*
X508315Y50701D01*
X508554Y50825D01*
X508797Y50944D01*
X509042Y51056D01*
X509290Y51163D01*
X509541Y51263D01*
X509794Y51357D01*
X510050Y51445D01*
X510307Y51526D01*
X510566Y51602D01*
X510827Y51670D01*
X511090Y51733D01*
X511354Y51789D01*
X511619Y51838D01*
X511886Y51881D01*
X512153Y51917D01*
X512422Y51947D01*
X512691Y51970D01*
X512960Y51987D01*
X513230Y51997D01*
X513500Y52000D01*
X513770Y51997D01*
X514040Y51987D01*
X514309Y51970D01*
X514578Y51947D01*
X514847Y51917D01*
X515114Y51881D01*
X515381Y51838D01*
X515646Y51789D01*
X515910Y51733D01*
X516173Y51670D01*
X516434Y51602D01*
X516693Y51526D01*
X516950Y51445D01*
X517206Y51357D01*
X517459Y51263D01*
X517710Y51163D01*
X517958Y51056D01*
X518203Y50944D01*
X518446Y50825D01*
X518685Y50701D01*
X518922Y50571D01*
X519155Y50435D01*
X519385Y50293D01*
X519611Y50146D01*
X519834Y49993D01*
X520053Y49835D01*
X520268Y49672D01*
X520478Y49503D01*
X520685Y49329D01*
X520887Y49150D01*
X521085Y48967D01*
X521278Y48778D01*
X521467Y48585D01*
X521650Y48387D01*
X521829Y48185D01*
X522003Y47978D01*
X522172Y47768D01*
X522335Y47553D01*
X522493Y47334D01*
X522646Y47111D01*
X522793Y46885D01*
X522935Y46655D01*
X523071Y46422D01*
X523201Y46185D01*
X523325Y45946D01*
X523444Y45703D01*
X523556Y45458D01*
X523663Y45210D01*
X523763Y44959D01*
X523857Y44706D01*
X523945Y44450D01*
X524026Y44193D01*
X524102Y43934D01*
X524170Y43673D01*
X524233Y43410D01*
X524289Y43146D01*
X524338Y42881D01*
X524381Y42614D01*
X524417Y42347D01*
X524447Y42078D01*
X524470Y41809D01*
X524487Y41540D01*
X524497Y41270D01*
X524500Y41000D01*
X524497Y40730D01*
X524487Y40460D01*
X524470Y40191D01*
X524447Y39922D01*
X524417Y39653D01*
X524381Y39386D01*
X524338Y39119D01*
X524289Y38854D01*
X524233Y38590D01*
X524170Y38327D01*
X524102Y38066D01*
X524026Y37807D01*
X523945Y37550D01*
X523857Y37294D01*
X523763Y37041D01*
X523663Y36790D01*
X523556Y36542D01*
X523444Y36297D01*
X523325Y36054D01*
X523201Y35815D01*
X523071Y35578D01*
X522935Y35345D01*
X522793Y35115D01*
X522646Y34889D01*
X522493Y34666D01*
X522335Y34447D01*
X522172Y34232D01*
X522003Y34022D01*
X521829Y33815D01*
X521650Y33613D01*
X521467Y33415D01*
X521278Y33222D01*
X521085Y33033D01*
X520887Y32850D01*
X520685Y32671D01*
X520478Y32497D01*
X520268Y32328D01*
X520053Y32165D01*
X519834Y32007D01*
X519611Y31854D01*
X519385Y31707D01*
X519155Y31565D01*
X518922Y31429D01*
X518685Y31299D01*
X518446Y31175D01*
X518203Y31056D01*
X517958Y30944D01*
X517710Y30837D01*
X517459Y30737D01*
X517206Y30643D01*
X516950Y30555D01*
X516693Y30474D01*
X516434Y30398D01*
X516173Y30330D01*
X515910Y30267D01*
X515646Y30211D01*
X515381Y30162D01*
X515114Y30119D01*
X514847Y30083D01*
X514578Y30053D01*
X514309Y30030D01*
X514040Y30013D01*
X513770Y30003D01*
X513500Y30000D01*
X513230Y30003D01*
X512960Y30013D01*
X512691Y30030D01*
X512422Y30053D01*
X512153Y30083D01*
X511886Y30119D01*
X511619Y30162D01*
X511354Y30211D01*
X511090Y30267D01*
X510827Y30330D01*
X510566Y30398D01*
X510307Y30474D01*
X510050Y30555D01*
X509794Y30643D01*
X509541Y30737D01*
X509290Y30837D01*
X509042Y30944D01*
X508797Y31056D01*
X508554Y31175D01*
X508315Y31299D01*
X508078Y31429D01*
X507845Y31565D01*
X507615Y31707D01*
X507389Y31854D01*
X507166Y32007D01*
X506947Y32165D01*
X506732Y32328D01*
X506522Y32497D01*
X506315Y32671D01*
X506113Y32850D01*
X505915Y33033D01*
X505722Y33222D01*
X505533Y33415D01*
X505350Y33613D01*
X505171Y33815D01*
X504997Y34022D01*
X504828Y34232D01*
X504665Y34447D01*
X504507Y34666D01*
X504354Y34889D01*
X504207Y35115D01*
X504065Y35345D01*
X503929Y35578D01*
X503799Y35815D01*
X503675Y36054D01*
X503556Y36297D01*
X503444Y36542D01*
X503337Y36790D01*
X503237Y37041D01*
X503143Y37294D01*
X503055Y37550D01*
X502974Y37807D01*
X502898Y38066D01*
X502830Y38327D01*
X502767Y38590D01*
X502711Y38854D01*
X502662Y39119D01*
X502619Y39386D01*
X502583Y39653D01*
X502553Y39922D01*
X502530Y40191D01*
X502513Y40460D01*
X502503Y40730D01*
X502500Y41000D01*
D11*
X274000Y17000D02*
X274088Y14995D01*
X274349Y13006D01*
X274784Y11047D01*
X275387Y9134D01*
X276155Y7280D01*
X277081Y5500D01*
X278160Y3808D01*
X279381Y2216D01*
X280737Y737D01*
X282216Y-619D01*
X283808Y-1841D01*
X285500Y-2919D01*
X287280Y-3845D01*
X289134Y-4613D01*
X291047Y-5216D01*
X293006Y-5651D01*
X294995Y-5912D01*
X297000Y-6000D01*
X646000Y-6000D01*
X648005Y-5912D01*
X649994Y-5651D01*
X651953Y-5216D01*
X653866Y-4613D01*
X655720Y-3845D01*
X657500Y-2919D01*
X659192Y-1841D01*
X660784Y-619D01*
X662263Y737D01*
X663619Y2216D01*
X664841Y3808D01*
X665919Y5500D01*
X666845Y7280D01*
X667613Y9134D01*
X668216Y11047D01*
X668651Y13006D01*
X668912Y14995D01*
X669000Y17000D01*
X669000Y60000D01*
X669042Y60959D01*
X669167Y61910D01*
X669375Y62847D01*
X669663Y63762D01*
X670031Y64649D01*
X670474Y65500D01*
X670989Y66309D01*
X671574Y67071D01*
X672222Y67778D01*
X672929Y68427D01*
X673691Y69011D01*
X674500Y69526D01*
X675351Y69969D01*
X676238Y70337D01*
X677153Y70625D01*
X678090Y70833D01*
X679041Y70958D01*
X680000Y71000D01*
X845000Y71000D01*
X850317Y71232D01*
X855593Y71927D01*
X860788Y73079D01*
X865863Y74679D01*
X870780Y76715D01*
X875500Y79172D01*
X879988Y82032D01*
X884210Y85271D01*
X888134Y88867D01*
X891729Y92790D01*
X894968Y97012D01*
X897828Y101500D01*
X900285Y106220D01*
X902321Y111137D01*
X903921Y116212D01*
X905073Y121407D01*
X905768Y126684D01*
X906000Y132000D01*
X906000Y324000D01*
X943000Y324000D01*
X943959Y324042D01*
X944910Y324167D01*
X945847Y324375D01*
X946762Y324663D01*
X947649Y325031D01*
X948500Y325474D01*
X949309Y325989D01*
X950071Y326574D01*
X950778Y327222D01*
X951427Y327929D01*
X952011Y328691D01*
X952526Y329500D01*
X952969Y330351D01*
X953337Y331238D01*
X953625Y332153D01*
X953833Y333090D01*
X953958Y334041D01*
X954000Y335000D01*
X954000Y806000D01*
X953958Y806959D01*
X953833Y807910D01*
X953625Y808847D01*
X953337Y809762D01*
X952969Y810649D01*
X952526Y811500D01*
X952011Y812309D01*
X951427Y813071D01*
X950778Y813778D01*
X950071Y814427D01*
X949309Y815011D01*
X948500Y815526D01*
X947649Y815969D01*
X946762Y816337D01*
X945847Y816625D01*
X944910Y816833D01*
X943959Y816958D01*
X943000Y817000D01*
X781000Y817000D01*
X780041Y816958D01*
X779090Y816833D01*
X778153Y816625D01*
X777238Y816337D01*
X776351Y815969D01*
X775500Y815526D01*
X774691Y815011D01*
X773929Y814427D01*
X773222Y813778D01*
X772574Y813071D01*
X771989Y812309D01*
X771474Y811500D01*
X771031Y810649D01*
X770663Y809762D01*
X770375Y808847D01*
X770167Y807910D01*
X770042Y806959D01*
X770000Y806000D01*
X770000Y390000D01*
X769958Y389041D01*
X769833Y388090D01*
X769625Y387153D01*
X769337Y386238D01*
X768969Y385351D01*
X768526Y384500D01*
X768011Y383691D01*
X767427Y382929D01*
X766778Y382222D01*
X766071Y381574D01*
X765309Y380989D01*
X764500Y380474D01*
X763649Y380031D01*
X762762Y379663D01*
X761847Y379375D01*
X760910Y379167D01*
X759959Y379042D01*
X759000Y379000D01*
X701000Y379000D01*
X700041Y379042D01*
X699090Y379167D01*
X698153Y379375D01*
X697238Y379663D01*
X696351Y380031D01*
X695500Y380474D01*
X694691Y380989D01*
X693929Y381574D01*
X693222Y382222D01*
X692574Y382929D01*
X691989Y383691D01*
X691474Y384500D01*
X691031Y385351D01*
X690663Y386238D01*
X690375Y387153D01*
X690167Y388090D01*
X690042Y389041D01*
X690000Y390000D01*
X690000Y401000D01*
X689958Y401959D01*
X689833Y402910D01*
X689625Y403847D01*
X689337Y404762D01*
X688969Y405649D01*
X688526Y406500D01*
X688011Y407309D01*
X687427Y408071D01*
X686778Y408778D01*
X686071Y409427D01*
X685309Y410011D01*
X684500Y410526D01*
X683649Y410969D01*
X682762Y411337D01*
X681847Y411625D01*
X680910Y411833D01*
X679959Y411958D01*
X679000Y412000D01*
X616000Y412000D01*
X615041Y411958D01*
X614090Y411833D01*
X613153Y411625D01*
X612238Y411337D01*
X611351Y410969D01*
X610500Y410526D01*
X609691Y410011D01*
X608929Y409427D01*
X608222Y408778D01*
X607574Y408071D01*
X606989Y407309D01*
X606474Y406500D01*
X606031Y405649D01*
X605663Y404762D01*
X605375Y403847D01*
X605167Y402910D01*
X605042Y401959D01*
X605000Y401000D01*
X605000Y263000D01*
X605042Y262041D01*
X605167Y261090D01*
X605375Y260153D01*
X605663Y259238D01*
X606031Y258351D01*
X606474Y257500D01*
X606989Y256691D01*
X607574Y255929D01*
X608222Y255222D01*
X608929Y254574D01*
X609691Y253989D01*
X610500Y253474D01*
X611351Y253031D01*
X612238Y252663D01*
X613153Y252375D01*
X614090Y252167D01*
X615041Y252042D01*
X616000Y252000D01*
X780000Y252000D01*
X780000Y216000D01*
X297000Y216000D01*
X294995Y215912D01*
X293006Y215651D01*
X291047Y215216D01*
X289134Y214613D01*
X287280Y213845D01*
X285500Y212919D01*
X283808Y211841D01*
X282216Y210619D01*
X280737Y209263D01*
X279381Y207784D01*
X278160Y206192D01*
X277081Y204500D01*
X276155Y202720D01*
X275387Y200866D01*
X274784Y198953D01*
X274349Y196994D01*
X274088Y195005D01*
X274000Y193000D01*
X274000Y17000D01*
X333600Y89348D02*
X333528Y90443D01*
X333385Y91530D01*
X333171Y92606D01*
X332887Y93665D01*
X332535Y94703D01*
X332115Y95717D01*
X331630Y96700D01*
X331082Y97650D01*
X330472Y98562D01*
X329805Y99432D01*
X329082Y100256D01*
X328306Y101032D01*
X327482Y101755D01*
X326612Y102422D01*
X325700Y103032D01*
X324750Y103580D01*
X323767Y104065D01*
X322753Y104485D01*
X321715Y104837D01*
X320656Y105121D01*
X319580Y105335D01*
X318493Y105478D01*
X317398Y105550D01*
X316302Y105550D01*
X315207Y105478D01*
X314120Y105335D01*
X313044Y105121D01*
X311985Y104837D01*
X310947Y104485D01*
X309933Y104065D01*
X308950Y103580D01*
X308000Y103032D01*
X307088Y102422D01*
X306218Y101755D01*
X305394Y101032D01*
X304618Y100256D01*
X303895Y99432D01*
X303228Y98562D01*
X302618Y97650D01*
X302070Y96700D01*
X301585Y95717D01*
X301165Y94703D01*
X300813Y93665D01*
X300529Y92606D01*
X300315Y91530D01*
X300172Y90443D01*
X300100Y89348D01*
X300100Y88252D01*
X300172Y87157D01*
X300315Y86070D01*
X300529Y84994D01*
X300813Y83935D01*
X301165Y82897D01*
X301585Y81883D01*
X302070Y80900D01*
X302618Y79950D01*
X303228Y79038D01*
X303895Y78168D01*
X304618Y77344D01*
X305394Y76568D01*
X306218Y75845D01*
X307088Y75178D01*
X308000Y74568D01*
X308950Y74020D01*
X309933Y73535D01*
X310947Y73115D01*
X311985Y72763D01*
X313044Y72479D01*
X314120Y72265D01*
X315207Y72122D01*
X316302Y72050D01*
X317398Y72050D01*
X318493Y72122D01*
X319580Y72265D01*
X320656Y72479D01*
X321715Y72763D01*
X322753Y73115D01*
X323767Y73535D01*
X324750Y74020D01*
X325700Y74568D01*
X326612Y75178D01*
X327482Y75845D01*
X328306Y76568D01*
X329082Y77344D01*
X329805Y78168D01*
X330472Y79038D01*
X331082Y79950D01*
X331630Y80900D01*
X332115Y81883D01*
X332535Y82897D01*
X332887Y83935D01*
X333171Y84994D01*
X333385Y86070D01*
X333528Y87157D01*
X333600Y88252D01*
X333600Y89348D01*
X447900Y89348D02*
X447828Y90443D01*
X447685Y91530D01*
X447471Y92606D01*
X447187Y93665D01*
X446835Y94703D01*
X446415Y95717D01*
X445930Y96700D01*
X445382Y97650D01*
X444772Y98562D01*
X444105Y99432D01*
X443382Y100256D01*
X442606Y101032D01*
X441782Y101755D01*
X440912Y102422D01*
X440000Y103032D01*
X439050Y103580D01*
X438067Y104065D01*
X437053Y104485D01*
X436015Y104837D01*
X434956Y105121D01*
X433880Y105335D01*
X432793Y105478D01*
X431698Y105550D01*
X430602Y105550D01*
X429507Y105478D01*
X428420Y105335D01*
X427344Y105121D01*
X426285Y104837D01*
X425247Y104485D01*
X424233Y104065D01*
X423250Y103580D01*
X422300Y103032D01*
X421388Y102422D01*
X420518Y101755D01*
X419694Y101032D01*
X418918Y100256D01*
X418195Y99432D01*
X417528Y98562D01*
X416918Y97650D01*
X416370Y96700D01*
X415885Y95717D01*
X415465Y94703D01*
X415113Y93665D01*
X414829Y92606D01*
X414615Y91530D01*
X414472Y90443D01*
X414400Y89348D01*
X414400Y88252D01*
X414472Y87157D01*
X414615Y86070D01*
X414829Y84994D01*
X415113Y83935D01*
X415465Y82897D01*
X415885Y81883D01*
X416370Y80900D01*
X416918Y79950D01*
X417528Y79038D01*
X418195Y78168D01*
X418918Y77344D01*
X419694Y76568D01*
X420518Y75845D01*
X421388Y75178D01*
X422300Y74568D01*
X423250Y74020D01*
X424233Y73535D01*
X425247Y73115D01*
X426285Y72763D01*
X427344Y72479D01*
X428420Y72265D01*
X429507Y72122D01*
X430602Y72050D01*
X431698Y72050D01*
X432793Y72122D01*
X433880Y72265D01*
X434956Y72479D01*
X436015Y72763D01*
X437053Y73115D01*
X438067Y73535D01*
X439050Y74020D01*
X440000Y74568D01*
X440912Y75178D01*
X441782Y75845D01*
X442606Y76568D01*
X443382Y77344D01*
X444105Y78168D01*
X444772Y79038D01*
X445382Y79950D01*
X445930Y80900D01*
X446415Y81883D01*
X446835Y82897D01*
X447187Y83935D01*
X447471Y84994D01*
X447685Y86070D01*
X447828Y87157D01*
X447900Y88252D01*
X447900Y89348D01*
X637500Y40568D02*
X637568Y39706D01*
X637703Y38852D01*
X637905Y38012D01*
X638172Y37190D01*
X638503Y36391D01*
X638895Y35621D01*
X639347Y34884D01*
X639855Y34185D01*
X640416Y33527D01*
X641027Y32916D01*
X641685Y32355D01*
X642384Y31847D01*
X643121Y31395D01*
X643891Y31003D01*
X644690Y30672D01*
X645512Y30405D01*
X646352Y30203D01*
X647206Y30068D01*
X648068Y30000D01*
X648932Y30000D01*
X649794Y30068D01*
X650648Y30203D01*
X651488Y30405D01*
X652310Y30672D01*
X653109Y31003D01*
X653879Y31395D01*
X654616Y31847D01*
X655315Y32355D01*
X655973Y32916D01*
X656584Y33527D01*
X657145Y34185D01*
X657653Y34884D01*
X658105Y35621D01*
X658497Y36391D01*
X658828Y37190D01*
X659095Y38012D01*
X659297Y38852D01*
X659432Y39706D01*
X659500Y40568D01*
X659500Y41432D01*
X659432Y42294D01*
X659297Y43148D01*
X659095Y43988D01*
X658828Y44810D01*
X658497Y45609D01*
X658105Y46379D01*
X657653Y47116D01*
X657145Y47815D01*
X656584Y48473D01*
X655973Y49084D01*
X655315Y49645D01*
X654616Y50153D01*
X653879Y50605D01*
X653109Y50997D01*
X652310Y51328D01*
X651488Y51595D01*
X650648Y51797D01*
X649794Y51932D01*
X648932Y52000D01*
X648068Y52000D01*
X647206Y51932D01*
X646352Y51797D01*
X645512Y51595D01*
X644690Y51328D01*
X643891Y50997D01*
X643121Y50605D01*
X642384Y50153D01*
X641685Y49645D01*
X641027Y49084D01*
X640416Y48473D01*
X639855Y47815D01*
X639347Y47116D01*
X638895Y46379D01*
X638503Y45609D01*
X638172Y44810D01*
X637905Y43988D01*
X637703Y43148D01*
X637568Y42294D01*
X637500Y41432D01*
X637500Y40568D01*
X570000Y32568D02*
X570068Y31706D01*
X570203Y30852D01*
X570405Y30012D01*
X570672Y29190D01*
X571003Y28391D01*
X571395Y27621D01*
X571847Y26884D01*
X572355Y26185D01*
X572916Y25527D01*
X573527Y24916D01*
X574185Y24355D01*
X574884Y23847D01*
X575621Y23395D01*
X576391Y23003D01*
X577190Y22672D01*
X578012Y22405D01*
X578852Y22203D01*
X579706Y22068D01*
X580568Y22000D01*
X581432Y22000D01*
X582294Y22068D01*
X583148Y22203D01*
X583988Y22405D01*
X584810Y22672D01*
X585609Y23003D01*
X586379Y23395D01*
X587116Y23847D01*
X587815Y24355D01*
X588473Y24916D01*
X589084Y25527D01*
X589645Y26185D01*
X590153Y26884D01*
X590605Y27621D01*
X590997Y28391D01*
X591328Y29190D01*
X591595Y30012D01*
X591797Y30852D01*
X591932Y31706D01*
X592000Y32568D01*
X592000Y33432D01*
X591932Y34294D01*
X591797Y35148D01*
X591595Y35988D01*
X591328Y36810D01*
X590997Y37609D01*
X590605Y38379D01*
X590153Y39116D01*
X589645Y39815D01*
X589084Y40473D01*
X588473Y41084D01*
X587815Y41645D01*
X587116Y42153D01*
X586379Y42605D01*
X585609Y42997D01*
X584810Y43328D01*
X583988Y43595D01*
X583148Y43797D01*
X582294Y43932D01*
X581432Y44000D01*
X580568Y44000D01*
X579706Y43932D01*
X578852Y43797D01*
X578012Y43595D01*
X577190Y43328D01*
X576391Y42997D01*
X575621Y42605D01*
X574884Y42153D01*
X574185Y41645D01*
X573527Y41084D01*
X572916Y40473D01*
X572355Y39815D01*
X571847Y39116D01*
X571395Y38379D01*
X571003Y37609D01*
X570672Y36810D01*
X570405Y35988D01*
X570203Y35148D01*
X570068Y34294D01*
X570000Y33432D01*
X570000Y32568D01*
X502500Y40568D02*
X502568Y39706D01*
X502703Y38852D01*
X502905Y38012D01*
X503172Y37190D01*
X503503Y36391D01*
X503895Y35621D01*
X504347Y34884D01*
X504855Y34185D01*
X505416Y33527D01*
X506027Y32916D01*
X506685Y32355D01*
X507384Y31847D01*
X508121Y31395D01*
X508891Y31003D01*
X509690Y30672D01*
X510512Y30405D01*
X511352Y30203D01*
X512206Y30068D01*
X513068Y30000D01*
X513932Y30000D01*
X514794Y30068D01*
X515648Y30203D01*
X516488Y30405D01*
X517310Y30672D01*
X518109Y31003D01*
X518879Y31395D01*
X519616Y31847D01*
X520315Y32355D01*
X520973Y32916D01*
X521584Y33527D01*
X522145Y34185D01*
X522653Y34884D01*
X523105Y35621D01*
X523497Y36391D01*
X523828Y37190D01*
X524095Y38012D01*
X524297Y38852D01*
X524432Y39706D01*
X524500Y40568D01*
X524500Y41432D01*
X524432Y42294D01*
X524297Y43148D01*
X524095Y43988D01*
X523828Y44810D01*
X523497Y45609D01*
X523105Y46379D01*
X522653Y47116D01*
X522145Y47815D01*
X521584Y48473D01*
X520973Y49084D01*
X520315Y49645D01*
X519616Y50153D01*
X518879Y50605D01*
X518109Y50997D01*
X517310Y51328D01*
X516488Y51595D01*
X515648Y51797D01*
X514794Y51932D01*
X513932Y52000D01*
X513068Y52000D01*
X512206Y51932D01*
X511352Y51797D01*
X510512Y51595D01*
X509690Y51328D01*
X508891Y50997D01*
X508121Y50605D01*
X507384Y50153D01*
X506685Y49645D01*
X506027Y49084D01*
X505416Y48473D01*
X504855Y47815D01*
X504347Y47116D01*
X503895Y46379D01*
X503503Y45609D01*
X503172Y44810D01*
X502905Y43988D01*
X502703Y43148D01*
X502568Y42294D01*
X502500Y41432D01*
X502500Y40568D01*
M02*
