G04 EAGLE Gerber RS-274X export*
G75*
%MOMM*%
%FSLAX34Y34*%
%LPD*%
%INTop Silkscreen*%
%IPPOS*%
%AMOC8*
5,1,8,0,0,1.08239X$1,22.5*%
G01*
%ADD10C,0.228600*%
%ADD11C,0.127000*%
%ADD12C,0.152400*%
%ADD13C,0.203200*%
%ADD14R,0.508000X0.508000*%
%ADD15R,6.016753X0.009144*%
%ADD16R,6.208778X0.009144*%
%ADD17R,6.345934X0.009144*%
%ADD18R,6.464809X0.009144*%
%ADD19R,6.565391X0.009147*%
%ADD20R,6.656834X0.009144*%
%ADD21R,6.748272X0.009144*%
%ADD22R,6.821422X0.009144*%
%ADD23R,6.894578X0.009144*%
%ADD24R,6.958584X0.009144*%
%ADD25R,7.022591X0.009144*%
%ADD26R,7.086600X0.009144*%
%ADD27R,7.150609X0.009144*%
%ADD28R,7.205472X0.009144*%
%ADD29R,7.260334X0.009144*%
%ADD30R,7.306056X0.009144*%
%ADD31R,7.351778X0.009147*%
%ADD32R,7.406641X0.009144*%
%ADD33R,7.461503X0.009144*%
%ADD34R,7.498078X0.009144*%
%ADD35R,7.552944X0.009144*%
%ADD36R,7.589522X0.009144*%
%ADD37R,7.626097X0.009144*%
%ADD38R,7.680959X0.009144*%
%ADD39R,7.717534X0.009144*%
%ADD40R,7.754109X0.009144*%
%ADD41R,7.790691X0.009144*%
%ADD42R,7.827266X0.009144*%
%ADD43R,7.863841X0.009144*%
%ADD44R,7.900416X0.009147*%
%ADD45R,7.936991X0.009144*%
%ADD46R,7.973566X0.009144*%
%ADD47R,8.010144X0.009144*%
%ADD48R,8.046722X0.009144*%
%ADD49R,8.074153X0.009144*%
%ADD50R,8.101584X0.009144*%
%ADD51R,8.138159X0.009144*%
%ADD52R,8.174734X0.009144*%
%ADD53R,8.202166X0.009144*%
%ADD54R,8.229600X0.009144*%
%ADD55R,8.266178X0.009144*%
%ADD56R,8.284466X0.009147*%
%ADD57R,8.321041X0.009144*%
%ADD58R,8.348472X0.009144*%
%ADD59R,8.375903X0.009144*%
%ADD60R,8.403334X0.009144*%
%ADD61R,8.430766X0.009144*%
%ADD62R,8.458200X0.009144*%
%ADD63R,8.485634X0.009144*%
%ADD64R,8.503922X0.009144*%
%ADD65R,8.540497X0.009144*%
%ADD66R,8.558784X0.009144*%
%ADD67R,8.586216X0.009144*%
%ADD68R,8.613647X0.009144*%
%ADD69R,8.631934X0.009147*%
%ADD70R,8.659366X0.009144*%
%ADD71R,8.686800X0.009144*%
%ADD72R,8.705091X0.009144*%
%ADD73R,8.723378X0.009144*%
%ADD74R,8.750809X0.009144*%
%ADD75R,8.778241X0.009144*%
%ADD76R,8.796528X0.009144*%
%ADD77R,8.814816X0.009144*%
%ADD78R,8.842247X0.009144*%
%ADD79R,8.869678X0.009144*%
%ADD80R,8.887966X0.009144*%
%ADD81R,8.906256X0.009147*%
%ADD82R,8.924544X0.009144*%
%ADD83R,8.942834X0.009144*%
%ADD84R,8.961122X0.009144*%
%ADD85R,8.988553X0.009144*%
%ADD86R,9.015984X0.009144*%
%ADD87R,9.034272X0.009144*%
%ADD88R,9.052559X0.009144*%
%ADD89R,9.070847X0.009144*%
%ADD90R,9.089134X0.009144*%
%ADD91R,9.107422X0.009144*%
%ADD92R,9.125709X0.009144*%
%ADD93R,9.144000X0.009144*%
%ADD94R,9.162291X0.009147*%
%ADD95R,9.180578X0.009144*%
%ADD96R,9.198866X0.009144*%
%ADD97R,9.217153X0.009144*%
%ADD98R,9.235441X0.009144*%
%ADD99R,9.253728X0.009144*%
%ADD100R,9.272016X0.009144*%
%ADD101R,9.290303X0.009144*%
%ADD102R,9.308591X0.009144*%
%ADD103R,9.326878X0.009144*%
%ADD104R,9.336022X0.009144*%
%ADD105R,9.354313X0.009144*%
%ADD106R,9.363456X0.009147*%
%ADD107R,9.381744X0.009144*%
%ADD108R,9.400034X0.009144*%
%ADD109R,9.418322X0.009144*%
%ADD110R,9.436609X0.009144*%
%ADD111R,9.454897X0.009144*%
%ADD112R,9.464041X0.009144*%
%ADD113R,9.473184X0.009144*%
%ADD114R,9.491472X0.009144*%
%ADD115R,9.509759X0.009144*%
%ADD116R,9.528047X0.009144*%
%ADD117R,9.546334X0.009144*%
%ADD118R,9.555478X0.009144*%
%ADD119R,9.564622X0.009147*%
%ADD120R,9.582909X0.009144*%
%ADD121R,9.601200X0.009144*%
%ADD122R,9.610344X0.009144*%
%ADD123R,9.619491X0.009144*%
%ADD124R,9.637778X0.009144*%
%ADD125R,9.656066X0.009144*%
%ADD126R,9.665209X0.009144*%
%ADD127R,9.674353X0.009144*%
%ADD128R,9.692641X0.009144*%
%ADD129R,9.710928X0.009144*%
%ADD130R,9.720072X0.009144*%
%ADD131R,9.729216X0.009147*%
%ADD132R,9.747503X0.009144*%
%ADD133R,9.756647X0.009144*%
%ADD134R,9.765791X0.009144*%
%ADD135R,9.784078X0.009144*%
%ADD136R,9.793222X0.009144*%
%ADD137R,9.802366X0.009144*%
%ADD138R,9.820656X0.009144*%
%ADD139R,9.829800X0.009144*%
%ADD140R,9.838944X0.009144*%
%ADD141R,9.857234X0.009144*%
%ADD142R,9.866378X0.009144*%
%ADD143R,9.875522X0.009144*%
%ADD144R,9.893809X0.009147*%
%ADD145R,9.893809X0.009144*%
%ADD146R,9.912097X0.009144*%
%ADD147R,9.921241X0.009144*%
%ADD148R,9.930384X0.009144*%
%ADD149R,9.948672X0.009144*%
%ADD150R,0.822959X0.009144*%
%ADD151R,1.216153X0.009144*%
%ADD152R,1.051559X0.009144*%
%ADD153R,1.335025X0.009144*%
%ADD154R,1.225297X0.009144*%
%ADD155R,0.530353X0.009144*%
%ADD156R,0.832103X0.009144*%
%ADD157R,1.207009X0.009144*%
%ADD158R,0.987553X0.009144*%
%ADD159R,1.261872X0.009144*%
%ADD160R,0.548641X0.009144*%
%ADD161R,1.197866X0.009144*%
%ADD162R,0.960122X0.009144*%
%ADD163R,0.566928X0.009144*%
%ADD164R,0.841247X0.009144*%
%ADD165R,1.188722X0.009144*%
%ADD166R,0.941831X0.009144*%
%ADD167R,1.188719X0.009144*%
%ADD168R,0.576072X0.009144*%
%ADD169R,0.850391X0.009144*%
%ADD170R,1.179575X0.009144*%
%ADD171R,0.923544X0.009144*%
%ADD172R,1.161288X0.009144*%
%ADD173R,0.594359X0.009144*%
%ADD174R,1.170431X0.009144*%
%ADD175R,0.914400X0.009144*%
%ADD176R,1.143000X0.009144*%
%ADD177R,0.603503X0.009144*%
%ADD178R,0.859534X0.009147*%
%ADD179R,1.161288X0.009147*%
%ADD180R,0.905256X0.009147*%
%ADD181R,1.124713X0.009147*%
%ADD182R,1.170431X0.009147*%
%ADD183R,0.621791X0.009147*%
%ADD184R,0.859534X0.009144*%
%ADD185R,0.896113X0.009144*%
%ADD186R,1.106425X0.009144*%
%ADD187R,0.630934X0.009144*%
%ADD188R,0.868678X0.009144*%
%ADD189R,1.152144X0.009144*%
%ADD190R,0.886969X0.009144*%
%ADD191R,1.088134X0.009144*%
%ADD192R,0.649222X0.009144*%
%ADD193R,1.078991X0.009144*%
%ADD194R,0.658366X0.009144*%
%ADD195R,0.877822X0.009144*%
%ADD196R,1.133856X0.009144*%
%ADD197R,0.886966X0.009144*%
%ADD198R,1.069847X0.009144*%
%ADD199R,0.676656X0.009144*%
%ADD200R,1.124713X0.009144*%
%ADD201R,1.060703X0.009144*%
%ADD202R,0.704091X0.009144*%
%ADD203R,1.115569X0.009144*%
%ADD204R,0.713234X0.009144*%
%ADD205R,1.042416X0.009144*%
%ADD206R,0.731522X0.009144*%
%ADD207R,1.097281X0.009144*%
%ADD208R,1.033272X0.009144*%
%ADD209R,0.740666X0.009144*%
%ADD210R,1.088137X0.009144*%
%ADD211R,0.758953X0.009144*%
%ADD212R,0.905256X0.009144*%
%ADD213R,1.078994X0.009144*%
%ADD214R,1.024128X0.009144*%
%ADD215R,0.768097X0.009144*%
%ADD216R,1.069850X0.009144*%
%ADD217R,1.014984X0.009144*%
%ADD218R,0.786384X0.009144*%
%ADD219R,0.795528X0.009144*%
%ADD220R,0.914400X0.009147*%
%ADD221R,1.051559X0.009147*%
%ADD222R,0.923544X0.009147*%
%ADD223R,1.005841X0.009147*%
%ADD224R,1.060703X0.009147*%
%ADD225R,0.813816X0.009147*%
%ADD226R,1.005841X0.009144*%
%ADD227R,0.932688X0.009144*%
%ADD228R,0.996697X0.009144*%
%ADD229R,0.950978X0.009144*%
%ADD230R,0.877825X0.009144*%
%ADD231R,0.950975X0.009144*%
%ADD232R,0.969266X0.009144*%
%ADD233R,0.978409X0.009144*%
%ADD234R,0.978406X0.009144*%
%ADD235R,0.960119X0.009144*%
%ADD236R,0.969263X0.009144*%
%ADD237R,0.969263X0.009147*%
%ADD238R,0.950975X0.009147*%
%ADD239R,0.978406X0.009147*%
%ADD240R,0.960119X0.009147*%
%ADD241R,0.987550X0.009144*%
%ADD242R,1.005837X0.009144*%
%ADD243R,1.014981X0.009144*%
%ADD244R,1.033275X0.009144*%
%ADD245R,1.042419X0.009144*%
%ADD246R,1.051562X0.009144*%
%ADD247R,0.996694X0.009144*%
%ADD248R,0.868681X0.009144*%
%ADD249R,0.859538X0.009144*%
%ADD250R,0.850394X0.009144*%
%ADD251R,1.097278X0.009144*%
%ADD252R,1.014984X0.009147*%
%ADD253R,0.841250X0.009147*%
%ADD254R,1.106422X0.009147*%
%ADD255R,0.841247X0.009147*%
%ADD256R,1.152144X0.009147*%
%ADD257R,1.124709X0.009144*%
%ADD258R,1.133853X0.009144*%
%ADD259R,1.426466X0.009144*%
%ADD260R,0.813816X0.009144*%
%ADD261R,0.804672X0.009144*%
%ADD262R,0.777241X0.009144*%
%ADD263R,1.243584X0.009144*%
%ADD264R,1.252728X0.009144*%
%ADD265R,1.271016X0.009144*%
%ADD266R,1.197863X0.009144*%
%ADD267R,1.289303X0.009144*%
%ADD268R,0.749809X0.009144*%
%ADD269R,1.207006X0.009144*%
%ADD270R,1.298447X0.009144*%
%ADD271R,0.740666X0.009147*%
%ADD272R,1.216150X0.009147*%
%ADD273R,1.426466X0.009147*%
%ADD274R,1.307591X0.009147*%
%ADD275R,1.225294X0.009144*%
%ADD276R,0.731519X0.009144*%
%ADD277R,1.316734X0.009144*%
%ADD278R,0.722375X0.009144*%
%ADD279R,1.234438X0.009144*%
%ADD280R,0.713231X0.009144*%
%ADD281R,1.344169X0.009144*%
%ADD282R,0.704088X0.009144*%
%ADD283R,1.353313X0.009144*%
%ADD284R,0.694944X0.009144*%
%ADD285R,1.371600X0.009144*%
%ADD286R,0.685800X0.009144*%
%ADD287R,1.280159X0.009144*%
%ADD288R,1.380744X0.009144*%
%ADD289R,1.389888X0.009144*%
%ADD290R,0.667513X0.009144*%
%ADD291R,1.408175X0.009144*%
%ADD292R,0.658369X0.009144*%
%ADD293R,1.307591X0.009144*%
%ADD294R,1.417319X0.009144*%
%ADD295R,0.649225X0.009144*%
%ADD296R,1.426462X0.009144*%
%ADD297R,0.640081X0.009144*%
%ADD298R,1.325878X0.009144*%
%ADD299R,1.444750X0.009144*%
%ADD300R,0.630938X0.009144*%
%ADD301R,1.335022X0.009144*%
%ADD302R,1.463037X0.009144*%
%ADD303R,1.088134X0.009147*%
%ADD304R,0.630938X0.009147*%
%ADD305R,1.344166X0.009147*%
%ADD306R,1.472181X0.009147*%
%ADD307R,0.621794X0.009144*%
%ADD308R,1.353309X0.009144*%
%ADD309R,0.621791X0.009144*%
%ADD310R,1.481328X0.009144*%
%ADD311R,0.612650X0.009144*%
%ADD312R,1.362456X0.009144*%
%ADD313R,0.612647X0.009144*%
%ADD314R,1.490472X0.009144*%
%ADD315R,1.508759X0.009144*%
%ADD316R,1.517903X0.009144*%
%ADD317R,0.585216X0.009144*%
%ADD318R,1.399031X0.009144*%
%ADD319R,1.527047X0.009144*%
%ADD320R,1.536191X0.009144*%
%ADD321R,1.554481X0.009144*%
%ADD322R,1.106422X0.009144*%
%ADD323R,0.557784X0.009144*%
%ADD324R,1.563625X0.009144*%
%ADD325R,1.435606X0.009144*%
%ADD326R,1.572769X0.009144*%
%ADD327R,0.539497X0.009144*%
%ADD328R,1.581913X0.009144*%
%ADD329R,1.453894X0.009144*%
%ADD330R,1.600200X0.009144*%
%ADD331R,1.115569X0.009147*%
%ADD332R,0.521209X0.009147*%
%ADD333R,1.463037X0.009147*%
%ADD334R,0.530353X0.009147*%
%ADD335R,1.618491X0.009147*%
%ADD336R,0.512066X0.009144*%
%ADD337R,1.472181X0.009144*%
%ADD338R,0.521209X0.009144*%
%ADD339R,1.627634X0.009144*%
%ADD340R,0.502922X0.009144*%
%ADD341R,1.636778X0.009144*%
%ADD342R,0.493775X0.009144*%
%ADD343R,0.502919X0.009144*%
%ADD344R,1.645922X0.009144*%
%ADD345R,1.499616X0.009144*%
%ADD346R,1.664209X0.009144*%
%ADD347R,0.484631X0.009144*%
%ADD348R,1.673353X0.009144*%
%ADD349R,0.475488X0.009144*%
%ADD350R,1.682497X0.009144*%
%ADD351R,0.466344X0.009144*%
%ADD352R,1.691641X0.009144*%
%ADD353R,0.457200X0.009144*%
%ADD354R,1.545334X0.009144*%
%ADD355R,1.700784X0.009144*%
%ADD356R,0.448056X0.009144*%
%ADD357R,1.554478X0.009144*%
%ADD358R,1.709928X0.009144*%
%ADD359R,0.438913X0.009144*%
%ADD360R,1.563622X0.009144*%
%ADD361R,1.728216X0.009144*%
%ADD362R,0.429769X0.009144*%
%ADD363R,1.737359X0.009144*%
%ADD364R,1.133856X0.009147*%
%ADD365R,1.143000X0.009147*%
%ADD366R,1.316738X0.009147*%
%ADD367R,1.115566X0.009144*%
%ADD368R,0.685800X0.009147*%
%ADD369R,0.896109X0.009144*%
%ADD370R,0.896109X0.009147*%
%ADD371R,0.877822X0.009147*%
%ADD372R,1.078991X0.009147*%
%ADD373R,2.825497X0.009144*%
%ADD374R,1.216153X0.009147*%
%ADD375R,0.868678X0.009147*%
%ADD376R,2.825497X0.009147*%
%ADD377R,1.225297X0.009147*%
%ADD378R,1.234441X0.009144*%
%ADD379R,1.234441X0.009147*%
%ADD380R,0.886966X0.009147*%
%ADD381R,0.932688X0.009147*%
%ADD382R,0.987553X0.009147*%
%ADD383R,1.106425X0.009147*%
%ADD384R,1.042416X0.009147*%
%ADD385R,1.472184X0.009144*%
%ADD386R,1.591056X0.009147*%
%ADD387R,1.325878X0.009147*%
%ADD388R,1.426462X0.009147*%
%ADD389R,10.643616X0.009144*%
%ADD390R,10.643616X0.009147*%
%ADD391R,10.625328X0.009144*%
%ADD392R,1.033272X0.009147*%
%ADD393R,0.073153X0.009144*%
%ADD394R,0.109728X0.009144*%
%ADD395R,0.128016X0.009144*%
%ADD396R,0.146303X0.009144*%
%ADD397R,0.173738X0.009144*%
%ADD398R,0.164591X0.009144*%
%ADD399R,0.192025X0.009144*%
%ADD400R,0.182878X0.009144*%
%ADD401R,0.201169X0.009144*%
%ADD402R,0.201166X0.009144*%
%ADD403R,0.219456X0.009144*%
%ADD404R,0.237744X0.009147*%
%ADD405R,0.228600X0.009147*%
%ADD406R,0.246888X0.009144*%
%ADD407R,0.256034X0.009144*%
%ADD408R,0.256031X0.009144*%
%ADD409R,0.265178X0.009144*%
%ADD410R,0.265175X0.009144*%
%ADD411R,0.274322X0.009144*%
%ADD412R,0.274319X0.009144*%
%ADD413R,0.283466X0.009144*%
%ADD414R,0.283463X0.009144*%
%ADD415R,0.292609X0.009144*%
%ADD416R,0.292606X0.009144*%
%ADD417R,0.301753X0.009144*%
%ADD418R,0.228600X0.009144*%
%ADD419R,0.310897X0.009144*%
%ADD420R,0.320041X0.009144*%
%ADD421R,0.347472X0.009144*%
%ADD422R,0.384047X0.009144*%
%ADD423R,0.329184X0.009144*%
%ADD424R,0.320038X0.009144*%
%ADD425R,0.420622X0.009144*%
%ADD426R,0.329181X0.009144*%
%ADD427R,0.493778X0.009144*%
%ADD428R,0.329184X0.009147*%
%ADD429R,0.640078X0.009144*%
%ADD430R,0.749809X0.009147*%
%ADD431R,0.310894X0.009144*%
%ADD432R,0.301750X0.009144*%
%ADD433R,0.237744X0.009144*%
%ADD434R,0.219456X0.009147*%
%ADD435R,0.210313X0.009147*%
%ADD436R,2.596894X0.009144*%
%ADD437R,0.173734X0.009144*%
%ADD438R,0.182881X0.009144*%
%ADD439R,0.155447X0.009144*%
%ADD440R,0.164594X0.009144*%
%ADD441R,0.137159X0.009144*%
%ADD442R,0.146306X0.009144*%
%ADD443R,0.118872X0.009144*%
%ADD444R,0.128019X0.009144*%
%ADD445R,0.100584X0.009144*%
%ADD446R,0.064009X0.009144*%
%ADD447R,0.064006X0.009144*%
%ADD448R,2.596894X0.009147*%
%ADD449R,0.731522X0.009147*%
%ADD450R,0.475488X0.009147*%
%ADD451R,0.365759X0.009147*%
%ADD452R,0.402334X0.009144*%
%ADD453R,0.411478X0.009144*%
%ADD454R,0.438909X0.009144*%
%ADD455R,0.365759X0.009144*%
%ADD456R,0.475491X0.009144*%
%ADD457R,0.667509X0.009144*%
%ADD458R,0.694944X0.009147*%
%ADD459R,0.905253X0.009144*%
%ADD460R,0.923547X0.009144*%
%ADD461R,0.923547X0.009147*%
%ADD462R,0.932691X0.009144*%
%ADD463R,0.932691X0.009147*%
%ADD464R,1.069850X0.009147*%
%ADD465R,0.786384X0.009147*%
%ADD466R,1.069847X0.009147*%
%ADD467R,0.722378X0.009144*%
%ADD468R,1.078994X0.009147*%
%ADD469R,0.566928X0.009147*%
%ADD470R,0.429766X0.009144*%
%ADD471R,1.124709X0.009147*%
%ADD472R,1.179578X0.009144*%
%ADD473R,1.188722X0.009147*%
%ADD474R,1.197866X0.009147*%
%ADD475R,1.216150X0.009144*%
%ADD476R,1.234438X0.009147*%
%ADD477R,1.243581X0.009144*%
%ADD478R,1.289303X0.009147*%
%ADD479R,1.298450X0.009144*%
%ADD480R,1.307594X0.009144*%
%ADD481R,1.316738X0.009144*%
%ADD482R,1.325881X0.009144*%
%ADD483R,1.344166X0.009144*%
%ADD484R,1.353309X0.009147*%
%ADD485R,1.362453X0.009144*%
%ADD486R,1.435609X0.009144*%
%ADD487R,1.444753X0.009144*%
%ADD488R,1.453897X0.009147*%
%ADD489R,1.463041X0.009144*%
%ADD490R,1.453897X0.009144*%
%ADD491R,1.499619X0.009144*%
%ADD492R,1.508763X0.009144*%
%ADD493R,1.517906X0.009144*%
%ADD494R,1.527050X0.009144*%
%ADD495R,1.581913X0.009147*%
%ADD496R,1.572766X0.009147*%
%ADD497R,1.591056X0.009144*%
%ADD498R,1.609344X0.009144*%
%ADD499R,1.618488X0.009144*%
%ADD500R,1.636775X0.009144*%
%ADD501R,1.655063X0.009144*%
%ADD502R,1.728219X0.009144*%
%ADD503R,1.755650X0.009144*%
%ADD504R,1.773938X0.009144*%
%ADD505R,1.801366X0.009144*%
%ADD506R,1.801369X0.009144*%
%ADD507R,1.828800X0.009147*%
%ADD508R,1.837947X0.009147*%
%ADD509R,1.865375X0.009144*%
%ADD510R,1.911094X0.009144*%
%ADD511R,1.901950X0.009144*%
%ADD512R,1.956816X0.009144*%
%ADD513R,1.947672X0.009144*%
%ADD514R,2.020825X0.009144*%
%ADD515R,2.011678X0.009144*%
%ADD516R,9.518903X0.009144*%
%ADD517R,9.427466X0.009144*%
%ADD518R,9.418322X0.009147*%
%ADD519R,9.363456X0.009144*%
%ADD520R,9.345166X0.009144*%
%ADD521R,9.281159X0.009144*%
%ADD522R,9.262872X0.009144*%
%ADD523R,9.244584X0.009144*%
%ADD524R,9.226297X0.009144*%
%ADD525R,9.208009X0.009144*%
%ADD526R,9.198866X0.009147*%
%ADD527R,9.162291X0.009144*%
%ADD528R,9.116566X0.009144*%
%ADD529R,9.098278X0.009144*%
%ADD530R,9.079991X0.009144*%
%ADD531R,9.061703X0.009144*%
%ADD532R,8.997697X0.009144*%
%ADD533R,8.979409X0.009144*%
%ADD534R,8.961122X0.009147*%
%ADD535R,8.897113X0.009144*%
%ADD536R,8.878822X0.009144*%
%ADD537R,8.851391X0.009144*%
%ADD538R,8.833103X0.009144*%
%ADD539R,8.769097X0.009144*%
%ADD540R,8.741666X0.009144*%
%ADD541R,8.668509X0.009147*%
%ADD542R,8.650222X0.009144*%
%ADD543R,8.631934X0.009144*%
%ADD544R,8.595359X0.009144*%
%ADD545R,8.577072X0.009144*%
%ADD546R,8.522209X0.009144*%
%ADD547R,8.467344X0.009144*%
%ADD548R,8.449056X0.009144*%
%ADD549R,8.421622X0.009144*%
%ADD550R,8.394191X0.009144*%
%ADD551R,8.366759X0.009147*%
%ADD552R,8.339328X0.009144*%
%ADD553R,8.302753X0.009144*%
%ADD554R,8.284466X0.009144*%
%ADD555R,8.247891X0.009144*%
%ADD556R,8.220456X0.009144*%
%ADD557R,8.193022X0.009144*%
%ADD558R,8.156447X0.009144*%
%ADD559R,8.129016X0.009144*%
%ADD560R,8.065009X0.009144*%
%ADD561R,8.028434X0.009144*%
%ADD562R,7.991856X0.009144*%
%ADD563R,7.955278X0.009147*%
%ADD564R,7.927847X0.009144*%
%ADD565R,7.891272X0.009144*%
%ADD566R,7.854697X0.009144*%
%ADD567R,7.818122X0.009144*%
%ADD568R,7.772400X0.009144*%
%ADD569R,7.735822X0.009144*%
%ADD570R,7.699247X0.009144*%
%ADD571R,7.662672X0.009144*%
%ADD572R,7.616953X0.009144*%
%ADD573R,7.571234X0.009144*%
%ADD574R,7.534656X0.009144*%
%ADD575R,7.479791X0.009147*%
%ADD576R,7.443216X0.009144*%
%ADD577R,7.388353X0.009144*%
%ADD578R,7.342634X0.009144*%
%ADD579R,7.296909X0.009144*%
%ADD580R,7.242047X0.009144*%
%ADD581R,7.187184X0.009144*%
%ADD582R,7.123178X0.009144*%
%ADD583R,7.059166X0.009144*%
%ADD584R,7.004303X0.009144*%
%ADD585R,6.931153X0.009144*%
%ADD586R,6.867144X0.009144*%
%ADD587R,6.793991X0.009144*%
%ADD588R,6.711697X0.009147*%
%ADD589R,6.629400X0.009144*%
%ADD590R,6.528816X0.009144*%
%ADD591R,6.428234X0.009144*%
%ADD592R,6.309359X0.009144*%
%ADD593R,6.153913X0.009144*%
%ADD594R,5.925309X0.009144*%
%ADD595C,0.200000*%
%ADD596C,0.100000*%
%ADD597C,0.200000*%
%ADD598C,0.101600*%


D10*
X824754Y637755D02*
X816312Y646196D01*
X818657Y648541D01*
X818740Y648620D01*
X818825Y648697D01*
X818912Y648771D01*
X819002Y648841D01*
X819095Y648909D01*
X819190Y648973D01*
X819287Y649034D01*
X819386Y649091D01*
X819486Y649145D01*
X819589Y649196D01*
X819693Y649243D01*
X819799Y649286D01*
X819907Y649326D01*
X820016Y649362D01*
X820125Y649394D01*
X820236Y649422D01*
X820348Y649447D01*
X820461Y649468D01*
X820574Y649484D01*
X820688Y649497D01*
X820802Y649506D01*
X820916Y649511D01*
X821031Y649512D01*
X821145Y649509D01*
X821259Y649502D01*
X821373Y649491D01*
X821487Y649476D01*
X821600Y649458D01*
X821712Y649435D01*
X821823Y649409D01*
X821934Y649378D01*
X822043Y649344D01*
X822151Y649307D01*
X822258Y649265D01*
X822363Y649220D01*
X822466Y649171D01*
X822568Y649119D01*
X822668Y649063D01*
X822766Y649004D01*
X822862Y648941D01*
X822956Y648875D01*
X823047Y648806D01*
X823136Y648734D01*
X823222Y648659D01*
X823306Y648581D01*
X823387Y648500D01*
X823465Y648416D01*
X823540Y648330D01*
X823612Y648241D01*
X823681Y648150D01*
X823747Y648056D01*
X823810Y647960D01*
X823869Y647862D01*
X823925Y647762D01*
X823977Y647661D01*
X824026Y647557D01*
X824071Y647452D01*
X824113Y647345D01*
X824150Y647237D01*
X824184Y647128D01*
X824215Y647017D01*
X824241Y646906D01*
X824264Y646794D01*
X824282Y646681D01*
X824297Y646567D01*
X824308Y646453D01*
X824315Y646339D01*
X824318Y646225D01*
X824317Y646110D01*
X824312Y645996D01*
X824303Y645882D01*
X824290Y645768D01*
X824274Y645655D01*
X824253Y645542D01*
X824228Y645430D01*
X824200Y645319D01*
X824168Y645210D01*
X824132Y645101D01*
X824092Y644993D01*
X824049Y644888D01*
X824002Y644783D01*
X823951Y644680D01*
X823897Y644580D01*
X823840Y644481D01*
X823779Y644384D01*
X823715Y644289D01*
X823647Y644196D01*
X823577Y644106D01*
X823503Y644019D01*
X823426Y643934D01*
X823347Y643851D01*
X821002Y641506D01*
X823816Y644320D02*
X829443Y642444D01*
X834920Y647921D02*
X837265Y650266D01*
X834920Y647921D02*
X834857Y647861D01*
X834792Y647804D01*
X834724Y647749D01*
X834654Y647698D01*
X834582Y647650D01*
X834508Y647605D01*
X834432Y647563D01*
X834354Y647524D01*
X834275Y647489D01*
X834194Y647458D01*
X834111Y647430D01*
X834028Y647406D01*
X833944Y647385D01*
X833859Y647368D01*
X833773Y647355D01*
X833686Y647346D01*
X833600Y647340D01*
X833513Y647338D01*
X833426Y647340D01*
X833340Y647346D01*
X833253Y647355D01*
X833167Y647368D01*
X833082Y647385D01*
X832998Y647406D01*
X832915Y647430D01*
X832832Y647458D01*
X832751Y647489D01*
X832672Y647524D01*
X832594Y647563D01*
X832518Y647605D01*
X832444Y647650D01*
X832372Y647698D01*
X832302Y647749D01*
X832234Y647804D01*
X832169Y647861D01*
X832106Y647921D01*
X832107Y647921D02*
X829293Y650735D01*
X829233Y650798D01*
X829176Y650863D01*
X829121Y650931D01*
X829070Y651001D01*
X829022Y651073D01*
X828977Y651147D01*
X828935Y651223D01*
X828896Y651301D01*
X828861Y651380D01*
X828830Y651461D01*
X828802Y651544D01*
X828778Y651627D01*
X828757Y651711D01*
X828740Y651796D01*
X828727Y651882D01*
X828718Y651969D01*
X828712Y652055D01*
X828710Y652142D01*
X828712Y652229D01*
X828718Y652315D01*
X828727Y652402D01*
X828740Y652488D01*
X828757Y652573D01*
X828778Y652657D01*
X828802Y652740D01*
X828830Y652823D01*
X828861Y652904D01*
X828896Y652983D01*
X828935Y653061D01*
X828977Y653137D01*
X829022Y653211D01*
X829070Y653283D01*
X829121Y653353D01*
X829176Y653421D01*
X829233Y653486D01*
X829293Y653549D01*
X831638Y655894D01*
X838672Y648859D01*
X838732Y648796D01*
X838789Y648731D01*
X838844Y648663D01*
X838895Y648593D01*
X838943Y648521D01*
X838988Y648447D01*
X839030Y648371D01*
X839069Y648293D01*
X839104Y648214D01*
X839135Y648133D01*
X839163Y648050D01*
X839187Y647967D01*
X839208Y647883D01*
X839225Y647798D01*
X839238Y647712D01*
X839247Y647625D01*
X839253Y647539D01*
X839255Y647452D01*
X839253Y647365D01*
X839247Y647279D01*
X839238Y647192D01*
X839225Y647106D01*
X839208Y647021D01*
X839187Y646937D01*
X839163Y646854D01*
X839135Y646771D01*
X839104Y646690D01*
X839069Y646611D01*
X839030Y646533D01*
X838988Y646457D01*
X838943Y646383D01*
X838895Y646311D01*
X838844Y646241D01*
X838789Y646173D01*
X838732Y646108D01*
X838672Y646045D01*
X836796Y644169D01*
X842254Y655255D02*
X833813Y663697D01*
X836158Y666041D01*
X836158Y666042D02*
X836241Y666121D01*
X836326Y666198D01*
X836413Y666272D01*
X836503Y666342D01*
X836596Y666410D01*
X836691Y666474D01*
X836788Y666535D01*
X836887Y666592D01*
X836987Y666646D01*
X837090Y666697D01*
X837194Y666744D01*
X837300Y666787D01*
X837408Y666827D01*
X837517Y666863D01*
X837626Y666895D01*
X837737Y666923D01*
X837849Y666948D01*
X837962Y666969D01*
X838075Y666985D01*
X838189Y666998D01*
X838303Y667007D01*
X838417Y667012D01*
X838532Y667013D01*
X838646Y667010D01*
X838760Y667003D01*
X838874Y666992D01*
X838988Y666977D01*
X839101Y666959D01*
X839213Y666936D01*
X839324Y666910D01*
X839435Y666879D01*
X839544Y666845D01*
X839652Y666808D01*
X839759Y666766D01*
X839864Y666721D01*
X839967Y666672D01*
X840069Y666620D01*
X840169Y666564D01*
X840267Y666505D01*
X840363Y666442D01*
X840457Y666376D01*
X840548Y666307D01*
X840637Y666235D01*
X840723Y666160D01*
X840807Y666082D01*
X840888Y666001D01*
X840966Y665917D01*
X841041Y665831D01*
X841113Y665742D01*
X841182Y665651D01*
X841248Y665557D01*
X841311Y665461D01*
X841370Y665363D01*
X841426Y665263D01*
X841478Y665162D01*
X841527Y665058D01*
X841572Y664953D01*
X841614Y664846D01*
X841651Y664738D01*
X841685Y664629D01*
X841716Y664518D01*
X841742Y664407D01*
X841765Y664295D01*
X841783Y664182D01*
X841798Y664068D01*
X841809Y663954D01*
X841816Y663840D01*
X841819Y663726D01*
X841818Y663611D01*
X841813Y663497D01*
X841804Y663383D01*
X841791Y663269D01*
X841775Y663156D01*
X841754Y663043D01*
X841729Y662931D01*
X841701Y662820D01*
X841669Y662711D01*
X841633Y662602D01*
X841593Y662494D01*
X841550Y662389D01*
X841503Y662284D01*
X841452Y662181D01*
X841398Y662081D01*
X841341Y661982D01*
X841280Y661885D01*
X841216Y661790D01*
X841148Y661697D01*
X841078Y661607D01*
X841004Y661520D01*
X840927Y661435D01*
X840848Y661352D01*
X838503Y659007D01*
X841317Y661821D02*
X846944Y659945D01*
X856348Y669349D02*
X847907Y677790D01*
X850252Y680135D01*
X850334Y680213D01*
X850418Y680289D01*
X850504Y680362D01*
X850593Y680432D01*
X850685Y680499D01*
X850778Y680563D01*
X850874Y680623D01*
X850972Y680680D01*
X851071Y680734D01*
X851173Y680785D01*
X851276Y680831D01*
X851381Y680875D01*
X851487Y680915D01*
X851594Y680951D01*
X851702Y680983D01*
X851812Y681012D01*
X851922Y681037D01*
X852034Y681058D01*
X852145Y681075D01*
X852258Y681089D01*
X852371Y681098D01*
X852484Y681104D01*
X852597Y681106D01*
X852710Y681104D01*
X852823Y681098D01*
X852936Y681089D01*
X853049Y681075D01*
X853160Y681058D01*
X853272Y681037D01*
X853382Y681012D01*
X853492Y680983D01*
X853600Y680951D01*
X853707Y680915D01*
X853813Y680875D01*
X853918Y680831D01*
X854021Y680785D01*
X854123Y680734D01*
X854222Y680680D01*
X854320Y680623D01*
X854416Y680563D01*
X854509Y680499D01*
X854601Y680432D01*
X854690Y680362D01*
X854776Y680289D01*
X854860Y680213D01*
X854942Y680135D01*
X854941Y680135D02*
X858693Y676384D01*
X858771Y676302D01*
X858847Y676218D01*
X858920Y676132D01*
X858990Y676043D01*
X859057Y675951D01*
X859121Y675858D01*
X859181Y675762D01*
X859238Y675664D01*
X859292Y675565D01*
X859343Y675463D01*
X859389Y675360D01*
X859433Y675255D01*
X859473Y675149D01*
X859509Y675042D01*
X859541Y674934D01*
X859570Y674824D01*
X859595Y674714D01*
X859616Y674602D01*
X859633Y674491D01*
X859647Y674378D01*
X859656Y674265D01*
X859662Y674152D01*
X859664Y674039D01*
X859662Y673926D01*
X859656Y673813D01*
X859647Y673700D01*
X859633Y673587D01*
X859616Y673476D01*
X859595Y673364D01*
X859570Y673254D01*
X859541Y673144D01*
X859509Y673036D01*
X859473Y672929D01*
X859433Y672822D01*
X859389Y672718D01*
X859343Y672615D01*
X859292Y672513D01*
X859238Y672414D01*
X859181Y672316D01*
X859121Y672220D01*
X859057Y672127D01*
X858990Y672035D01*
X858920Y671946D01*
X858847Y671860D01*
X858771Y671776D01*
X858693Y671694D01*
X856348Y669349D01*
X866975Y679975D02*
X869319Y682320D01*
X866975Y679975D02*
X866912Y679915D01*
X866847Y679858D01*
X866779Y679803D01*
X866709Y679752D01*
X866637Y679704D01*
X866563Y679659D01*
X866487Y679617D01*
X866409Y679578D01*
X866330Y679543D01*
X866249Y679512D01*
X866166Y679484D01*
X866083Y679460D01*
X865999Y679439D01*
X865914Y679422D01*
X865828Y679409D01*
X865741Y679400D01*
X865655Y679394D01*
X865568Y679392D01*
X865481Y679394D01*
X865395Y679400D01*
X865308Y679409D01*
X865222Y679422D01*
X865137Y679439D01*
X865053Y679460D01*
X864970Y679484D01*
X864887Y679512D01*
X864806Y679543D01*
X864727Y679578D01*
X864649Y679617D01*
X864573Y679659D01*
X864499Y679704D01*
X864427Y679752D01*
X864357Y679803D01*
X864289Y679858D01*
X864224Y679915D01*
X864161Y679975D01*
X861816Y682320D01*
X861746Y682393D01*
X861678Y682469D01*
X861613Y682548D01*
X861552Y682628D01*
X861493Y682712D01*
X861438Y682797D01*
X861386Y682884D01*
X861337Y682973D01*
X861292Y683065D01*
X861251Y683157D01*
X861213Y683252D01*
X861178Y683347D01*
X861148Y683444D01*
X861121Y683542D01*
X861098Y683641D01*
X861078Y683741D01*
X861063Y683841D01*
X861051Y683942D01*
X861043Y684044D01*
X861039Y684145D01*
X861039Y684247D01*
X861043Y684348D01*
X861051Y684450D01*
X861063Y684551D01*
X861078Y684651D01*
X861098Y684751D01*
X861121Y684850D01*
X861148Y684948D01*
X861178Y685045D01*
X861213Y685140D01*
X861251Y685235D01*
X861292Y685327D01*
X861337Y685419D01*
X861386Y685508D01*
X861438Y685595D01*
X861493Y685680D01*
X861552Y685764D01*
X861613Y685844D01*
X861678Y685923D01*
X861746Y685999D01*
X861816Y686072D01*
X861889Y686142D01*
X861965Y686210D01*
X862044Y686275D01*
X862124Y686336D01*
X862208Y686395D01*
X862293Y686450D01*
X862380Y686502D01*
X862469Y686551D01*
X862561Y686596D01*
X862653Y686637D01*
X862748Y686675D01*
X862843Y686710D01*
X862940Y686740D01*
X863038Y686767D01*
X863137Y686790D01*
X863237Y686810D01*
X863337Y686825D01*
X863438Y686837D01*
X863540Y686845D01*
X863641Y686849D01*
X863743Y686849D01*
X863844Y686845D01*
X863946Y686837D01*
X864047Y686825D01*
X864147Y686810D01*
X864247Y686790D01*
X864346Y686767D01*
X864444Y686740D01*
X864541Y686710D01*
X864636Y686675D01*
X864731Y686637D01*
X864823Y686596D01*
X864915Y686551D01*
X865004Y686502D01*
X865091Y686450D01*
X865176Y686395D01*
X865260Y686336D01*
X865340Y686275D01*
X865419Y686210D01*
X865495Y686142D01*
X865568Y686072D01*
X866506Y685134D01*
X862754Y681382D01*
X867483Y691739D02*
X874987Y687988D01*
X871235Y695491D01*
X882061Y695062D02*
X884406Y697407D01*
X882061Y695062D02*
X881998Y695002D01*
X881933Y694945D01*
X881865Y694890D01*
X881795Y694839D01*
X881723Y694791D01*
X881649Y694746D01*
X881573Y694704D01*
X881495Y694665D01*
X881416Y694630D01*
X881335Y694599D01*
X881252Y694571D01*
X881169Y694547D01*
X881085Y694526D01*
X881000Y694509D01*
X880914Y694496D01*
X880827Y694487D01*
X880741Y694481D01*
X880654Y694479D01*
X880567Y694481D01*
X880481Y694487D01*
X880394Y694496D01*
X880308Y694509D01*
X880223Y694526D01*
X880139Y694547D01*
X880056Y694571D01*
X879973Y694599D01*
X879892Y694630D01*
X879813Y694665D01*
X879735Y694704D01*
X879659Y694746D01*
X879585Y694791D01*
X879513Y694839D01*
X879443Y694890D01*
X879375Y694945D01*
X879310Y695002D01*
X879247Y695062D01*
X876903Y697407D01*
X876902Y697407D02*
X876832Y697480D01*
X876764Y697556D01*
X876699Y697635D01*
X876638Y697715D01*
X876579Y697799D01*
X876524Y697884D01*
X876472Y697971D01*
X876423Y698060D01*
X876378Y698152D01*
X876337Y698244D01*
X876299Y698339D01*
X876264Y698434D01*
X876234Y698531D01*
X876207Y698629D01*
X876184Y698728D01*
X876164Y698828D01*
X876149Y698928D01*
X876137Y699029D01*
X876129Y699131D01*
X876125Y699232D01*
X876125Y699334D01*
X876129Y699435D01*
X876137Y699537D01*
X876149Y699638D01*
X876164Y699738D01*
X876184Y699838D01*
X876207Y699937D01*
X876234Y700035D01*
X876264Y700132D01*
X876299Y700227D01*
X876337Y700322D01*
X876378Y700414D01*
X876423Y700506D01*
X876472Y700595D01*
X876524Y700682D01*
X876579Y700767D01*
X876638Y700851D01*
X876699Y700931D01*
X876764Y701010D01*
X876832Y701086D01*
X876902Y701159D01*
X876975Y701229D01*
X877051Y701297D01*
X877130Y701362D01*
X877210Y701423D01*
X877294Y701482D01*
X877379Y701537D01*
X877466Y701589D01*
X877555Y701638D01*
X877647Y701683D01*
X877739Y701724D01*
X877834Y701762D01*
X877929Y701797D01*
X878026Y701827D01*
X878124Y701854D01*
X878223Y701877D01*
X878323Y701897D01*
X878423Y701912D01*
X878524Y701924D01*
X878626Y701932D01*
X878727Y701936D01*
X878829Y701936D01*
X878930Y701932D01*
X879032Y701924D01*
X879133Y701912D01*
X879233Y701897D01*
X879333Y701877D01*
X879432Y701854D01*
X879530Y701827D01*
X879627Y701797D01*
X879722Y701762D01*
X879817Y701724D01*
X879909Y701683D01*
X880001Y701638D01*
X880090Y701589D01*
X880177Y701537D01*
X880262Y701482D01*
X880346Y701423D01*
X880426Y701362D01*
X880505Y701297D01*
X880581Y701229D01*
X880654Y701159D01*
X880654Y701158D02*
X881592Y700221D01*
X877841Y696469D01*
X887119Y702933D02*
X880084Y709968D01*
X887118Y702933D02*
X887181Y702873D01*
X887246Y702816D01*
X887314Y702761D01*
X887384Y702710D01*
X887456Y702662D01*
X887530Y702617D01*
X887606Y702575D01*
X887684Y702536D01*
X887763Y702501D01*
X887844Y702470D01*
X887927Y702442D01*
X888010Y702418D01*
X888094Y702397D01*
X888179Y702380D01*
X888265Y702367D01*
X888352Y702358D01*
X888438Y702352D01*
X888525Y702350D01*
X888612Y702352D01*
X888698Y702358D01*
X888785Y702367D01*
X888871Y702380D01*
X888956Y702397D01*
X889040Y702418D01*
X889123Y702442D01*
X889206Y702470D01*
X889287Y702501D01*
X889366Y702536D01*
X889444Y702575D01*
X889520Y702617D01*
X889594Y702662D01*
X889666Y702710D01*
X889736Y702761D01*
X889804Y702816D01*
X889869Y702873D01*
X889932Y702933D01*
X891451Y708204D02*
X889575Y710080D01*
X889575Y710079D02*
X889505Y710152D01*
X889437Y710228D01*
X889372Y710307D01*
X889311Y710387D01*
X889252Y710471D01*
X889197Y710556D01*
X889145Y710643D01*
X889096Y710732D01*
X889051Y710824D01*
X889010Y710916D01*
X888972Y711011D01*
X888937Y711106D01*
X888907Y711203D01*
X888880Y711301D01*
X888857Y711400D01*
X888837Y711500D01*
X888822Y711600D01*
X888810Y711701D01*
X888802Y711803D01*
X888798Y711904D01*
X888798Y712006D01*
X888802Y712107D01*
X888810Y712209D01*
X888822Y712310D01*
X888837Y712410D01*
X888857Y712510D01*
X888880Y712609D01*
X888907Y712707D01*
X888937Y712804D01*
X888972Y712899D01*
X889010Y712994D01*
X889051Y713086D01*
X889096Y713178D01*
X889145Y713267D01*
X889197Y713354D01*
X889252Y713439D01*
X889311Y713523D01*
X889372Y713603D01*
X889437Y713682D01*
X889505Y713758D01*
X889575Y713831D01*
X889648Y713901D01*
X889724Y713969D01*
X889803Y714034D01*
X889883Y714095D01*
X889967Y714154D01*
X890052Y714209D01*
X890139Y714261D01*
X890228Y714310D01*
X890320Y714355D01*
X890412Y714396D01*
X890507Y714434D01*
X890602Y714469D01*
X890699Y714499D01*
X890797Y714526D01*
X890896Y714549D01*
X890996Y714569D01*
X891096Y714584D01*
X891197Y714596D01*
X891299Y714604D01*
X891400Y714608D01*
X891502Y714608D01*
X891603Y714604D01*
X891705Y714596D01*
X891806Y714584D01*
X891906Y714569D01*
X892006Y714549D01*
X892105Y714526D01*
X892203Y714499D01*
X892300Y714469D01*
X892395Y714434D01*
X892490Y714396D01*
X892582Y714355D01*
X892674Y714310D01*
X892763Y714261D01*
X892850Y714209D01*
X892935Y714154D01*
X893019Y714095D01*
X893099Y714034D01*
X893178Y713969D01*
X893254Y713901D01*
X893327Y713831D01*
X895203Y711955D01*
X895203Y711956D02*
X895274Y711882D01*
X895343Y711805D01*
X895408Y711725D01*
X895470Y711644D01*
X895529Y711559D01*
X895585Y711473D01*
X895637Y711384D01*
X895686Y711294D01*
X895731Y711201D01*
X895773Y711107D01*
X895811Y711012D01*
X895845Y710914D01*
X895876Y710816D01*
X895902Y710717D01*
X895925Y710616D01*
X895944Y710515D01*
X895959Y710414D01*
X895970Y710311D01*
X895977Y710209D01*
X895980Y710106D01*
X895979Y710003D01*
X895974Y709900D01*
X895965Y709798D01*
X895952Y709696D01*
X895935Y709594D01*
X895914Y709493D01*
X895890Y709393D01*
X895861Y709295D01*
X895829Y709197D01*
X895793Y709101D01*
X895753Y709006D01*
X895709Y708912D01*
X895662Y708821D01*
X895612Y708731D01*
X895558Y708644D01*
X895500Y708558D01*
X895440Y708475D01*
X895376Y708394D01*
X895309Y708316D01*
X895239Y708241D01*
X895166Y708168D01*
X895091Y708098D01*
X895013Y708031D01*
X894932Y707967D01*
X894849Y707907D01*
X894763Y707849D01*
X894676Y707795D01*
X894586Y707745D01*
X894495Y707698D01*
X894401Y707654D01*
X894307Y707614D01*
X894210Y707578D01*
X894113Y707546D01*
X894014Y707517D01*
X893914Y707493D01*
X893813Y707472D01*
X893712Y707455D01*
X893609Y707442D01*
X893507Y707433D01*
X893404Y707428D01*
X893301Y707427D01*
X893198Y707430D01*
X893096Y707437D01*
X892993Y707448D01*
X892892Y707463D01*
X892791Y707482D01*
X892690Y707505D01*
X892591Y707531D01*
X892493Y707562D01*
X892396Y707596D01*
X892300Y707634D01*
X892206Y707676D01*
X892113Y707721D01*
X892023Y707770D01*
X891934Y707822D01*
X891848Y707878D01*
X891763Y707937D01*
X891682Y707999D01*
X891602Y708064D01*
X891525Y708133D01*
X891451Y708204D01*
X895917Y720172D02*
X904358Y711731D01*
X895917Y720172D02*
X898261Y722517D01*
X898324Y722577D01*
X898389Y722634D01*
X898457Y722689D01*
X898527Y722740D01*
X898599Y722788D01*
X898673Y722833D01*
X898749Y722875D01*
X898827Y722914D01*
X898906Y722949D01*
X898987Y722980D01*
X899070Y723008D01*
X899153Y723032D01*
X899237Y723053D01*
X899322Y723070D01*
X899408Y723083D01*
X899495Y723092D01*
X899581Y723098D01*
X899668Y723100D01*
X899755Y723098D01*
X899841Y723092D01*
X899928Y723083D01*
X900014Y723070D01*
X900099Y723053D01*
X900183Y723032D01*
X900266Y723008D01*
X900349Y722980D01*
X900430Y722949D01*
X900509Y722914D01*
X900587Y722875D01*
X900663Y722833D01*
X900737Y722788D01*
X900809Y722740D01*
X900879Y722689D01*
X900947Y722634D01*
X901012Y722577D01*
X901075Y722517D01*
X903889Y719704D01*
X903949Y719641D01*
X904006Y719576D01*
X904061Y719508D01*
X904112Y719438D01*
X904160Y719366D01*
X904205Y719292D01*
X904247Y719216D01*
X904286Y719138D01*
X904321Y719059D01*
X904352Y718978D01*
X904380Y718895D01*
X904404Y718812D01*
X904425Y718728D01*
X904442Y718643D01*
X904455Y718557D01*
X904464Y718470D01*
X904470Y718384D01*
X904472Y718297D01*
X904470Y718210D01*
X904464Y718124D01*
X904455Y718037D01*
X904442Y717951D01*
X904425Y717866D01*
X904404Y717782D01*
X904380Y717699D01*
X904352Y717616D01*
X904321Y717535D01*
X904286Y717456D01*
X904247Y717378D01*
X904205Y717302D01*
X904160Y717228D01*
X904112Y717156D01*
X904061Y717086D01*
X904006Y717018D01*
X903949Y716953D01*
X903889Y716890D01*
X901544Y714545D01*
X909890Y722891D02*
X904262Y728518D01*
X908483Y732739D01*
X908546Y732799D01*
X908611Y732856D01*
X908679Y732911D01*
X908749Y732962D01*
X908821Y733010D01*
X908895Y733055D01*
X908971Y733097D01*
X909049Y733136D01*
X909128Y733171D01*
X909209Y733202D01*
X909292Y733230D01*
X909375Y733254D01*
X909459Y733275D01*
X909544Y733292D01*
X909630Y733305D01*
X909717Y733314D01*
X909803Y733320D01*
X909890Y733322D01*
X909977Y733320D01*
X910063Y733314D01*
X910150Y733305D01*
X910236Y733292D01*
X910321Y733275D01*
X910405Y733254D01*
X910488Y733230D01*
X910571Y733202D01*
X910652Y733171D01*
X910731Y733136D01*
X910809Y733097D01*
X910885Y733055D01*
X910959Y733010D01*
X911031Y732962D01*
X911101Y732911D01*
X911169Y732856D01*
X911234Y732799D01*
X911297Y732739D01*
X915517Y728518D01*
X912704Y725704D02*
X907076Y731332D01*
X921588Y734589D02*
X923933Y736934D01*
X921589Y734589D02*
X921526Y734529D01*
X921461Y734472D01*
X921393Y734417D01*
X921323Y734366D01*
X921251Y734318D01*
X921177Y734273D01*
X921101Y734231D01*
X921023Y734192D01*
X920944Y734157D01*
X920863Y734126D01*
X920780Y734098D01*
X920697Y734074D01*
X920613Y734053D01*
X920528Y734036D01*
X920442Y734023D01*
X920355Y734014D01*
X920269Y734008D01*
X920182Y734006D01*
X920095Y734008D01*
X920009Y734014D01*
X919922Y734023D01*
X919836Y734036D01*
X919751Y734053D01*
X919667Y734074D01*
X919584Y734098D01*
X919501Y734126D01*
X919420Y734157D01*
X919341Y734192D01*
X919263Y734231D01*
X919187Y734273D01*
X919113Y734318D01*
X919041Y734366D01*
X918971Y734417D01*
X918903Y734472D01*
X918838Y734529D01*
X918775Y734589D01*
X916430Y736934D01*
X916360Y737007D01*
X916292Y737083D01*
X916227Y737162D01*
X916166Y737242D01*
X916107Y737326D01*
X916052Y737411D01*
X916000Y737498D01*
X915951Y737587D01*
X915906Y737679D01*
X915865Y737771D01*
X915827Y737866D01*
X915792Y737961D01*
X915762Y738058D01*
X915735Y738156D01*
X915712Y738255D01*
X915692Y738355D01*
X915677Y738455D01*
X915665Y738556D01*
X915657Y738658D01*
X915653Y738759D01*
X915653Y738861D01*
X915657Y738962D01*
X915665Y739064D01*
X915677Y739165D01*
X915692Y739265D01*
X915712Y739365D01*
X915735Y739464D01*
X915762Y739562D01*
X915792Y739659D01*
X915827Y739754D01*
X915865Y739849D01*
X915906Y739941D01*
X915951Y740033D01*
X916000Y740122D01*
X916052Y740209D01*
X916107Y740294D01*
X916166Y740378D01*
X916227Y740458D01*
X916292Y740537D01*
X916360Y740613D01*
X916430Y740686D01*
X916503Y740756D01*
X916579Y740824D01*
X916658Y740889D01*
X916738Y740950D01*
X916822Y741009D01*
X916907Y741064D01*
X916994Y741116D01*
X917083Y741165D01*
X917175Y741210D01*
X917267Y741251D01*
X917362Y741289D01*
X917457Y741324D01*
X917554Y741354D01*
X917652Y741381D01*
X917751Y741404D01*
X917851Y741424D01*
X917951Y741439D01*
X918052Y741451D01*
X918154Y741459D01*
X918255Y741463D01*
X918357Y741463D01*
X918458Y741459D01*
X918560Y741451D01*
X918661Y741439D01*
X918761Y741424D01*
X918861Y741404D01*
X918960Y741381D01*
X919058Y741354D01*
X919155Y741324D01*
X919250Y741289D01*
X919345Y741251D01*
X919437Y741210D01*
X919529Y741165D01*
X919618Y741116D01*
X919705Y741064D01*
X919790Y741009D01*
X919874Y740950D01*
X919954Y740889D01*
X920033Y740824D01*
X920109Y740756D01*
X920182Y740686D01*
X921120Y739748D01*
X917368Y735996D01*
X928328Y741329D02*
X922701Y746957D01*
X925046Y749302D01*
X925109Y749362D01*
X925174Y749419D01*
X925242Y749474D01*
X925312Y749525D01*
X925384Y749573D01*
X925458Y749618D01*
X925534Y749660D01*
X925612Y749699D01*
X925691Y749734D01*
X925772Y749765D01*
X925855Y749793D01*
X925938Y749817D01*
X926022Y749838D01*
X926107Y749855D01*
X926193Y749868D01*
X926280Y749877D01*
X926366Y749883D01*
X926453Y749885D01*
X926540Y749883D01*
X926626Y749877D01*
X926713Y749868D01*
X926799Y749855D01*
X926884Y749838D01*
X926968Y749817D01*
X927051Y749793D01*
X927134Y749765D01*
X927215Y749734D01*
X927294Y749699D01*
X927372Y749660D01*
X927448Y749618D01*
X927522Y749573D01*
X927594Y749525D01*
X927664Y749474D01*
X927732Y749419D01*
X927797Y749362D01*
X927860Y749302D01*
X927859Y749302D02*
X932080Y745081D01*
X930000Y754256D02*
X932813Y757069D01*
X928124Y758007D02*
X935158Y750973D01*
X935221Y750913D01*
X935286Y750856D01*
X935354Y750801D01*
X935424Y750750D01*
X935496Y750702D01*
X935570Y750657D01*
X935646Y750615D01*
X935724Y750576D01*
X935803Y750541D01*
X935884Y750510D01*
X935967Y750482D01*
X936050Y750458D01*
X936134Y750437D01*
X936219Y750420D01*
X936305Y750407D01*
X936392Y750398D01*
X936478Y750392D01*
X936565Y750390D01*
X936652Y750392D01*
X936738Y750398D01*
X936825Y750407D01*
X936911Y750420D01*
X936996Y750437D01*
X937080Y750458D01*
X937163Y750482D01*
X937246Y750510D01*
X937327Y750541D01*
X937406Y750576D01*
X937484Y750615D01*
X937560Y750657D01*
X937634Y750702D01*
X937706Y750750D01*
X937776Y750801D01*
X937844Y750856D01*
X937909Y750913D01*
X937972Y750973D01*
X938441Y751442D01*
X832337Y633923D02*
X832364Y633652D01*
X832398Y633380D01*
X832438Y633110D01*
X832485Y632841D01*
X832538Y632573D01*
X832598Y632307D01*
X832664Y632041D01*
X832736Y631778D01*
X832815Y631516D01*
X832900Y631257D01*
X832991Y630999D01*
X833089Y630744D01*
X833192Y630491D01*
X833302Y630241D01*
X833417Y629993D01*
X833539Y629749D01*
X833666Y629507D01*
X833799Y629268D01*
X833938Y629033D01*
X834082Y628801D01*
X834232Y628573D01*
X834387Y628348D01*
X834548Y628127D01*
X834714Y627910D01*
X834885Y627697D01*
X835062Y627489D01*
X835243Y627284D01*
X835429Y627084D01*
X835620Y626889D01*
X835815Y626698D01*
X836015Y626512D01*
X836220Y626331D01*
X836428Y626154D01*
X836641Y625983D01*
X836858Y625817D01*
X837079Y625656D01*
X837304Y625501D01*
X837532Y625351D01*
X837764Y625207D01*
X837999Y625068D01*
X838238Y624935D01*
X838480Y624808D01*
X838724Y624686D01*
X838972Y624571D01*
X839222Y624461D01*
X839475Y624358D01*
X839730Y624260D01*
X839988Y624169D01*
X840247Y624084D01*
X840509Y624005D01*
X840772Y623933D01*
X841038Y623867D01*
X841304Y623807D01*
X841572Y623754D01*
X841841Y623707D01*
X842111Y623667D01*
X842383Y623633D01*
X842654Y623606D01*
X847477Y630304D02*
X849352Y632179D01*
X847477Y630303D02*
X847404Y630233D01*
X847328Y630165D01*
X847249Y630100D01*
X847169Y630039D01*
X847085Y629980D01*
X847000Y629925D01*
X846913Y629873D01*
X846824Y629824D01*
X846732Y629779D01*
X846640Y629738D01*
X846545Y629700D01*
X846450Y629665D01*
X846353Y629635D01*
X846255Y629608D01*
X846156Y629585D01*
X846056Y629565D01*
X845956Y629550D01*
X845855Y629538D01*
X845753Y629530D01*
X845652Y629526D01*
X845550Y629526D01*
X845449Y629530D01*
X845347Y629538D01*
X845246Y629550D01*
X845146Y629565D01*
X845046Y629585D01*
X844947Y629608D01*
X844849Y629635D01*
X844752Y629665D01*
X844657Y629700D01*
X844562Y629738D01*
X844470Y629779D01*
X844379Y629824D01*
X844289Y629873D01*
X844202Y629925D01*
X844117Y629980D01*
X844033Y630039D01*
X843953Y630100D01*
X843874Y630165D01*
X843798Y630233D01*
X843725Y630303D01*
X843725Y630304D02*
X839035Y634993D01*
X838965Y635066D01*
X838897Y635142D01*
X838832Y635221D01*
X838771Y635301D01*
X838712Y635385D01*
X838657Y635470D01*
X838605Y635557D01*
X838556Y635646D01*
X838511Y635738D01*
X838470Y635830D01*
X838432Y635925D01*
X838397Y636020D01*
X838367Y636117D01*
X838340Y636215D01*
X838317Y636314D01*
X838297Y636414D01*
X838282Y636514D01*
X838270Y636615D01*
X838262Y636717D01*
X838258Y636818D01*
X838258Y636920D01*
X838262Y637021D01*
X838270Y637123D01*
X838282Y637224D01*
X838297Y637324D01*
X838317Y637424D01*
X838340Y637523D01*
X838367Y637621D01*
X838397Y637718D01*
X838432Y637813D01*
X838470Y637908D01*
X838511Y638000D01*
X838556Y638091D01*
X838605Y638181D01*
X838657Y638268D01*
X838712Y638353D01*
X838771Y638437D01*
X838832Y638517D01*
X838897Y638596D01*
X838965Y638672D01*
X839035Y638745D01*
X840911Y640621D01*
X850400Y641669D02*
X850591Y641474D01*
X850777Y641274D01*
X850958Y641069D01*
X851135Y640861D01*
X851306Y640648D01*
X851472Y640431D01*
X851633Y640210D01*
X851788Y639985D01*
X851938Y639757D01*
X852082Y639525D01*
X852221Y639290D01*
X852354Y639051D01*
X852481Y638809D01*
X852603Y638565D01*
X852718Y638317D01*
X852828Y638067D01*
X852931Y637814D01*
X853029Y637559D01*
X853120Y637301D01*
X853205Y637042D01*
X853284Y636780D01*
X853356Y636517D01*
X853422Y636251D01*
X853482Y635985D01*
X853535Y635717D01*
X853582Y635448D01*
X853622Y635178D01*
X853656Y634906D01*
X853683Y634635D01*
X850401Y641669D02*
X850205Y641860D01*
X850005Y642046D01*
X849801Y642227D01*
X849592Y642404D01*
X849379Y642575D01*
X849162Y642741D01*
X848941Y642902D01*
X848717Y643057D01*
X848488Y643207D01*
X848256Y643351D01*
X848021Y643490D01*
X847782Y643623D01*
X847541Y643750D01*
X847296Y643872D01*
X847048Y643987D01*
X846798Y644097D01*
X846545Y644200D01*
X846290Y644298D01*
X846033Y644389D01*
X845773Y644474D01*
X845511Y644553D01*
X845248Y644625D01*
X844983Y644691D01*
X844716Y644751D01*
X844448Y644804D01*
X844179Y644851D01*
X843909Y644891D01*
X843638Y644925D01*
X843366Y644952D01*
X857882Y657593D02*
X857961Y657668D01*
X858042Y657741D01*
X858126Y657811D01*
X858212Y657878D01*
X858301Y657941D01*
X858392Y658001D01*
X858485Y658058D01*
X858580Y658111D01*
X858677Y658161D01*
X858776Y658207D01*
X858876Y658250D01*
X858978Y658289D01*
X859081Y658324D01*
X859185Y658356D01*
X859291Y658383D01*
X859397Y658407D01*
X859505Y658427D01*
X859612Y658443D01*
X859721Y658455D01*
X859830Y658463D01*
X859938Y658467D01*
X860048Y658467D01*
X860156Y658463D01*
X860265Y658455D01*
X860374Y658443D01*
X860481Y658427D01*
X860589Y658407D01*
X860695Y658383D01*
X860801Y658356D01*
X860905Y658324D01*
X861008Y658289D01*
X861110Y658250D01*
X861210Y658207D01*
X861309Y658161D01*
X861406Y658111D01*
X861501Y658058D01*
X861594Y658001D01*
X861685Y657941D01*
X861774Y657878D01*
X861860Y657811D01*
X861944Y657741D01*
X862025Y657668D01*
X862104Y657593D01*
X857882Y657592D02*
X857798Y657506D01*
X857717Y657416D01*
X857639Y657325D01*
X857563Y657231D01*
X857491Y657134D01*
X857422Y657036D01*
X857356Y656935D01*
X857293Y656832D01*
X857233Y656727D01*
X857176Y656621D01*
X857123Y656513D01*
X857074Y656403D01*
X857028Y656291D01*
X856985Y656179D01*
X856946Y656064D01*
X856911Y655949D01*
X856879Y655833D01*
X856851Y655716D01*
X856827Y655598D01*
X856806Y655479D01*
X856789Y655360D01*
X856776Y655240D01*
X856766Y655120D01*
X856761Y654999D01*
X856759Y654879D01*
X856761Y654758D01*
X856767Y654638D01*
X856776Y654518D01*
X856790Y654398D01*
X856807Y654278D01*
X856827Y654160D01*
X856852Y654042D01*
X856880Y653925D01*
X856912Y653808D01*
X856948Y653693D01*
X856987Y653579D01*
X857030Y653466D01*
X857076Y653355D01*
X857125Y653245D01*
X857179Y653137D01*
X863041Y655247D02*
X863042Y655360D01*
X863039Y655473D01*
X863031Y655585D01*
X863020Y655698D01*
X863005Y655809D01*
X862986Y655921D01*
X862963Y656031D01*
X862936Y656141D01*
X862906Y656249D01*
X862871Y656357D01*
X862833Y656463D01*
X862791Y656568D01*
X862746Y656671D01*
X862696Y656773D01*
X862644Y656873D01*
X862588Y656970D01*
X862528Y657066D01*
X862465Y657160D01*
X862399Y657251D01*
X862329Y657340D01*
X862257Y657427D01*
X862181Y657511D01*
X862103Y657592D01*
X863041Y655247D02*
X863744Y646571D01*
X868434Y651261D01*
X868575Y659844D02*
X868411Y660013D01*
X868251Y660184D01*
X868096Y660360D01*
X867944Y660539D01*
X867797Y660722D01*
X867654Y660909D01*
X867515Y661099D01*
X867381Y661292D01*
X867252Y661488D01*
X867128Y661687D01*
X867008Y661889D01*
X866893Y662094D01*
X866783Y662301D01*
X866678Y662511D01*
X866579Y662724D01*
X866484Y662939D01*
X866394Y663156D01*
X866310Y663375D01*
X866231Y663596D01*
X866189Y663685D01*
X866152Y663776D01*
X866117Y663868D01*
X866087Y663961D01*
X866060Y664056D01*
X866038Y664151D01*
X866018Y664248D01*
X866003Y664345D01*
X865992Y664442D01*
X865985Y664540D01*
X865981Y664638D01*
X865982Y664737D01*
X865986Y664835D01*
X865995Y664933D01*
X866007Y665030D01*
X866023Y665127D01*
X866043Y665223D01*
X866067Y665318D01*
X866094Y665412D01*
X866126Y665505D01*
X866161Y665597D01*
X866200Y665687D01*
X866242Y665776D01*
X866288Y665863D01*
X866337Y665948D01*
X866390Y666031D01*
X866445Y666111D01*
X866504Y666190D01*
X866567Y666266D01*
X866632Y666339D01*
X866700Y666410D01*
X866771Y666478D01*
X866844Y666543D01*
X866920Y666606D01*
X866999Y666665D01*
X867079Y666720D01*
X867162Y666773D01*
X867247Y666822D01*
X867334Y666868D01*
X867423Y666910D01*
X867513Y666949D01*
X867605Y666984D01*
X867698Y667016D01*
X867792Y667043D01*
X867887Y667067D01*
X867983Y667087D01*
X868080Y667103D01*
X868177Y667115D01*
X868275Y667124D01*
X868373Y667128D01*
X868472Y667129D01*
X868570Y667125D01*
X868668Y667118D01*
X868765Y667107D01*
X868862Y667092D01*
X868959Y667072D01*
X869054Y667050D01*
X869149Y667023D01*
X869242Y666993D01*
X869334Y666958D01*
X869425Y666921D01*
X869514Y666879D01*
X869735Y666800D01*
X869954Y666716D01*
X870171Y666626D01*
X870386Y666532D01*
X870598Y666432D01*
X870809Y666327D01*
X871016Y666217D01*
X871221Y666102D01*
X871423Y665982D01*
X871622Y665858D01*
X871818Y665729D01*
X872011Y665595D01*
X872201Y665456D01*
X872388Y665313D01*
X872571Y665166D01*
X872750Y665014D01*
X872926Y664859D01*
X873097Y664699D01*
X873266Y664535D01*
X868575Y659844D02*
X868744Y659680D01*
X868915Y659520D01*
X869091Y659365D01*
X869270Y659213D01*
X869453Y659066D01*
X869640Y658923D01*
X869830Y658784D01*
X870023Y658650D01*
X870219Y658521D01*
X870418Y658397D01*
X870620Y658277D01*
X870825Y658162D01*
X871032Y658052D01*
X871242Y657947D01*
X871455Y657848D01*
X871670Y657753D01*
X871887Y657663D01*
X872106Y657579D01*
X872327Y657500D01*
X872327Y657499D02*
X872416Y657457D01*
X872507Y657420D01*
X872599Y657385D01*
X872692Y657355D01*
X872787Y657328D01*
X872882Y657305D01*
X872979Y657286D01*
X873076Y657271D01*
X873173Y657260D01*
X873271Y657253D01*
X873369Y657249D01*
X873468Y657250D01*
X873566Y657254D01*
X873664Y657263D01*
X873761Y657275D01*
X873858Y657291D01*
X873954Y657311D01*
X874049Y657335D01*
X874143Y657362D01*
X874236Y657394D01*
X874328Y657429D01*
X874418Y657468D01*
X874507Y657510D01*
X874594Y657556D01*
X874679Y657605D01*
X874762Y657658D01*
X874842Y657713D01*
X874921Y657772D01*
X874997Y657835D01*
X875070Y657900D01*
X875141Y657968D01*
X875610Y660782D02*
X875531Y661003D01*
X875447Y661222D01*
X875357Y661439D01*
X875262Y661654D01*
X875163Y661867D01*
X875058Y662077D01*
X874948Y662284D01*
X874833Y662489D01*
X874713Y662691D01*
X874589Y662890D01*
X874460Y663087D01*
X874326Y663279D01*
X874187Y663469D01*
X874044Y663656D01*
X873897Y663839D01*
X873745Y664018D01*
X873590Y664194D01*
X873430Y664365D01*
X873266Y664534D01*
X875610Y660782D02*
X875652Y660693D01*
X875689Y660602D01*
X875724Y660510D01*
X875754Y660417D01*
X875781Y660322D01*
X875804Y660227D01*
X875823Y660130D01*
X875838Y660033D01*
X875849Y659936D01*
X875856Y659838D01*
X875860Y659740D01*
X875859Y659641D01*
X875855Y659543D01*
X875846Y659445D01*
X875834Y659348D01*
X875818Y659251D01*
X875798Y659155D01*
X875774Y659060D01*
X875747Y658966D01*
X875715Y658873D01*
X875680Y658781D01*
X875641Y658691D01*
X875599Y658602D01*
X875553Y658515D01*
X875504Y658430D01*
X875451Y658347D01*
X875396Y658267D01*
X875337Y658188D01*
X875274Y658112D01*
X875209Y658039D01*
X875141Y657968D01*
X871390Y657968D02*
X870452Y666410D01*
X875986Y675697D02*
X876065Y675772D01*
X876146Y675845D01*
X876230Y675915D01*
X876316Y675982D01*
X876405Y676045D01*
X876496Y676105D01*
X876589Y676162D01*
X876684Y676215D01*
X876781Y676265D01*
X876880Y676311D01*
X876980Y676354D01*
X877082Y676393D01*
X877185Y676428D01*
X877289Y676460D01*
X877395Y676487D01*
X877501Y676511D01*
X877609Y676531D01*
X877716Y676547D01*
X877825Y676559D01*
X877934Y676567D01*
X878042Y676571D01*
X878152Y676571D01*
X878260Y676567D01*
X878369Y676559D01*
X878478Y676547D01*
X878585Y676531D01*
X878693Y676511D01*
X878799Y676487D01*
X878905Y676460D01*
X879009Y676428D01*
X879112Y676393D01*
X879214Y676354D01*
X879314Y676311D01*
X879413Y676265D01*
X879510Y676215D01*
X879605Y676162D01*
X879698Y676105D01*
X879789Y676045D01*
X879878Y675982D01*
X879964Y675915D01*
X880048Y675845D01*
X880129Y675772D01*
X880208Y675697D01*
X875987Y675696D02*
X875903Y675610D01*
X875822Y675520D01*
X875744Y675429D01*
X875668Y675335D01*
X875596Y675238D01*
X875527Y675140D01*
X875461Y675039D01*
X875398Y674936D01*
X875338Y674831D01*
X875281Y674725D01*
X875228Y674617D01*
X875179Y674507D01*
X875133Y674395D01*
X875090Y674283D01*
X875051Y674168D01*
X875016Y674053D01*
X874984Y673937D01*
X874956Y673820D01*
X874932Y673702D01*
X874911Y673583D01*
X874894Y673464D01*
X874881Y673344D01*
X874871Y673224D01*
X874866Y673103D01*
X874864Y672983D01*
X874866Y672862D01*
X874872Y672742D01*
X874881Y672622D01*
X874895Y672502D01*
X874912Y672382D01*
X874932Y672264D01*
X874957Y672146D01*
X874985Y672029D01*
X875017Y671912D01*
X875053Y671797D01*
X875092Y671683D01*
X875135Y671570D01*
X875181Y671459D01*
X875230Y671349D01*
X875284Y671241D01*
X881145Y673352D02*
X881146Y673465D01*
X881143Y673578D01*
X881135Y673690D01*
X881124Y673803D01*
X881109Y673914D01*
X881090Y674026D01*
X881067Y674136D01*
X881040Y674246D01*
X881010Y674354D01*
X880975Y674462D01*
X880937Y674568D01*
X880895Y674673D01*
X880850Y674776D01*
X880800Y674878D01*
X880748Y674978D01*
X880692Y675075D01*
X880632Y675171D01*
X880569Y675265D01*
X880503Y675356D01*
X880433Y675445D01*
X880361Y675532D01*
X880285Y675616D01*
X880207Y675697D01*
X881145Y673351D02*
X881848Y664676D01*
X886538Y669365D01*
X884335Y680293D02*
X884804Y684514D01*
X893245Y676072D01*
X890901Y673728D02*
X895590Y678417D01*
D11*
X788135Y549837D02*
X788135Y542979D01*
X788135Y549837D02*
X790040Y549837D01*
X790125Y549835D01*
X790211Y549829D01*
X790296Y549820D01*
X790380Y549806D01*
X790464Y549789D01*
X790547Y549768D01*
X790629Y549744D01*
X790709Y549716D01*
X790789Y549684D01*
X790867Y549648D01*
X790943Y549610D01*
X791017Y549567D01*
X791089Y549522D01*
X791160Y549473D01*
X791228Y549421D01*
X791293Y549367D01*
X791356Y549309D01*
X791417Y549248D01*
X791475Y549185D01*
X791529Y549120D01*
X791581Y549052D01*
X791630Y548981D01*
X791675Y548909D01*
X791718Y548835D01*
X791756Y548759D01*
X791792Y548681D01*
X791824Y548601D01*
X791852Y548521D01*
X791876Y548439D01*
X791897Y548356D01*
X791914Y548272D01*
X791928Y548188D01*
X791937Y548103D01*
X791943Y548017D01*
X791945Y547932D01*
X791943Y547847D01*
X791937Y547761D01*
X791928Y547676D01*
X791914Y547592D01*
X791897Y547508D01*
X791876Y547425D01*
X791852Y547343D01*
X791824Y547263D01*
X791792Y547183D01*
X791756Y547105D01*
X791718Y547029D01*
X791675Y546955D01*
X791630Y546883D01*
X791581Y546812D01*
X791529Y546744D01*
X791475Y546679D01*
X791417Y546616D01*
X791356Y546555D01*
X791293Y546497D01*
X791228Y546443D01*
X791160Y546391D01*
X791089Y546342D01*
X791017Y546297D01*
X790943Y546254D01*
X790867Y546216D01*
X790789Y546180D01*
X790709Y546148D01*
X790629Y546120D01*
X790547Y546096D01*
X790464Y546075D01*
X790380Y546058D01*
X790296Y546044D01*
X790211Y546035D01*
X790125Y546029D01*
X790040Y546027D01*
X788135Y546027D01*
X795488Y542979D02*
X795488Y549837D01*
X794726Y542979D02*
X796250Y542979D01*
X796250Y549837D02*
X794726Y549837D01*
X799679Y549837D02*
X799679Y542979D01*
X803489Y542979D02*
X799679Y549837D01*
X803489Y549837D02*
X803489Y542979D01*
X811140Y544884D02*
X811142Y544969D01*
X811148Y545055D01*
X811157Y545140D01*
X811171Y545224D01*
X811188Y545308D01*
X811209Y545391D01*
X811233Y545473D01*
X811261Y545553D01*
X811293Y545633D01*
X811329Y545711D01*
X811367Y545787D01*
X811410Y545861D01*
X811455Y545933D01*
X811504Y546004D01*
X811556Y546072D01*
X811610Y546137D01*
X811668Y546200D01*
X811729Y546261D01*
X811792Y546319D01*
X811857Y546373D01*
X811925Y546425D01*
X811996Y546474D01*
X812068Y546519D01*
X812142Y546562D01*
X812218Y546600D01*
X812296Y546636D01*
X812376Y546668D01*
X812456Y546696D01*
X812538Y546720D01*
X812621Y546741D01*
X812705Y546758D01*
X812789Y546772D01*
X812874Y546781D01*
X812960Y546787D01*
X813045Y546789D01*
X813130Y546787D01*
X813216Y546781D01*
X813301Y546772D01*
X813385Y546758D01*
X813469Y546741D01*
X813552Y546720D01*
X813634Y546696D01*
X813714Y546668D01*
X813794Y546636D01*
X813872Y546600D01*
X813948Y546562D01*
X814022Y546519D01*
X814094Y546474D01*
X814165Y546425D01*
X814233Y546373D01*
X814298Y546319D01*
X814361Y546261D01*
X814422Y546200D01*
X814480Y546137D01*
X814534Y546072D01*
X814586Y546004D01*
X814635Y545933D01*
X814680Y545861D01*
X814723Y545787D01*
X814761Y545711D01*
X814797Y545633D01*
X814829Y545553D01*
X814857Y545473D01*
X814881Y545391D01*
X814902Y545308D01*
X814919Y545224D01*
X814933Y545140D01*
X814942Y545055D01*
X814948Y544969D01*
X814950Y544884D01*
X814948Y544799D01*
X814942Y544713D01*
X814933Y544628D01*
X814919Y544544D01*
X814902Y544460D01*
X814881Y544377D01*
X814857Y544295D01*
X814829Y544215D01*
X814797Y544135D01*
X814761Y544057D01*
X814723Y543981D01*
X814680Y543907D01*
X814635Y543835D01*
X814586Y543764D01*
X814534Y543696D01*
X814480Y543631D01*
X814422Y543568D01*
X814361Y543507D01*
X814298Y543449D01*
X814233Y543395D01*
X814165Y543343D01*
X814094Y543294D01*
X814022Y543249D01*
X813948Y543206D01*
X813872Y543168D01*
X813794Y543132D01*
X813714Y543100D01*
X813634Y543072D01*
X813552Y543048D01*
X813469Y543027D01*
X813385Y543010D01*
X813301Y542996D01*
X813216Y542987D01*
X813130Y542981D01*
X813045Y542979D01*
X812960Y542981D01*
X812874Y542987D01*
X812789Y542996D01*
X812705Y543010D01*
X812621Y543027D01*
X812538Y543048D01*
X812456Y543072D01*
X812376Y543100D01*
X812296Y543132D01*
X812218Y543168D01*
X812142Y543206D01*
X812068Y543249D01*
X811996Y543294D01*
X811925Y543343D01*
X811857Y543395D01*
X811792Y543449D01*
X811729Y543507D01*
X811668Y543568D01*
X811610Y543631D01*
X811556Y543696D01*
X811504Y543764D01*
X811455Y543835D01*
X811410Y543907D01*
X811367Y543981D01*
X811329Y544057D01*
X811293Y544135D01*
X811261Y544215D01*
X811233Y544295D01*
X811209Y544377D01*
X811188Y544460D01*
X811171Y544544D01*
X811157Y544628D01*
X811148Y544713D01*
X811142Y544799D01*
X811140Y544884D01*
X811521Y548313D02*
X811523Y548390D01*
X811529Y548467D01*
X811539Y548544D01*
X811552Y548620D01*
X811570Y548695D01*
X811591Y548769D01*
X811616Y548842D01*
X811645Y548914D01*
X811677Y548984D01*
X811712Y549053D01*
X811752Y549119D01*
X811794Y549184D01*
X811840Y549246D01*
X811889Y549306D01*
X811940Y549363D01*
X811995Y549418D01*
X812052Y549469D01*
X812112Y549518D01*
X812174Y549564D01*
X812239Y549606D01*
X812305Y549646D01*
X812374Y549681D01*
X812444Y549713D01*
X812516Y549742D01*
X812589Y549767D01*
X812663Y549788D01*
X812738Y549806D01*
X812814Y549819D01*
X812891Y549829D01*
X812968Y549835D01*
X813045Y549837D01*
X813122Y549835D01*
X813199Y549829D01*
X813276Y549819D01*
X813352Y549806D01*
X813427Y549788D01*
X813501Y549767D01*
X813574Y549742D01*
X813646Y549713D01*
X813716Y549681D01*
X813785Y549646D01*
X813851Y549606D01*
X813916Y549564D01*
X813978Y549518D01*
X814038Y549469D01*
X814095Y549418D01*
X814150Y549363D01*
X814201Y549306D01*
X814250Y549246D01*
X814296Y549184D01*
X814338Y549119D01*
X814378Y549053D01*
X814413Y548984D01*
X814445Y548914D01*
X814474Y548842D01*
X814499Y548769D01*
X814520Y548695D01*
X814538Y548620D01*
X814551Y548544D01*
X814561Y548467D01*
X814567Y548390D01*
X814569Y548313D01*
X814567Y548236D01*
X814561Y548159D01*
X814551Y548082D01*
X814538Y548006D01*
X814520Y547931D01*
X814499Y547857D01*
X814474Y547784D01*
X814445Y547712D01*
X814413Y547642D01*
X814378Y547573D01*
X814338Y547507D01*
X814296Y547442D01*
X814250Y547380D01*
X814201Y547320D01*
X814150Y547263D01*
X814095Y547208D01*
X814038Y547157D01*
X813978Y547108D01*
X813916Y547062D01*
X813851Y547020D01*
X813785Y546980D01*
X813716Y546945D01*
X813646Y546913D01*
X813574Y546884D01*
X813501Y546859D01*
X813427Y546838D01*
X813352Y546820D01*
X813276Y546807D01*
X813199Y546797D01*
X813122Y546791D01*
X813045Y546789D01*
X812968Y546791D01*
X812891Y546797D01*
X812814Y546807D01*
X812738Y546820D01*
X812663Y546838D01*
X812589Y546859D01*
X812516Y546884D01*
X812444Y546913D01*
X812374Y546945D01*
X812305Y546980D01*
X812239Y547020D01*
X812174Y547062D01*
X812112Y547108D01*
X812052Y547157D01*
X811995Y547208D01*
X811940Y547263D01*
X811889Y547320D01*
X811840Y547380D01*
X811794Y547442D01*
X811752Y547507D01*
X811712Y547573D01*
X811677Y547642D01*
X811645Y547712D01*
X811616Y547784D01*
X811591Y547857D01*
X811570Y547931D01*
X811552Y548006D01*
X811539Y548082D01*
X811529Y548159D01*
X811523Y548236D01*
X811521Y548313D01*
X823528Y545646D02*
X825242Y545646D01*
X823528Y545647D02*
X823456Y545645D01*
X823384Y545639D01*
X823312Y545629D01*
X823241Y545616D01*
X823171Y545598D01*
X823102Y545577D01*
X823034Y545552D01*
X822968Y545524D01*
X822903Y545492D01*
X822840Y545456D01*
X822779Y545417D01*
X822721Y545375D01*
X822664Y545330D01*
X822611Y545281D01*
X822560Y545230D01*
X822511Y545177D01*
X822466Y545120D01*
X822424Y545062D01*
X822385Y545001D01*
X822349Y544938D01*
X822317Y544873D01*
X822289Y544807D01*
X822264Y544739D01*
X822243Y544670D01*
X822225Y544600D01*
X822212Y544529D01*
X822202Y544457D01*
X822196Y544385D01*
X822194Y544313D01*
X822196Y544241D01*
X822202Y544169D01*
X822212Y544097D01*
X822225Y544026D01*
X822243Y543956D01*
X822264Y543887D01*
X822289Y543819D01*
X822317Y543753D01*
X822349Y543688D01*
X822385Y543625D01*
X822424Y543564D01*
X822466Y543506D01*
X822511Y543449D01*
X822560Y543396D01*
X822611Y543345D01*
X822664Y543296D01*
X822721Y543251D01*
X822779Y543209D01*
X822840Y543170D01*
X822903Y543134D01*
X822968Y543102D01*
X823034Y543074D01*
X823102Y543049D01*
X823171Y543028D01*
X823241Y543010D01*
X823312Y542997D01*
X823384Y542987D01*
X823456Y542981D01*
X823528Y542979D01*
X825242Y542979D01*
X825242Y546408D01*
X825240Y546474D01*
X825234Y546541D01*
X825225Y546606D01*
X825211Y546672D01*
X825194Y546736D01*
X825173Y546799D01*
X825149Y546861D01*
X825120Y546921D01*
X825089Y546980D01*
X825054Y547036D01*
X825016Y547091D01*
X824975Y547143D01*
X824930Y547192D01*
X824883Y547239D01*
X824834Y547284D01*
X824782Y547325D01*
X824727Y547363D01*
X824671Y547398D01*
X824612Y547429D01*
X824552Y547458D01*
X824490Y547482D01*
X824427Y547503D01*
X824363Y547520D01*
X824297Y547534D01*
X824232Y547543D01*
X824165Y547549D01*
X824099Y547551D01*
X822575Y547551D01*
X829405Y545646D02*
X831310Y544884D01*
X829405Y545646D02*
X829348Y545671D01*
X829293Y545699D01*
X829239Y545731D01*
X829188Y545766D01*
X829139Y545805D01*
X829092Y545846D01*
X829048Y545890D01*
X829007Y545937D01*
X828969Y545987D01*
X828935Y546039D01*
X828903Y546092D01*
X828875Y546148D01*
X828851Y546205D01*
X828830Y546264D01*
X828813Y546324D01*
X828800Y546385D01*
X828791Y546447D01*
X828785Y546509D01*
X828784Y546571D01*
X828787Y546633D01*
X828793Y546695D01*
X828803Y546757D01*
X828817Y546817D01*
X828835Y546877D01*
X828857Y546936D01*
X828882Y546992D01*
X828911Y547048D01*
X828943Y547101D01*
X828979Y547152D01*
X829018Y547201D01*
X829059Y547247D01*
X829104Y547291D01*
X829151Y547332D01*
X829201Y547369D01*
X829253Y547404D01*
X829307Y547435D01*
X829363Y547462D01*
X829420Y547486D01*
X829479Y547507D01*
X829539Y547523D01*
X829600Y547536D01*
X829662Y547545D01*
X829724Y547550D01*
X829786Y547551D01*
X829912Y547547D01*
X830038Y547540D01*
X830164Y547529D01*
X830290Y547514D01*
X830415Y547496D01*
X830539Y547474D01*
X830663Y547448D01*
X830786Y547419D01*
X830908Y547386D01*
X831029Y547350D01*
X831148Y547310D01*
X831267Y547266D01*
X831384Y547220D01*
X831500Y547170D01*
X831310Y544884D02*
X831367Y544859D01*
X831422Y544831D01*
X831476Y544799D01*
X831527Y544764D01*
X831576Y544725D01*
X831623Y544684D01*
X831667Y544640D01*
X831708Y544593D01*
X831746Y544543D01*
X831780Y544491D01*
X831812Y544438D01*
X831840Y544382D01*
X831864Y544325D01*
X831885Y544266D01*
X831902Y544206D01*
X831915Y544145D01*
X831924Y544083D01*
X831930Y544021D01*
X831931Y543959D01*
X831928Y543897D01*
X831922Y543835D01*
X831912Y543773D01*
X831898Y543713D01*
X831880Y543653D01*
X831858Y543594D01*
X831833Y543538D01*
X831804Y543482D01*
X831772Y543429D01*
X831736Y543378D01*
X831697Y543329D01*
X831656Y543283D01*
X831611Y543239D01*
X831564Y543198D01*
X831514Y543161D01*
X831462Y543126D01*
X831408Y543095D01*
X831352Y543068D01*
X831295Y543044D01*
X831236Y543023D01*
X831176Y543007D01*
X831115Y542994D01*
X831053Y542985D01*
X830991Y542980D01*
X830929Y542979D01*
X830776Y542983D01*
X830623Y542990D01*
X830471Y543001D01*
X830319Y543016D01*
X830167Y543035D01*
X830016Y543057D01*
X829865Y543082D01*
X829715Y543111D01*
X829566Y543144D01*
X829417Y543180D01*
X829270Y543220D01*
X829123Y543263D01*
X828977Y543310D01*
X828833Y543360D01*
X791183Y518595D02*
X789659Y518595D01*
X789582Y518597D01*
X789505Y518603D01*
X789428Y518613D01*
X789352Y518626D01*
X789277Y518644D01*
X789203Y518665D01*
X789130Y518690D01*
X789058Y518719D01*
X788988Y518751D01*
X788919Y518786D01*
X788853Y518826D01*
X788788Y518868D01*
X788726Y518914D01*
X788666Y518963D01*
X788609Y519014D01*
X788554Y519069D01*
X788503Y519126D01*
X788454Y519186D01*
X788408Y519248D01*
X788366Y519313D01*
X788326Y519379D01*
X788291Y519448D01*
X788259Y519518D01*
X788230Y519590D01*
X788205Y519663D01*
X788184Y519737D01*
X788166Y519812D01*
X788153Y519888D01*
X788143Y519965D01*
X788137Y520042D01*
X788135Y520119D01*
X788135Y523929D01*
X788137Y524006D01*
X788143Y524083D01*
X788153Y524160D01*
X788166Y524236D01*
X788184Y524311D01*
X788205Y524385D01*
X788230Y524458D01*
X788259Y524530D01*
X788291Y524600D01*
X788326Y524669D01*
X788366Y524735D01*
X788408Y524800D01*
X788454Y524862D01*
X788503Y524922D01*
X788554Y524979D01*
X788609Y525034D01*
X788666Y525085D01*
X788726Y525134D01*
X788788Y525180D01*
X788853Y525222D01*
X788919Y525262D01*
X788988Y525297D01*
X789058Y525329D01*
X789130Y525358D01*
X789203Y525383D01*
X789277Y525404D01*
X789352Y525422D01*
X789428Y525435D01*
X789505Y525445D01*
X789582Y525451D01*
X789659Y525453D01*
X791183Y525453D01*
X794369Y521262D02*
X798941Y521262D01*
X804595Y518595D02*
X804672Y518597D01*
X804749Y518603D01*
X804826Y518613D01*
X804902Y518626D01*
X804977Y518644D01*
X805051Y518665D01*
X805124Y518690D01*
X805196Y518719D01*
X805266Y518751D01*
X805335Y518786D01*
X805401Y518826D01*
X805466Y518868D01*
X805528Y518914D01*
X805588Y518963D01*
X805645Y519014D01*
X805700Y519069D01*
X805751Y519126D01*
X805800Y519186D01*
X805846Y519248D01*
X805888Y519313D01*
X805928Y519379D01*
X805963Y519448D01*
X805995Y519518D01*
X806024Y519590D01*
X806049Y519663D01*
X806070Y519737D01*
X806088Y519812D01*
X806101Y519888D01*
X806111Y519965D01*
X806117Y520042D01*
X806119Y520119D01*
X804595Y518595D02*
X804485Y518597D01*
X804374Y518603D01*
X804264Y518612D01*
X804154Y518625D01*
X804045Y518642D01*
X803937Y518663D01*
X803829Y518687D01*
X803722Y518716D01*
X803616Y518747D01*
X803512Y518783D01*
X803408Y518822D01*
X803306Y518864D01*
X803206Y518910D01*
X803107Y518960D01*
X803010Y519012D01*
X802914Y519069D01*
X802821Y519128D01*
X802730Y519190D01*
X802641Y519256D01*
X802554Y519324D01*
X802470Y519396D01*
X802388Y519470D01*
X802309Y519547D01*
X802500Y523929D02*
X802502Y524006D01*
X802508Y524083D01*
X802518Y524160D01*
X802531Y524236D01*
X802549Y524311D01*
X802570Y524385D01*
X802595Y524458D01*
X802624Y524530D01*
X802656Y524600D01*
X802691Y524669D01*
X802731Y524735D01*
X802773Y524800D01*
X802819Y524862D01*
X802868Y524922D01*
X802919Y524979D01*
X802974Y525034D01*
X803031Y525085D01*
X803091Y525134D01*
X803153Y525180D01*
X803218Y525222D01*
X803284Y525262D01*
X803353Y525297D01*
X803423Y525329D01*
X803495Y525358D01*
X803568Y525383D01*
X803642Y525404D01*
X803717Y525422D01*
X803793Y525435D01*
X803870Y525445D01*
X803947Y525451D01*
X804024Y525453D01*
X804024Y525454D02*
X804126Y525452D01*
X804228Y525447D01*
X804330Y525438D01*
X804431Y525425D01*
X804532Y525408D01*
X804632Y525389D01*
X804732Y525365D01*
X804830Y525338D01*
X804928Y525307D01*
X805024Y525273D01*
X805119Y525236D01*
X805213Y525195D01*
X805305Y525151D01*
X805395Y525103D01*
X805484Y525053D01*
X805571Y524999D01*
X805656Y524942D01*
X805739Y524882D01*
X803261Y522595D02*
X803196Y522636D01*
X803133Y522679D01*
X803073Y522726D01*
X803014Y522776D01*
X802959Y522828D01*
X802906Y522883D01*
X802855Y522941D01*
X802808Y523001D01*
X802764Y523064D01*
X802722Y523128D01*
X802684Y523194D01*
X802650Y523263D01*
X802619Y523333D01*
X802591Y523404D01*
X802567Y523476D01*
X802546Y523550D01*
X802529Y523625D01*
X802516Y523700D01*
X802507Y523776D01*
X802501Y523852D01*
X802499Y523929D01*
X805357Y521453D02*
X805422Y521412D01*
X805485Y521369D01*
X805545Y521322D01*
X805604Y521272D01*
X805659Y521220D01*
X805712Y521165D01*
X805763Y521107D01*
X805810Y521047D01*
X805854Y520984D01*
X805896Y520920D01*
X805934Y520854D01*
X805968Y520785D01*
X805999Y520715D01*
X806027Y520644D01*
X806051Y520572D01*
X806072Y520498D01*
X806089Y520423D01*
X806102Y520348D01*
X806111Y520272D01*
X806117Y520196D01*
X806119Y520119D01*
X805357Y521453D02*
X803262Y522596D01*
X808999Y525453D02*
X811285Y522215D01*
X813571Y525453D01*
X811285Y522215D02*
X811285Y518595D01*
X816939Y518595D02*
X816939Y525453D01*
X820749Y518595D01*
X820749Y525453D01*
X825991Y518595D02*
X827515Y518595D01*
X825991Y518595D02*
X825914Y518597D01*
X825837Y518603D01*
X825760Y518613D01*
X825684Y518626D01*
X825609Y518644D01*
X825535Y518665D01*
X825462Y518690D01*
X825390Y518719D01*
X825320Y518751D01*
X825251Y518786D01*
X825185Y518826D01*
X825120Y518868D01*
X825058Y518914D01*
X824998Y518963D01*
X824941Y519014D01*
X824886Y519069D01*
X824835Y519126D01*
X824786Y519186D01*
X824740Y519248D01*
X824698Y519313D01*
X824658Y519379D01*
X824623Y519448D01*
X824591Y519518D01*
X824562Y519590D01*
X824537Y519663D01*
X824516Y519737D01*
X824498Y519812D01*
X824485Y519888D01*
X824475Y519965D01*
X824469Y520042D01*
X824467Y520119D01*
X824467Y523929D01*
X824469Y524006D01*
X824475Y524083D01*
X824485Y524160D01*
X824498Y524236D01*
X824516Y524311D01*
X824537Y524385D01*
X824562Y524458D01*
X824591Y524530D01*
X824623Y524600D01*
X824658Y524669D01*
X824698Y524735D01*
X824740Y524800D01*
X824786Y524862D01*
X824835Y524922D01*
X824886Y524979D01*
X824941Y525034D01*
X824998Y525085D01*
X825058Y525134D01*
X825120Y525180D01*
X825185Y525222D01*
X825251Y525262D01*
X825320Y525297D01*
X825390Y525329D01*
X825462Y525358D01*
X825535Y525383D01*
X825609Y525404D01*
X825684Y525422D01*
X825760Y525435D01*
X825837Y525445D01*
X825914Y525451D01*
X825991Y525453D01*
X827515Y525453D01*
X788135Y513261D02*
X788135Y506403D01*
X788135Y513261D02*
X790040Y513261D01*
X790125Y513259D01*
X790211Y513253D01*
X790296Y513244D01*
X790380Y513230D01*
X790464Y513213D01*
X790547Y513192D01*
X790629Y513168D01*
X790709Y513140D01*
X790789Y513108D01*
X790867Y513072D01*
X790943Y513034D01*
X791017Y512991D01*
X791089Y512946D01*
X791160Y512897D01*
X791228Y512845D01*
X791293Y512791D01*
X791356Y512733D01*
X791417Y512672D01*
X791475Y512609D01*
X791529Y512544D01*
X791581Y512476D01*
X791630Y512405D01*
X791675Y512333D01*
X791718Y512259D01*
X791756Y512183D01*
X791792Y512105D01*
X791824Y512025D01*
X791852Y511945D01*
X791876Y511863D01*
X791897Y511780D01*
X791914Y511696D01*
X791928Y511612D01*
X791937Y511527D01*
X791943Y511441D01*
X791945Y511356D01*
X791943Y511271D01*
X791937Y511185D01*
X791928Y511100D01*
X791914Y511016D01*
X791897Y510932D01*
X791876Y510849D01*
X791852Y510767D01*
X791824Y510687D01*
X791792Y510607D01*
X791756Y510529D01*
X791718Y510453D01*
X791675Y510379D01*
X791630Y510307D01*
X791581Y510236D01*
X791529Y510168D01*
X791475Y510103D01*
X791417Y510040D01*
X791356Y509979D01*
X791293Y509921D01*
X791228Y509867D01*
X791160Y509815D01*
X791089Y509766D01*
X791017Y509721D01*
X790943Y509678D01*
X790867Y509640D01*
X790789Y509604D01*
X790709Y509572D01*
X790629Y509544D01*
X790547Y509520D01*
X790464Y509499D01*
X790380Y509482D01*
X790296Y509468D01*
X790211Y509459D01*
X790125Y509453D01*
X790040Y509451D01*
X788135Y509451D01*
X790421Y509451D02*
X791945Y506403D01*
X798291Y510213D02*
X799434Y510213D01*
X799434Y506403D01*
X797148Y506403D01*
X797071Y506405D01*
X796994Y506411D01*
X796917Y506421D01*
X796841Y506434D01*
X796766Y506452D01*
X796692Y506473D01*
X796619Y506498D01*
X796547Y506527D01*
X796477Y506559D01*
X796408Y506594D01*
X796342Y506634D01*
X796277Y506676D01*
X796215Y506722D01*
X796155Y506771D01*
X796098Y506822D01*
X796043Y506877D01*
X795992Y506934D01*
X795943Y506994D01*
X795897Y507056D01*
X795855Y507121D01*
X795815Y507187D01*
X795780Y507256D01*
X795748Y507326D01*
X795719Y507398D01*
X795694Y507471D01*
X795673Y507545D01*
X795655Y507620D01*
X795642Y507696D01*
X795632Y507773D01*
X795626Y507850D01*
X795624Y507927D01*
X795624Y511737D01*
X795626Y511814D01*
X795632Y511891D01*
X795642Y511968D01*
X795655Y512044D01*
X795673Y512119D01*
X795694Y512193D01*
X795719Y512266D01*
X795748Y512338D01*
X795780Y512408D01*
X795815Y512477D01*
X795855Y512543D01*
X795897Y512608D01*
X795943Y512670D01*
X795992Y512730D01*
X796043Y512787D01*
X796098Y512842D01*
X796155Y512893D01*
X796215Y512942D01*
X796277Y512988D01*
X796342Y513030D01*
X796408Y513070D01*
X796477Y513105D01*
X796547Y513137D01*
X796619Y513166D01*
X796692Y513191D01*
X796766Y513212D01*
X796841Y513230D01*
X796917Y513243D01*
X796994Y513253D01*
X797071Y513259D01*
X797148Y513261D01*
X799434Y513261D01*
X803587Y510213D02*
X805492Y510213D01*
X805577Y510211D01*
X805663Y510205D01*
X805748Y510196D01*
X805832Y510182D01*
X805916Y510165D01*
X805999Y510144D01*
X806081Y510120D01*
X806161Y510092D01*
X806241Y510060D01*
X806319Y510024D01*
X806395Y509986D01*
X806469Y509943D01*
X806541Y509898D01*
X806612Y509849D01*
X806680Y509797D01*
X806745Y509743D01*
X806808Y509685D01*
X806869Y509624D01*
X806927Y509561D01*
X806981Y509496D01*
X807033Y509428D01*
X807082Y509357D01*
X807127Y509285D01*
X807170Y509211D01*
X807208Y509135D01*
X807244Y509057D01*
X807276Y508977D01*
X807304Y508897D01*
X807328Y508815D01*
X807349Y508732D01*
X807366Y508648D01*
X807380Y508564D01*
X807389Y508479D01*
X807395Y508393D01*
X807397Y508308D01*
X807395Y508223D01*
X807389Y508137D01*
X807380Y508052D01*
X807366Y507968D01*
X807349Y507884D01*
X807328Y507801D01*
X807304Y507719D01*
X807276Y507639D01*
X807244Y507559D01*
X807208Y507481D01*
X807170Y507405D01*
X807127Y507331D01*
X807082Y507259D01*
X807033Y507188D01*
X806981Y507120D01*
X806927Y507055D01*
X806869Y506992D01*
X806808Y506931D01*
X806745Y506873D01*
X806680Y506819D01*
X806612Y506767D01*
X806541Y506718D01*
X806469Y506673D01*
X806395Y506630D01*
X806319Y506592D01*
X806241Y506556D01*
X806161Y506524D01*
X806081Y506496D01*
X805999Y506472D01*
X805916Y506451D01*
X805832Y506434D01*
X805748Y506420D01*
X805663Y506411D01*
X805577Y506405D01*
X805492Y506403D01*
X803587Y506403D01*
X803587Y513261D01*
X805492Y513261D01*
X805569Y513259D01*
X805646Y513253D01*
X805723Y513243D01*
X805799Y513230D01*
X805874Y513212D01*
X805948Y513191D01*
X806021Y513166D01*
X806093Y513137D01*
X806163Y513105D01*
X806232Y513070D01*
X806298Y513030D01*
X806363Y512988D01*
X806425Y512942D01*
X806485Y512893D01*
X806542Y512842D01*
X806597Y512787D01*
X806648Y512730D01*
X806697Y512670D01*
X806743Y512608D01*
X806785Y512543D01*
X806825Y512477D01*
X806860Y512408D01*
X806892Y512338D01*
X806921Y512266D01*
X806946Y512193D01*
X806967Y512119D01*
X806985Y512044D01*
X806998Y511968D01*
X807008Y511891D01*
X807014Y511814D01*
X807016Y511737D01*
X807014Y511660D01*
X807008Y511583D01*
X806998Y511506D01*
X806985Y511430D01*
X806967Y511355D01*
X806946Y511281D01*
X806921Y511208D01*
X806892Y511136D01*
X806860Y511066D01*
X806825Y510997D01*
X806785Y510931D01*
X806743Y510866D01*
X806697Y510804D01*
X806648Y510744D01*
X806597Y510687D01*
X806542Y510632D01*
X806485Y510581D01*
X806425Y510532D01*
X806363Y510486D01*
X806298Y510444D01*
X806232Y510404D01*
X806163Y510369D01*
X806093Y510337D01*
X806021Y510308D01*
X805948Y510283D01*
X805874Y510262D01*
X805799Y510244D01*
X805723Y510231D01*
X805646Y510221D01*
X805569Y510215D01*
X805492Y510213D01*
X812541Y506403D02*
X812618Y506405D01*
X812695Y506411D01*
X812772Y506421D01*
X812848Y506434D01*
X812923Y506452D01*
X812997Y506473D01*
X813070Y506498D01*
X813142Y506527D01*
X813212Y506559D01*
X813281Y506594D01*
X813347Y506634D01*
X813412Y506676D01*
X813474Y506722D01*
X813534Y506771D01*
X813591Y506822D01*
X813646Y506877D01*
X813697Y506934D01*
X813746Y506994D01*
X813792Y507056D01*
X813834Y507121D01*
X813874Y507187D01*
X813909Y507256D01*
X813941Y507326D01*
X813970Y507398D01*
X813995Y507471D01*
X814016Y507545D01*
X814034Y507620D01*
X814047Y507696D01*
X814057Y507773D01*
X814063Y507850D01*
X814065Y507927D01*
X812541Y506403D02*
X812431Y506405D01*
X812320Y506411D01*
X812210Y506420D01*
X812100Y506433D01*
X811991Y506450D01*
X811883Y506471D01*
X811775Y506495D01*
X811668Y506524D01*
X811562Y506555D01*
X811458Y506591D01*
X811354Y506630D01*
X811252Y506672D01*
X811152Y506718D01*
X811053Y506768D01*
X810956Y506820D01*
X810860Y506877D01*
X810767Y506936D01*
X810676Y506998D01*
X810587Y507064D01*
X810500Y507132D01*
X810416Y507204D01*
X810334Y507278D01*
X810255Y507355D01*
X810445Y511737D02*
X810447Y511814D01*
X810453Y511891D01*
X810463Y511968D01*
X810476Y512044D01*
X810494Y512119D01*
X810515Y512193D01*
X810540Y512266D01*
X810569Y512338D01*
X810601Y512408D01*
X810636Y512477D01*
X810676Y512543D01*
X810718Y512608D01*
X810764Y512670D01*
X810813Y512730D01*
X810864Y512787D01*
X810919Y512842D01*
X810976Y512893D01*
X811036Y512942D01*
X811098Y512988D01*
X811163Y513030D01*
X811229Y513070D01*
X811298Y513105D01*
X811368Y513137D01*
X811440Y513166D01*
X811513Y513191D01*
X811587Y513212D01*
X811662Y513230D01*
X811738Y513243D01*
X811815Y513253D01*
X811892Y513259D01*
X811969Y513261D01*
X811969Y513262D02*
X812071Y513260D01*
X812173Y513255D01*
X812275Y513246D01*
X812376Y513233D01*
X812477Y513216D01*
X812577Y513197D01*
X812677Y513173D01*
X812775Y513146D01*
X812873Y513115D01*
X812969Y513081D01*
X813064Y513044D01*
X813158Y513003D01*
X813250Y512959D01*
X813340Y512911D01*
X813429Y512861D01*
X813516Y512807D01*
X813601Y512750D01*
X813684Y512690D01*
X811207Y510403D02*
X811142Y510444D01*
X811079Y510487D01*
X811019Y510534D01*
X810960Y510584D01*
X810905Y510636D01*
X810852Y510691D01*
X810801Y510749D01*
X810754Y510809D01*
X810710Y510872D01*
X810668Y510936D01*
X810630Y511002D01*
X810596Y511071D01*
X810565Y511141D01*
X810537Y511212D01*
X810513Y511284D01*
X810492Y511358D01*
X810475Y511433D01*
X810462Y511508D01*
X810453Y511584D01*
X810447Y511660D01*
X810445Y511737D01*
X813303Y509261D02*
X813368Y509220D01*
X813431Y509177D01*
X813491Y509130D01*
X813550Y509080D01*
X813605Y509028D01*
X813658Y508973D01*
X813709Y508915D01*
X813756Y508855D01*
X813800Y508792D01*
X813842Y508728D01*
X813880Y508662D01*
X813914Y508593D01*
X813945Y508523D01*
X813973Y508452D01*
X813997Y508380D01*
X814018Y508306D01*
X814035Y508231D01*
X814048Y508156D01*
X814057Y508080D01*
X814063Y508004D01*
X814065Y507927D01*
X813303Y509261D02*
X811207Y510404D01*
X821578Y513261D02*
X821578Y506403D01*
X823864Y509451D02*
X821578Y513261D01*
X823864Y509451D02*
X826150Y513261D01*
X826150Y506403D01*
X829899Y507927D02*
X829899Y509451D01*
X829901Y509528D01*
X829907Y509605D01*
X829917Y509682D01*
X829930Y509758D01*
X829948Y509833D01*
X829969Y509907D01*
X829994Y509980D01*
X830023Y510052D01*
X830055Y510122D01*
X830090Y510191D01*
X830130Y510257D01*
X830172Y510322D01*
X830218Y510384D01*
X830267Y510444D01*
X830318Y510501D01*
X830373Y510556D01*
X830430Y510607D01*
X830490Y510656D01*
X830552Y510702D01*
X830617Y510744D01*
X830683Y510784D01*
X830752Y510819D01*
X830822Y510851D01*
X830894Y510880D01*
X830967Y510905D01*
X831041Y510926D01*
X831116Y510944D01*
X831192Y510957D01*
X831269Y510967D01*
X831346Y510973D01*
X831423Y510975D01*
X831500Y510973D01*
X831577Y510967D01*
X831654Y510957D01*
X831730Y510944D01*
X831805Y510926D01*
X831879Y510905D01*
X831952Y510880D01*
X832024Y510851D01*
X832094Y510819D01*
X832163Y510784D01*
X832229Y510744D01*
X832294Y510702D01*
X832356Y510656D01*
X832416Y510607D01*
X832473Y510556D01*
X832528Y510501D01*
X832579Y510444D01*
X832628Y510384D01*
X832674Y510322D01*
X832716Y510257D01*
X832756Y510191D01*
X832791Y510122D01*
X832823Y510052D01*
X832852Y509980D01*
X832877Y509907D01*
X832898Y509833D01*
X832916Y509758D01*
X832929Y509682D01*
X832939Y509605D01*
X832945Y509528D01*
X832947Y509451D01*
X832947Y507927D01*
X832945Y507850D01*
X832939Y507773D01*
X832929Y507696D01*
X832916Y507620D01*
X832898Y507545D01*
X832877Y507471D01*
X832852Y507398D01*
X832823Y507326D01*
X832791Y507256D01*
X832756Y507187D01*
X832716Y507121D01*
X832674Y507056D01*
X832628Y506994D01*
X832579Y506934D01*
X832528Y506877D01*
X832473Y506822D01*
X832416Y506771D01*
X832356Y506722D01*
X832294Y506676D01*
X832229Y506634D01*
X832163Y506594D01*
X832094Y506559D01*
X832024Y506527D01*
X831952Y506498D01*
X831879Y506473D01*
X831805Y506452D01*
X831730Y506434D01*
X831654Y506421D01*
X831577Y506411D01*
X831500Y506405D01*
X831423Y506403D01*
X831346Y506405D01*
X831269Y506411D01*
X831192Y506421D01*
X831116Y506434D01*
X831041Y506452D01*
X830967Y506473D01*
X830894Y506498D01*
X830822Y506527D01*
X830752Y506559D01*
X830683Y506594D01*
X830617Y506634D01*
X830552Y506676D01*
X830490Y506722D01*
X830430Y506771D01*
X830373Y506822D01*
X830318Y506877D01*
X830267Y506934D01*
X830218Y506994D01*
X830172Y507056D01*
X830130Y507121D01*
X830090Y507187D01*
X830055Y507256D01*
X830023Y507326D01*
X829994Y507398D01*
X829969Y507471D01*
X829948Y507545D01*
X829930Y507620D01*
X829917Y507696D01*
X829907Y507773D01*
X829901Y507850D01*
X829899Y507927D01*
X839231Y506403D02*
X839231Y513261D01*
X839231Y506403D02*
X837326Y506403D01*
X837260Y506405D01*
X837193Y506411D01*
X837128Y506420D01*
X837062Y506434D01*
X836998Y506451D01*
X836935Y506472D01*
X836873Y506496D01*
X836813Y506525D01*
X836755Y506556D01*
X836698Y506591D01*
X836643Y506629D01*
X836591Y506670D01*
X836542Y506715D01*
X836495Y506762D01*
X836450Y506811D01*
X836409Y506863D01*
X836371Y506918D01*
X836336Y506975D01*
X836305Y507033D01*
X836276Y507093D01*
X836252Y507155D01*
X836231Y507218D01*
X836214Y507282D01*
X836200Y507348D01*
X836191Y507413D01*
X836185Y507480D01*
X836183Y507546D01*
X836183Y509832D01*
X836185Y509898D01*
X836191Y509965D01*
X836200Y510030D01*
X836214Y510096D01*
X836231Y510160D01*
X836252Y510223D01*
X836276Y510285D01*
X836305Y510345D01*
X836336Y510404D01*
X836371Y510460D01*
X836409Y510515D01*
X836450Y510567D01*
X836495Y510616D01*
X836542Y510663D01*
X836591Y510708D01*
X836643Y510749D01*
X836698Y510787D01*
X836755Y510822D01*
X836813Y510853D01*
X836873Y510882D01*
X836935Y510906D01*
X836998Y510927D01*
X837062Y510944D01*
X837128Y510958D01*
X837193Y510967D01*
X837260Y510973D01*
X837326Y510975D01*
X839231Y510975D01*
X843966Y506403D02*
X845871Y506403D01*
X843966Y506403D02*
X843900Y506405D01*
X843833Y506411D01*
X843768Y506420D01*
X843702Y506434D01*
X843638Y506451D01*
X843575Y506472D01*
X843513Y506496D01*
X843453Y506525D01*
X843395Y506556D01*
X843338Y506591D01*
X843283Y506629D01*
X843231Y506670D01*
X843182Y506715D01*
X843135Y506762D01*
X843090Y506811D01*
X843049Y506863D01*
X843011Y506918D01*
X842976Y506975D01*
X842945Y507033D01*
X842916Y507093D01*
X842892Y507155D01*
X842871Y507218D01*
X842854Y507282D01*
X842840Y507348D01*
X842831Y507413D01*
X842825Y507480D01*
X842823Y507546D01*
X842823Y509451D01*
X842825Y509528D01*
X842831Y509605D01*
X842841Y509682D01*
X842854Y509758D01*
X842872Y509833D01*
X842893Y509907D01*
X842918Y509980D01*
X842947Y510052D01*
X842979Y510122D01*
X843014Y510191D01*
X843054Y510257D01*
X843096Y510322D01*
X843142Y510384D01*
X843191Y510444D01*
X843242Y510501D01*
X843297Y510556D01*
X843354Y510607D01*
X843414Y510656D01*
X843476Y510702D01*
X843541Y510744D01*
X843607Y510784D01*
X843676Y510819D01*
X843746Y510851D01*
X843818Y510880D01*
X843891Y510905D01*
X843965Y510926D01*
X844040Y510944D01*
X844116Y510957D01*
X844193Y510967D01*
X844270Y510973D01*
X844347Y510975D01*
X844424Y510973D01*
X844501Y510967D01*
X844578Y510957D01*
X844654Y510944D01*
X844729Y510926D01*
X844803Y510905D01*
X844876Y510880D01*
X844948Y510851D01*
X845018Y510819D01*
X845087Y510784D01*
X845153Y510744D01*
X845218Y510702D01*
X845280Y510656D01*
X845340Y510607D01*
X845397Y510556D01*
X845452Y510501D01*
X845503Y510444D01*
X845552Y510384D01*
X845598Y510322D01*
X845640Y510257D01*
X845680Y510191D01*
X845715Y510122D01*
X845747Y510052D01*
X845776Y509980D01*
X845801Y509907D01*
X845822Y509833D01*
X845840Y509758D01*
X845853Y509682D01*
X845863Y509605D01*
X845869Y509528D01*
X845871Y509451D01*
X845871Y508689D01*
X842823Y508689D01*
X791183Y469827D02*
X789659Y469827D01*
X789582Y469829D01*
X789505Y469835D01*
X789428Y469845D01*
X789352Y469858D01*
X789277Y469876D01*
X789203Y469897D01*
X789130Y469922D01*
X789058Y469951D01*
X788988Y469983D01*
X788919Y470018D01*
X788853Y470058D01*
X788788Y470100D01*
X788726Y470146D01*
X788666Y470195D01*
X788609Y470246D01*
X788554Y470301D01*
X788503Y470358D01*
X788454Y470418D01*
X788408Y470480D01*
X788366Y470545D01*
X788326Y470611D01*
X788291Y470680D01*
X788259Y470750D01*
X788230Y470822D01*
X788205Y470895D01*
X788184Y470969D01*
X788166Y471044D01*
X788153Y471120D01*
X788143Y471197D01*
X788137Y471274D01*
X788135Y471351D01*
X788135Y475161D01*
X788137Y475238D01*
X788143Y475315D01*
X788153Y475392D01*
X788166Y475468D01*
X788184Y475543D01*
X788205Y475617D01*
X788230Y475690D01*
X788259Y475762D01*
X788291Y475832D01*
X788326Y475901D01*
X788366Y475967D01*
X788408Y476032D01*
X788454Y476094D01*
X788503Y476154D01*
X788554Y476211D01*
X788609Y476266D01*
X788666Y476317D01*
X788726Y476366D01*
X788788Y476412D01*
X788853Y476454D01*
X788919Y476494D01*
X788988Y476529D01*
X789058Y476561D01*
X789130Y476590D01*
X789203Y476615D01*
X789277Y476636D01*
X789352Y476654D01*
X789428Y476667D01*
X789505Y476677D01*
X789582Y476683D01*
X789659Y476685D01*
X791183Y476685D01*
X794369Y472494D02*
X798941Y472494D01*
X802172Y476685D02*
X804458Y469827D01*
X806744Y476685D01*
X810310Y476685D02*
X810310Y469827D01*
X809548Y469827D02*
X811072Y469827D01*
X811072Y476685D02*
X809548Y476685D01*
X814501Y476685D02*
X814501Y469827D01*
X814501Y476685D02*
X816406Y476685D01*
X816491Y476683D01*
X816577Y476677D01*
X816662Y476668D01*
X816746Y476654D01*
X816830Y476637D01*
X816913Y476616D01*
X816995Y476592D01*
X817075Y476564D01*
X817155Y476532D01*
X817233Y476496D01*
X817309Y476458D01*
X817383Y476415D01*
X817455Y476370D01*
X817526Y476321D01*
X817594Y476269D01*
X817659Y476215D01*
X817722Y476157D01*
X817783Y476096D01*
X817841Y476033D01*
X817895Y475968D01*
X817947Y475900D01*
X817996Y475829D01*
X818041Y475757D01*
X818084Y475683D01*
X818122Y475607D01*
X818158Y475529D01*
X818190Y475449D01*
X818218Y475369D01*
X818242Y475287D01*
X818263Y475204D01*
X818280Y475120D01*
X818294Y475036D01*
X818303Y474951D01*
X818309Y474865D01*
X818311Y474780D01*
X818311Y471732D01*
X818309Y471647D01*
X818303Y471561D01*
X818294Y471476D01*
X818280Y471392D01*
X818263Y471308D01*
X818242Y471225D01*
X818218Y471143D01*
X818190Y471063D01*
X818158Y470983D01*
X818122Y470905D01*
X818084Y470829D01*
X818041Y470755D01*
X817996Y470683D01*
X817947Y470612D01*
X817895Y470544D01*
X817841Y470479D01*
X817783Y470416D01*
X817722Y470355D01*
X817659Y470297D01*
X817594Y470243D01*
X817526Y470191D01*
X817455Y470142D01*
X817383Y470097D01*
X817309Y470054D01*
X817233Y470016D01*
X817155Y469980D01*
X817075Y469948D01*
X816995Y469920D01*
X816913Y469896D01*
X816830Y469875D01*
X816746Y469858D01*
X816662Y469844D01*
X816577Y469835D01*
X816491Y469829D01*
X816406Y469827D01*
X814501Y469827D01*
X822325Y469827D02*
X825373Y469827D01*
X822325Y469827D02*
X822325Y476685D01*
X825373Y476685D01*
X824611Y473637D02*
X822325Y473637D01*
X828400Y474780D02*
X828400Y471732D01*
X828400Y474780D02*
X828402Y474865D01*
X828408Y474951D01*
X828417Y475036D01*
X828431Y475120D01*
X828448Y475204D01*
X828469Y475287D01*
X828493Y475369D01*
X828521Y475449D01*
X828553Y475529D01*
X828589Y475607D01*
X828627Y475683D01*
X828670Y475757D01*
X828715Y475829D01*
X828764Y475900D01*
X828816Y475968D01*
X828870Y476033D01*
X828928Y476096D01*
X828989Y476157D01*
X829052Y476215D01*
X829117Y476269D01*
X829185Y476321D01*
X829256Y476370D01*
X829328Y476415D01*
X829402Y476458D01*
X829478Y476496D01*
X829556Y476532D01*
X829636Y476564D01*
X829716Y476592D01*
X829798Y476616D01*
X829881Y476637D01*
X829965Y476654D01*
X830049Y476668D01*
X830134Y476677D01*
X830220Y476683D01*
X830305Y476685D01*
X830390Y476683D01*
X830476Y476677D01*
X830561Y476668D01*
X830645Y476654D01*
X830729Y476637D01*
X830812Y476616D01*
X830894Y476592D01*
X830974Y476564D01*
X831054Y476532D01*
X831132Y476496D01*
X831208Y476458D01*
X831282Y476415D01*
X831354Y476370D01*
X831425Y476321D01*
X831493Y476269D01*
X831558Y476215D01*
X831621Y476157D01*
X831682Y476096D01*
X831740Y476033D01*
X831794Y475968D01*
X831846Y475900D01*
X831895Y475829D01*
X831940Y475757D01*
X831983Y475683D01*
X832021Y475607D01*
X832057Y475529D01*
X832089Y475449D01*
X832117Y475369D01*
X832141Y475287D01*
X832162Y475204D01*
X832179Y475120D01*
X832193Y475036D01*
X832202Y474951D01*
X832208Y474865D01*
X832210Y474780D01*
X832210Y471732D01*
X832208Y471647D01*
X832202Y471561D01*
X832193Y471476D01*
X832179Y471392D01*
X832162Y471308D01*
X832141Y471225D01*
X832117Y471143D01*
X832089Y471063D01*
X832057Y470983D01*
X832021Y470905D01*
X831983Y470829D01*
X831940Y470755D01*
X831895Y470683D01*
X831846Y470612D01*
X831794Y470544D01*
X831740Y470479D01*
X831682Y470416D01*
X831621Y470355D01*
X831558Y470297D01*
X831493Y470243D01*
X831425Y470191D01*
X831354Y470142D01*
X831282Y470097D01*
X831208Y470054D01*
X831132Y470016D01*
X831054Y469980D01*
X830974Y469948D01*
X830894Y469920D01*
X830812Y469896D01*
X830729Y469875D01*
X830645Y469858D01*
X830561Y469844D01*
X830476Y469835D01*
X830390Y469829D01*
X830305Y469827D01*
X830220Y469829D01*
X830134Y469835D01*
X830049Y469844D01*
X829965Y469858D01*
X829881Y469875D01*
X829798Y469896D01*
X829716Y469920D01*
X829636Y469948D01*
X829556Y469980D01*
X829478Y470016D01*
X829402Y470054D01*
X829328Y470097D01*
X829256Y470142D01*
X829185Y470191D01*
X829117Y470243D01*
X829052Y470297D01*
X828989Y470355D01*
X828928Y470416D01*
X828870Y470479D01*
X828816Y470544D01*
X828764Y470612D01*
X828715Y470683D01*
X828670Y470755D01*
X828627Y470829D01*
X828589Y470905D01*
X828553Y470983D01*
X828521Y471063D01*
X828493Y471143D01*
X828469Y471225D01*
X828448Y471308D01*
X828431Y471392D01*
X828417Y471476D01*
X828408Y471561D01*
X828402Y471647D01*
X828400Y471732D01*
X791183Y457635D02*
X789659Y457635D01*
X789582Y457637D01*
X789505Y457643D01*
X789428Y457653D01*
X789352Y457666D01*
X789277Y457684D01*
X789203Y457705D01*
X789130Y457730D01*
X789058Y457759D01*
X788988Y457791D01*
X788919Y457826D01*
X788853Y457866D01*
X788788Y457908D01*
X788726Y457954D01*
X788666Y458003D01*
X788609Y458054D01*
X788554Y458109D01*
X788503Y458166D01*
X788454Y458226D01*
X788408Y458288D01*
X788366Y458353D01*
X788326Y458419D01*
X788291Y458488D01*
X788259Y458558D01*
X788230Y458630D01*
X788205Y458703D01*
X788184Y458777D01*
X788166Y458852D01*
X788153Y458928D01*
X788143Y459005D01*
X788137Y459082D01*
X788135Y459159D01*
X788135Y462969D01*
X788137Y463046D01*
X788143Y463123D01*
X788153Y463200D01*
X788166Y463276D01*
X788184Y463351D01*
X788205Y463425D01*
X788230Y463498D01*
X788259Y463570D01*
X788291Y463640D01*
X788326Y463709D01*
X788366Y463775D01*
X788408Y463840D01*
X788454Y463902D01*
X788503Y463962D01*
X788554Y464019D01*
X788609Y464074D01*
X788666Y464125D01*
X788726Y464174D01*
X788788Y464220D01*
X788853Y464262D01*
X788919Y464302D01*
X788988Y464337D01*
X789058Y464369D01*
X789130Y464398D01*
X789203Y464423D01*
X789277Y464444D01*
X789352Y464462D01*
X789428Y464475D01*
X789505Y464485D01*
X789582Y464491D01*
X789659Y464493D01*
X791183Y464493D01*
X794156Y460683D02*
X794156Y459159D01*
X794156Y460683D02*
X794158Y460760D01*
X794164Y460837D01*
X794174Y460914D01*
X794187Y460990D01*
X794205Y461065D01*
X794226Y461139D01*
X794251Y461212D01*
X794280Y461284D01*
X794312Y461354D01*
X794347Y461423D01*
X794387Y461489D01*
X794429Y461554D01*
X794475Y461616D01*
X794524Y461676D01*
X794575Y461733D01*
X794630Y461788D01*
X794687Y461839D01*
X794747Y461888D01*
X794809Y461934D01*
X794874Y461976D01*
X794940Y462016D01*
X795009Y462051D01*
X795079Y462083D01*
X795151Y462112D01*
X795224Y462137D01*
X795298Y462158D01*
X795373Y462176D01*
X795449Y462189D01*
X795526Y462199D01*
X795603Y462205D01*
X795680Y462207D01*
X795757Y462205D01*
X795834Y462199D01*
X795911Y462189D01*
X795987Y462176D01*
X796062Y462158D01*
X796136Y462137D01*
X796209Y462112D01*
X796281Y462083D01*
X796351Y462051D01*
X796420Y462016D01*
X796486Y461976D01*
X796551Y461934D01*
X796613Y461888D01*
X796673Y461839D01*
X796730Y461788D01*
X796785Y461733D01*
X796836Y461676D01*
X796885Y461616D01*
X796931Y461554D01*
X796973Y461489D01*
X797013Y461423D01*
X797048Y461354D01*
X797080Y461284D01*
X797109Y461212D01*
X797134Y461139D01*
X797155Y461065D01*
X797173Y460990D01*
X797186Y460914D01*
X797196Y460837D01*
X797202Y460760D01*
X797204Y460683D01*
X797204Y459159D01*
X797202Y459082D01*
X797196Y459005D01*
X797186Y458928D01*
X797173Y458852D01*
X797155Y458777D01*
X797134Y458703D01*
X797109Y458630D01*
X797080Y458558D01*
X797048Y458488D01*
X797013Y458419D01*
X796973Y458353D01*
X796931Y458288D01*
X796885Y458226D01*
X796836Y458166D01*
X796785Y458109D01*
X796730Y458054D01*
X796673Y458003D01*
X796613Y457954D01*
X796551Y457908D01*
X796486Y457866D01*
X796420Y457826D01*
X796351Y457791D01*
X796281Y457759D01*
X796209Y457730D01*
X796136Y457705D01*
X796062Y457684D01*
X795987Y457666D01*
X795911Y457653D01*
X795834Y457643D01*
X795757Y457637D01*
X795680Y457635D01*
X795603Y457637D01*
X795526Y457643D01*
X795449Y457653D01*
X795373Y457666D01*
X795298Y457684D01*
X795224Y457705D01*
X795151Y457730D01*
X795079Y457759D01*
X795009Y457791D01*
X794940Y457826D01*
X794874Y457866D01*
X794809Y457908D01*
X794747Y457954D01*
X794687Y458003D01*
X794630Y458054D01*
X794575Y458109D01*
X794524Y458166D01*
X794475Y458226D01*
X794429Y458288D01*
X794387Y458353D01*
X794347Y458419D01*
X794312Y458488D01*
X794280Y458558D01*
X794251Y458630D01*
X794226Y458703D01*
X794205Y458777D01*
X794187Y458852D01*
X794174Y458928D01*
X794164Y459005D01*
X794158Y459082D01*
X794156Y459159D01*
X800953Y457635D02*
X800953Y462207D01*
X804382Y462207D01*
X804448Y462205D01*
X804515Y462199D01*
X804580Y462190D01*
X804646Y462176D01*
X804710Y462159D01*
X804773Y462138D01*
X804835Y462114D01*
X804895Y462085D01*
X804954Y462054D01*
X805010Y462019D01*
X805065Y461981D01*
X805117Y461940D01*
X805166Y461895D01*
X805213Y461848D01*
X805258Y461799D01*
X805299Y461747D01*
X805337Y461692D01*
X805372Y461636D01*
X805403Y461577D01*
X805432Y461517D01*
X805456Y461455D01*
X805477Y461392D01*
X805494Y461328D01*
X805508Y461262D01*
X805517Y461197D01*
X805523Y461130D01*
X805525Y461064D01*
X805525Y457635D01*
X803239Y457635D02*
X803239Y462207D01*
X809573Y462207D02*
X809573Y455349D01*
X809573Y462207D02*
X811478Y462207D01*
X811544Y462205D01*
X811611Y462199D01*
X811676Y462190D01*
X811742Y462176D01*
X811806Y462159D01*
X811869Y462138D01*
X811931Y462114D01*
X811991Y462085D01*
X812050Y462054D01*
X812106Y462019D01*
X812161Y461981D01*
X812213Y461940D01*
X812262Y461895D01*
X812309Y461848D01*
X812354Y461799D01*
X812395Y461747D01*
X812433Y461692D01*
X812468Y461636D01*
X812499Y461577D01*
X812528Y461517D01*
X812552Y461455D01*
X812573Y461392D01*
X812590Y461328D01*
X812604Y461262D01*
X812613Y461197D01*
X812619Y461130D01*
X812621Y461064D01*
X812621Y458778D01*
X812619Y458712D01*
X812613Y458645D01*
X812604Y458580D01*
X812590Y458514D01*
X812573Y458450D01*
X812552Y458387D01*
X812528Y458325D01*
X812499Y458265D01*
X812468Y458207D01*
X812433Y458150D01*
X812395Y458095D01*
X812354Y458043D01*
X812309Y457994D01*
X812262Y457947D01*
X812213Y457902D01*
X812161Y457861D01*
X812106Y457823D01*
X812050Y457788D01*
X811991Y457757D01*
X811931Y457728D01*
X811869Y457704D01*
X811806Y457683D01*
X811742Y457666D01*
X811676Y457652D01*
X811611Y457643D01*
X811544Y457637D01*
X811478Y457635D01*
X809573Y457635D01*
X815857Y459159D02*
X815857Y460683D01*
X815859Y460760D01*
X815865Y460837D01*
X815875Y460914D01*
X815888Y460990D01*
X815906Y461065D01*
X815927Y461139D01*
X815952Y461212D01*
X815981Y461284D01*
X816013Y461354D01*
X816048Y461423D01*
X816088Y461489D01*
X816130Y461554D01*
X816176Y461616D01*
X816225Y461676D01*
X816276Y461733D01*
X816331Y461788D01*
X816388Y461839D01*
X816448Y461888D01*
X816510Y461934D01*
X816575Y461976D01*
X816641Y462016D01*
X816710Y462051D01*
X816780Y462083D01*
X816852Y462112D01*
X816925Y462137D01*
X816999Y462158D01*
X817074Y462176D01*
X817150Y462189D01*
X817227Y462199D01*
X817304Y462205D01*
X817381Y462207D01*
X817458Y462205D01*
X817535Y462199D01*
X817612Y462189D01*
X817688Y462176D01*
X817763Y462158D01*
X817837Y462137D01*
X817910Y462112D01*
X817982Y462083D01*
X818052Y462051D01*
X818121Y462016D01*
X818187Y461976D01*
X818252Y461934D01*
X818314Y461888D01*
X818374Y461839D01*
X818431Y461788D01*
X818486Y461733D01*
X818537Y461676D01*
X818586Y461616D01*
X818632Y461554D01*
X818674Y461489D01*
X818714Y461423D01*
X818749Y461354D01*
X818781Y461284D01*
X818810Y461212D01*
X818835Y461139D01*
X818856Y461065D01*
X818874Y460990D01*
X818887Y460914D01*
X818897Y460837D01*
X818903Y460760D01*
X818905Y460683D01*
X818905Y459159D01*
X818903Y459082D01*
X818897Y459005D01*
X818887Y458928D01*
X818874Y458852D01*
X818856Y458777D01*
X818835Y458703D01*
X818810Y458630D01*
X818781Y458558D01*
X818749Y458488D01*
X818714Y458419D01*
X818674Y458353D01*
X818632Y458288D01*
X818586Y458226D01*
X818537Y458166D01*
X818486Y458109D01*
X818431Y458054D01*
X818374Y458003D01*
X818314Y457954D01*
X818252Y457908D01*
X818187Y457866D01*
X818121Y457826D01*
X818052Y457791D01*
X817982Y457759D01*
X817910Y457730D01*
X817837Y457705D01*
X817763Y457684D01*
X817688Y457666D01*
X817612Y457653D01*
X817535Y457643D01*
X817458Y457637D01*
X817381Y457635D01*
X817304Y457637D01*
X817227Y457643D01*
X817150Y457653D01*
X817074Y457666D01*
X816999Y457684D01*
X816925Y457705D01*
X816852Y457730D01*
X816780Y457759D01*
X816710Y457791D01*
X816641Y457826D01*
X816575Y457866D01*
X816510Y457908D01*
X816448Y457954D01*
X816388Y458003D01*
X816331Y458054D01*
X816276Y458109D01*
X816225Y458166D01*
X816176Y458226D01*
X816130Y458288D01*
X816088Y458353D01*
X816048Y458419D01*
X816013Y458488D01*
X815981Y458558D01*
X815952Y458630D01*
X815927Y458703D01*
X815906Y458777D01*
X815888Y458852D01*
X815875Y458928D01*
X815865Y459005D01*
X815859Y459082D01*
X815857Y459159D01*
X822769Y460302D02*
X824674Y459540D01*
X822769Y460302D02*
X822712Y460327D01*
X822657Y460355D01*
X822603Y460387D01*
X822552Y460422D01*
X822503Y460461D01*
X822456Y460502D01*
X822412Y460546D01*
X822371Y460593D01*
X822333Y460643D01*
X822299Y460695D01*
X822267Y460748D01*
X822239Y460804D01*
X822215Y460861D01*
X822194Y460920D01*
X822177Y460980D01*
X822164Y461041D01*
X822155Y461103D01*
X822149Y461165D01*
X822148Y461227D01*
X822151Y461289D01*
X822157Y461351D01*
X822167Y461413D01*
X822181Y461473D01*
X822199Y461533D01*
X822221Y461592D01*
X822246Y461648D01*
X822275Y461704D01*
X822307Y461757D01*
X822343Y461808D01*
X822382Y461857D01*
X822423Y461903D01*
X822468Y461947D01*
X822515Y461988D01*
X822565Y462025D01*
X822617Y462060D01*
X822671Y462091D01*
X822727Y462118D01*
X822784Y462142D01*
X822843Y462163D01*
X822903Y462179D01*
X822964Y462192D01*
X823026Y462201D01*
X823088Y462206D01*
X823150Y462207D01*
X823276Y462203D01*
X823402Y462196D01*
X823528Y462185D01*
X823654Y462170D01*
X823779Y462152D01*
X823903Y462130D01*
X824027Y462104D01*
X824150Y462075D01*
X824272Y462042D01*
X824393Y462006D01*
X824512Y461966D01*
X824631Y461922D01*
X824748Y461876D01*
X824864Y461826D01*
X824674Y459540D02*
X824731Y459515D01*
X824786Y459487D01*
X824840Y459455D01*
X824891Y459420D01*
X824940Y459381D01*
X824987Y459340D01*
X825031Y459296D01*
X825072Y459249D01*
X825110Y459199D01*
X825144Y459147D01*
X825176Y459094D01*
X825204Y459038D01*
X825228Y458981D01*
X825249Y458922D01*
X825266Y458862D01*
X825279Y458801D01*
X825288Y458739D01*
X825294Y458677D01*
X825295Y458615D01*
X825292Y458553D01*
X825286Y458491D01*
X825276Y458429D01*
X825262Y458369D01*
X825244Y458309D01*
X825222Y458250D01*
X825197Y458194D01*
X825168Y458138D01*
X825136Y458085D01*
X825100Y458034D01*
X825061Y457985D01*
X825020Y457939D01*
X824975Y457895D01*
X824928Y457854D01*
X824878Y457817D01*
X824826Y457782D01*
X824772Y457751D01*
X824716Y457724D01*
X824659Y457700D01*
X824600Y457679D01*
X824540Y457663D01*
X824479Y457650D01*
X824417Y457641D01*
X824355Y457636D01*
X824293Y457635D01*
X824140Y457639D01*
X823987Y457646D01*
X823835Y457657D01*
X823683Y457672D01*
X823531Y457691D01*
X823380Y457713D01*
X823229Y457738D01*
X823079Y457767D01*
X822930Y457800D01*
X822781Y457836D01*
X822634Y457876D01*
X822487Y457919D01*
X822341Y457966D01*
X822197Y458016D01*
X828354Y457635D02*
X828354Y462207D01*
X828164Y464112D02*
X828164Y464493D01*
X828545Y464493D01*
X828545Y464112D01*
X828164Y464112D01*
X830781Y462207D02*
X833067Y462207D01*
X831543Y464493D02*
X831543Y458778D01*
X831545Y458712D01*
X831551Y458645D01*
X831560Y458580D01*
X831574Y458514D01*
X831591Y458450D01*
X831612Y458387D01*
X831636Y458325D01*
X831665Y458265D01*
X831696Y458207D01*
X831731Y458150D01*
X831769Y458095D01*
X831810Y458043D01*
X831855Y457994D01*
X831902Y457947D01*
X831951Y457902D01*
X832003Y457861D01*
X832058Y457823D01*
X832115Y457788D01*
X832173Y457757D01*
X832233Y457728D01*
X832295Y457704D01*
X832358Y457683D01*
X832422Y457666D01*
X832488Y457652D01*
X832553Y457643D01*
X832620Y457637D01*
X832686Y457635D01*
X833067Y457635D01*
X837239Y457635D02*
X839144Y457635D01*
X837239Y457635D02*
X837173Y457637D01*
X837106Y457643D01*
X837041Y457652D01*
X836975Y457666D01*
X836911Y457683D01*
X836848Y457704D01*
X836786Y457728D01*
X836726Y457757D01*
X836668Y457788D01*
X836611Y457823D01*
X836556Y457861D01*
X836504Y457902D01*
X836455Y457947D01*
X836408Y457994D01*
X836363Y458043D01*
X836322Y458095D01*
X836284Y458150D01*
X836249Y458207D01*
X836218Y458265D01*
X836189Y458325D01*
X836165Y458387D01*
X836144Y458450D01*
X836127Y458514D01*
X836113Y458580D01*
X836104Y458645D01*
X836098Y458712D01*
X836096Y458778D01*
X836096Y460683D01*
X836098Y460760D01*
X836104Y460837D01*
X836114Y460914D01*
X836127Y460990D01*
X836145Y461065D01*
X836166Y461139D01*
X836191Y461212D01*
X836220Y461284D01*
X836252Y461354D01*
X836287Y461423D01*
X836327Y461489D01*
X836369Y461554D01*
X836415Y461616D01*
X836464Y461676D01*
X836515Y461733D01*
X836570Y461788D01*
X836627Y461839D01*
X836687Y461888D01*
X836749Y461934D01*
X836814Y461976D01*
X836880Y462016D01*
X836949Y462051D01*
X837019Y462083D01*
X837091Y462112D01*
X837164Y462137D01*
X837238Y462158D01*
X837313Y462176D01*
X837389Y462189D01*
X837466Y462199D01*
X837543Y462205D01*
X837620Y462207D01*
X837697Y462205D01*
X837774Y462199D01*
X837851Y462189D01*
X837927Y462176D01*
X838002Y462158D01*
X838076Y462137D01*
X838149Y462112D01*
X838221Y462083D01*
X838291Y462051D01*
X838360Y462016D01*
X838426Y461976D01*
X838491Y461934D01*
X838553Y461888D01*
X838613Y461839D01*
X838670Y461788D01*
X838725Y461733D01*
X838776Y461676D01*
X838825Y461616D01*
X838871Y461554D01*
X838913Y461489D01*
X838953Y461423D01*
X838988Y461354D01*
X839020Y461284D01*
X839049Y461212D01*
X839074Y461139D01*
X839095Y461065D01*
X839113Y460990D01*
X839126Y460914D01*
X839136Y460837D01*
X839142Y460760D01*
X839144Y460683D01*
X839144Y459921D01*
X836096Y459921D01*
X846794Y457635D02*
X846794Y464493D01*
X849080Y460683D01*
X851366Y464493D01*
X851366Y457635D01*
X855115Y459159D02*
X855115Y460683D01*
X855117Y460760D01*
X855123Y460837D01*
X855133Y460914D01*
X855146Y460990D01*
X855164Y461065D01*
X855185Y461139D01*
X855210Y461212D01*
X855239Y461284D01*
X855271Y461354D01*
X855306Y461423D01*
X855346Y461489D01*
X855388Y461554D01*
X855434Y461616D01*
X855483Y461676D01*
X855534Y461733D01*
X855589Y461788D01*
X855646Y461839D01*
X855706Y461888D01*
X855768Y461934D01*
X855833Y461976D01*
X855899Y462016D01*
X855968Y462051D01*
X856038Y462083D01*
X856110Y462112D01*
X856183Y462137D01*
X856257Y462158D01*
X856332Y462176D01*
X856408Y462189D01*
X856485Y462199D01*
X856562Y462205D01*
X856639Y462207D01*
X856716Y462205D01*
X856793Y462199D01*
X856870Y462189D01*
X856946Y462176D01*
X857021Y462158D01*
X857095Y462137D01*
X857168Y462112D01*
X857240Y462083D01*
X857310Y462051D01*
X857379Y462016D01*
X857445Y461976D01*
X857510Y461934D01*
X857572Y461888D01*
X857632Y461839D01*
X857689Y461788D01*
X857744Y461733D01*
X857795Y461676D01*
X857844Y461616D01*
X857890Y461554D01*
X857932Y461489D01*
X857972Y461423D01*
X858007Y461354D01*
X858039Y461284D01*
X858068Y461212D01*
X858093Y461139D01*
X858114Y461065D01*
X858132Y460990D01*
X858145Y460914D01*
X858155Y460837D01*
X858161Y460760D01*
X858163Y460683D01*
X858163Y459159D01*
X858161Y459082D01*
X858155Y459005D01*
X858145Y458928D01*
X858132Y458852D01*
X858114Y458777D01*
X858093Y458703D01*
X858068Y458630D01*
X858039Y458558D01*
X858007Y458488D01*
X857972Y458419D01*
X857932Y458353D01*
X857890Y458288D01*
X857844Y458226D01*
X857795Y458166D01*
X857744Y458109D01*
X857689Y458054D01*
X857632Y458003D01*
X857572Y457954D01*
X857510Y457908D01*
X857445Y457866D01*
X857379Y457826D01*
X857310Y457791D01*
X857240Y457759D01*
X857168Y457730D01*
X857095Y457705D01*
X857021Y457684D01*
X856946Y457666D01*
X856870Y457653D01*
X856793Y457643D01*
X856716Y457637D01*
X856639Y457635D01*
X856562Y457637D01*
X856485Y457643D01*
X856408Y457653D01*
X856332Y457666D01*
X856257Y457684D01*
X856183Y457705D01*
X856110Y457730D01*
X856038Y457759D01*
X855968Y457791D01*
X855899Y457826D01*
X855833Y457866D01*
X855768Y457908D01*
X855706Y457954D01*
X855646Y458003D01*
X855589Y458054D01*
X855534Y458109D01*
X855483Y458166D01*
X855434Y458226D01*
X855388Y458288D01*
X855346Y458353D01*
X855306Y458419D01*
X855271Y458488D01*
X855239Y458558D01*
X855210Y458630D01*
X855185Y458703D01*
X855164Y458777D01*
X855146Y458852D01*
X855133Y458928D01*
X855123Y459005D01*
X855117Y459082D01*
X855115Y459159D01*
X864448Y457635D02*
X864448Y464493D01*
X864448Y457635D02*
X862543Y457635D01*
X862477Y457637D01*
X862410Y457643D01*
X862345Y457652D01*
X862279Y457666D01*
X862215Y457683D01*
X862152Y457704D01*
X862090Y457728D01*
X862030Y457757D01*
X861972Y457788D01*
X861915Y457823D01*
X861860Y457861D01*
X861808Y457902D01*
X861759Y457947D01*
X861712Y457994D01*
X861667Y458043D01*
X861626Y458095D01*
X861588Y458150D01*
X861553Y458207D01*
X861522Y458265D01*
X861493Y458325D01*
X861469Y458387D01*
X861448Y458450D01*
X861431Y458514D01*
X861417Y458580D01*
X861408Y458645D01*
X861402Y458712D01*
X861400Y458778D01*
X861400Y461064D01*
X861402Y461130D01*
X861408Y461197D01*
X861417Y461262D01*
X861431Y461328D01*
X861448Y461392D01*
X861469Y461455D01*
X861493Y461517D01*
X861522Y461577D01*
X861553Y461636D01*
X861588Y461692D01*
X861626Y461747D01*
X861667Y461799D01*
X861712Y461848D01*
X861759Y461895D01*
X861808Y461940D01*
X861860Y461981D01*
X861915Y462019D01*
X861972Y462054D01*
X862030Y462085D01*
X862090Y462114D01*
X862152Y462138D01*
X862215Y462159D01*
X862279Y462176D01*
X862345Y462190D01*
X862410Y462199D01*
X862477Y462205D01*
X862543Y462207D01*
X864448Y462207D01*
X869182Y457635D02*
X871087Y457635D01*
X869182Y457635D02*
X869116Y457637D01*
X869049Y457643D01*
X868984Y457652D01*
X868918Y457666D01*
X868854Y457683D01*
X868791Y457704D01*
X868729Y457728D01*
X868669Y457757D01*
X868611Y457788D01*
X868554Y457823D01*
X868499Y457861D01*
X868447Y457902D01*
X868398Y457947D01*
X868351Y457994D01*
X868306Y458043D01*
X868265Y458095D01*
X868227Y458150D01*
X868192Y458207D01*
X868161Y458265D01*
X868132Y458325D01*
X868108Y458387D01*
X868087Y458450D01*
X868070Y458514D01*
X868056Y458580D01*
X868047Y458645D01*
X868041Y458712D01*
X868039Y458778D01*
X868039Y460683D01*
X868041Y460760D01*
X868047Y460837D01*
X868057Y460914D01*
X868070Y460990D01*
X868088Y461065D01*
X868109Y461139D01*
X868134Y461212D01*
X868163Y461284D01*
X868195Y461354D01*
X868230Y461423D01*
X868270Y461489D01*
X868312Y461554D01*
X868358Y461616D01*
X868407Y461676D01*
X868458Y461733D01*
X868513Y461788D01*
X868570Y461839D01*
X868630Y461888D01*
X868692Y461934D01*
X868757Y461976D01*
X868823Y462016D01*
X868892Y462051D01*
X868962Y462083D01*
X869034Y462112D01*
X869107Y462137D01*
X869181Y462158D01*
X869256Y462176D01*
X869332Y462189D01*
X869409Y462199D01*
X869486Y462205D01*
X869563Y462207D01*
X869640Y462205D01*
X869717Y462199D01*
X869794Y462189D01*
X869870Y462176D01*
X869945Y462158D01*
X870019Y462137D01*
X870092Y462112D01*
X870164Y462083D01*
X870234Y462051D01*
X870303Y462016D01*
X870369Y461976D01*
X870434Y461934D01*
X870496Y461888D01*
X870556Y461839D01*
X870613Y461788D01*
X870668Y461733D01*
X870719Y461676D01*
X870768Y461616D01*
X870814Y461554D01*
X870856Y461489D01*
X870896Y461423D01*
X870931Y461354D01*
X870963Y461284D01*
X870992Y461212D01*
X871017Y461139D01*
X871038Y461065D01*
X871056Y460990D01*
X871069Y460914D01*
X871079Y460837D01*
X871085Y460760D01*
X871087Y460683D01*
X871087Y459921D01*
X868039Y459921D01*
D12*
X856000Y521000D02*
X839000Y521000D01*
X849000Y528000D02*
X856000Y521000D01*
X849000Y514000D01*
X856000Y480000D02*
X839000Y480000D01*
X849000Y487000D02*
X856000Y480000D01*
X849000Y473000D01*
D13*
X624950Y391800D02*
X618600Y385450D01*
X618600Y372750D02*
X624950Y366400D01*
X618600Y360050D01*
X618600Y347350D02*
X624950Y341000D01*
X618600Y334650D01*
X618600Y321950D02*
X624950Y315600D01*
X618600Y309250D01*
X618600Y296550D02*
X624950Y290200D01*
X624950Y391800D02*
X663050Y391800D01*
X669400Y385450D01*
X669400Y372750D01*
X663050Y366400D01*
X669400Y360050D01*
X669400Y347350D01*
X663050Y341000D01*
X669400Y334650D01*
X669400Y321950D01*
X663050Y315600D01*
X669400Y309250D01*
X669400Y296550D01*
X663050Y290200D01*
X624950Y290200D01*
X618600Y296550D02*
X618600Y309250D01*
X618600Y321950D02*
X618600Y334650D01*
X618600Y347350D02*
X618600Y360050D01*
X618600Y372750D02*
X618600Y385450D01*
X616060Y385450D02*
X616060Y372750D01*
X618600Y385450D02*
X624950Y391800D01*
X663050Y391800D01*
X669400Y385450D01*
D14*
X631300Y379100D03*
X656700Y379100D03*
X656700Y353700D03*
X631300Y353700D03*
X656700Y328300D03*
X631300Y328300D03*
X656700Y302900D03*
X631300Y302900D03*
D13*
X904300Y414850D02*
X904300Y427550D01*
X910650Y433900D01*
X923350Y433900D02*
X929700Y427550D01*
X904300Y389450D02*
X910650Y383100D01*
X904300Y389450D02*
X904300Y402150D01*
X910650Y408500D01*
X923350Y408500D02*
X929700Y402150D01*
X929700Y389450D01*
X923350Y383100D01*
X910650Y408500D02*
X904300Y414850D01*
X923350Y408500D02*
X929700Y414850D01*
X929700Y427550D01*
X904300Y351350D02*
X904300Y338650D01*
X904300Y351350D02*
X910650Y357700D01*
X923350Y357700D02*
X929700Y351350D01*
X910650Y357700D02*
X904300Y364050D01*
X904300Y376750D01*
X910650Y383100D01*
X923350Y383100D02*
X929700Y376750D01*
X929700Y364050D01*
X923350Y357700D01*
X923350Y332300D02*
X910650Y332300D01*
X904300Y338650D01*
X923350Y332300D02*
X929700Y338650D01*
X929700Y351350D01*
X923350Y433900D02*
X910650Y433900D01*
D14*
X917000Y421200D03*
X917000Y395800D03*
X917000Y370400D03*
X917000Y345000D03*
D12*
X908700Y797350D02*
X902350Y803700D01*
X889650Y803700D02*
X883300Y797350D01*
X876950Y803700D01*
X864250Y803700D02*
X857900Y797350D01*
X851550Y803700D01*
X838850Y803700D02*
X832500Y797350D01*
X826150Y803700D01*
X813450Y803700D02*
X807100Y797350D01*
X908700Y797350D02*
X908700Y759250D01*
X902350Y752900D01*
X889650Y752900D01*
X883300Y759250D01*
X876950Y752900D01*
X864250Y752900D01*
X857900Y759250D01*
X851550Y752900D01*
X838850Y752900D01*
X832500Y759250D01*
X826150Y752900D01*
X813450Y752900D01*
X807100Y759250D01*
X883300Y759250D02*
X883300Y797350D01*
X857900Y797350D02*
X857900Y759250D01*
X832500Y759250D02*
X832500Y797350D01*
X807100Y797350D02*
X807100Y759250D01*
X813450Y803700D02*
X826150Y803700D01*
X838850Y803700D02*
X851550Y803700D01*
X864250Y803700D02*
X876950Y803700D01*
X889650Y803700D02*
X902350Y803700D01*
X807100Y797350D02*
X800750Y803700D01*
X788050Y803700D02*
X781700Y797350D01*
X807100Y759250D02*
X800750Y752900D01*
X788050Y752900D01*
X781700Y759250D01*
X781700Y797350D01*
X788050Y803700D02*
X800750Y803700D01*
D13*
X889650Y807510D02*
X902350Y807510D01*
D14*
X896000Y791000D03*
X896000Y765600D03*
X870600Y765600D03*
X870600Y791000D03*
X845200Y765600D03*
X845200Y791000D03*
X794400Y765600D03*
X794400Y791000D03*
X819800Y791000D03*
X819800Y765600D03*
D13*
X947700Y560150D02*
X947700Y547450D01*
X941350Y541100D01*
X928650Y541100D02*
X922300Y547450D01*
X947700Y585550D02*
X941350Y591900D01*
X947700Y585550D02*
X947700Y572850D01*
X941350Y566500D01*
X928650Y566500D02*
X922300Y572850D01*
X922300Y585550D01*
X928650Y591900D01*
X941350Y566500D02*
X947700Y560150D01*
X928650Y566500D02*
X922300Y560150D01*
X922300Y547450D01*
X947700Y623650D02*
X947700Y636350D01*
X947700Y623650D02*
X941350Y617300D01*
X928650Y617300D02*
X922300Y623650D01*
X941350Y617300D02*
X947700Y610950D01*
X947700Y598250D01*
X941350Y591900D01*
X928650Y591900D02*
X922300Y598250D01*
X922300Y610950D01*
X928650Y617300D01*
X928650Y642700D02*
X941350Y642700D01*
X947700Y636350D01*
X928650Y642700D02*
X922300Y636350D01*
X922300Y623650D01*
X928650Y541100D02*
X941350Y541100D01*
D14*
X935000Y553800D03*
X935000Y579200D03*
X935000Y604600D03*
X935000Y630000D03*
D15*
X766791Y88802D03*
D16*
X766837Y88893D03*
D17*
X766791Y88984D03*
D18*
X766837Y89076D03*
D19*
X766791Y89167D03*
D20*
X766791Y89259D03*
D21*
X766791Y89350D03*
D22*
X766791Y89442D03*
D23*
X766791Y89533D03*
D24*
X766837Y89625D03*
D25*
X766791Y89716D03*
D26*
X766837Y89807D03*
D27*
X766791Y89899D03*
D28*
X766791Y89990D03*
D29*
X766791Y90082D03*
D30*
X766837Y90173D03*
D31*
X766791Y90265D03*
D32*
X766791Y90356D03*
D33*
X766791Y90448D03*
D34*
X766791Y90539D03*
D35*
X766791Y90630D03*
D36*
X766791Y90722D03*
D37*
X766791Y90813D03*
D38*
X766791Y90905D03*
D39*
X766791Y90996D03*
D40*
X766791Y91088D03*
D41*
X766791Y91179D03*
D42*
X766791Y91270D03*
D43*
X766791Y91362D03*
D44*
X766791Y91453D03*
D45*
X766791Y91545D03*
D46*
X766791Y91636D03*
D47*
X766791Y91728D03*
D48*
X766791Y91819D03*
D49*
X766837Y91911D03*
D50*
X766791Y92002D03*
D51*
X766791Y92093D03*
D52*
X766791Y92185D03*
D53*
X766837Y92276D03*
D54*
X766791Y92368D03*
D55*
X766791Y92459D03*
D56*
X766791Y92551D03*
D57*
X766791Y92642D03*
D58*
X766837Y92734D03*
D59*
X766791Y92825D03*
D60*
X766837Y92916D03*
D61*
X766791Y93008D03*
D62*
X766837Y93099D03*
D63*
X766791Y93191D03*
D64*
X766791Y93282D03*
D65*
X766791Y93374D03*
D66*
X766791Y93465D03*
D67*
X766837Y93556D03*
D68*
X766791Y93648D03*
D69*
X766791Y93739D03*
D70*
X766837Y93831D03*
D71*
X766791Y93922D03*
D72*
X766791Y94014D03*
D73*
X766791Y94105D03*
D74*
X766837Y94197D03*
D75*
X766791Y94288D03*
D76*
X766791Y94379D03*
D77*
X766791Y94471D03*
D78*
X766837Y94562D03*
D79*
X766791Y94654D03*
D80*
X766791Y94745D03*
D81*
X766791Y94837D03*
D82*
X766791Y94928D03*
D83*
X766791Y95020D03*
D84*
X766791Y95111D03*
D85*
X766837Y95202D03*
D86*
X766791Y95294D03*
D87*
X766791Y95385D03*
D88*
X766791Y95477D03*
D89*
X766791Y95568D03*
D90*
X766791Y95660D03*
D91*
X766791Y95751D03*
D92*
X766791Y95842D03*
D93*
X766791Y95934D03*
D94*
X766791Y96025D03*
D95*
X766791Y96117D03*
D96*
X766791Y96208D03*
D97*
X766791Y96300D03*
D98*
X766791Y96391D03*
D99*
X766791Y96483D03*
D100*
X766791Y96574D03*
D101*
X766791Y96665D03*
D102*
X766791Y96757D03*
D103*
X766791Y96848D03*
D104*
X766837Y96940D03*
D105*
X766837Y97031D03*
D106*
X766791Y97123D03*
D107*
X766791Y97214D03*
D108*
X766791Y97306D03*
D109*
X766791Y97397D03*
D110*
X766791Y97488D03*
D111*
X766791Y97580D03*
D112*
X766837Y97671D03*
D113*
X766791Y97763D03*
D114*
X766791Y97854D03*
D115*
X766791Y97946D03*
D116*
X766791Y98037D03*
D117*
X766791Y98128D03*
D118*
X766837Y98220D03*
D119*
X766791Y98311D03*
D120*
X766791Y98403D03*
D121*
X766791Y98494D03*
D122*
X766837Y98586D03*
D123*
X766791Y98677D03*
D124*
X766791Y98769D03*
D125*
X766791Y98860D03*
D126*
X766837Y98951D03*
D127*
X766791Y99043D03*
D128*
X766791Y99134D03*
D129*
X766791Y99226D03*
D130*
X766837Y99317D03*
D131*
X766791Y99409D03*
D132*
X766791Y99500D03*
D133*
X766837Y99592D03*
D134*
X766791Y99683D03*
D135*
X766791Y99774D03*
D136*
X766837Y99866D03*
D137*
X766791Y99957D03*
D138*
X766791Y100049D03*
D139*
X766837Y100140D03*
D140*
X766791Y100232D03*
D141*
X766791Y100323D03*
D142*
X766837Y100414D03*
D143*
X766791Y100506D03*
D144*
X766791Y100597D03*
D145*
X766791Y100689D03*
D146*
X766791Y100780D03*
D147*
X766837Y100872D03*
D148*
X766791Y100963D03*
D149*
X766791Y101055D03*
D150*
X721163Y101146D03*
D151*
X735839Y101146D03*
D152*
X753761Y101146D03*
D153*
X781330Y101146D03*
D154*
X798612Y101146D03*
D155*
X813883Y101146D03*
D156*
X721117Y101237D03*
D157*
X735793Y101237D03*
D158*
X753349Y101237D03*
D159*
X781696Y101237D03*
D151*
X798566Y101237D03*
D160*
X813883Y101237D03*
D156*
X721117Y101329D03*
D161*
X735747Y101329D03*
D162*
X753121Y101329D03*
D154*
X781879Y101329D03*
D157*
X798521Y101329D03*
D163*
X813883Y101329D03*
D164*
X721071Y101420D03*
D165*
X735701Y101420D03*
D166*
X752846Y101420D03*
D167*
X782062Y101420D03*
D161*
X798475Y101420D03*
D168*
X813837Y101420D03*
D169*
X721025Y101512D03*
D170*
X735656Y101512D03*
D171*
X752664Y101512D03*
D172*
X782199Y101512D03*
D167*
X798429Y101512D03*
D173*
X813837Y101512D03*
D169*
X721025Y101603D03*
D174*
X735610Y101603D03*
D175*
X752526Y101603D03*
D176*
X782290Y101603D03*
D170*
X798384Y101603D03*
D177*
X813791Y101603D03*
D178*
X720980Y101695D03*
D179*
X735564Y101695D03*
D180*
X752389Y101695D03*
D181*
X782382Y101695D03*
D182*
X798338Y101695D03*
D183*
X813791Y101695D03*
D184*
X720980Y101786D03*
D172*
X735564Y101786D03*
D185*
X752252Y101786D03*
D186*
X782473Y101786D03*
D172*
X798292Y101786D03*
D187*
X813746Y101786D03*
D188*
X720934Y101878D03*
D189*
X735519Y101878D03*
D190*
X752115Y101878D03*
D191*
X782564Y101878D03*
D189*
X798246Y101878D03*
D192*
X813746Y101878D03*
D188*
X720934Y101969D03*
D176*
X735473Y101969D03*
D190*
X752024Y101969D03*
D193*
X782610Y101969D03*
D176*
X798201Y101969D03*
D194*
X813700Y101969D03*
D195*
X720888Y102060D03*
D196*
X735427Y102060D03*
D197*
X751932Y102060D03*
D198*
X782656Y102060D03*
D196*
X798155Y102060D03*
D199*
X813700Y102060D03*
D195*
X720888Y102152D03*
D200*
X735381Y102152D03*
D197*
X751841Y102152D03*
D201*
X782702Y102152D03*
D200*
X798109Y102152D03*
D202*
X813654Y102152D03*
D190*
X720842Y102243D03*
D203*
X735336Y102243D03*
D197*
X751749Y102243D03*
D152*
X782747Y102243D03*
D203*
X798064Y102243D03*
D204*
X813608Y102243D03*
D190*
X720842Y102335D03*
D186*
X735290Y102335D03*
D190*
X751658Y102335D03*
D205*
X782793Y102335D03*
D186*
X798018Y102335D03*
D206*
X813608Y102335D03*
D185*
X720797Y102426D03*
D207*
X735244Y102426D03*
D190*
X751566Y102426D03*
D208*
X782839Y102426D03*
D186*
X798018Y102426D03*
D209*
X813563Y102426D03*
D185*
X720797Y102518D03*
D210*
X735199Y102518D03*
D185*
X751521Y102518D03*
D208*
X782839Y102518D03*
D207*
X797972Y102518D03*
D211*
X813563Y102518D03*
D212*
X720751Y102609D03*
D213*
X735153Y102609D03*
D185*
X751429Y102609D03*
D214*
X782885Y102609D03*
D210*
X797926Y102609D03*
D215*
X813517Y102609D03*
D212*
X720751Y102700D03*
D216*
X735107Y102700D03*
D175*
X751338Y102700D03*
D217*
X782930Y102700D03*
D193*
X797881Y102700D03*
D218*
X813517Y102700D03*
D175*
X720705Y102792D03*
D201*
X735061Y102792D03*
D175*
X751246Y102792D03*
D217*
X782930Y102792D03*
D198*
X797835Y102792D03*
D219*
X813471Y102792D03*
D220*
X720705Y102883D03*
D221*
X735016Y102883D03*
D222*
X751201Y102883D03*
D223*
X782976Y102883D03*
D224*
X797789Y102883D03*
D225*
X813471Y102883D03*
D171*
X720660Y102975D03*
D205*
X734970Y102975D03*
D171*
X751109Y102975D03*
D226*
X782976Y102975D03*
D152*
X797744Y102975D03*
D150*
X813425Y102975D03*
D171*
X720660Y103066D03*
D208*
X734924Y103066D03*
D227*
X751063Y103066D03*
D226*
X782976Y103066D03*
D205*
X797698Y103066D03*
D164*
X813425Y103066D03*
D227*
X720614Y103158D03*
D214*
X734879Y103158D03*
D227*
X750972Y103158D03*
D228*
X783022Y103158D03*
D208*
X797652Y103158D03*
D169*
X813380Y103158D03*
D227*
X720614Y103249D03*
D214*
X734879Y103249D03*
D166*
X750926Y103249D03*
D228*
X783022Y103249D03*
D214*
X797606Y103249D03*
D184*
X813334Y103249D03*
D166*
X720568Y103341D03*
D217*
X734833Y103341D03*
D229*
X750881Y103341D03*
D228*
X783022Y103341D03*
D217*
X797561Y103341D03*
D230*
X813334Y103341D03*
D166*
X720568Y103432D03*
D226*
X734787Y103432D03*
D229*
X750789Y103432D03*
D158*
X783067Y103432D03*
D226*
X797515Y103432D03*
D185*
X813243Y103432D03*
D231*
X720522Y103523D03*
D228*
X734741Y103523D03*
D162*
X750743Y103523D03*
D158*
X783067Y103523D03*
D228*
X797469Y103523D03*
D175*
X813243Y103523D03*
D231*
X720522Y103615D03*
D158*
X734696Y103615D03*
D232*
X750698Y103615D03*
D158*
X783067Y103615D03*
X797423Y103615D03*
D171*
X813197Y103615D03*
D231*
X720522Y103706D03*
D233*
X734650Y103706D03*
D232*
X750606Y103706D03*
D234*
X783113Y103706D03*
D233*
X797378Y103706D03*
D166*
X813197Y103706D03*
D235*
X720477Y103798D03*
D232*
X734604Y103798D03*
D233*
X750560Y103798D03*
D234*
X783113Y103798D03*
D233*
X797378Y103798D03*
D231*
X813151Y103798D03*
D235*
X720477Y103889D03*
D162*
X734558Y103889D03*
D158*
X750515Y103889D03*
D234*
X783113Y103889D03*
D232*
X797332Y103889D03*
D236*
X813151Y103889D03*
D237*
X720431Y103981D03*
D238*
X734513Y103981D03*
D223*
X750423Y103981D03*
D239*
X783113Y103981D03*
D240*
X797286Y103981D03*
D239*
X813105Y103981D03*
D236*
X720431Y104072D03*
D166*
X734467Y104072D03*
D226*
X750332Y104072D03*
D236*
X783159Y104072D03*
D231*
X797241Y104072D03*
D241*
X813060Y104072D03*
D234*
X720385Y104164D03*
D227*
X734421Y104164D03*
D217*
X750286Y104164D03*
D236*
X783159Y104164D03*
D166*
X797195Y104164D03*
D242*
X813060Y104164D03*
D234*
X720385Y104255D03*
D171*
X734376Y104255D03*
D214*
X750240Y104255D03*
D236*
X783159Y104255D03*
D227*
X797149Y104255D03*
D243*
X813014Y104255D03*
D234*
X720385Y104346D03*
D175*
X734330Y104346D03*
D208*
X750195Y104346D03*
D236*
X783159Y104346D03*
D171*
X797103Y104346D03*
D244*
X813014Y104346D03*
D241*
X720340Y104438D03*
D212*
X734284Y104438D03*
D245*
X750149Y104438D03*
D236*
X783159Y104438D03*
D175*
X797058Y104438D03*
D245*
X812968Y104438D03*
D241*
X720340Y104529D03*
D185*
X734238Y104529D03*
D246*
X750103Y104529D03*
D236*
X783159Y104529D03*
D212*
X797012Y104529D03*
D246*
X812923Y104529D03*
D247*
X720294Y104621D03*
D185*
X734238Y104621D03*
D152*
X750012Y104621D03*
D235*
X783205Y104621D03*
D185*
X796966Y104621D03*
D216*
X812923Y104621D03*
D247*
X720294Y104712D03*
D190*
X734193Y104712D03*
D201*
X749966Y104712D03*
D235*
X783205Y104712D03*
D190*
X796921Y104712D03*
D210*
X812831Y104712D03*
D247*
X720294Y104804D03*
D230*
X734147Y104804D03*
D198*
X749920Y104804D03*
D235*
X783205Y104804D03*
D230*
X796875Y104804D03*
D186*
X812831Y104804D03*
D226*
X720248Y104895D03*
D248*
X734101Y104895D03*
D193*
X749875Y104895D03*
D235*
X783205Y104895D03*
D248*
X796829Y104895D03*
D203*
X812785Y104895D03*
D226*
X720248Y104986D03*
D249*
X734056Y104986D03*
D191*
X749829Y104986D03*
D235*
X783205Y104986D03*
D249*
X796783Y104986D03*
D200*
X812740Y104986D03*
D217*
X720202Y105078D03*
D250*
X734010Y105078D03*
D251*
X749783Y105078D03*
D235*
X783205Y105078D03*
D169*
X796738Y105078D03*
D176*
X812740Y105078D03*
D252*
X720202Y105169D03*
D253*
X733964Y105169D03*
D254*
X749738Y105169D03*
D240*
X783205Y105169D03*
D255*
X796692Y105169D03*
D256*
X812694Y105169D03*
D217*
X720202Y105261D03*
D156*
X733918Y105261D03*
D257*
X749646Y105261D03*
D235*
X783205Y105261D03*
D164*
X796692Y105261D03*
D172*
X812648Y105261D03*
D214*
X720157Y105352D03*
D150*
X733873Y105352D03*
D258*
X749600Y105352D03*
D259*
X766883Y105352D03*
D235*
X783205Y105352D03*
D156*
X796646Y105352D03*
D170*
X812648Y105352D03*
D214*
X720157Y105444D03*
D260*
X733827Y105444D03*
D176*
X749555Y105444D03*
D259*
X766883Y105444D03*
D235*
X783205Y105444D03*
D150*
X796601Y105444D03*
D165*
X812603Y105444D03*
D214*
X720157Y105535D03*
D261*
X733781Y105535D03*
D189*
X749509Y105535D03*
D259*
X766883Y105535D03*
D231*
X783250Y105535D03*
D260*
X796555Y105535D03*
D157*
X812603Y105535D03*
D208*
X720111Y105627D03*
D219*
X733736Y105627D03*
D189*
X749417Y105627D03*
D259*
X766883Y105627D03*
D231*
X783250Y105627D03*
D261*
X796509Y105627D03*
D151*
X812557Y105627D03*
D208*
X720111Y105718D03*
D218*
X733690Y105718D03*
D172*
X749372Y105718D03*
D259*
X766883Y105718D03*
D231*
X783250Y105718D03*
D219*
X796463Y105718D03*
D154*
X812511Y105718D03*
D208*
X720111Y105809D03*
D262*
X733644Y105809D03*
D174*
X749326Y105809D03*
D259*
X766883Y105809D03*
D231*
X783250Y105809D03*
D218*
X796418Y105809D03*
D263*
X812511Y105809D03*
D205*
X720065Y105901D03*
D215*
X733598Y105901D03*
D170*
X749280Y105901D03*
D259*
X766883Y105901D03*
D231*
X783250Y105901D03*
D262*
X796372Y105901D03*
D264*
X812465Y105901D03*
D205*
X720065Y105992D03*
D211*
X733553Y105992D03*
D167*
X749235Y105992D03*
D259*
X766883Y105992D03*
D231*
X783250Y105992D03*
D215*
X796326Y105992D03*
D265*
X812374Y105992D03*
D205*
X720065Y106084D03*
D211*
X733553Y106084D03*
D266*
X749189Y106084D03*
D259*
X766883Y106084D03*
D231*
X783250Y106084D03*
D211*
X796280Y106084D03*
D267*
X812374Y106084D03*
D152*
X720020Y106175D03*
D268*
X733507Y106175D03*
D269*
X749143Y106175D03*
D259*
X766883Y106175D03*
D231*
X783250Y106175D03*
D268*
X796235Y106175D03*
D270*
X812328Y106175D03*
D221*
X720020Y106267D03*
D271*
X733461Y106267D03*
D272*
X749097Y106267D03*
D273*
X766883Y106267D03*
D238*
X783250Y106267D03*
D271*
X796189Y106267D03*
D274*
X812282Y106267D03*
D152*
X720020Y106358D03*
D206*
X733415Y106358D03*
D275*
X749052Y106358D03*
D259*
X766883Y106358D03*
D231*
X783250Y106358D03*
D276*
X796143Y106358D03*
D277*
X812237Y106358D03*
D201*
X719974Y106450D03*
D278*
X733370Y106450D03*
D279*
X749006Y106450D03*
D259*
X766883Y106450D03*
D231*
X783250Y106450D03*
D278*
X796098Y106450D03*
D153*
X812237Y106450D03*
D201*
X719974Y106541D03*
D280*
X733324Y106541D03*
D264*
X748915Y106541D03*
D259*
X766883Y106541D03*
D231*
X783250Y106541D03*
D280*
X796052Y106541D03*
D281*
X812191Y106541D03*
D201*
X719974Y106632D03*
D282*
X733278Y106632D03*
D159*
X748869Y106632D03*
D259*
X766883Y106632D03*
D231*
X783250Y106632D03*
D280*
X796052Y106632D03*
D283*
X812145Y106632D03*
D201*
X719974Y106724D03*
D284*
X733233Y106724D03*
D265*
X748823Y106724D03*
D259*
X766883Y106724D03*
D231*
X783250Y106724D03*
D282*
X796006Y106724D03*
D285*
X812145Y106724D03*
D198*
X719928Y106815D03*
D286*
X733187Y106815D03*
D287*
X748777Y106815D03*
D259*
X766883Y106815D03*
D231*
X783250Y106815D03*
D284*
X795960Y106815D03*
D288*
X812100Y106815D03*
D198*
X719928Y106907D03*
D199*
X733141Y106907D03*
D267*
X748732Y106907D03*
D259*
X766883Y106907D03*
D231*
X783250Y106907D03*
D286*
X795915Y106907D03*
D289*
X812054Y106907D03*
D198*
X719928Y106998D03*
D290*
X733095Y106998D03*
D270*
X748686Y106998D03*
D259*
X766883Y106998D03*
D231*
X783250Y106998D03*
D199*
X795869Y106998D03*
D291*
X812054Y106998D03*
D193*
X719882Y107090D03*
D292*
X733050Y107090D03*
D293*
X748640Y107090D03*
D259*
X766883Y107090D03*
D231*
X783250Y107090D03*
D290*
X795823Y107090D03*
D294*
X812008Y107090D03*
D193*
X719882Y107181D03*
D295*
X733004Y107181D03*
D277*
X748595Y107181D03*
D259*
X766883Y107181D03*
D231*
X783250Y107181D03*
D292*
X795778Y107181D03*
D296*
X811962Y107181D03*
D193*
X719882Y107272D03*
D297*
X732958Y107272D03*
D298*
X748549Y107272D03*
D259*
X766883Y107272D03*
D231*
X783250Y107272D03*
D295*
X795732Y107272D03*
D299*
X811871Y107272D03*
D193*
X719882Y107364D03*
D300*
X732913Y107364D03*
D301*
X748503Y107364D03*
D259*
X766883Y107364D03*
D231*
X783250Y107364D03*
D297*
X795686Y107364D03*
D302*
X811871Y107364D03*
D303*
X719837Y107455D03*
D304*
X732913Y107455D03*
D305*
X748457Y107455D03*
D273*
X766883Y107455D03*
D238*
X783250Y107455D03*
D304*
X795640Y107455D03*
D306*
X811825Y107455D03*
D191*
X719837Y107547D03*
D307*
X732867Y107547D03*
D308*
X748412Y107547D03*
D259*
X766883Y107547D03*
D231*
X783250Y107547D03*
D309*
X795595Y107547D03*
D310*
X811780Y107547D03*
D191*
X719837Y107638D03*
D311*
X732821Y107638D03*
D312*
X748366Y107638D03*
D259*
X766883Y107638D03*
D231*
X783250Y107638D03*
D313*
X795549Y107638D03*
D314*
X811734Y107638D03*
D191*
X719837Y107730D03*
D177*
X732775Y107730D03*
D285*
X748320Y107730D03*
D259*
X766883Y107730D03*
D231*
X783250Y107730D03*
D177*
X795503Y107730D03*
D315*
X811734Y107730D03*
D251*
X719791Y107821D03*
D173*
X732730Y107821D03*
D289*
X748229Y107821D03*
D259*
X766883Y107821D03*
D231*
X783250Y107821D03*
D173*
X795458Y107821D03*
D316*
X811688Y107821D03*
D251*
X719791Y107913D03*
D317*
X732684Y107913D03*
D318*
X748183Y107913D03*
D259*
X766883Y107913D03*
D231*
X783250Y107913D03*
D317*
X795412Y107913D03*
D319*
X811642Y107913D03*
D251*
X719791Y108004D03*
D168*
X732638Y108004D03*
D291*
X748137Y108004D03*
D259*
X766883Y108004D03*
D231*
X783250Y108004D03*
D168*
X795366Y108004D03*
D320*
X811597Y108004D03*
D251*
X719791Y108095D03*
D163*
X732593Y108095D03*
D294*
X748092Y108095D03*
D259*
X766883Y108095D03*
D231*
X783250Y108095D03*
D168*
X795366Y108095D03*
D321*
X811597Y108095D03*
D322*
X719745Y108187D03*
D323*
X732547Y108187D03*
D296*
X748046Y108187D03*
D259*
X766883Y108187D03*
D231*
X783250Y108187D03*
D163*
X795320Y108187D03*
D324*
X811551Y108187D03*
D322*
X719745Y108278D03*
D160*
X732501Y108278D03*
D325*
X748000Y108278D03*
D259*
X766883Y108278D03*
D231*
X783250Y108278D03*
D323*
X795275Y108278D03*
D326*
X811505Y108278D03*
D322*
X719745Y108370D03*
D327*
X732455Y108370D03*
D299*
X747954Y108370D03*
D259*
X766883Y108370D03*
D231*
X783250Y108370D03*
D160*
X795229Y108370D03*
D328*
X811460Y108370D03*
D322*
X719745Y108461D03*
D155*
X732410Y108461D03*
D329*
X747909Y108461D03*
D259*
X766883Y108461D03*
D231*
X783250Y108461D03*
D327*
X795183Y108461D03*
D330*
X811460Y108461D03*
D331*
X719699Y108553D03*
D332*
X732364Y108553D03*
D333*
X747863Y108553D03*
D273*
X766883Y108553D03*
D238*
X783250Y108553D03*
D334*
X795137Y108553D03*
D335*
X811368Y108553D03*
D203*
X719699Y108644D03*
D336*
X732318Y108644D03*
D337*
X747817Y108644D03*
D259*
X766883Y108644D03*
D231*
X783250Y108644D03*
D338*
X795092Y108644D03*
D339*
X811322Y108644D03*
D203*
X719699Y108736D03*
D340*
X732272Y108736D03*
D310*
X747772Y108736D03*
D259*
X766883Y108736D03*
D231*
X783250Y108736D03*
D336*
X795046Y108736D03*
D341*
X811277Y108736D03*
D203*
X719699Y108827D03*
D342*
X732227Y108827D03*
D314*
X747726Y108827D03*
D259*
X766883Y108827D03*
D231*
X783250Y108827D03*
D343*
X795000Y108827D03*
D344*
X811231Y108827D03*
D203*
X719699Y108918D03*
D342*
X732227Y108918D03*
D345*
X747680Y108918D03*
D259*
X766883Y108918D03*
D231*
X783250Y108918D03*
D342*
X794955Y108918D03*
D346*
X811231Y108918D03*
D200*
X719654Y109010D03*
D347*
X732181Y109010D03*
D315*
X747634Y109010D03*
D259*
X766883Y109010D03*
D231*
X783250Y109010D03*
D347*
X794909Y109010D03*
D348*
X811185Y109010D03*
D200*
X719654Y109101D03*
D349*
X732135Y109101D03*
D319*
X747543Y109101D03*
D259*
X766883Y109101D03*
D231*
X783250Y109101D03*
D349*
X794863Y109101D03*
D350*
X811139Y109101D03*
D200*
X719654Y109193D03*
D351*
X732090Y109193D03*
D320*
X747497Y109193D03*
D259*
X766883Y109193D03*
D231*
X783250Y109193D03*
D351*
X794817Y109193D03*
D352*
X811094Y109193D03*
D200*
X719654Y109284D03*
D353*
X732044Y109284D03*
D354*
X747452Y109284D03*
D259*
X766883Y109284D03*
D231*
X783250Y109284D03*
D353*
X794772Y109284D03*
D355*
X811048Y109284D03*
D200*
X719654Y109376D03*
D356*
X731998Y109376D03*
D357*
X747406Y109376D03*
D259*
X766883Y109376D03*
D231*
X783250Y109376D03*
D356*
X794726Y109376D03*
D358*
X811002Y109376D03*
D200*
X719654Y109467D03*
D359*
X731952Y109467D03*
D360*
X747360Y109467D03*
D259*
X766883Y109467D03*
D231*
X783250Y109467D03*
D356*
X794726Y109467D03*
D361*
X811002Y109467D03*
D196*
X719608Y109558D03*
D362*
X731907Y109558D03*
D360*
X747360Y109558D03*
D259*
X766883Y109558D03*
D231*
X783250Y109558D03*
D362*
X794726Y109558D03*
D363*
X810957Y109558D03*
D196*
X719608Y109650D03*
D167*
X749235Y109650D03*
D259*
X766883Y109650D03*
D231*
X783250Y109650D03*
D312*
X812831Y109650D03*
D364*
X719608Y109741D03*
D365*
X749463Y109741D03*
D273*
X766883Y109741D03*
D238*
X783250Y109741D03*
D366*
X813060Y109741D03*
D196*
X719608Y109833D03*
D367*
X749600Y109833D03*
D259*
X766883Y109833D03*
D231*
X783250Y109833D03*
D287*
X813243Y109833D03*
D196*
X719608Y109924D03*
D191*
X749738Y109924D03*
D259*
X766883Y109924D03*
D231*
X783250Y109924D03*
D264*
X813380Y109924D03*
D196*
X719608Y110016D03*
D201*
X749875Y110016D03*
D259*
X766883Y110016D03*
D231*
X783250Y110016D03*
D263*
X813517Y110016D03*
D176*
X719562Y110107D03*
D205*
X749966Y110107D03*
D259*
X766883Y110107D03*
D231*
X783250Y110107D03*
D154*
X813608Y110107D03*
D176*
X719562Y110199D03*
D214*
X750058Y110199D03*
D259*
X766883Y110199D03*
D231*
X783250Y110199D03*
D157*
X813700Y110199D03*
D176*
X719562Y110290D03*
D243*
X750103Y110290D03*
D259*
X766883Y110290D03*
D231*
X783250Y110290D03*
D165*
X813791Y110290D03*
D176*
X719562Y110381D03*
D242*
X750149Y110381D03*
D286*
X763179Y110381D03*
D231*
X783250Y110381D03*
D170*
X813837Y110381D03*
D176*
X719562Y110473D03*
D241*
X750240Y110473D03*
D286*
X763179Y110473D03*
D231*
X783250Y110473D03*
D174*
X813883Y110473D03*
D176*
X719562Y110564D03*
D234*
X750286Y110564D03*
D286*
X763179Y110564D03*
D231*
X783250Y110564D03*
D172*
X813928Y110564D03*
D176*
X719562Y110656D03*
D236*
X750332Y110656D03*
D286*
X763179Y110656D03*
D231*
X783250Y110656D03*
D172*
X814020Y110656D03*
D189*
X719517Y110747D03*
D235*
X750378Y110747D03*
D286*
X763179Y110747D03*
D231*
X783250Y110747D03*
D189*
X814066Y110747D03*
D256*
X719517Y110839D03*
D238*
X750423Y110839D03*
D368*
X763179Y110839D03*
D238*
X783250Y110839D03*
D365*
X814111Y110839D03*
D189*
X719517Y110930D03*
D231*
X750423Y110930D03*
D286*
X763179Y110930D03*
D231*
X783250Y110930D03*
D196*
X814157Y110930D03*
D189*
X719517Y111022D03*
D166*
X750469Y111022D03*
D286*
X763179Y111022D03*
D231*
X783250Y111022D03*
D200*
X814203Y111022D03*
D189*
X719517Y111113D03*
D227*
X750515Y111113D03*
D286*
X763179Y111113D03*
D231*
X783250Y111113D03*
D200*
X814203Y111113D03*
D189*
X719517Y111204D03*
D227*
X750515Y111204D03*
D286*
X763179Y111204D03*
D231*
X783250Y111204D03*
D203*
X814248Y111204D03*
D189*
X719517Y111296D03*
D171*
X750560Y111296D03*
D286*
X763179Y111296D03*
D231*
X783250Y111296D03*
D203*
X814248Y111296D03*
D189*
X719517Y111387D03*
D171*
X750560Y111387D03*
D286*
X763179Y111387D03*
D231*
X783250Y111387D03*
D186*
X814294Y111387D03*
D189*
X719517Y111479D03*
D175*
X750606Y111479D03*
D286*
X763179Y111479D03*
D231*
X783250Y111479D03*
D203*
X814340Y111479D03*
D189*
X719517Y111570D03*
D175*
X750606Y111570D03*
D286*
X763179Y111570D03*
D231*
X783250Y111570D03*
D186*
X814386Y111570D03*
D172*
X719471Y111662D03*
D212*
X750652Y111662D03*
D286*
X763179Y111662D03*
D231*
X783250Y111662D03*
D186*
X814386Y111662D03*
D172*
X719471Y111753D03*
D212*
X750652Y111753D03*
D286*
X763179Y111753D03*
D231*
X783250Y111753D03*
D207*
X814431Y111753D03*
D172*
X719471Y111844D03*
D212*
X750652Y111844D03*
D286*
X763179Y111844D03*
D231*
X783250Y111844D03*
D207*
X814431Y111844D03*
D172*
X719471Y111936D03*
D369*
X750698Y111936D03*
D286*
X763179Y111936D03*
D231*
X783250Y111936D03*
D207*
X814431Y111936D03*
D179*
X719471Y112027D03*
D370*
X750698Y112027D03*
D368*
X763179Y112027D03*
D238*
X783250Y112027D03*
D303*
X814477Y112027D03*
D172*
X719471Y112119D03*
D369*
X750698Y112119D03*
D286*
X763179Y112119D03*
D231*
X783250Y112119D03*
D191*
X814477Y112119D03*
D172*
X719471Y112210D03*
D197*
X750743Y112210D03*
D286*
X763179Y112210D03*
D231*
X783250Y112210D03*
D191*
X814477Y112210D03*
D172*
X719471Y112302D03*
D197*
X750743Y112302D03*
D286*
X763179Y112302D03*
D231*
X783250Y112302D03*
D191*
X814477Y112302D03*
D172*
X719471Y112393D03*
D197*
X750743Y112393D03*
D286*
X763179Y112393D03*
D231*
X783250Y112393D03*
D193*
X814523Y112393D03*
D172*
X719471Y112485D03*
D197*
X750743Y112485D03*
D286*
X763179Y112485D03*
D231*
X783250Y112485D03*
D193*
X814523Y112485D03*
D172*
X719471Y112576D03*
D197*
X750743Y112576D03*
D286*
X763179Y112576D03*
D231*
X783250Y112576D03*
D193*
X814523Y112576D03*
D172*
X719471Y112667D03*
D195*
X750789Y112667D03*
D286*
X763179Y112667D03*
D231*
X783250Y112667D03*
D193*
X814523Y112667D03*
D172*
X719471Y112759D03*
D195*
X750789Y112759D03*
D286*
X763179Y112759D03*
D231*
X783250Y112759D03*
D193*
X814523Y112759D03*
D172*
X719471Y112850D03*
D195*
X750789Y112850D03*
D286*
X763179Y112850D03*
D231*
X783250Y112850D03*
D191*
X814568Y112850D03*
D172*
X719471Y112942D03*
D195*
X750789Y112942D03*
D286*
X763179Y112942D03*
D231*
X783250Y112942D03*
D193*
X814614Y112942D03*
D172*
X719471Y113033D03*
D195*
X750789Y113033D03*
D286*
X763179Y113033D03*
D231*
X783250Y113033D03*
D193*
X814614Y113033D03*
D179*
X719471Y113125D03*
D371*
X750789Y113125D03*
D368*
X763179Y113125D03*
D238*
X783250Y113125D03*
D372*
X814614Y113125D03*
D172*
X719471Y113216D03*
D195*
X750789Y113216D03*
D286*
X763179Y113216D03*
D231*
X783250Y113216D03*
D193*
X814614Y113216D03*
D172*
X719471Y113308D03*
D195*
X750789Y113308D03*
D286*
X763179Y113308D03*
D231*
X783250Y113308D03*
D193*
X814614Y113308D03*
D172*
X719471Y113399D03*
D205*
X734970Y113399D03*
D195*
X750789Y113399D03*
D286*
X763179Y113399D03*
D231*
X783250Y113399D03*
D205*
X797789Y113399D03*
D193*
X814614Y113399D03*
D174*
X719425Y113490D03*
D200*
X735381Y113490D03*
D188*
X750835Y113490D03*
D286*
X763179Y113490D03*
D231*
X783250Y113490D03*
D196*
X798155Y113490D03*
D193*
X814614Y113490D03*
D174*
X719425Y113582D03*
D189*
X735519Y113582D03*
D188*
X750835Y113582D03*
D286*
X763179Y113582D03*
D231*
X783250Y113582D03*
D172*
X798292Y113582D03*
D193*
X814614Y113582D03*
D174*
X719425Y113673D03*
X735610Y113673D03*
D188*
X750835Y113673D03*
D286*
X763179Y113673D03*
D231*
X783250Y113673D03*
D170*
X798384Y113673D03*
D193*
X814614Y113673D03*
D174*
X719425Y113765D03*
D170*
X735656Y113765D03*
D188*
X750835Y113765D03*
D286*
X763179Y113765D03*
D231*
X783250Y113765D03*
D167*
X798429Y113765D03*
D193*
X814614Y113765D03*
D174*
X719425Y113856D03*
D165*
X735701Y113856D03*
D188*
X750835Y113856D03*
D286*
X763179Y113856D03*
D231*
X783250Y113856D03*
D161*
X798475Y113856D03*
D193*
X814614Y113856D03*
D174*
X719425Y113948D03*
D161*
X735747Y113948D03*
D188*
X750835Y113948D03*
D286*
X763179Y113948D03*
D231*
X783250Y113948D03*
D157*
X798521Y113948D03*
D193*
X814614Y113948D03*
D174*
X719425Y114039D03*
D157*
X735793Y114039D03*
D188*
X750835Y114039D03*
D286*
X763179Y114039D03*
D231*
X783250Y114039D03*
D151*
X798566Y114039D03*
D193*
X814614Y114039D03*
D174*
X719425Y114130D03*
D157*
X735793Y114130D03*
D188*
X750835Y114130D03*
D373*
X773878Y114130D03*
D151*
X798566Y114130D03*
D193*
X814614Y114130D03*
D174*
X719425Y114222D03*
D151*
X735839Y114222D03*
D188*
X750835Y114222D03*
D373*
X773878Y114222D03*
D154*
X798612Y114222D03*
D193*
X814614Y114222D03*
D182*
X719425Y114313D03*
D374*
X735839Y114313D03*
D375*
X750835Y114313D03*
D376*
X773878Y114313D03*
D377*
X798612Y114313D03*
D372*
X814614Y114313D03*
D174*
X719425Y114405D03*
D154*
X735884Y114405D03*
D188*
X750835Y114405D03*
D373*
X773878Y114405D03*
D154*
X798612Y114405D03*
D193*
X814614Y114405D03*
D174*
X719425Y114496D03*
D154*
X735884Y114496D03*
D188*
X750835Y114496D03*
D373*
X773878Y114496D03*
D154*
X798612Y114496D03*
D193*
X814614Y114496D03*
D174*
X719425Y114588D03*
D154*
X735884Y114588D03*
D188*
X750835Y114588D03*
D373*
X773878Y114588D03*
D378*
X798658Y114588D03*
D193*
X814614Y114588D03*
D174*
X719425Y114679D03*
D154*
X735884Y114679D03*
D188*
X750835Y114679D03*
D373*
X773878Y114679D03*
D378*
X798658Y114679D03*
D193*
X814614Y114679D03*
D174*
X719425Y114771D03*
D154*
X735884Y114771D03*
D188*
X750835Y114771D03*
D373*
X773878Y114771D03*
D378*
X798658Y114771D03*
D193*
X814614Y114771D03*
D174*
X719425Y114862D03*
D154*
X735884Y114862D03*
D188*
X750835Y114862D03*
D373*
X773878Y114862D03*
D378*
X798658Y114862D03*
D193*
X814614Y114862D03*
D174*
X719425Y114953D03*
D154*
X735884Y114953D03*
D188*
X750835Y114953D03*
D373*
X773878Y114953D03*
D378*
X798658Y114953D03*
D193*
X814614Y114953D03*
D174*
X719425Y115045D03*
D378*
X735930Y115045D03*
D188*
X750835Y115045D03*
D373*
X773878Y115045D03*
D378*
X798658Y115045D03*
D193*
X814614Y115045D03*
D174*
X719425Y115136D03*
D378*
X735930Y115136D03*
D188*
X750835Y115136D03*
D373*
X773878Y115136D03*
D378*
X798658Y115136D03*
D193*
X814614Y115136D03*
D174*
X719425Y115228D03*
D378*
X735930Y115228D03*
D188*
X750835Y115228D03*
D373*
X773878Y115228D03*
D378*
X798658Y115228D03*
D193*
X814614Y115228D03*
D174*
X719425Y115319D03*
D378*
X735930Y115319D03*
D188*
X750835Y115319D03*
D373*
X773878Y115319D03*
D378*
X798658Y115319D03*
D193*
X814614Y115319D03*
D182*
X719425Y115411D03*
D379*
X735930Y115411D03*
D375*
X750835Y115411D03*
D376*
X773878Y115411D03*
D379*
X798658Y115411D03*
D372*
X814614Y115411D03*
D174*
X719425Y115502D03*
D378*
X735930Y115502D03*
D188*
X750835Y115502D03*
D373*
X773878Y115502D03*
D378*
X798658Y115502D03*
D193*
X814614Y115502D03*
D174*
X719425Y115594D03*
D378*
X735930Y115594D03*
D188*
X750835Y115594D03*
D373*
X773878Y115594D03*
D378*
X798658Y115594D03*
D193*
X814614Y115594D03*
D174*
X719425Y115685D03*
D378*
X735930Y115685D03*
D188*
X750835Y115685D03*
D373*
X773878Y115685D03*
D378*
X798658Y115685D03*
D193*
X814614Y115685D03*
D174*
X719425Y115776D03*
D378*
X735930Y115776D03*
D188*
X750835Y115776D03*
D373*
X773878Y115776D03*
D378*
X798658Y115776D03*
D193*
X814614Y115776D03*
D174*
X719425Y115868D03*
D378*
X735930Y115868D03*
D188*
X750835Y115868D03*
D373*
X773878Y115868D03*
D378*
X798658Y115868D03*
D193*
X814614Y115868D03*
D174*
X719425Y115959D03*
D378*
X735930Y115959D03*
D188*
X750835Y115959D03*
D373*
X773878Y115959D03*
D378*
X798658Y115959D03*
D193*
X814614Y115959D03*
D174*
X719425Y116051D03*
D378*
X735930Y116051D03*
D188*
X750835Y116051D03*
D373*
X773878Y116051D03*
D378*
X798658Y116051D03*
D193*
X814614Y116051D03*
D174*
X719425Y116142D03*
D378*
X735930Y116142D03*
D188*
X750835Y116142D03*
D373*
X773878Y116142D03*
D378*
X798658Y116142D03*
D193*
X814614Y116142D03*
D174*
X719425Y116234D03*
D378*
X735930Y116234D03*
D188*
X750835Y116234D03*
D373*
X773878Y116234D03*
D378*
X798658Y116234D03*
D193*
X814614Y116234D03*
D174*
X719425Y116325D03*
D378*
X735930Y116325D03*
D188*
X750835Y116325D03*
D373*
X773878Y116325D03*
D378*
X798658Y116325D03*
D193*
X814614Y116325D03*
D174*
X719425Y116416D03*
D378*
X735930Y116416D03*
D188*
X750835Y116416D03*
D373*
X773878Y116416D03*
D378*
X798658Y116416D03*
D193*
X814614Y116416D03*
D174*
X719425Y116508D03*
D378*
X735930Y116508D03*
D188*
X750835Y116508D03*
D373*
X773878Y116508D03*
D378*
X798658Y116508D03*
D193*
X814614Y116508D03*
D182*
X719425Y116599D03*
D379*
X735930Y116599D03*
D375*
X750835Y116599D03*
D376*
X773878Y116599D03*
D379*
X798658Y116599D03*
D372*
X814614Y116599D03*
D174*
X719425Y116691D03*
D378*
X735930Y116691D03*
D188*
X750835Y116691D03*
D373*
X773878Y116691D03*
D378*
X798658Y116691D03*
D193*
X814614Y116691D03*
D174*
X719425Y116782D03*
D378*
X735930Y116782D03*
D188*
X750835Y116782D03*
D373*
X773878Y116782D03*
D378*
X798658Y116782D03*
D193*
X814614Y116782D03*
D174*
X719425Y116874D03*
D378*
X735930Y116874D03*
D188*
X750835Y116874D03*
D373*
X773878Y116874D03*
D378*
X798658Y116874D03*
D193*
X814614Y116874D03*
D174*
X719425Y116965D03*
D378*
X735930Y116965D03*
D188*
X750835Y116965D03*
D373*
X773878Y116965D03*
D378*
X798658Y116965D03*
D193*
X814614Y116965D03*
D174*
X719425Y117057D03*
D378*
X735930Y117057D03*
D188*
X750835Y117057D03*
D259*
X766883Y117057D03*
D285*
X781147Y117057D03*
D378*
X798658Y117057D03*
D193*
X814614Y117057D03*
D174*
X719425Y117148D03*
D378*
X735930Y117148D03*
D188*
X750835Y117148D03*
D259*
X766883Y117148D03*
D298*
X781376Y117148D03*
D378*
X798658Y117148D03*
D193*
X814614Y117148D03*
D174*
X719425Y117239D03*
D378*
X735930Y117239D03*
D188*
X750835Y117239D03*
D259*
X766883Y117239D03*
D287*
X781604Y117239D03*
D378*
X798658Y117239D03*
D193*
X814614Y117239D03*
D174*
X719425Y117331D03*
D378*
X735930Y117331D03*
D188*
X750835Y117331D03*
D259*
X766883Y117331D03*
D378*
X781833Y117331D03*
X798658Y117331D03*
D193*
X814614Y117331D03*
D174*
X719425Y117422D03*
D378*
X735930Y117422D03*
D188*
X750835Y117422D03*
D259*
X766883Y117422D03*
D266*
X782016Y117422D03*
D378*
X798658Y117422D03*
D193*
X814614Y117422D03*
D174*
X719425Y117514D03*
D378*
X735930Y117514D03*
D188*
X750835Y117514D03*
D259*
X766883Y117514D03*
D189*
X782244Y117514D03*
D378*
X798658Y117514D03*
D193*
X814614Y117514D03*
D174*
X719425Y117605D03*
D378*
X735930Y117605D03*
D188*
X750835Y117605D03*
D259*
X766883Y117605D03*
D186*
X782473Y117605D03*
D378*
X798658Y117605D03*
D193*
X814614Y117605D03*
D182*
X719425Y117697D03*
D379*
X735930Y117697D03*
D375*
X750835Y117697D03*
D273*
X766883Y117697D03*
D224*
X782702Y117697D03*
D379*
X798658Y117697D03*
D372*
X814614Y117697D03*
D174*
X719425Y117788D03*
D378*
X735930Y117788D03*
D188*
X750835Y117788D03*
D259*
X766883Y117788D03*
D217*
X782930Y117788D03*
D378*
X798658Y117788D03*
D193*
X814614Y117788D03*
D174*
X719425Y117880D03*
D378*
X735930Y117880D03*
D188*
X750835Y117880D03*
D259*
X766883Y117880D03*
D236*
X783159Y117880D03*
D378*
X798658Y117880D03*
D193*
X814614Y117880D03*
D174*
X719425Y117971D03*
D378*
X735930Y117971D03*
D188*
X750835Y117971D03*
D259*
X766883Y117971D03*
D231*
X783250Y117971D03*
D378*
X798658Y117971D03*
D193*
X814614Y117971D03*
D174*
X719425Y118062D03*
D154*
X735884Y118062D03*
D188*
X750835Y118062D03*
D259*
X766883Y118062D03*
D231*
X783250Y118062D03*
D378*
X798658Y118062D03*
D193*
X814614Y118062D03*
D174*
X719425Y118154D03*
D154*
X735884Y118154D03*
D188*
X750835Y118154D03*
D259*
X766883Y118154D03*
D231*
X783250Y118154D03*
D378*
X798658Y118154D03*
D193*
X814614Y118154D03*
D174*
X719425Y118245D03*
D154*
X735884Y118245D03*
D188*
X750835Y118245D03*
D259*
X766883Y118245D03*
D231*
X783250Y118245D03*
D378*
X798658Y118245D03*
D193*
X814614Y118245D03*
D174*
X719425Y118337D03*
D154*
X735884Y118337D03*
D188*
X750835Y118337D03*
D259*
X766883Y118337D03*
D231*
X783250Y118337D03*
D378*
X798658Y118337D03*
D193*
X814614Y118337D03*
D174*
X719425Y118428D03*
D154*
X735884Y118428D03*
D188*
X750835Y118428D03*
D259*
X766883Y118428D03*
D231*
X783250Y118428D03*
D378*
X798658Y118428D03*
D193*
X814614Y118428D03*
D174*
X719425Y118520D03*
D154*
X735884Y118520D03*
D188*
X750835Y118520D03*
D259*
X766883Y118520D03*
D231*
X783250Y118520D03*
D154*
X798612Y118520D03*
D193*
X814614Y118520D03*
D174*
X719425Y118611D03*
D154*
X735884Y118611D03*
D188*
X750835Y118611D03*
D259*
X766883Y118611D03*
D231*
X783250Y118611D03*
D154*
X798612Y118611D03*
D193*
X814614Y118611D03*
D174*
X719425Y118702D03*
D151*
X735839Y118702D03*
D188*
X750835Y118702D03*
D259*
X766883Y118702D03*
D231*
X783250Y118702D03*
D154*
X798612Y118702D03*
D193*
X814614Y118702D03*
D174*
X719425Y118794D03*
D151*
X735839Y118794D03*
D188*
X750835Y118794D03*
D259*
X766883Y118794D03*
D231*
X783250Y118794D03*
D154*
X798612Y118794D03*
D193*
X814614Y118794D03*
D182*
X719425Y118885D03*
D374*
X735839Y118885D03*
D375*
X750835Y118885D03*
D273*
X766883Y118885D03*
D238*
X783250Y118885D03*
D374*
X798566Y118885D03*
D372*
X814614Y118885D03*
D174*
X719425Y118977D03*
D157*
X735793Y118977D03*
D188*
X750835Y118977D03*
D259*
X766883Y118977D03*
D231*
X783250Y118977D03*
D151*
X798566Y118977D03*
D193*
X814614Y118977D03*
D174*
X719425Y119068D03*
D161*
X735747Y119068D03*
D195*
X750881Y119068D03*
D259*
X766883Y119068D03*
D231*
X783250Y119068D03*
D157*
X798521Y119068D03*
D193*
X814614Y119068D03*
D174*
X719425Y119160D03*
D161*
X735747Y119160D03*
D195*
X750881Y119160D03*
D259*
X766883Y119160D03*
D231*
X783250Y119160D03*
D161*
X798475Y119160D03*
D193*
X814614Y119160D03*
D174*
X719425Y119251D03*
D165*
X735701Y119251D03*
D195*
X750881Y119251D03*
D259*
X766883Y119251D03*
D235*
X783205Y119251D03*
D167*
X798429Y119251D03*
D193*
X814614Y119251D03*
D174*
X719425Y119343D03*
X735610Y119343D03*
D195*
X750881Y119343D03*
D259*
X766883Y119343D03*
D235*
X783205Y119343D03*
D170*
X798384Y119343D03*
D193*
X814614Y119343D03*
D174*
X719425Y119434D03*
D189*
X735519Y119434D03*
D195*
X750881Y119434D03*
D259*
X766883Y119434D03*
D235*
X783205Y119434D03*
D172*
X798292Y119434D03*
D193*
X814614Y119434D03*
D174*
X719425Y119525D03*
D200*
X735381Y119525D03*
D195*
X750881Y119525D03*
D235*
X783205Y119525D03*
D196*
X798155Y119525D03*
D193*
X814614Y119525D03*
D174*
X719425Y119617D03*
D216*
X735107Y119617D03*
D195*
X750881Y119617D03*
D235*
X783205Y119617D03*
D201*
X797881Y119617D03*
D193*
X814614Y119617D03*
D174*
X719425Y119708D03*
D197*
X750835Y119708D03*
D235*
X783205Y119708D03*
D193*
X814614Y119708D03*
D174*
X719425Y119800D03*
D197*
X750835Y119800D03*
D235*
X783205Y119800D03*
D193*
X814614Y119800D03*
D174*
X719425Y119891D03*
D197*
X750835Y119891D03*
D235*
X783205Y119891D03*
D193*
X814614Y119891D03*
D182*
X719425Y119983D03*
D380*
X750835Y119983D03*
D240*
X783205Y119983D03*
D372*
X814614Y119983D03*
D174*
X719425Y120074D03*
D185*
X750881Y120074D03*
D235*
X783205Y120074D03*
D193*
X814614Y120074D03*
D174*
X719425Y120166D03*
D185*
X750881Y120166D03*
D236*
X783159Y120166D03*
D193*
X814614Y120166D03*
D174*
X719425Y120257D03*
D185*
X750881Y120257D03*
D236*
X783159Y120257D03*
D191*
X814568Y120257D03*
D174*
X719425Y120348D03*
D185*
X750881Y120348D03*
D236*
X783159Y120348D03*
D191*
X814568Y120348D03*
D174*
X719425Y120440D03*
D185*
X750881Y120440D03*
D236*
X783159Y120440D03*
D191*
X814568Y120440D03*
D174*
X719425Y120531D03*
D212*
X750835Y120531D03*
D236*
X783159Y120531D03*
D191*
X814568Y120531D03*
D174*
X719425Y120623D03*
D175*
X750881Y120623D03*
D236*
X783159Y120623D03*
D191*
X814568Y120623D03*
D174*
X719425Y120714D03*
D175*
X750881Y120714D03*
D234*
X783113Y120714D03*
D191*
X814568Y120714D03*
D174*
X719425Y120806D03*
D175*
X750881Y120806D03*
D234*
X783113Y120806D03*
D251*
X814523Y120806D03*
D174*
X719425Y120897D03*
D171*
X750835Y120897D03*
D234*
X783113Y120897D03*
D251*
X814523Y120897D03*
D174*
X719425Y120988D03*
D227*
X750881Y120988D03*
D234*
X783113Y120988D03*
D251*
X814523Y120988D03*
D174*
X719425Y121080D03*
D227*
X750881Y121080D03*
D158*
X783067Y121080D03*
D186*
X814477Y121080D03*
D182*
X719425Y121171D03*
D381*
X750881Y121171D03*
D382*
X783067Y121171D03*
D383*
X814477Y121171D03*
D174*
X719425Y121263D03*
D229*
X750881Y121263D03*
D158*
X783067Y121263D03*
D186*
X814477Y121263D03*
D174*
X719425Y121354D03*
D229*
X750881Y121354D03*
D228*
X783022Y121354D03*
D203*
X814431Y121354D03*
D174*
X719425Y121446D03*
D229*
X750881Y121446D03*
D228*
X783022Y121446D03*
D203*
X814431Y121446D03*
D174*
X719425Y121537D03*
D232*
X750881Y121537D03*
D226*
X782976Y121537D03*
D203*
X814431Y121537D03*
D174*
X719425Y121629D03*
D232*
X750881Y121629D03*
D226*
X782976Y121629D03*
D200*
X814386Y121629D03*
D174*
X719425Y121720D03*
D158*
X750881Y121720D03*
D226*
X782976Y121720D03*
D200*
X814386Y121720D03*
D174*
X719425Y121811D03*
D158*
X750881Y121811D03*
D217*
X782930Y121811D03*
D196*
X814340Y121811D03*
D174*
X719425Y121903D03*
D226*
X750881Y121903D03*
D217*
X782930Y121903D03*
D196*
X814340Y121903D03*
D174*
X719425Y121994D03*
D217*
X750835Y121994D03*
D214*
X782885Y121994D03*
D176*
X814294Y121994D03*
D174*
X719425Y122086D03*
D214*
X750881Y122086D03*
D208*
X782839Y122086D03*
D189*
X814248Y122086D03*
D174*
X719425Y122177D03*
D208*
X750835Y122177D03*
X782839Y122177D03*
D189*
X814248Y122177D03*
D182*
X719425Y122269D03*
D221*
X750835Y122269D03*
D384*
X782793Y122269D03*
D179*
X814203Y122269D03*
D174*
X719425Y122360D03*
D198*
X750835Y122360D03*
D152*
X782747Y122360D03*
D174*
X814157Y122360D03*
X719425Y122452D03*
D193*
X750881Y122452D03*
D201*
X782702Y122452D03*
D170*
X814111Y122452D03*
D174*
X719425Y122543D03*
D322*
X750835Y122543D03*
D198*
X782656Y122543D03*
D167*
X814066Y122543D03*
D174*
X719425Y122634D03*
D200*
X750835Y122634D03*
D193*
X782610Y122634D03*
D266*
X814020Y122634D03*
D174*
X719425Y122726D03*
D176*
X750835Y122726D03*
D191*
X782564Y122726D03*
D269*
X813974Y122726D03*
D174*
X719425Y122817D03*
X750881Y122817D03*
D186*
X782473Y122817D03*
D154*
X813883Y122817D03*
D174*
X719425Y122909D03*
D157*
X750881Y122909D03*
D200*
X782382Y122909D03*
D378*
X813837Y122909D03*
D174*
X719425Y123000D03*
D263*
X750881Y123000D03*
D176*
X782290Y123000D03*
D264*
X813746Y123000D03*
D174*
X719425Y123092D03*
D287*
X750881Y123092D03*
D172*
X782199Y123092D03*
D287*
X813608Y123092D03*
D174*
X719425Y123183D03*
D301*
X750881Y123183D03*
D167*
X782062Y123183D03*
D270*
X813517Y123183D03*
D174*
X719425Y123274D03*
D289*
X750881Y123274D03*
D151*
X781924Y123274D03*
D298*
X813380Y123274D03*
D174*
X719425Y123366D03*
D385*
X750926Y123366D03*
D159*
X781696Y123366D03*
D312*
X813197Y123366D03*
D182*
X719425Y123457D03*
D386*
X750972Y123457D03*
D387*
X781376Y123457D03*
D388*
X812877Y123457D03*
D389*
X766791Y123549D03*
X766791Y123640D03*
X766791Y123732D03*
X766791Y123823D03*
X766791Y123915D03*
X766791Y124006D03*
X766791Y124097D03*
X766791Y124189D03*
X766791Y124280D03*
X766791Y124372D03*
X766791Y124463D03*
D390*
X766791Y124555D03*
D389*
X766791Y124646D03*
X766791Y124738D03*
X766791Y124829D03*
X766791Y124920D03*
X766791Y125012D03*
X766791Y125103D03*
X766791Y125195D03*
X766791Y125286D03*
X766791Y125378D03*
X766791Y125469D03*
X766791Y125560D03*
X766791Y125652D03*
D390*
X766791Y125743D03*
D389*
X766791Y125835D03*
X766791Y125926D03*
X766791Y126018D03*
X766791Y126109D03*
X766791Y126201D03*
X766791Y126292D03*
X766791Y126383D03*
X766791Y126475D03*
X766791Y126566D03*
X766791Y126658D03*
X766791Y126749D03*
D390*
X766791Y126841D03*
D389*
X766791Y126932D03*
X766791Y127024D03*
X766791Y127115D03*
X766791Y127206D03*
X766791Y127298D03*
X766791Y127389D03*
X766791Y127481D03*
X766791Y127572D03*
X766791Y127664D03*
X766791Y127755D03*
X766791Y127846D03*
X766791Y127938D03*
D390*
X766791Y128029D03*
D389*
X766791Y128121D03*
X766791Y128212D03*
X766791Y128304D03*
X766791Y128395D03*
X766791Y128487D03*
X766791Y128578D03*
X766791Y128669D03*
X766791Y128761D03*
X766791Y128852D03*
X766791Y128944D03*
X766791Y129035D03*
D390*
X766791Y129127D03*
D389*
X766791Y129218D03*
X766791Y129310D03*
X766791Y129401D03*
X766791Y129492D03*
X766791Y129584D03*
X766791Y129675D03*
X766791Y129767D03*
X766791Y129858D03*
X766791Y129950D03*
X766791Y130041D03*
X766791Y130132D03*
X766791Y130224D03*
D390*
X766791Y130315D03*
D389*
X766791Y130407D03*
X766791Y130498D03*
X766791Y130590D03*
X766791Y130681D03*
X766791Y130773D03*
X766791Y130864D03*
X766791Y130955D03*
X766791Y131047D03*
X766791Y131138D03*
X766791Y131230D03*
X766791Y131321D03*
D390*
X766791Y131413D03*
D389*
X766791Y131504D03*
X766791Y131596D03*
X766791Y131687D03*
X766791Y131778D03*
X766791Y131870D03*
X766791Y131961D03*
X766791Y132053D03*
X766791Y132144D03*
X766791Y132236D03*
X766791Y132327D03*
X766791Y132418D03*
X766791Y132510D03*
D390*
X766791Y132601D03*
D391*
X766791Y132693D03*
D389*
X766791Y142203D03*
X766791Y142294D03*
X766791Y142385D03*
X766791Y142477D03*
X766791Y142568D03*
X766791Y142660D03*
X766791Y142751D03*
D390*
X766791Y142843D03*
D389*
X766791Y142934D03*
X766791Y143026D03*
X766791Y143117D03*
X766791Y143208D03*
X766791Y143300D03*
X766791Y143391D03*
X766791Y143483D03*
X766791Y143574D03*
X766791Y143666D03*
X766791Y143757D03*
X766791Y143848D03*
X766791Y143940D03*
D390*
X766791Y144031D03*
D389*
X766791Y144123D03*
X766791Y144214D03*
X766791Y144306D03*
X766791Y144397D03*
X766791Y144489D03*
X766791Y144580D03*
X766791Y144671D03*
X766791Y144763D03*
X766791Y144854D03*
X766791Y144946D03*
X766791Y145037D03*
D390*
X766791Y145129D03*
D389*
X766791Y145220D03*
X766791Y145312D03*
X766791Y145403D03*
X766791Y145494D03*
X766791Y145586D03*
X766791Y145677D03*
X766791Y145769D03*
X766791Y145860D03*
X766791Y145952D03*
X766791Y146043D03*
X766791Y146134D03*
X766791Y146226D03*
D390*
X766791Y146317D03*
D389*
X766791Y146409D03*
X766791Y146500D03*
X766791Y146592D03*
X766791Y146683D03*
X766791Y146775D03*
X766791Y146866D03*
X766791Y146957D03*
X766791Y147049D03*
X766791Y147140D03*
X766791Y147232D03*
X766791Y147323D03*
D390*
X766791Y147415D03*
D389*
X766791Y147506D03*
X766791Y147598D03*
X766791Y147689D03*
X766791Y147780D03*
X766791Y147872D03*
X766791Y147963D03*
X766791Y148055D03*
X766791Y148146D03*
X766791Y148238D03*
X766791Y148329D03*
X766791Y148420D03*
X766791Y148512D03*
D390*
X766791Y148603D03*
D389*
X766791Y148695D03*
X766791Y148786D03*
X766791Y148878D03*
X766791Y148969D03*
X766791Y149061D03*
X766791Y149152D03*
X766791Y149243D03*
X766791Y149335D03*
X766791Y149426D03*
X766791Y149518D03*
X766791Y149609D03*
D390*
X766791Y149701D03*
D389*
X766791Y149792D03*
X766791Y149884D03*
X766791Y149975D03*
X766791Y150066D03*
X766791Y150158D03*
X766791Y150249D03*
X766791Y150341D03*
X766791Y150432D03*
X766791Y150524D03*
X766791Y150615D03*
X766791Y150706D03*
X766791Y150798D03*
D390*
X766791Y150889D03*
D389*
X766791Y150981D03*
X766791Y151072D03*
X766791Y151164D03*
X766791Y151255D03*
X766791Y151347D03*
D205*
X718785Y151438D03*
D208*
X814843Y151438D03*
X718739Y151529D03*
X814843Y151529D03*
X718739Y151621D03*
X814843Y151621D03*
X718739Y151712D03*
X814843Y151712D03*
X718739Y151804D03*
X814843Y151804D03*
X718739Y151895D03*
X814843Y151895D03*
D392*
X718739Y151987D03*
X814843Y151987D03*
D208*
X718739Y152078D03*
X814843Y152078D03*
X718739Y152170D03*
X814843Y152170D03*
X718739Y152261D03*
X814843Y152261D03*
X718739Y152352D03*
X814843Y152352D03*
X718739Y152444D03*
X814843Y152444D03*
X718739Y152535D03*
X814843Y152535D03*
X718739Y152627D03*
X814843Y152627D03*
X718739Y152718D03*
X814843Y152718D03*
X718739Y152810D03*
X814843Y152810D03*
X718739Y152901D03*
X814843Y152901D03*
X718739Y152992D03*
X814843Y152992D03*
X718739Y153084D03*
X814843Y153084D03*
D392*
X718739Y153175D03*
X814843Y153175D03*
D208*
X718739Y153267D03*
X814843Y153267D03*
X718739Y153358D03*
X814843Y153358D03*
X718739Y153450D03*
X814843Y153450D03*
X718739Y153541D03*
X814843Y153541D03*
X718739Y153633D03*
X814843Y153633D03*
X718739Y153724D03*
X814843Y153724D03*
X718739Y153815D03*
X814843Y153815D03*
X718739Y153907D03*
X814843Y153907D03*
X718739Y153998D03*
X814843Y153998D03*
X718739Y154090D03*
X814843Y154090D03*
X718739Y154181D03*
X814843Y154181D03*
D392*
X718739Y154273D03*
X814843Y154273D03*
D208*
X718739Y154364D03*
X814843Y154364D03*
X718739Y154456D03*
X814843Y154456D03*
X718739Y154547D03*
X814843Y154547D03*
X718739Y154638D03*
X814843Y154638D03*
X718739Y154730D03*
X814843Y154730D03*
X718739Y154821D03*
X814843Y154821D03*
X718739Y154913D03*
X814843Y154913D03*
X718739Y155004D03*
D186*
X744251Y155004D03*
D208*
X814843Y155004D03*
X718739Y155096D03*
D186*
X744251Y155096D03*
D208*
X814843Y155096D03*
X718739Y155187D03*
D186*
X744251Y155187D03*
D208*
X814843Y155187D03*
X718739Y155278D03*
D186*
X744251Y155278D03*
D208*
X814843Y155278D03*
X718739Y155370D03*
D186*
X744251Y155370D03*
D208*
X814843Y155370D03*
D392*
X718739Y155461D03*
D383*
X744251Y155461D03*
D392*
X814843Y155461D03*
D208*
X718739Y155553D03*
D186*
X744251Y155553D03*
D208*
X814843Y155553D03*
X718739Y155644D03*
D186*
X744251Y155644D03*
D208*
X814843Y155644D03*
X718739Y155736D03*
D186*
X744251Y155736D03*
D208*
X814843Y155736D03*
X718739Y155827D03*
D186*
X744251Y155827D03*
D393*
X762493Y155827D03*
X768894Y155827D03*
D208*
X814843Y155827D03*
X718739Y155919D03*
D186*
X744251Y155919D03*
D394*
X762493Y155919D03*
X768894Y155919D03*
D208*
X814843Y155919D03*
X718739Y156010D03*
D186*
X744251Y156010D03*
D395*
X762493Y156010D03*
X768894Y156010D03*
D208*
X814843Y156010D03*
X718739Y156101D03*
D186*
X744251Y156101D03*
D396*
X762493Y156101D03*
X768894Y156101D03*
D208*
X814843Y156101D03*
X718739Y156193D03*
D186*
X744251Y156193D03*
D397*
X762539Y156193D03*
D398*
X768894Y156193D03*
D208*
X814843Y156193D03*
X718739Y156284D03*
D186*
X744251Y156284D03*
D399*
X762539Y156284D03*
D400*
X768894Y156284D03*
D208*
X814843Y156284D03*
X718739Y156376D03*
D186*
X744251Y156376D03*
D401*
X762585Y156376D03*
D402*
X768894Y156376D03*
D208*
X814843Y156376D03*
X718739Y156467D03*
D186*
X744251Y156467D03*
D403*
X762585Y156467D03*
X768894Y156467D03*
D208*
X814843Y156467D03*
D392*
X718739Y156559D03*
D383*
X744251Y156559D03*
D404*
X762585Y156559D03*
D405*
X768940Y156559D03*
D392*
X814843Y156559D03*
D208*
X718739Y156650D03*
D186*
X744251Y156650D03*
D406*
X762631Y156650D03*
D407*
X768986Y156650D03*
D208*
X814843Y156650D03*
X718739Y156742D03*
D186*
X744251Y156742D03*
D408*
X762676Y156742D03*
D409*
X769031Y156742D03*
D208*
X814843Y156742D03*
X718739Y156833D03*
D186*
X744251Y156833D03*
D410*
X762722Y156833D03*
D411*
X769077Y156833D03*
D208*
X814843Y156833D03*
X718739Y156924D03*
D186*
X744251Y156924D03*
D412*
X762768Y156924D03*
D413*
X769123Y156924D03*
D208*
X814843Y156924D03*
X718739Y157016D03*
D186*
X744251Y157016D03*
D414*
X762813Y157016D03*
D415*
X769169Y157016D03*
D395*
X787457Y157016D03*
D208*
X814843Y157016D03*
X718739Y157107D03*
D186*
X744251Y157107D03*
D416*
X762859Y157107D03*
D417*
X769214Y157107D03*
D418*
X787502Y157107D03*
D208*
X814843Y157107D03*
X718739Y157199D03*
D186*
X744251Y157199D03*
D419*
X762951Y157199D03*
X769260Y157199D03*
D415*
X787457Y157199D03*
D208*
X814843Y157199D03*
X718739Y157290D03*
D186*
X744251Y157290D03*
D420*
X762996Y157290D03*
D419*
X769351Y157290D03*
D421*
X787457Y157290D03*
D208*
X814843Y157290D03*
X718739Y157382D03*
D186*
X744251Y157382D03*
D420*
X763088Y157382D03*
X769397Y157382D03*
D422*
X787457Y157382D03*
D208*
X814843Y157382D03*
X718739Y157473D03*
D186*
X744251Y157473D03*
D423*
X763133Y157473D03*
D424*
X769489Y157473D03*
D425*
X787457Y157473D03*
D208*
X814843Y157473D03*
X718739Y157564D03*
D186*
X744251Y157564D03*
D423*
X763225Y157564D03*
D426*
X769534Y157564D03*
D353*
X787457Y157564D03*
D208*
X814843Y157564D03*
X718739Y157656D03*
D186*
X744251Y157656D03*
D423*
X763316Y157656D03*
D426*
X769626Y157656D03*
D427*
X787457Y157656D03*
D208*
X814843Y157656D03*
D392*
X718739Y157747D03*
D383*
X744251Y157747D03*
D428*
X763408Y157747D03*
X769809Y157747D03*
D332*
X787502Y157747D03*
D392*
X814843Y157747D03*
D208*
X718739Y157839D03*
D186*
X744251Y157839D03*
D423*
X763499Y157839D03*
X769900Y157839D03*
D160*
X787457Y157839D03*
D208*
X814843Y157839D03*
X718739Y157930D03*
D186*
X744251Y157930D03*
D423*
X763591Y157930D03*
X769991Y157930D03*
D163*
X787457Y157930D03*
D208*
X814843Y157930D03*
X718739Y158022D03*
D186*
X744251Y158022D03*
D423*
X763682Y158022D03*
X770083Y158022D03*
D173*
X787502Y158022D03*
D208*
X814843Y158022D03*
X718739Y158113D03*
D186*
X744251Y158113D03*
D423*
X763774Y158113D03*
X770174Y158113D03*
D313*
X787502Y158113D03*
D208*
X814843Y158113D03*
X718739Y158205D03*
D186*
X744251Y158205D03*
D426*
X763865Y158205D03*
D423*
X770266Y158205D03*
D429*
X787457Y158205D03*
D208*
X814843Y158205D03*
X718739Y158296D03*
D186*
X744251Y158296D03*
D423*
X764048Y158296D03*
X770357Y158296D03*
D292*
X787457Y158296D03*
D208*
X814843Y158296D03*
X718739Y158387D03*
D186*
X744251Y158387D03*
D423*
X764139Y158387D03*
X770449Y158387D03*
D199*
X787457Y158387D03*
D208*
X814843Y158387D03*
X718739Y158479D03*
D186*
X744251Y158479D03*
D423*
X764231Y158479D03*
X770540Y158479D03*
D284*
X787457Y158479D03*
D208*
X814843Y158479D03*
X718739Y158570D03*
D186*
X744251Y158570D03*
D423*
X764322Y158570D03*
X770632Y158570D03*
D282*
X787502Y158570D03*
D208*
X814843Y158570D03*
X718739Y158662D03*
D186*
X744251Y158662D03*
D423*
X764414Y158662D03*
D426*
X770723Y158662D03*
D278*
X787502Y158662D03*
D208*
X814843Y158662D03*
X718739Y158753D03*
D186*
X744251Y158753D03*
D423*
X764505Y158753D03*
X770814Y158753D03*
D206*
X787457Y158753D03*
D208*
X814843Y158753D03*
D392*
X718739Y158845D03*
D383*
X744251Y158845D03*
D428*
X764597Y158845D03*
X770997Y158845D03*
D430*
X787457Y158845D03*
D392*
X814843Y158845D03*
D208*
X718739Y158936D03*
D186*
X744251Y158936D03*
D423*
X764688Y158936D03*
X771089Y158936D03*
D215*
X787457Y158936D03*
D208*
X814843Y158936D03*
X718739Y159028D03*
D186*
X744251Y159028D03*
D423*
X764779Y159028D03*
X771180Y159028D03*
D262*
X787502Y159028D03*
D208*
X814843Y159028D03*
X718739Y159119D03*
D186*
X744251Y159119D03*
D423*
X764871Y159119D03*
X771272Y159119D03*
D218*
X787457Y159119D03*
D208*
X814843Y159119D03*
X718739Y159210D03*
D186*
X744251Y159210D03*
D426*
X764962Y159210D03*
D423*
X771363Y159210D03*
D261*
X787457Y159210D03*
D208*
X814843Y159210D03*
X718739Y159302D03*
D186*
X744251Y159302D03*
D423*
X765145Y159302D03*
X771455Y159302D03*
D260*
X787502Y159302D03*
D208*
X814843Y159302D03*
X718739Y159393D03*
D186*
X744251Y159393D03*
D423*
X765237Y159393D03*
X771546Y159393D03*
D150*
X787457Y159393D03*
D208*
X814843Y159393D03*
X718739Y159485D03*
D186*
X744251Y159485D03*
D423*
X765328Y159485D03*
X771637Y159485D03*
D156*
X787502Y159485D03*
D208*
X814843Y159485D03*
X718739Y159576D03*
D186*
X744251Y159576D03*
D423*
X765419Y159576D03*
X771729Y159576D03*
D164*
X787457Y159576D03*
D208*
X814843Y159576D03*
X718739Y159668D03*
D186*
X744251Y159668D03*
D423*
X765511Y159668D03*
D426*
X771820Y159668D03*
D169*
X787502Y159668D03*
D208*
X814843Y159668D03*
X718739Y159759D03*
D186*
X744251Y159759D03*
D423*
X765602Y159759D03*
D426*
X771912Y159759D03*
D184*
X787457Y159759D03*
D208*
X814843Y159759D03*
X718739Y159850D03*
D186*
X744251Y159850D03*
D423*
X765694Y159850D03*
X772095Y159850D03*
D188*
X787502Y159850D03*
D208*
X814843Y159850D03*
X718739Y159942D03*
D186*
X744251Y159942D03*
D423*
X765785Y159942D03*
X772186Y159942D03*
D195*
X787457Y159942D03*
D208*
X814843Y159942D03*
D392*
X718739Y160033D03*
D383*
X744251Y160033D03*
D428*
X765877Y160033D03*
X772277Y160033D03*
D371*
X787457Y160033D03*
D392*
X814843Y160033D03*
D208*
X718739Y160125D03*
D186*
X744251Y160125D03*
D423*
X765968Y160125D03*
X772369Y160125D03*
D190*
X787502Y160125D03*
D208*
X814843Y160125D03*
X718739Y160216D03*
D186*
X744251Y160216D03*
D423*
X766060Y160216D03*
X772460Y160216D03*
D185*
X787457Y160216D03*
D208*
X814843Y160216D03*
X718739Y160308D03*
D186*
X744251Y160308D03*
D426*
X766151Y160308D03*
D423*
X772552Y160308D03*
D185*
X787457Y160308D03*
D208*
X814843Y160308D03*
X718739Y160399D03*
D186*
X744251Y160399D03*
D423*
X766334Y160399D03*
X772643Y160399D03*
D212*
X787502Y160399D03*
D208*
X814843Y160399D03*
X718739Y160491D03*
D186*
X744251Y160491D03*
D423*
X766425Y160491D03*
X772735Y160491D03*
D175*
X787457Y160491D03*
D208*
X814843Y160491D03*
X718739Y160582D03*
D186*
X744251Y160582D03*
D423*
X766517Y160582D03*
X772826Y160582D03*
D175*
X787457Y160582D03*
D208*
X814843Y160582D03*
X718739Y160673D03*
D186*
X744251Y160673D03*
D423*
X766608Y160673D03*
X772918Y160673D03*
D175*
X787457Y160673D03*
D208*
X814843Y160673D03*
X718739Y160765D03*
D186*
X744251Y160765D03*
D423*
X766700Y160765D03*
D426*
X773009Y160765D03*
D171*
X787502Y160765D03*
D208*
X814843Y160765D03*
X718739Y160856D03*
D186*
X744251Y160856D03*
D423*
X766791Y160856D03*
X773100Y160856D03*
D171*
X787502Y160856D03*
D208*
X814843Y160856D03*
X718739Y160948D03*
D186*
X744251Y160948D03*
D423*
X766883Y160948D03*
X773283Y160948D03*
D171*
X787502Y160948D03*
D208*
X814843Y160948D03*
X718739Y161039D03*
D186*
X744251Y161039D03*
D423*
X766974Y161039D03*
X773375Y161039D03*
D227*
X787457Y161039D03*
D208*
X814843Y161039D03*
D392*
X718739Y161131D03*
D383*
X744251Y161131D03*
D428*
X767065Y161131D03*
X773466Y161131D03*
D381*
X787457Y161131D03*
D392*
X814843Y161131D03*
D208*
X718739Y161222D03*
D186*
X744251Y161222D03*
D423*
X767157Y161222D03*
X773558Y161222D03*
D227*
X787457Y161222D03*
D208*
X814843Y161222D03*
X718739Y161314D03*
D186*
X744251Y161314D03*
D426*
X767248Y161314D03*
D420*
X773603Y161314D03*
D227*
X787457Y161314D03*
D208*
X814843Y161314D03*
X718739Y161405D03*
D186*
X744251Y161405D03*
D424*
X767294Y161405D03*
D420*
X773695Y161405D03*
D227*
X787457Y161405D03*
D208*
X814843Y161405D03*
X718739Y161496D03*
D186*
X744251Y161496D03*
D431*
X767431Y161496D03*
D419*
X773741Y161496D03*
D227*
X787457Y161496D03*
D208*
X814843Y161496D03*
X718739Y161588D03*
D186*
X744251Y161588D03*
D432*
X767477Y161588D03*
D419*
X773832Y161588D03*
D227*
X787457Y161588D03*
D208*
X814843Y161588D03*
X718739Y161679D03*
D186*
X744251Y161679D03*
D416*
X767523Y161679D03*
D417*
X773878Y161679D03*
D227*
X787457Y161679D03*
D208*
X814843Y161679D03*
X718739Y161771D03*
D186*
X744251Y161771D03*
D414*
X767568Y161771D03*
D416*
X773923Y161771D03*
D227*
X787457Y161771D03*
D208*
X814843Y161771D03*
X718739Y161862D03*
D186*
X744251Y161862D03*
D412*
X767614Y161862D03*
D414*
X773969Y161862D03*
D227*
X787457Y161862D03*
D208*
X814843Y161862D03*
X718739Y161954D03*
D186*
X744251Y161954D03*
D410*
X767660Y161954D03*
X774061Y161954D03*
D227*
X787457Y161954D03*
D208*
X814843Y161954D03*
X718739Y162045D03*
D186*
X744251Y162045D03*
D408*
X767705Y162045D03*
X774106Y162045D03*
D227*
X787457Y162045D03*
D208*
X814843Y162045D03*
X718739Y162136D03*
D186*
X744251Y162136D03*
D406*
X767751Y162136D03*
D433*
X774106Y162136D03*
D227*
X787457Y162136D03*
D208*
X814843Y162136D03*
X718739Y162228D03*
D186*
X744251Y162228D03*
D418*
X767751Y162228D03*
X774152Y162228D03*
D227*
X787457Y162228D03*
D208*
X814843Y162228D03*
D392*
X718739Y162319D03*
D383*
X744251Y162319D03*
D434*
X767797Y162319D03*
D435*
X774152Y162319D03*
D381*
X787457Y162319D03*
D392*
X814843Y162319D03*
D208*
X718739Y162411D03*
D436*
X744297Y162411D03*
D402*
X767797Y162411D03*
D401*
X774198Y162411D03*
D171*
X787502Y162411D03*
D208*
X814843Y162411D03*
X718739Y162502D03*
D436*
X744297Y162502D03*
D437*
X767843Y162502D03*
D438*
X774198Y162502D03*
D171*
X787502Y162502D03*
D208*
X814843Y162502D03*
X718739Y162594D03*
D436*
X744297Y162594D03*
D439*
X767843Y162594D03*
D440*
X774198Y162594D03*
D175*
X787457Y162594D03*
D208*
X814843Y162594D03*
X718739Y162685D03*
D436*
X744297Y162685D03*
D441*
X767843Y162685D03*
D442*
X774198Y162685D03*
D175*
X787457Y162685D03*
D208*
X814843Y162685D03*
X718739Y162777D03*
D436*
X744297Y162777D03*
D443*
X767843Y162777D03*
D444*
X774198Y162777D03*
D175*
X787457Y162777D03*
D208*
X814843Y162777D03*
X718739Y162868D03*
D436*
X744297Y162868D03*
D445*
X767843Y162868D03*
X774243Y162868D03*
D212*
X787502Y162868D03*
D208*
X814843Y162868D03*
X718739Y162959D03*
D436*
X744297Y162959D03*
D446*
X767843Y162959D03*
D447*
X774243Y162959D03*
D212*
X787502Y162959D03*
D208*
X814843Y162959D03*
X718739Y163051D03*
D436*
X744297Y163051D03*
D185*
X787457Y163051D03*
D208*
X814843Y163051D03*
X718739Y163142D03*
D436*
X744297Y163142D03*
D185*
X787457Y163142D03*
D208*
X814843Y163142D03*
X718739Y163234D03*
D436*
X744297Y163234D03*
D190*
X787502Y163234D03*
D208*
X814843Y163234D03*
X718739Y163325D03*
D436*
X744297Y163325D03*
D195*
X787457Y163325D03*
D208*
X814843Y163325D03*
D392*
X718739Y163417D03*
D448*
X744297Y163417D03*
D375*
X787502Y163417D03*
D392*
X814843Y163417D03*
D208*
X718739Y163508D03*
D436*
X744297Y163508D03*
D184*
X787457Y163508D03*
D208*
X814843Y163508D03*
X718739Y163600D03*
D436*
X744297Y163600D03*
D184*
X787457Y163600D03*
D208*
X814843Y163600D03*
X718739Y163691D03*
D436*
X744297Y163691D03*
D164*
X787457Y163691D03*
D208*
X814843Y163691D03*
X718739Y163782D03*
D436*
X744297Y163782D03*
D164*
X787457Y163782D03*
D208*
X814843Y163782D03*
X718739Y163874D03*
D436*
X744297Y163874D03*
D150*
X787457Y163874D03*
D208*
X814843Y163874D03*
X718739Y163965D03*
D436*
X744297Y163965D03*
D260*
X787502Y163965D03*
D208*
X814843Y163965D03*
X718739Y164057D03*
D436*
X744297Y164057D03*
D261*
X787457Y164057D03*
D208*
X814843Y164057D03*
X718739Y164148D03*
D436*
X744297Y164148D03*
D219*
X787502Y164148D03*
D208*
X814843Y164148D03*
X718739Y164240D03*
D436*
X744297Y164240D03*
D218*
X787457Y164240D03*
D208*
X814843Y164240D03*
X718739Y164331D03*
D436*
X744297Y164331D03*
D215*
X787457Y164331D03*
D208*
X814843Y164331D03*
X718739Y164422D03*
D436*
X744297Y164422D03*
D211*
X787502Y164422D03*
D208*
X814843Y164422D03*
X718739Y164514D03*
D436*
X744297Y164514D03*
D268*
X787457Y164514D03*
D208*
X814843Y164514D03*
D392*
X718739Y164605D03*
D448*
X744297Y164605D03*
D449*
X787457Y164605D03*
D392*
X814843Y164605D03*
D208*
X718739Y164697D03*
D436*
X744297Y164697D03*
D280*
X787457Y164697D03*
D208*
X814843Y164697D03*
X718739Y164788D03*
D436*
X744297Y164788D03*
D284*
X787457Y164788D03*
D208*
X814843Y164788D03*
X718739Y164880D03*
D436*
X744297Y164880D03*
D286*
X787502Y164880D03*
D208*
X814843Y164880D03*
X718739Y164971D03*
D436*
X744297Y164971D03*
D290*
X787502Y164971D03*
D208*
X814843Y164971D03*
X718739Y165063D03*
D436*
X744297Y165063D03*
D295*
X787502Y165063D03*
D208*
X814843Y165063D03*
X718739Y165154D03*
D436*
X744297Y165154D03*
D309*
X787457Y165154D03*
D208*
X814843Y165154D03*
X718739Y165245D03*
D436*
X744297Y165245D03*
D177*
X787457Y165245D03*
D208*
X814843Y165245D03*
X718739Y165337D03*
D436*
X744297Y165337D03*
D317*
X787457Y165337D03*
D208*
X814843Y165337D03*
X718739Y165428D03*
D436*
X744297Y165428D03*
D323*
X787502Y165428D03*
D400*
X797515Y165428D03*
D208*
X814843Y165428D03*
X718739Y165520D03*
D436*
X744297Y165520D03*
D155*
X787457Y165520D03*
D409*
X797561Y165520D03*
D208*
X814843Y165520D03*
X718739Y165611D03*
D436*
X744297Y165611D03*
D340*
X787502Y165611D03*
D420*
X797561Y165611D03*
D208*
X814843Y165611D03*
D392*
X718739Y165703D03*
D448*
X744297Y165703D03*
D450*
X787457Y165703D03*
D451*
X797515Y165703D03*
D392*
X814843Y165703D03*
D208*
X718739Y165794D03*
D436*
X744297Y165794D03*
D359*
X787457Y165794D03*
D452*
X797515Y165794D03*
D208*
X814843Y165794D03*
X718739Y165886D03*
D436*
X744297Y165886D03*
D453*
X787502Y165886D03*
D454*
X797515Y165886D03*
D208*
X814843Y165886D03*
X718739Y165977D03*
D436*
X744297Y165977D03*
D455*
X787457Y165977D03*
D456*
X797515Y165977D03*
D208*
X814843Y165977D03*
X718739Y166068D03*
D436*
X744297Y166068D03*
D420*
X787502Y166068D03*
D340*
X797561Y166068D03*
D208*
X814843Y166068D03*
X718739Y166160D03*
D436*
X744297Y166160D03*
D410*
X787502Y166160D03*
D155*
X797515Y166160D03*
D208*
X814843Y166160D03*
X718739Y166251D03*
D436*
X744297Y166251D03*
D399*
X787502Y166251D03*
D323*
X797561Y166251D03*
D208*
X814843Y166251D03*
X718739Y166343D03*
D436*
X744297Y166343D03*
D317*
X797515Y166343D03*
D208*
X814843Y166343D03*
X718739Y166434D03*
D436*
X744297Y166434D03*
D177*
X797515Y166434D03*
D208*
X814843Y166434D03*
X718739Y166526D03*
D436*
X744297Y166526D03*
D309*
X797515Y166526D03*
D208*
X814843Y166526D03*
X718739Y166617D03*
D436*
X744297Y166617D03*
D429*
X797515Y166617D03*
D208*
X814843Y166617D03*
X718739Y166708D03*
D436*
X744297Y166708D03*
D457*
X797561Y166708D03*
D208*
X814843Y166708D03*
X718739Y166800D03*
D436*
X744297Y166800D03*
D199*
X797515Y166800D03*
D208*
X814843Y166800D03*
D392*
X718739Y166891D03*
D448*
X744297Y166891D03*
D458*
X797515Y166891D03*
D392*
X814843Y166891D03*
D208*
X718739Y166983D03*
D436*
X744297Y166983D03*
D204*
X797515Y166983D03*
D208*
X814843Y166983D03*
X718739Y167074D03*
D436*
X744297Y167074D03*
D206*
X797515Y167074D03*
D208*
X814843Y167074D03*
X718739Y167166D03*
D436*
X744297Y167166D03*
D209*
X797561Y167166D03*
D208*
X814843Y167166D03*
X718739Y167257D03*
D436*
X744297Y167257D03*
D211*
X797561Y167257D03*
D208*
X814843Y167257D03*
X718739Y167349D03*
D436*
X744297Y167349D03*
D215*
X797515Y167349D03*
D208*
X814843Y167349D03*
X718739Y167440D03*
D436*
X744297Y167440D03*
D218*
X797515Y167440D03*
D208*
X814843Y167440D03*
X718739Y167531D03*
D436*
X744297Y167531D03*
D219*
X797561Y167531D03*
D208*
X814843Y167531D03*
X718739Y167623D03*
D436*
X744297Y167623D03*
D261*
X797515Y167623D03*
D208*
X814843Y167623D03*
X718739Y167714D03*
D436*
X744297Y167714D03*
D260*
X797561Y167714D03*
D208*
X814843Y167714D03*
X718739Y167806D03*
D436*
X744297Y167806D03*
D150*
X797515Y167806D03*
D208*
X814843Y167806D03*
X718739Y167897D03*
D436*
X744297Y167897D03*
D156*
X797561Y167897D03*
D208*
X814843Y167897D03*
D392*
X718739Y167989D03*
D448*
X744297Y167989D03*
D255*
X797515Y167989D03*
D392*
X814843Y167989D03*
D208*
X718739Y168080D03*
D436*
X744297Y168080D03*
D169*
X797561Y168080D03*
D208*
X814843Y168080D03*
X718739Y168172D03*
D436*
X744297Y168172D03*
D184*
X797515Y168172D03*
D208*
X814843Y168172D03*
X718739Y168263D03*
D436*
X744297Y168263D03*
D188*
X797561Y168263D03*
D208*
X814843Y168263D03*
X718739Y168354D03*
D436*
X744297Y168354D03*
D195*
X797515Y168354D03*
D208*
X814843Y168354D03*
X718739Y168446D03*
D436*
X744297Y168446D03*
D197*
X797561Y168446D03*
D208*
X814843Y168446D03*
X718739Y168537D03*
D436*
X744297Y168537D03*
D197*
X797561Y168537D03*
D208*
X814843Y168537D03*
X718739Y168629D03*
D436*
X744297Y168629D03*
D369*
X797515Y168629D03*
D208*
X814843Y168629D03*
X718739Y168720D03*
D436*
X744297Y168720D03*
D459*
X797561Y168720D03*
D208*
X814843Y168720D03*
X718739Y168812D03*
D436*
X744297Y168812D03*
D459*
X797561Y168812D03*
D208*
X814843Y168812D03*
X718739Y168903D03*
D436*
X744297Y168903D03*
D175*
X797515Y168903D03*
D208*
X814843Y168903D03*
X718739Y168994D03*
D436*
X744297Y168994D03*
D175*
X797515Y168994D03*
D208*
X814843Y168994D03*
D205*
X718785Y169086D03*
D436*
X744297Y169086D03*
D460*
X797561Y169086D03*
D208*
X814843Y169086D03*
D384*
X718785Y169177D03*
D448*
X744297Y169177D03*
D461*
X797561Y169177D03*
D392*
X814843Y169177D03*
D205*
X718785Y169269D03*
D436*
X744297Y169269D03*
D460*
X797561Y169269D03*
D208*
X814843Y169269D03*
D205*
X718785Y169360D03*
D436*
X744297Y169360D03*
D462*
X797515Y169360D03*
D208*
X814843Y169360D03*
D205*
X718785Y169452D03*
D436*
X744297Y169452D03*
D462*
X797515Y169452D03*
D205*
X814797Y169452D03*
X718785Y169543D03*
D436*
X744297Y169543D03*
D462*
X797515Y169543D03*
D205*
X814797Y169543D03*
X718785Y169635D03*
D436*
X744297Y169635D03*
D462*
X797515Y169635D03*
D205*
X814797Y169635D03*
X718785Y169726D03*
D436*
X744297Y169726D03*
D462*
X797515Y169726D03*
D205*
X814797Y169726D03*
X718785Y169817D03*
D436*
X744297Y169817D03*
D462*
X797515Y169817D03*
D205*
X814797Y169817D03*
X718785Y169909D03*
D436*
X744297Y169909D03*
D462*
X797515Y169909D03*
D205*
X814797Y169909D03*
X718785Y170000D03*
D436*
X744297Y170000D03*
D462*
X797515Y170000D03*
D205*
X814797Y170000D03*
X718785Y170092D03*
D436*
X744297Y170092D03*
D462*
X797515Y170092D03*
D205*
X814797Y170092D03*
X718785Y170183D03*
D436*
X744297Y170183D03*
D462*
X797515Y170183D03*
D205*
X814797Y170183D03*
D392*
X718831Y170275D03*
D448*
X744297Y170275D03*
D463*
X797515Y170275D03*
D384*
X814797Y170275D03*
D205*
X718877Y170366D03*
D436*
X744297Y170366D03*
D462*
X797515Y170366D03*
D205*
X814797Y170366D03*
X718877Y170458D03*
D436*
X744297Y170458D03*
D462*
X797515Y170458D03*
D205*
X814797Y170458D03*
X718877Y170549D03*
D436*
X744297Y170549D03*
D462*
X797515Y170549D03*
D152*
X814751Y170549D03*
D205*
X718877Y170640D03*
D436*
X744297Y170640D03*
D462*
X797515Y170640D03*
D152*
X814751Y170640D03*
D205*
X718877Y170732D03*
D436*
X744297Y170732D03*
D460*
X797561Y170732D03*
D152*
X814751Y170732D03*
D205*
X718877Y170823D03*
D436*
X744297Y170823D03*
D460*
X797561Y170823D03*
D152*
X814751Y170823D03*
D205*
X718877Y170915D03*
D436*
X744297Y170915D03*
D460*
X797561Y170915D03*
D205*
X814706Y170915D03*
X718877Y171006D03*
D436*
X744297Y171006D03*
D175*
X797515Y171006D03*
D205*
X814706Y171006D03*
D152*
X718922Y171098D03*
D436*
X744297Y171098D03*
D175*
X797515Y171098D03*
D205*
X814706Y171098D03*
D152*
X718922Y171189D03*
D436*
X744297Y171189D03*
D175*
X797515Y171189D03*
D152*
X814660Y171189D03*
X718922Y171280D03*
D436*
X744297Y171280D03*
D459*
X797561Y171280D03*
D152*
X814660Y171280D03*
X718922Y171372D03*
D436*
X744297Y171372D03*
D369*
X797515Y171372D03*
D152*
X814660Y171372D03*
D221*
X718922Y171463D03*
D448*
X744297Y171463D03*
D370*
X797515Y171463D03*
D221*
X814660Y171463D03*
D152*
X718922Y171555D03*
D436*
X744297Y171555D03*
D197*
X797561Y171555D03*
D152*
X814660Y171555D03*
D201*
X718968Y171646D03*
D436*
X744297Y171646D03*
D195*
X797515Y171646D03*
D152*
X814660Y171646D03*
D201*
X718968Y171738D03*
D436*
X744297Y171738D03*
D195*
X797515Y171738D03*
D201*
X814614Y171738D03*
X718968Y171829D03*
D436*
X744297Y171829D03*
D188*
X797561Y171829D03*
D201*
X814614Y171829D03*
X718968Y171921D03*
D436*
X744297Y171921D03*
D184*
X797515Y171921D03*
D201*
X814614Y171921D03*
X718968Y172012D03*
D436*
X744297Y172012D03*
D169*
X797561Y172012D03*
D201*
X814614Y172012D03*
X719059Y172103D03*
D436*
X744297Y172103D03*
D164*
X797515Y172103D03*
D201*
X814614Y172103D03*
X719059Y172195D03*
D436*
X744297Y172195D03*
D156*
X797561Y172195D03*
D198*
X814568Y172195D03*
D201*
X719059Y172286D03*
D436*
X744297Y172286D03*
D150*
X797515Y172286D03*
D201*
X814523Y172286D03*
X719059Y172378D03*
D436*
X744297Y172378D03*
D260*
X797561Y172378D03*
D201*
X814523Y172378D03*
D216*
X719105Y172469D03*
D436*
X744297Y172469D03*
D261*
X797515Y172469D03*
D201*
X814523Y172469D03*
D464*
X719105Y172561D03*
D448*
X744297Y172561D03*
D465*
X797515Y172561D03*
D466*
X814477Y172561D03*
D216*
X719105Y172652D03*
D436*
X744297Y172652D03*
D262*
X797561Y172652D03*
D198*
X814477Y172652D03*
D216*
X719105Y172744D03*
D436*
X744297Y172744D03*
D215*
X797515Y172744D03*
D198*
X814477Y172744D03*
D213*
X719151Y172835D03*
D436*
X744297Y172835D03*
D268*
X797515Y172835D03*
D198*
X814477Y172835D03*
D216*
X719197Y172926D03*
D436*
X744297Y172926D03*
D209*
X797561Y172926D03*
D193*
X814431Y172926D03*
D216*
X719197Y173018D03*
D436*
X744297Y173018D03*
D467*
X797561Y173018D03*
D193*
X814431Y173018D03*
D216*
X719197Y173109D03*
D436*
X744297Y173109D03*
D202*
X797561Y173109D03*
D198*
X814386Y173109D03*
D213*
X719242Y173201D03*
D436*
X744297Y173201D03*
D284*
X797515Y173201D03*
D198*
X814386Y173201D03*
D213*
X719242Y173292D03*
D436*
X744297Y173292D03*
D199*
X797515Y173292D03*
D213*
X814340Y173292D03*
X719242Y173384D03*
D436*
X744297Y173384D03*
D194*
X797515Y173384D03*
D213*
X814340Y173384D03*
D210*
X719288Y173475D03*
D186*
X744251Y173475D03*
D429*
X797515Y173475D03*
D213*
X814340Y173475D03*
D210*
X719288Y173566D03*
D186*
X744251Y173566D03*
D313*
X797561Y173566D03*
D210*
X814294Y173566D03*
D213*
X719334Y173658D03*
D186*
X744251Y173658D03*
D173*
X797561Y173658D03*
D210*
X814294Y173658D03*
D468*
X719334Y173749D03*
D383*
X744251Y173749D03*
D469*
X797515Y173749D03*
D468*
X814248Y173749D03*
D210*
X719379Y173841D03*
D186*
X744251Y173841D03*
D160*
X797515Y173841D03*
D210*
X814203Y173841D03*
X719379Y173932D03*
D186*
X744251Y173932D03*
D338*
X797561Y173932D03*
D210*
X814203Y173932D03*
X719379Y174024D03*
D186*
X744251Y174024D03*
D427*
X797515Y174024D03*
D210*
X814203Y174024D03*
D207*
X719425Y174115D03*
D186*
X744251Y174115D03*
D353*
X797515Y174115D03*
D207*
X814157Y174115D03*
D210*
X719471Y174207D03*
D186*
X744251Y174207D03*
D470*
X797561Y174207D03*
D207*
X814157Y174207D03*
X719517Y174298D03*
D186*
X744251Y174298D03*
D422*
X797515Y174298D03*
D210*
X814111Y174298D03*
D207*
X719517Y174389D03*
D186*
X744251Y174389D03*
D421*
X797515Y174389D03*
D207*
X814066Y174389D03*
X719517Y174481D03*
D186*
X744251Y174481D03*
D417*
X797561Y174481D03*
D207*
X814066Y174481D03*
D186*
X719562Y174572D03*
X744251Y174572D03*
D433*
X797515Y174572D03*
D207*
X814066Y174572D03*
X719608Y174664D03*
D186*
X744251Y174664D03*
D441*
X797561Y174664D03*
D186*
X814020Y174664D03*
D207*
X719608Y174755D03*
D186*
X744251Y174755D03*
D207*
X813974Y174755D03*
D383*
X719654Y174847D03*
X744251Y174847D03*
X813928Y174847D03*
D186*
X719654Y174938D03*
X744251Y174938D03*
X813928Y174938D03*
D203*
X719699Y175030D03*
D186*
X744251Y175030D03*
X813928Y175030D03*
D322*
X719745Y175121D03*
D186*
X744251Y175121D03*
D203*
X813883Y175121D03*
D322*
X719745Y175212D03*
D186*
X744251Y175212D03*
X813837Y175212D03*
D367*
X719791Y175304D03*
D186*
X744251Y175304D03*
D203*
X813791Y175304D03*
D367*
X719791Y175395D03*
D186*
X744251Y175395D03*
D203*
X813791Y175395D03*
D257*
X719837Y175487D03*
D186*
X744251Y175487D03*
D203*
X813791Y175487D03*
D367*
X719882Y175578D03*
D186*
X744251Y175578D03*
D200*
X813746Y175578D03*
D257*
X719928Y175670D03*
D186*
X744251Y175670D03*
D367*
X813700Y175670D03*
D257*
X719928Y175761D03*
D186*
X744251Y175761D03*
D257*
X813654Y175761D03*
D196*
X719974Y175852D03*
D186*
X744251Y175852D03*
D257*
X813654Y175852D03*
D200*
X720020Y175944D03*
D186*
X744251Y175944D03*
D258*
X813608Y175944D03*
D181*
X720020Y176035D03*
D383*
X744251Y176035D03*
D471*
X813563Y176035D03*
D196*
X720065Y176127D03*
D186*
X744251Y176127D03*
D196*
X813517Y176127D03*
X720065Y176218D03*
D186*
X744251Y176218D03*
D196*
X813517Y176218D03*
X720157Y176310D03*
D186*
X744251Y176310D03*
D176*
X813471Y176310D03*
X720202Y176401D03*
D186*
X744251Y176401D03*
D196*
X813425Y176401D03*
D176*
X720202Y176493D03*
D186*
X744251Y176493D03*
D176*
X813380Y176493D03*
D189*
X720248Y176584D03*
D186*
X744251Y176584D03*
D176*
X813380Y176584D03*
X720294Y176675D03*
D186*
X744251Y176675D03*
D176*
X813288Y176675D03*
D189*
X720340Y176767D03*
D186*
X744251Y176767D03*
D176*
X813288Y176767D03*
D189*
X720340Y176858D03*
D186*
X744251Y176858D03*
D189*
X813243Y176858D03*
X720431Y176950D03*
D186*
X744251Y176950D03*
D172*
X813197Y176950D03*
D189*
X720431Y177041D03*
D186*
X744251Y177041D03*
D189*
X813151Y177041D03*
D179*
X720477Y177133D03*
D383*
X744251Y177133D03*
D179*
X813105Y177133D03*
D172*
X720568Y177224D03*
D186*
X744251Y177224D03*
D172*
X813105Y177224D03*
X720568Y177316D03*
D186*
X744251Y177316D03*
D172*
X813014Y177316D03*
D174*
X720614Y177407D03*
D186*
X744251Y177407D03*
D174*
X812968Y177407D03*
X720614Y177498D03*
D186*
X744251Y177498D03*
D174*
X812968Y177498D03*
X720705Y177590D03*
D186*
X744251Y177590D03*
D174*
X812877Y177590D03*
D170*
X720751Y177681D03*
D186*
X744251Y177681D03*
D174*
X812877Y177681D03*
D170*
X720751Y177773D03*
D186*
X744251Y177773D03*
D170*
X812831Y177773D03*
D472*
X720842Y177864D03*
D186*
X744251Y177864D03*
D170*
X812740Y177864D03*
D165*
X720888Y177956D03*
D186*
X744251Y177956D03*
D170*
X812740Y177956D03*
D165*
X720888Y178047D03*
D186*
X744251Y178047D03*
D167*
X812694Y178047D03*
D165*
X720980Y178138D03*
D186*
X744251Y178138D03*
D165*
X812603Y178138D03*
D161*
X721025Y178230D03*
D186*
X744251Y178230D03*
D165*
X812603Y178230D03*
D473*
X721071Y178321D03*
D383*
X744251Y178321D03*
D474*
X812557Y178321D03*
D161*
X721117Y178413D03*
D186*
X744251Y178413D03*
D161*
X812465Y178413D03*
D157*
X721163Y178504D03*
D186*
X744251Y178504D03*
D161*
X812465Y178504D03*
X721208Y178596D03*
D186*
X744251Y178596D03*
D157*
X812420Y178596D03*
X721254Y178687D03*
D186*
X744251Y178687D03*
D157*
X812328Y178687D03*
D151*
X721300Y178779D03*
D186*
X744251Y178779D03*
D151*
X812282Y178779D03*
D475*
X721391Y178870D03*
D186*
X744251Y178870D03*
D157*
X812237Y178870D03*
D475*
X721391Y178961D03*
D186*
X744251Y178961D03*
D151*
X812191Y178961D03*
D475*
X721483Y179053D03*
D186*
X744251Y179053D03*
D154*
X812145Y179053D03*
D275*
X721528Y179144D03*
D186*
X744251Y179144D03*
D154*
X812054Y179144D03*
D279*
X721574Y179236D03*
D186*
X744251Y179236D03*
D378*
X812008Y179236D03*
D279*
X721665Y179327D03*
D186*
X744251Y179327D03*
D275*
X811962Y179327D03*
D476*
X721665Y179419D03*
D383*
X744251Y179419D03*
D476*
X811917Y179419D03*
D378*
X721757Y179510D03*
D186*
X744251Y179510D03*
D477*
X811871Y179510D03*
D263*
X721803Y179602D03*
D186*
X744251Y179602D03*
D263*
X811780Y179602D03*
D264*
X721848Y179693D03*
D186*
X744251Y179693D03*
D264*
X811734Y179693D03*
X721940Y179784D03*
D186*
X744251Y179784D03*
D264*
X811642Y179784D03*
D159*
X721985Y179876D03*
D186*
X744251Y179876D03*
D264*
X811642Y179876D03*
D159*
X722077Y179967D03*
D186*
X744251Y179967D03*
D159*
X811597Y179967D03*
D265*
X722123Y180059D03*
D186*
X744251Y180059D03*
D159*
X811505Y180059D03*
X722168Y180150D03*
D186*
X744251Y180150D03*
D265*
X811460Y180150D03*
X722214Y180242D03*
D186*
X744251Y180242D03*
D265*
X811368Y180242D03*
D287*
X722260Y180333D03*
D186*
X744251Y180333D03*
D287*
X811322Y180333D03*
X722351Y180424D03*
D186*
X744251Y180424D03*
D287*
X811231Y180424D03*
D267*
X722397Y180516D03*
D186*
X744251Y180516D03*
D267*
X811185Y180516D03*
D478*
X722488Y180607D03*
D383*
X744251Y180607D03*
D478*
X811094Y180607D03*
D479*
X722534Y180699D03*
D186*
X744251Y180699D03*
D270*
X811048Y180699D03*
D479*
X722626Y180790D03*
D186*
X744251Y180790D03*
D270*
X810957Y180790D03*
D480*
X722671Y180882D03*
D186*
X744251Y180882D03*
D480*
X810911Y180882D03*
X722763Y180973D03*
X810819Y180973D03*
D481*
X722808Y181065D03*
X810774Y181065D03*
D482*
X722946Y181156D03*
D481*
X810682Y181156D03*
D153*
X722991Y181247D03*
D482*
X810637Y181247D03*
D153*
X723083Y181339D03*
X810499Y181339D03*
D281*
X723128Y181430D03*
X810454Y181430D03*
D483*
X723220Y181522D03*
D281*
X810362Y181522D03*
D308*
X723266Y181613D03*
D283*
X810317Y181613D03*
D484*
X723357Y181705D03*
X810225Y181705D03*
D285*
X723449Y181796D03*
D485*
X810179Y181796D03*
D285*
X723540Y181888D03*
X810042Y181888D03*
X723631Y181979D03*
D288*
X809996Y181979D03*
X723677Y182070D03*
X809905Y182070D03*
D289*
X723814Y182162D03*
D318*
X809814Y182162D03*
X723860Y182253D03*
X809722Y182253D03*
X723951Y182345D03*
X809631Y182345D03*
D294*
X724043Y182436D03*
X809539Y182436D03*
X724134Y182528D03*
X809448Y182528D03*
D259*
X724271Y182619D03*
D296*
X809402Y182619D03*
D486*
X724317Y182710D03*
X809265Y182710D03*
D487*
X724454Y182802D03*
D486*
X809174Y182802D03*
D488*
X724500Y182893D03*
X809082Y182893D03*
D489*
X724637Y182985D03*
D490*
X808991Y182985D03*
D489*
X724729Y183076D03*
D385*
X808899Y183076D03*
D310*
X724820Y183168D03*
X808762Y183168D03*
D314*
X724957Y183259D03*
D310*
X808671Y183259D03*
D491*
X725003Y183351D03*
D345*
X808579Y183351D03*
D315*
X725140Y183442D03*
D492*
X808442Y183442D03*
D316*
X725277Y183533D03*
D493*
X808305Y183533D03*
D320*
X725369Y183625D03*
D494*
X808259Y183625D03*
D354*
X725506Y183716D03*
D320*
X808122Y183716D03*
D357*
X725643Y183808D03*
D354*
X807985Y183808D03*
D326*
X725735Y183899D03*
D360*
X807893Y183899D03*
D495*
X725872Y183991D03*
D496*
X807756Y183991D03*
D497*
X726009Y184082D03*
X807573Y184082D03*
D330*
X726146Y184174D03*
D498*
X807482Y184174D03*
D499*
X726237Y184265D03*
X807345Y184265D03*
D500*
X726420Y184356D03*
X807162Y184356D03*
D344*
X726557Y184448D03*
D501*
X807070Y184448D03*
D348*
X726695Y184539D03*
X806888Y184539D03*
D352*
X726878Y184631D03*
D350*
X806750Y184631D03*
D358*
X727060Y184722D03*
D355*
X806567Y184722D03*
D502*
X727243Y184814D03*
D361*
X806430Y184814D03*
D503*
X727380Y184905D03*
X806202Y184905D03*
D504*
X727563Y184996D03*
X806019Y184996D03*
D505*
X727792Y185088D03*
D506*
X805790Y185088D03*
D507*
X728021Y185179D03*
D508*
X805607Y185179D03*
D509*
X728203Y185271D03*
X805379Y185271D03*
D510*
X728523Y185362D03*
D511*
X805104Y185362D03*
D512*
X728843Y185454D03*
D513*
X804784Y185454D03*
D514*
X729255Y185545D03*
D515*
X804373Y185545D03*
D516*
X766837Y185637D03*
D115*
X766791Y185728D03*
D114*
X766791Y185819D03*
D113*
X766791Y185911D03*
D111*
X766791Y186002D03*
D110*
X766791Y186094D03*
D517*
X766837Y186185D03*
D518*
X766791Y186277D03*
D108*
X766791Y186368D03*
D107*
X766791Y186460D03*
D519*
X766791Y186551D03*
D520*
X766791Y186642D03*
D103*
X766791Y186734D03*
D102*
X766791Y186825D03*
D101*
X766791Y186917D03*
D521*
X766837Y187008D03*
D522*
X766837Y187100D03*
D523*
X766837Y187191D03*
D524*
X766837Y187282D03*
D525*
X766837Y187374D03*
D526*
X766791Y187465D03*
D95*
X766791Y187557D03*
D527*
X766791Y187648D03*
D93*
X766791Y187740D03*
D528*
X766837Y187831D03*
D529*
X766837Y187923D03*
D530*
X766837Y188014D03*
D531*
X766837Y188105D03*
D87*
X766791Y188197D03*
D86*
X766791Y188288D03*
D532*
X766791Y188380D03*
D533*
X766791Y188471D03*
D534*
X766791Y188563D03*
D83*
X766791Y188654D03*
D82*
X766791Y188746D03*
D535*
X766837Y188837D03*
D536*
X766837Y188928D03*
D537*
X766791Y189020D03*
D538*
X766791Y189111D03*
D77*
X766791Y189203D03*
D76*
X766791Y189294D03*
D539*
X766837Y189386D03*
D540*
X766791Y189477D03*
D73*
X766791Y189568D03*
D72*
X766791Y189660D03*
D541*
X766791Y189751D03*
D542*
X766791Y189843D03*
D543*
X766791Y189934D03*
D544*
X766791Y190026D03*
D545*
X766791Y190117D03*
D66*
X766791Y190209D03*
D546*
X766791Y190300D03*
D64*
X766791Y190391D03*
D547*
X766791Y190483D03*
D548*
X766791Y190574D03*
D549*
X766837Y190666D03*
D550*
X766791Y190757D03*
D551*
X766837Y190849D03*
D552*
X766791Y190940D03*
D553*
X766791Y191032D03*
D554*
X766791Y191123D03*
D555*
X766791Y191214D03*
D556*
X766837Y191306D03*
D557*
X766791Y191397D03*
D558*
X766791Y191489D03*
D559*
X766837Y191580D03*
D50*
X766791Y191672D03*
D560*
X766791Y191763D03*
D561*
X766791Y191854D03*
D562*
X766791Y191946D03*
D563*
X766791Y192037D03*
D564*
X766837Y192129D03*
D565*
X766837Y192220D03*
D566*
X766837Y192312D03*
D567*
X766837Y192403D03*
D568*
X766791Y192495D03*
D569*
X766791Y192586D03*
D570*
X766791Y192677D03*
D571*
X766791Y192769D03*
D572*
X766837Y192860D03*
D573*
X766791Y192952D03*
D574*
X766791Y193043D03*
D575*
X766791Y193135D03*
D576*
X766791Y193226D03*
D577*
X766791Y193318D03*
D578*
X766837Y193409D03*
D579*
X766791Y193500D03*
D580*
X766791Y193592D03*
D581*
X766791Y193683D03*
D582*
X766837Y193775D03*
D583*
X766791Y193866D03*
D584*
X766791Y193958D03*
D585*
X766791Y194049D03*
D586*
X766837Y194140D03*
D587*
X766837Y194232D03*
D588*
X766791Y194323D03*
D589*
X766837Y194415D03*
D590*
X766791Y194506D03*
D591*
X766837Y194598D03*
D592*
X766791Y194689D03*
D593*
X766837Y194781D03*
D594*
X766791Y194872D03*
D595*
X915500Y464000D02*
X915500Y536000D01*
X915500Y464000D02*
X885500Y464000D01*
X885500Y536000D01*
X915500Y536000D01*
D596*
X915500Y464000D01*
X885500Y464000D01*
X885500Y536000D01*
X915500Y536000D01*
D597*
X935500Y526000D03*
D595*
X935562Y525998D01*
X935623Y525992D01*
X935684Y525983D01*
X935744Y525970D01*
X935803Y525953D01*
X935861Y525932D01*
X935918Y525908D01*
X935973Y525881D01*
X936026Y525850D01*
X936078Y525816D01*
X936127Y525779D01*
X936174Y525739D01*
X936218Y525696D01*
X936259Y525651D01*
X936298Y525603D01*
X936334Y525552D01*
X936366Y525500D01*
X936395Y525446D01*
X936421Y525390D01*
X936443Y525332D01*
X936462Y525274D01*
X936477Y525214D01*
X936488Y525153D01*
X936496Y525092D01*
X936500Y525031D01*
X936500Y524969D01*
X936496Y524908D01*
X936488Y524847D01*
X936477Y524786D01*
X936462Y524726D01*
X936443Y524668D01*
X936421Y524610D01*
X936395Y524554D01*
X936366Y524500D01*
X936334Y524448D01*
X936298Y524397D01*
X936259Y524349D01*
X936218Y524304D01*
X936174Y524261D01*
X936127Y524221D01*
X936078Y524184D01*
X936026Y524150D01*
X935973Y524119D01*
X935918Y524092D01*
X935861Y524068D01*
X935803Y524047D01*
X935744Y524030D01*
X935684Y524017D01*
X935623Y524008D01*
X935562Y524002D01*
X935500Y524000D01*
D597*
X935500Y524000D03*
D595*
X935438Y524002D01*
X935377Y524008D01*
X935316Y524017D01*
X935256Y524030D01*
X935197Y524047D01*
X935139Y524068D01*
X935082Y524092D01*
X935027Y524119D01*
X934974Y524150D01*
X934922Y524184D01*
X934873Y524221D01*
X934826Y524261D01*
X934782Y524304D01*
X934741Y524349D01*
X934702Y524397D01*
X934666Y524448D01*
X934634Y524500D01*
X934605Y524554D01*
X934579Y524610D01*
X934557Y524668D01*
X934538Y524726D01*
X934523Y524786D01*
X934512Y524847D01*
X934504Y524908D01*
X934500Y524969D01*
X934500Y525031D01*
X934504Y525092D01*
X934512Y525153D01*
X934523Y525214D01*
X934538Y525274D01*
X934557Y525332D01*
X934579Y525390D01*
X934605Y525446D01*
X934634Y525500D01*
X934666Y525552D01*
X934702Y525603D01*
X934741Y525651D01*
X934782Y525696D01*
X934826Y525739D01*
X934873Y525779D01*
X934922Y525816D01*
X934974Y525850D01*
X935027Y525881D01*
X935082Y525908D01*
X935139Y525932D01*
X935197Y525953D01*
X935256Y525970D01*
X935316Y525983D01*
X935377Y525992D01*
X935438Y525998D01*
X935500Y526000D01*
X885500Y500000D02*
X875500Y500000D01*
X875500Y515000D01*
X885500Y515000D01*
D596*
X875500Y515000D01*
X875500Y500000D01*
X885500Y500000D01*
D598*
X897246Y497721D02*
X897345Y497719D01*
X897445Y497713D01*
X897544Y497704D01*
X897642Y497691D01*
X897740Y497674D01*
X897838Y497653D01*
X897934Y497628D01*
X898029Y497600D01*
X898123Y497568D01*
X898216Y497533D01*
X898308Y497494D01*
X898398Y497451D01*
X898486Y497406D01*
X898573Y497356D01*
X898657Y497304D01*
X898740Y497248D01*
X898820Y497190D01*
X898898Y497128D01*
X898973Y497063D01*
X899046Y496995D01*
X899116Y496925D01*
X899184Y496852D01*
X899249Y496777D01*
X899311Y496699D01*
X899369Y496619D01*
X899425Y496536D01*
X899477Y496452D01*
X899527Y496365D01*
X899572Y496277D01*
X899615Y496187D01*
X899654Y496095D01*
X899689Y496002D01*
X899721Y495908D01*
X899749Y495813D01*
X899774Y495717D01*
X899795Y495619D01*
X899812Y495521D01*
X899825Y495423D01*
X899834Y495324D01*
X899840Y495224D01*
X899842Y495125D01*
X899840Y494981D01*
X899834Y494836D01*
X899825Y494692D01*
X899812Y494549D01*
X899795Y494405D01*
X899774Y494262D01*
X899749Y494120D01*
X899721Y493979D01*
X899689Y493838D01*
X899653Y493698D01*
X899614Y493559D01*
X899571Y493421D01*
X899524Y493285D01*
X899474Y493149D01*
X899420Y493015D01*
X899363Y492883D01*
X899302Y492752D01*
X899238Y492623D01*
X899170Y492495D01*
X899100Y492369D01*
X899025Y492245D01*
X898948Y492124D01*
X898867Y492004D01*
X898784Y491886D01*
X898697Y491771D01*
X898607Y491658D01*
X898514Y491547D01*
X898419Y491439D01*
X898320Y491333D01*
X898219Y491230D01*
X890754Y491555D02*
X890655Y491557D01*
X890555Y491563D01*
X890456Y491572D01*
X890358Y491585D01*
X890260Y491602D01*
X890162Y491623D01*
X890066Y491648D01*
X889971Y491676D01*
X889877Y491708D01*
X889784Y491743D01*
X889692Y491782D01*
X889602Y491825D01*
X889514Y491870D01*
X889427Y491920D01*
X889343Y491972D01*
X889260Y492028D01*
X889180Y492086D01*
X889102Y492148D01*
X889027Y492213D01*
X888954Y492281D01*
X888884Y492351D01*
X888816Y492424D01*
X888751Y492499D01*
X888689Y492577D01*
X888631Y492657D01*
X888575Y492740D01*
X888523Y492824D01*
X888473Y492911D01*
X888428Y492999D01*
X888385Y493089D01*
X888346Y493181D01*
X888311Y493274D01*
X888279Y493368D01*
X888251Y493463D01*
X888226Y493559D01*
X888205Y493657D01*
X888188Y493755D01*
X888175Y493853D01*
X888166Y493952D01*
X888160Y494052D01*
X888158Y494151D01*
X888160Y494287D01*
X888166Y494423D01*
X888175Y494559D01*
X888188Y494695D01*
X888206Y494830D01*
X888226Y494964D01*
X888251Y495098D01*
X888279Y495232D01*
X888312Y495364D01*
X888347Y495495D01*
X888387Y495626D01*
X888430Y495755D01*
X888476Y495883D01*
X888527Y496009D01*
X888580Y496135D01*
X888638Y496258D01*
X888698Y496380D01*
X888762Y496500D01*
X888830Y496619D01*
X888900Y496735D01*
X888974Y496849D01*
X889051Y496962D01*
X889132Y497072D01*
X893026Y492852D02*
X892973Y492766D01*
X892916Y492682D01*
X892857Y492600D01*
X892794Y492520D01*
X892728Y492443D01*
X892660Y492368D01*
X892588Y492296D01*
X892514Y492227D01*
X892437Y492161D01*
X892358Y492098D01*
X892276Y492038D01*
X892192Y491981D01*
X892106Y491927D01*
X892018Y491877D01*
X891928Y491830D01*
X891837Y491786D01*
X891743Y491747D01*
X891649Y491710D01*
X891553Y491678D01*
X891455Y491649D01*
X891357Y491624D01*
X891258Y491603D01*
X891158Y491585D01*
X891058Y491572D01*
X890957Y491562D01*
X890855Y491556D01*
X890754Y491554D01*
X894974Y496423D02*
X895027Y496509D01*
X895084Y496593D01*
X895143Y496675D01*
X895206Y496755D01*
X895272Y496832D01*
X895340Y496907D01*
X895412Y496979D01*
X895486Y497048D01*
X895563Y497114D01*
X895642Y497177D01*
X895724Y497237D01*
X895808Y497294D01*
X895894Y497348D01*
X895982Y497398D01*
X896072Y497445D01*
X896163Y497489D01*
X896257Y497528D01*
X896351Y497565D01*
X896447Y497597D01*
X896545Y497626D01*
X896643Y497651D01*
X896742Y497672D01*
X896842Y497690D01*
X896942Y497703D01*
X897043Y497713D01*
X897145Y497719D01*
X897246Y497721D01*
X894974Y496423D02*
X893026Y492853D01*
X888158Y505849D02*
X888160Y505956D01*
X888166Y506062D01*
X888176Y506168D01*
X888189Y506274D01*
X888207Y506380D01*
X888228Y506484D01*
X888253Y506588D01*
X888282Y506691D01*
X888314Y506792D01*
X888351Y506892D01*
X888391Y506991D01*
X888434Y507089D01*
X888481Y507185D01*
X888532Y507279D01*
X888586Y507371D01*
X888643Y507461D01*
X888703Y507549D01*
X888767Y507634D01*
X888834Y507717D01*
X888904Y507798D01*
X888976Y507876D01*
X889052Y507952D01*
X889130Y508024D01*
X889211Y508094D01*
X889294Y508161D01*
X889379Y508225D01*
X889467Y508285D01*
X889557Y508342D01*
X889649Y508396D01*
X889743Y508447D01*
X889839Y508494D01*
X889937Y508537D01*
X890036Y508577D01*
X890136Y508614D01*
X890237Y508646D01*
X890340Y508675D01*
X890444Y508700D01*
X890548Y508721D01*
X890654Y508739D01*
X890760Y508752D01*
X890866Y508762D01*
X890972Y508768D01*
X891079Y508770D01*
X888158Y505849D02*
X888160Y505728D01*
X888166Y505607D01*
X888176Y505487D01*
X888189Y505366D01*
X888207Y505247D01*
X888228Y505127D01*
X888253Y505009D01*
X888282Y504892D01*
X888315Y504775D01*
X888351Y504660D01*
X888392Y504546D01*
X888435Y504433D01*
X888483Y504321D01*
X888534Y504212D01*
X888589Y504104D01*
X888647Y503997D01*
X888708Y503893D01*
X888773Y503791D01*
X888841Y503691D01*
X888912Y503593D01*
X888986Y503497D01*
X889063Y503404D01*
X889144Y503314D01*
X889227Y503226D01*
X889313Y503141D01*
X889402Y503058D01*
X889493Y502979D01*
X889587Y502902D01*
X889683Y502829D01*
X889781Y502759D01*
X889882Y502692D01*
X889985Y502628D01*
X890090Y502568D01*
X890197Y502510D01*
X890305Y502457D01*
X890415Y502407D01*
X890527Y502361D01*
X890640Y502318D01*
X890755Y502279D01*
X893351Y507796D02*
X893273Y507875D01*
X893193Y507951D01*
X893110Y508024D01*
X893024Y508094D01*
X892937Y508161D01*
X892846Y508225D01*
X892754Y508285D01*
X892660Y508343D01*
X892563Y508397D01*
X892465Y508447D01*
X892365Y508494D01*
X892264Y508538D01*
X892161Y508578D01*
X892056Y508614D01*
X891951Y508646D01*
X891844Y508675D01*
X891737Y508700D01*
X891628Y508722D01*
X891519Y508739D01*
X891410Y508753D01*
X891300Y508762D01*
X891189Y508768D01*
X891079Y508770D01*
X893351Y507796D02*
X899842Y502279D01*
X899842Y508770D01*
M02*
